<?xml version="1.0" encoding="utf-8"?>
<!-- Generator: Adobe Illustrator 25.2.1, SVG Export Plug-In . SVG Version: 6.00 Build 0)  -->
<svg version="1.1" id="Layer_1" xmlns="http://www.w3.org/2000/svg" xmlns:xlink="http://www.w3.org/1999/xlink" x="0px" y="0px"
	 viewBox="0 0 800 700" style="enable-background:new 0 0 800 700;" xml:space="preserve">
<style type="text/css">
	.st0{fill:#DFE4E5;}
	.st1{fill:none;stroke:#008855;stroke-width:3.9;stroke-linecap:round;stroke-linejoin:round;stroke-miterlimit:10;}
	.st2{fill:#008855;}
	.st3{opacity:7.000000e-02;clip-path:url(#SVGID_2_);enable-background:new    ;}
	.st4{fill:#B7BBBC;}
	.st5{fill:#F5FCFC;}
	.st6{fill:#A6ACAD;}
	.st7{opacity:7.000000e-02;enable-background:new    ;}
	.st8{fill:#00B16E;}
	.st9{opacity:0.1;}
	.st10{clip-path:url(#SVGID_4_);}
	.st11{clip-path:url(#SVGID_6_);}
	.st12{fill:#008A50;}
	.st13{fill:none;stroke:#FFFFFF;stroke-width:1.9306;stroke-linecap:round;stroke-linejoin:round;stroke-miterlimit:10;}
</style>
<g>
	<polygon class="st0" points="467.4,404.2 332.6,404.2 332.6,269.5 399.7,219.9 467.4,269.5 	"/>
	<polyline class="st1" points="331.6,270.2 399.7,219.9 468.4,270.2 	"/>
	<g>
		<g>
			<path class="st2" d="M410.4,182.6h-20.8c-1.3,0-2.3-1-2.3-2.3s1-2.3,2.3-2.3h20.8c1.3,0,2.3,1,2.3,2.3S411.7,182.6,410.4,182.6z"
				/>
		</g>
		<g>
			<path class="st2" d="M400,222.6c-1.3,0-2.3-1-2.3-2.3v-52.9c0-1.3,1-2.3,2.3-2.3s2.3,1,2.3,2.3v52.9
				C402.3,221.6,401.3,222.6,400,222.6z"/>
		</g>
	</g>
	<g>
		<path class="st2" d="M409.4,318.8l-18.7,0.1v-47.3c0-4.1,4.2-7.5,9.4-7.6l0,0c5.2,0,9.4,3.3,9.4,7.4L409.4,318.8L409.4,318.8z"/>
	</g>
	<g>
		<g>
			<defs>
				<polygon id="SVGID_1_" points="467.4,404.2 332.6,404.2 332.6,269.5 399.7,219.9 467.4,269.5 				"/>
			</defs>
			<clipPath id="SVGID_2_">
				<use xlink:href="#SVGID_1_"  style="overflow:visible;"/>
			</clipPath>
			<polyline class="st3" points="311.4,398.6 399.6,333.5 488.6,398.7 			"/>
		</g>
	</g>
	<polygon class="st0" points="487.3,580.3 312.7,580.3 312.7,405.8 399.6,341.6 487.3,405.8 	"/>
	<g>
		<rect x="419.1" y="509.9" class="st0" width="121.2" height="69.6"/>
	</g>
	<g>
		<polyline class="st0" points="475.5,461.5 508.2,485.7 538.9,509.9 475.5,509.9 		"/>
	</g>
	<g>
		<rect x="259.6" y="509.9" class="st0" width="121.2" height="69.6"/>
	</g>
	<g>
		<polyline class="st0" points="324.4,461.5 291.7,485.7 261,509.9 324.4,509.9 		"/>
	</g>
	<g>
		<g>
			<rect x="351.8" y="463.1" class="st4" width="11.4" height="116.9"/>
		</g>
		<g>
			<rect x="436.7" y="463.1" class="st4" width="11.4" height="116.9"/>
		</g>
		<g>
			<rect x="371.3" y="463.1" class="st4" width="57.4" height="116.9"/>
		</g>
		<g>
			<path class="st2" d="M400,477.4L400,477.4c-15.9,0-28.7,12.9-28.7,28.7V580h57.4v-73.9C428.7,490.3,415.9,477.4,400,477.4z"/>
		</g>
	</g>
	<g>
		<path class="st2" d="M312.1,562.5h-28.5V521c0-7.9,6.4-14.3,14.3-14.3l0,0c7.9,0,14.3,6.4,14.3,14.3L312.1,562.5L312.1,562.5z"/>
	</g>
	<g>
		<path class="st5" d="M312.3,563.1h-28.9c-0.6,0-1-0.5-1-1s0.5-1,1-1h28.9c0.6,0,1,0.5,1,1S312.8,563.1,312.3,563.1z"/>
	</g>
	<g>
		<path class="st5" d="M298,562.9c-0.8,0-1.4-0.6-1.4-1.4v-54.8c0-0.8,0.6-1.4,1.4-1.4s1.4,0.6,1.4,1.4v54.8
			C299.4,562.3,298.7,562.9,298,562.9z"/>
	</g>
	<g>
		<path class="st5" d="M312.3,526.7h-28.9c-0.7,0-1.2-0.6-1.2-1.2c0-0.7,0.6-1.2,1.2-1.2h28.9c0.7,0,1.2,0.6,1.2,1.2
			C313.5,526.1,313,526.7,312.3,526.7z"/>
	</g>
	<g>
		<path class="st5" d="M312.3,546.1h-28.9c-0.7,0-1.2-0.6-1.2-1.2s0.6-1.2,1.2-1.2h28.9c0.7,0,1.2,0.6,1.2,1.2
			S313,546.1,312.3,546.1z"/>
	</g>
	<g>
		<path class="st6" d="M573.8,583.9H226.2c-1.1,0-1.9-1.5-1.9-3.3s0.9-3.3,1.9-3.3h347.6c1.1,0,1.9,1.5,1.9,3.3
			C575.7,582.5,574.9,583.9,573.8,583.9z"/>
	</g>
	<polyline class="st1" points="311.5,406.8 399.6,341.6 488.6,406.8 	"/>
	<polygon class="st7" points="351.8,577.2 448.1,577.2 408.3,532.6 351.8,473.6 	"/>
	<g>
		<rect x="368.8" y="576.6" class="st8" width="62.5" height="7.5"/>
	</g>
	<polygon class="st7" points="314.1,577.6 309.1,577.6 309.1,472.8 314.1,468.6 	"/>
	<g>
		<path class="st2" d="M487.7,562.5h28.5V521c0-7.9-6.4-14.3-14.3-14.3l0,0c-7.9,0-14.3,6.4-14.3,14.3L487.7,562.5L487.7,562.5z"/>
	</g>
	<g>
		<path class="st5" d="M487.6,563.1h28.9c0.6,0,1-0.5,1-1s-0.5-1-1-1h-28.9c-0.6,0-1,0.5-1,1S487,563.1,487.6,563.1z"/>
	</g>
	<g>
		<path class="st5" d="M501.9,562.9c0.8,0,1.4-0.6,1.4-1.4v-54.8c0-0.8-0.6-1.4-1.4-1.4s-1.4,0.6-1.4,1.4v54.8
			C500.5,562.3,501.1,562.9,501.9,562.9z"/>
	</g>
	<g>
		<path class="st5" d="M487.6,526.7h28.9c0.7,0,1.2-0.6,1.2-1.2c0-0.7-0.6-1.2-1.2-1.2h-28.9c-0.7,0-1.2,0.6-1.2,1.2
			C486.4,526.1,486.9,526.7,487.6,526.7z"/>
	</g>
	<g>
		<path class="st5" d="M487.6,546.1h28.9c0.7,0,1.2-0.6,1.2-1.2s-0.6-1.2-1.2-1.2h-28.9c-0.7,0-1.2,0.6-1.2,1.2
			S486.9,546.1,487.6,546.1z"/>
	</g>
	<g>
		<path class="st2" d="M259.4,511.8c-0.6,0-1.1-0.3-1.5-0.7c-0.6-0.8-0.5-2,0.4-2.6l50.4-38.2c0.8-0.6,2-0.5,2.6,0.4
			c0.6,0.8,0.5,2-0.4,2.6l-50.4,38.2C260.2,511.6,259.8,511.8,259.4,511.8z"/>
	</g>
	<rect x="487.6" y="471.7" class="st7" width="5.1" height="105.9"/>
	<g>
		<path class="st2" d="M540.5,511.8c0.6,0,1.1-0.3,1.5-0.7c0.6-0.8,0.5-2-0.4-2.6l-50.4-38.2c-0.8-0.6-2-0.5-2.6,0.4
			c-0.6,0.8-0.5,2,0.4,2.6l50.4,38.2C539.7,511.6,540.1,511.8,540.5,511.8z"/>
	</g>
	<path class="st2" d="M280.1,577.3c0-6.7-5.5-12.2-12.2-12.2s-12.2,5.5-12.2,12.2c0,0.2,0,0.3,0,0.5h24.4
		C280.1,577.6,280.1,577.4,280.1,577.3z"/>
	<g class="st9">
		<g>
			<defs>
				<path id="SVGID_3_" d="M264,577.3c0-6.2-5-11.2-11.2-11.2s-11.2,5-11.2,11.2c0,0.1,0,0.3,0,0.4H264
					C264,577.6,264,577.4,264,577.3z"/>
			</defs>
			<clipPath id="SVGID_4_">
				<use xlink:href="#SVGID_3_"  style="overflow:visible;"/>
			</clipPath>
			<path class="st10" d="M280.1,577.3c0-6.7-5.5-12.2-12.2-12.2s-12.2,5.5-12.2,12.2c0,0.2,0,0.3,0,0.5h24.4
				C280.1,577.6,280.1,577.4,280.1,577.3z"/>
		</g>
	</g>
	<path class="st2" d="M262,577.3c0-6.2-5-11.2-11.2-11.2s-11.2,5-11.2,11.2c0,0.1,0,0.3,0,0.4H262C262,577.6,262,577.4,262,577.3z"
		/>
	<path class="st2" d="M559.8,577.3c0-6.7-5.5-12.2-12.2-12.2s-12.2,5.5-12.2,12.2c0,0.2,0,0.3,0,0.5h24.4
		C559.8,577.6,559.8,577.4,559.8,577.3z"/>
	<g class="st9">
		<g>
			<defs>
				<path id="SVGID_5_" d="M543.8,577.3c0-6.2-5-11.2-11.2-11.2s-11.2,5-11.2,11.2c0,0.1,0,0.3,0,0.4h22.3
					C543.7,577.6,543.8,577.4,543.8,577.3z"/>
			</defs>
			<clipPath id="SVGID_6_">
				<use xlink:href="#SVGID_5_"  style="overflow:visible;"/>
			</clipPath>
			<path class="st11" d="M559.8,577.3c0-6.7-5.5-12.2-12.2-12.2s-12.2,5.5-12.2,12.2c0,0.2,0,0.3,0,0.5h24.4
				C559.8,577.6,559.8,577.4,559.8,577.3z"/>
		</g>
	</g>
	<path class="st2" d="M541.7,577.3c0-6.2-5-11.2-11.2-11.2s-11.2,5-11.2,11.2c0,0.1,0,0.3,0,0.4h22.3
		C541.7,577.6,541.7,577.4,541.7,577.3z"/>
	<g>
		<circle class="st12" cx="400" cy="413.5" r="12.7"/>
		<line class="st13" x1="387.5" y1="413.5" x2="412.7" y2="413.5"/>
	</g>
</g>
</svg>
