<?xml version="1.0" encoding="utf-8"?>
<!-- Generator: Adobe Illustrator 25.2.1, SVG Export Plug-In . SVG Version: 6.00 Build 0)  -->
<svg version="1.1" id="Layer_1" xmlns="http://www.w3.org/2000/svg" xmlns:xlink="http://www.w3.org/1999/xlink" x="0px" y="0px"
	 viewBox="0 0 800 700" style="enable-background:new 0 0 800 700;" xml:space="preserve">
<style type="text/css">
	.st0{fill:#008855;}
	.st1{fill:#B7BBBC;}
	.st2{fill:#004B2E;}
	.st3{opacity:0.1;enable-background:new    ;}
	.st4{fill:#008049;}
	.st5{fill:#00B467;}
	.st6{fill:#DDE3E4;}
	.st7{fill:#008A50;}
	.st8{fill:none;stroke:#FFFFFF;stroke-width:2.4227;stroke-linecap:round;stroke-linejoin:round;stroke-miterlimit:10;}
	.st9{fill:#F5FCFC;}
	.st10{opacity:7.000000e-02;enable-background:new    ;}
	.st11{fill:#A4ABAC;}
</style>
<g>
	<g>
		<path class="st0" d="M645.8,579.4c0-18-14.6-32.7-32.7-32.7c-18,0-32.7,14.6-32.7,32.7c0,0.4,0,0.8,0,1.3h65.3
			C645.8,580.2,645.8,579.8,645.8,579.4z"/>
		<g>
			<g>
				<path class="st1" d="M604.1,488.2c-0.8,0-1.4-0.6-1.4-1.4v-8.2c0-0.8,0.6-1.4,1.4-1.4c0.8,0,1.4,0.6,1.4,1.4v8.2
					C605.5,487.6,604.9,488.2,604.1,488.2z"/>
			</g>
			<g>
				<path class="st1" d="M622.2,488.2c-0.8,0-1.4-0.6-1.4-1.4v-8.2c0-0.8,0.6-1.4,1.4-1.4c0.8,0,1.4,0.6,1.4,1.4v8.2
					C623.6,487.6,623,488.2,622.2,488.2z"/>
			</g>
			<path class="st1" d="M616.3,507.6c0-3.7-0.2-6.9,0.1-10.1c0.2-1.8,1.7-3.1,3.5-3.9c2.2-0.9,4.4-1.8,6.6-2.7
				c1.2-0.5,1.8-0.1,1.8,1.2c0,2.2,0,4.4,0,6.6c0,2.1-1.2,3.8-2.9,4.7C622.5,505,619.5,506.1,616.3,507.6z"/>
			<path class="st1" d="M616.3,522.5c0-3.7-0.2-6.9,0.1-10.1c0.2-1.8,1.7-3.1,3.5-3.9c2.2-0.9,4.4-1.8,6.6-2.7
				c1.2-0.5,1.8-0.1,1.8,1.2c0,2.2,0,4.4,0,6.6c0,2.1-1.2,3.8-2.9,4.7C622.5,519.9,619.5,521.1,616.3,522.5z"/>
			<path class="st1" d="M616.3,537.7c0-3.7-0.2-6.9,0.1-10.1c0.2-1.8,1.7-3.1,3.5-3.9c2.2-0.9,4.4-1.8,6.6-2.7
				c1.2-0.5,1.8-0.1,1.8,1.2c0,2.2,0,4.4,0,6.6c0,2.1-1.2,3.8-2.9,4.7C622.5,535.1,619.5,536.2,616.3,537.7z"/>
			<path class="st1" d="M610,537.7c0-3.7,0.2-6.9-0.1-10.1c-0.2-1.8-1.7-3.1-3.5-3.9c-2.2-0.9-4.4-1.8-6.6-2.7
				c-1.2-0.5-1.8-0.1-1.8,1.2c0,2.2,0,4.4,0,6.6c0,2.1,1.2,3.8,2.9,4.7C603.8,535.1,606.8,536.2,610,537.7z"/>
			<path class="st1" d="M610,522.4c0-3.7,0.2-6.9-0.1-10.1c-0.2-1.8-1.7-3.1-3.5-3.9c-2.2-0.9-4.4-1.8-6.6-2.7
				c-1.2-0.5-1.8-0.1-1.8,1.2c0,2.2,0,4.4,0,6.6c0,2.1,1.2,3.8,2.9,4.7C603.8,519.8,606.8,520.9,610,522.4z"/>
			<path class="st1" d="M610,507.7c0-3.7,0.2-6.9-0.1-10.1c-0.2-1.8-1.7-3.1-3.5-3.9c-2.2-0.9-4.4-1.8-6.6-2.7
				c-1.2-0.5-1.8-0.1-1.8,1.2c0,2.2,0,4.4,0,6.6c0,2.1,1.2,3.8,2.9,4.7C603.8,505.1,606.8,506.3,610,507.7z"/>
			<g>
				<path class="st2" d="M613.1,552.5c-0.8,0-1.4-0.6-1.4-1.4v-77.8c0-0.8,0.6-1.4,1.4-1.4c0.8,0,1.4,0.6,1.4,1.4v77.8
					C614.6,551.9,613.9,552.5,613.1,552.5z"/>
			</g>
		</g>
		<path class="st0" d="M595.7,578c0-16.5-13.4-29.9-29.9-29.9S536,561.5,536,578c0,0.4,0,0.8,0,1.2h59.7
			C595.7,578.8,595.7,578.4,595.7,578z"/>
		<g>
			<g>
				<path class="st1" d="M554.7,473.4c-1,0-1.8-0.8-1.8-1.8v-10.1c0-1,0.8-1.8,1.8-1.8s1.8,0.8,1.8,1.8v10.1
					C556.4,472.6,555.6,473.4,554.7,473.4z"/>
			</g>
			<g>
				<path class="st1" d="M577.1,473.4c-1,0-1.8-0.8-1.8-1.8v-10.1c0-1,0.8-1.8,1.8-1.8s1.8,0.8,1.8,1.8v10.1
					C578.8,472.6,578,473.4,577.1,473.4z"/>
			</g>
			<path class="st1" d="M569.7,497.3c0-4.5-0.3-8.5,0.1-12.5c0.2-2.3,2.1-3.9,4.3-4.8c2.7-1.2,5.5-2.2,8.2-3.3
				c1.5-0.6,2.2-0.1,2.2,1.5c0,2.7,0,5.5,0,8.2c-0.1,2.6-1.5,4.7-3.6,5.8C577.4,494.1,573.7,495.5,569.7,497.3z"/>
			<path class="st1" d="M569.7,515.8c0-4.5-0.3-8.5,0.1-12.5c0.2-2.3,2.1-3.9,4.3-4.8c2.7-1.2,5.5-2.2,8.2-3.3
				c1.5-0.6,2.2-0.1,2.2,1.5c0,2.7,0,5.5,0,8.2c-0.1,2.6-1.5,4.7-3.6,5.8C577.4,512.6,573.7,514,569.7,515.8z"/>
			<path class="st1" d="M569.7,534.5c0-4.5-0.3-8.5,0.1-12.5c0.2-2.3,2.1-3.9,4.3-4.8c2.7-1.2,5.5-2.2,8.2-3.3
				c1.5-0.6,2.2-0.1,2.2,1.5c0,2.7,0,5.5,0,8.2c-0.1,2.6-1.5,4.7-3.6,5.8C577.4,531.3,573.7,532.7,569.7,534.5z"/>
			<path class="st1" d="M562,534.5c0-4.5,0.3-8.5-0.1-12.5c-0.2-2.3-2.1-3.9-4.3-4.8c-2.7-1.2-5.5-2.2-8.2-3.3
				c-1.5-0.6-2.2-0.1-2.2,1.5c0,2.7,0,5.5,0,8.2c0.1,2.6,1.5,4.7,3.6,5.8C554.3,531.3,558,532.7,562,534.5z"/>
			<path class="st1" d="M562,515.6c0-4.5,0.3-8.5-0.1-12.5c-0.2-2.3-2.1-3.9-4.3-4.8c-2.7-1.2-5.5-2.2-8.2-3.3
				c-1.5-0.6-2.2-0.1-2.2,1.5c0,2.7,0,5.5,0,8.2c0.1,2.6,1.5,4.7,3.6,5.8C554.3,512.4,558,513.8,562,515.6z"/>
			<path class="st1" d="M562,497.5c0-4.5,0.3-8.5-0.1-12.5c-0.2-2.3-2.1-3.9-4.3-4.8c-2.7-1.2-5.5-2.2-8.2-3.3
				c-1.5-0.6-2.2-0.1-2.2,1.5c0,2.7,0,5.5,0,8.2c0.1,2.6,1.5,4.7,3.6,5.8C554.3,494.3,558,495.7,562,497.5z"/>
			<g>
				<path class="st2" d="M565.9,552.8c-1,0-1.8-0.8-1.8-1.8v-96c0-1,0.8-1.8,1.8-1.8s1.8,0.8,1.8,1.8v96.1
					C567.6,552,566.8,552.8,565.9,552.8z"/>
			</g>
		</g>
		<path class="st1" d="M509.3,580.8H387.1V263.3c0-9.9,8-17.9,17.9-17.9h86.4c9.9,0,17.9,8,17.9,17.9V580.8z"/>
		<rect x="387.1" y="251.1" class="st3" width="31.6" height="328.6"/>
		<path class="st0" d="M473.8,213.2h-51.4c-19.6,0-35.5,17-35.5,37.9v25.8h122.4v-25.8C509.3,230.2,493.4,213.2,473.8,213.2z"/>
		<g>
			<rect x="149.8" y="372.6" class="st4" width="25.5" height="7.7"/>
			<rect x="482.9" y="372.6" class="st4" width="28.7" height="9.7"/>
			<polygon class="st5" points="330.6,273 511.6,372.6 330.7,372.6 149.8,372.6 			"/>
			<polygon class="st6" points="482.9,372.6 329,288.7 175.3,372.6 175.3,372.6 175.3,578.6 482.9,578.6 			"/>
			<polygon class="st3" points="175.3,372.6 175.3,378.9 328.8,296.4 482.9,379.1 482.9,372.6 329,288.7 			"/>
			<rect x="222.8" y="402.1" class="st0" width="212.7" height="182"/>
		</g>
		<g>
			<circle class="st7" cx="330.7" cy="364.5" r="16"/>
			<line class="st8" x1="315" y1="364.5" x2="346.6" y2="364.5"/>
		</g>
		<g>
			<g>
				<path class="st9" d="M301.8,578.4h-60.1c-5.1,0-9.3-4.2-9.3-9.4V416.8c0-5.2,4.2-9.4,9.3-9.4h60.1c5.1,0,9.3,4.2,9.3,9.4V569
					C311.1,574.1,306.9,578.4,301.8,578.4z M241.8,412.4c-2.4,0-4.3,2-4.3,4.4V569c0,2.4,2,4.4,4.3,4.4h60.1c2.4,0,4.4-2,4.4-4.4
					V416.8c0-2.4-2-4.4-4.4-4.4H241.8z"/>
			</g>
			<g>
				<path class="st9" d="M305.6,574.9c-0.9,0-1.7-0.5-2.1-1.5l-66.1-161.1c-0.5-1.2,0-2.7,1.2-3.2s2.5,0,3,1.3l66.1,161.1
					c0.5,1.2,0,2.7-1.2,3.2C306.2,574.8,305.9,574.9,305.6,574.9z"/>
			</g>
			<g>
				<path class="st9" d="M236.3,572.6c-0.3,0-0.7-0.1-1-0.2c-1.2-0.5-1.8-2-1.3-3.2l69-158.9c0.5-1.2,2-1.8,3.2-1.3s1.8,2,1.3,3.2
					l-69,158.9C238.1,572.1,237.2,572.6,236.3,572.6z"/>
			</g>
			<g>
				<path class="st9" d="M418,578.4h-60c-5.1,0-9.3-4.2-9.3-9.4V416.8c0-5.2,4.2-9.4,9.3-9.4h60c5.1,0,9.3,4.2,9.3,9.4V569
					C427.3,574.1,423.1,578.4,418,578.4z M358,412.4c-2.4,0-4.4,2-4.4,4.4V569c0,2.4,2,4.4,4.4,4.4h60c2.4,0,4.4-2,4.4-4.4V416.8
					c0-2.4-2-4.4-4.4-4.4H358z"/>
			</g>
			<g>
				<path class="st9" d="M421.8,574.9c-0.9,0-1.7-0.5-2.1-1.5l-66.1-161.1c-0.5-1.2,0-2.7,1.2-3.2s2.5,0,3,1.3l66.1,161.1
					c0.5,1.2,0,2.7-1.2,3.2C422.4,574.8,422.1,574.9,421.8,574.9z"/>
			</g>
			<g>
				<path class="st9" d="M352.5,572.6c-0.3,0-0.7-0.1-1-0.2c-1.2-0.5-1.8-2-1.3-3.2l69-158.9c0.5-1.2,2-1.8,3.2-1.3s1.8,2,1.3,3.2
					l-69,158.9C354.3,572.1,353.4,572.6,352.5,572.6z"/>
			</g>
		</g>
	</g>
	<polygon class="st10" points="174.8,578 301.6,578 249.3,517 174.8,436.4 	"/>
	<g>
		<path class="st11" d="M692.5,584.1h-585c-1.8,0-3.3-1.3-3.3-2.9s1.5-2.9,3.3-2.9h585c1.8,0,3.3,1.3,3.3,2.9
			S694.3,584.1,692.5,584.1z"/>
	</g>
</g>
</svg>
