<?xml version="1.0" encoding="utf-8"?>
<!-- Generator: Adobe Illustrator 25.2.1, SVG Export Plug-In . SVG Version: 6.00 Build 0)  -->
<svg version="1.1" id="Layer_1" xmlns="http://www.w3.org/2000/svg" xmlns:xlink="http://www.w3.org/1999/xlink" x="0px" y="0px"
	 viewBox="0 0 800 700" style="enable-background:new 0 0 800 700;" xml:space="preserve">
<style type="text/css">
	.st0{fill:#979A9B;}
	.st1{opacity:0.1;}
	.st2{fill:#B7BBBC;}
	.st3{fill:#008855;}
	.st4{fill:#A6ACAD;}
	.st5{fill:#DFE4E5;}
	.st6{opacity:0.1;clip-path:url(#SVGID_2_);}
	.st7{fill:#004B2E;}
	.st8{opacity:0.1;clip-path:url(#SVGID_4_);}
</style>
<g>
	<g>
		<path class="st0" d="M484.5,464.9c2.8-2.8,7.2-2.8,9.9,0l54.5,54.9l59.5,59.9h-119h-119l59.5-59.9L484.5,464.9z"/>
	</g>
	<g class="st1">
		<path d="M489.3,465.3l0.1,112.1c0,1.3,1,2.3,2.2,2.3H603c2,0,3-2.5,1.5-3.9L493.1,463.7C491.7,462.3,489.3,463.3,489.3,465.3z"/>
	</g>
	<g>
		<path class="st2" d="M365.4,450.1c3.9-3.1,10.1-3.1,13.9,0l76.6,62.1l83.5,67.8H372.4H205.3l83.5-67.8L365.4,450.1z"/>
	</g>
	<g class="st1">
		<path d="M372.2,450.6l0.2,126.8c0,1.4,1.4,2.6,3.1,2.6h156.3c2.8,0,4.2-2.8,2.2-4.4L377.5,448.8
			C375.5,447.2,372.2,448.3,372.2,450.6z"/>
	</g>
	<g>
		<polygon class="st3" points="340.5,577.2 317,577.2 321,319.4 336.4,319.4 		"/>
	</g>
	<g class="st1">
		<path d="M432.4,578.9c0-11.8-9.1-21.4-20.4-21.4c-11.3,0-20.4,9.6-20.4,21.4c0,0,0,0,0,0c0,0.5,0.3,0.8,0.6,0.8l39.5,0
			C432.1,579.7,432.4,579.4,432.4,578.9C432.4,578.9,432.4,578.9,432.4,578.9z"/>
	</g>
	<g>
		<path class="st4" d="M639.5,583.9H160.5c-1.6,0-3-1.3-3-3c0-1.6,1.3-3,3-3h478.9c1.6,0,3,1.3,3,3
			C642.4,582.6,641.1,583.9,639.5,583.9z"/>
	</g>
	<g>
		<path class="st5" d="M429.1,578.9c0-11.8-9.1-21.4-20.4-21.4c-11.3,0-20.4,9.6-20.4,21.4c0,0,0,0,0,0c0,0.5,0.3,0.8,0.6,0.8
			l39.5,0C428.8,579.7,429.1,579.4,429.1,578.9C429.1,578.9,429.1,578.9,429.1,578.9z"/>
	</g>
	<g>
		<g>
			<path class="st3" d="M337.7,321.2l-20.5-3.4c-1.7-0.3-2.9-1.9-2.6-3.6l18.3-109.4c1.2-7.4,8.2-12.4,15.6-11.1l0,0
				c7.4,1.2,12.4,8.2,11.1,15.6l-18.3,109.4C341,320.3,339.4,321.5,337.7,321.2z"/>
		</g>
		<g class="st1">
			<path d="M348.6,193.6c7.3,1.2,11.8,8.8,11.2,14.8L342,313.8l-13.4-2.3"/>
		</g>
	</g>
	<g>
		<g>
			<path class="st3" d="M323,313.6l-3.1,3.3c-4.2,4.6-3.9,11.7,0.6,16l75.5,69.7c5.5,5.1,14.1,4.7,19.2-0.8v0
				c5.1-5.5,4.7-14.1-0.8-19.2L339,313C334.4,308.7,327.3,309,323,313.6z"/>
		</g>
		<g class="st1">
			<path d="M415.4,401.7c5-5.5,3.9-14.2-0.2-18.5l-78.7-72.3l-9.2,10"/>
		</g>
	</g>
	<g class="st1">
		<polygon points="336.8,347.7 326.2,337.7 315.6,327.7 336.8,327.7 		"/>
	</g>
	<g>
		<path class="st3" d="M324.3,302.7l7.4,19.3c0.6,1.7-0.2,3.5-1.9,4.1l-103.5,39.5c-7,2.7-14.8-0.8-17.5-7.8l0,0
			c-2.7-7,0.8-14.8,7.8-17.5l103.5-39.5C321.8,300.3,323.6,301.1,324.3,302.7z"/>
	</g>
	<g class="st1">
		<path d="M208.7,357.8c-2.6-7,1.7-14.6,7.1-17.1l99.9-38l4.8,12.7"/>
	</g>
	<g>
		<path class="st2" d="M381.5,254.8c-0.4,0-0.8-0.1-1.1-0.4c-13.8-13.1-31.9-20.3-51-20.3c-0.9,0-1.6-0.7-1.6-1.6
			c0-0.9,0.7-1.6,1.6-1.6c19.8,0,38.7,7.5,53.1,21.1c0.6,0.6,0.7,1.6,0.1,2.2C382.3,254.6,381.9,254.8,381.5,254.8z"/>
	</g>
	<g>
		<path class="st2" d="M381.8,388.7c-0.5,0-0.9-0.2-1.2-0.6c-0.5-0.7-0.4-1.7,0.2-2.2c20.3-16.3,32-40.6,32-66.6
			c0-0.9,0.7-1.6,1.6-1.6s1.6,0.7,1.6,1.6c0,27-12.1,52.1-33.2,69C382.5,388.6,382.2,388.7,381.8,388.7z"/>
	</g>
	<g>
		<path class="st2" d="M416.4,282.3c-0.6,0-1.2-0.4-1.4-1c-15.3-36.2-50.6-59.5-89.8-59.5c-9.7,0-19.3,1.4-28.5,4.2
			c-0.8,0.3-1.7-0.2-1.9-1c-0.3-0.8,0.2-1.7,1-1.9c9.5-2.9,19.4-4.4,29.4-4.4c40.5,0,76.9,24.1,92.7,61.4c0.3,0.8,0,1.7-0.8,2
			C416.8,282.3,416.6,282.3,416.4,282.3z"/>
	</g>
	<g>
		<path class="st2" d="M367.3,409.5c-0.6,0-1.2-0.3-1.4-0.9c-0.4-0.8,0-1.7,0.8-2.1c32.5-14.6,54.3-45.7,56.9-81.2
			c0.1-0.9,0.8-1.5,1.7-1.4c0.9,0.1,1.5,0.8,1.4,1.7c-2.7,36.6-25.2,68.7-58.8,83.8C367.7,409.4,367.5,409.5,367.3,409.5z"/>
	</g>
	<g>
		<path class="st2" d="M324.5,408.9c-49.1,0-89-39.9-89-89c0-24.9,10.5-48.8,28.9-65.7c0.6-0.6,1.6-0.5,2.2,0.1
			c0.6,0.6,0.5,1.6-0.1,2.2c-17.7,16.2-27.9,39.3-27.9,63.4c0,47.3,38.5,85.9,85.9,85.9c0.9,0,1.6,0.7,1.6,1.6
			C326.1,408.2,325.4,408.9,324.5,408.9z"/>
	</g>
	<g>
		<path class="st2" d="M285,450c-0.1,0-0.3,0-0.5-0.1c-58.6-17.9-97.9-71.2-97.9-132.5c0-0.9,0.7-1.6,1.6-1.6c0.9,0,1.6,0.7,1.6,1.6
			c0,59.9,38.5,111.9,95.7,129.5c0.8,0.3,1.3,1.1,1,1.9C286.3,449.6,285.7,450,285,450z"/>
	</g>
	<g>
		<path class="st2" d="M462.1,319c-0.9,0-1.6-0.7-1.6-1.6c0-74.7-60.7-135.4-135.4-135.4c-24.6,0-48.8,6.7-69.8,19.3
			c-0.7,0.4-1.7,0.2-2.1-0.5c-0.4-0.7-0.2-1.7,0.5-2.1c21.5-12.9,46.2-19.8,71.4-19.8c76.4,0,138.5,62.1,138.5,138.5
			C463.6,318.3,462.9,319,462.1,319z"/>
	</g>
	<g>
		<circle class="st5" cx="325.6" cy="316" r="16.7"/>
	</g>
	<g>
		<defs>
			<path id="SVGID_1_" d="M484.5,464.9c2.8-2.8,7.2-2.8,9.9,0l54.5,54.9l59.5,59.9h-119h-119l59.5-59.9L484.5,464.9z"/>
		</defs>
		<clipPath id="SVGID_2_">
			<use xlink:href="#SVGID_1_"  style="overflow:visible;"/>
		</clipPath>
		<g class="st6">
			<path d="M450.5,481.9l2.3-2.9c2.9-3.6,8.3-3.6,11.1,0l2.3,2.9c4.5,5.7,6.9,12.8,6.9,20.1v41.4c0,8.2-6.7,14.9-14.9,14.9h0
				c-8.2,0-14.9-6.7-14.9-14.9v-41.2C443.4,494.8,445.9,487.7,450.5,481.9z"/>
		</g>
	</g>
	<g>
		<path class="st3" d="M447,481.9l2.3-2.9c2.9-3.6,8.3-3.6,11.1,0l2.3,2.9c4.5,5.7,6.9,12.8,6.9,20.1v41.4c0,8.2-6.7,14.9-14.9,14.9
			h0c-8.2,0-14.9-6.7-14.9-14.9v-41.2C439.9,494.8,442.4,487.7,447,481.9z"/>
	</g>
	<g>
		<path class="st7" d="M454.6,578.7c-0.9,0-1.6-0.7-1.6-1.6v-64.2c0-0.9,0.7-1.6,1.6-1.6s1.6,0.7,1.6,1.6v64.2
			C456.2,578,455.5,578.7,454.6,578.7z"/>
	</g>
	<g>
		<defs>
			<path id="SVGID_3_" d="M365.4,450.1c3.9-3.1,10.1-3.1,13.9,0l76.6,62.1l83.5,67.8H372.4H205.3l83.5-67.8L365.4,450.1z"/>
		</defs>
		<clipPath id="SVGID_4_">
			<use xlink:href="#SVGID_3_"  style="overflow:visible;"/>
		</clipPath>
		<g class="st8">
			<path d="M256.4,487.8l2.3-2.9c2.9-3.6,8.3-3.6,11.1,0l2.3,2.9c4.5,5.7,6.9,12.8,6.9,20.1v41.4c0,8.2-6.7,14.9-14.9,14.9h0
				c-8.2,0-14.9-6.7-14.9-14.9v-41.2C249.3,500.8,251.8,493.6,256.4,487.8z"/>
		</g>
	</g>
	<g>
		<path class="st3" d="M253.5,486.3l2.3-2.9c2.9-3.6,8.3-3.6,11.1,0l2.3,2.9c4.5,5.7,6.9,12.8,6.9,20.1v41.4
			c0,8.2-6.7,14.9-14.9,14.9h0c-8.2,0-14.9-6.7-14.9-14.9v-41.2C246.4,499.2,248.9,492.1,253.5,486.3z"/>
	</g>
	<g>
		<path class="st7" d="M261.1,578.7c-1,0-1.8-0.7-1.8-1.7v-59.9c0-0.9,0.8-1.7,1.8-1.7s1.8,0.7,1.8,1.7v59.9
			C262.9,578,262.1,578.7,261.1,578.7z"/>
	</g>
</g>
</svg>
