<?xml version="1.0" encoding="utf-8"?>
<!-- Generator: Adobe Illustrator 25.2.1, SVG Export Plug-In . SVG Version: 6.00 Build 0)  -->
<svg version="1.1" id="Layer_1" xmlns="http://www.w3.org/2000/svg" xmlns:xlink="http://www.w3.org/1999/xlink" x="0px" y="0px"
	 viewBox="0 0 800 700" style="enable-background:new 0 0 800 700;" xml:space="preserve">
<style type="text/css">
	.st0{fill:#DFE4E5;}
	.st1{opacity:0.1;}
	.st2{fill:#B7BBBC;}
	.st3{fill:#008855;}
	.st4{fill:#004B2E;}
	.st5{opacity:0.15;}
	.st6{fill:#A6ACAD;}
	.st7{fill:#008A50;}
	.st8{fill:none;stroke:#FFFFFF;stroke-width:2.4227;stroke-linecap:round;stroke-linejoin:round;stroke-miterlimit:10;}
</style>
<g>
	<polygon class="st0" points="397.2,214.5 488.8,248.5 580.4,282.4 397.2,282.4 214,282.4 305.6,248.5 	"/>
</g>
<g>
	<rect x="214" y="282.4" class="st0" width="366.9" height="60.7"/>
</g>
<g>
	<rect x="209.7" y="526.6" class="st0" width="375.4" height="25.8"/>
</g>
<g>
	<rect x="201.3" y="551.5" class="st0" width="392.4" height="32.5"/>
</g>
<g class="st1">
	<rect x="214" y="316.1" width="366.9" height="51.6"/>
</g>
<g>
	<rect x="214" y="347.5" class="st2" width="366.9" height="179.5"/>
</g>
<g>
	<rect x="214" y="326.5" class="st0" width="366.9" height="43.7"/>
</g>
<g class="st1">
	<rect x="229.7" y="379.1" width="43.9" height="148.2"/>
</g>
<g class="st1">
	<rect x="430" y="379.1" width="43.9" height="148.2"/>
</g>
<g class="st1">
	<rect x="529.8" y="379.1" width="43.9" height="148.2"/>
</g>
<g class="st1">
	<rect x="329.5" y="379.1" width="43.9" height="148.2"/>
</g>
<g>
	<rect x="229.7" y="370.2" class="st0" width="34.6" height="9.8"/>
</g>
<g>
	<rect x="225" y="378.6" class="st0" width="43.9" height="148.2"/>
</g>
<g>
	<path class="st3" d="M270.9,380.9H223c-0.8,0-1.4-0.6-1.4-1.4s0.6-1.4,1.4-1.4h47.9c0.8,0,1.4,0.6,1.4,1.4
		C272.3,380.2,271.7,380.9,270.9,380.9z"/>
</g>
<g>
	<g>
		<path class="st3" d="M250.9,524.6H244c-1.4,0-2.5-1.1-2.5-2.5V397.9c0-3.3,2.7-5.9,5.9-5.9c3.3,0,5.9,2.7,5.9,5.9v124.2
			C253.5,523.5,252.3,524.6,250.9,524.6z M244.4,521.7h6.1V397.9c0-1.7-1.4-3.1-3.1-3.1c-1.7,0-3.1,1.4-3.1,3.1v123.8H244.4z"/>
	</g>
</g>
<g>
	<rect x="330.5" y="370.2" class="st0" width="34.6" height="9.8"/>
</g>
<g>
	<rect x="325.9" y="378.6" class="st0" width="43.9" height="148.2"/>
</g>
<g>
	<path class="st3" d="M371.7,381.2h-47.9c-0.8,0-1.4-0.6-1.4-1.4s0.6-1.4,1.4-1.4h47.9c0.8,0,1.4,0.6,1.4,1.4
		C373.2,380.6,372.5,381.2,371.7,381.2z"/>
</g>
<g>
	<g>
		<path class="st3" d="M350.6,524.6h-6.9c-1.4,0-2.5-1.1-2.5-2.5V397.9c0-3.3,2.7-5.9,5.9-5.9s5.9,2.7,5.9,5.9v124.2
			C353.1,523.5,351.9,524.6,350.6,524.6z M344.1,521.7h6.1V397.9c0-1.7-1.4-3.1-3.1-3.1s-3.1,1.4-3.1,3.1v123.8H344.1z"/>
	</g>
</g>
<g>
	<rect x="430.8" y="370.2" class="st0" width="34.6" height="9.8"/>
</g>
<g>
	<rect x="426.2" y="378.6" class="st0" width="43.9" height="148.2"/>
</g>
<g>
	<path class="st3" d="M472,381.2h-47.9c-0.8,0-1.4-0.6-1.4-1.4s0.6-1.4,1.4-1.4H472c0.8,0,1.4,0.6,1.4,1.4
		C473.5,380.6,472.8,381.2,472,381.2z"/>
</g>
<g>
	<g>
		<path class="st3" d="M450.7,524.6h-6.9c-1.4,0-2.5-1.1-2.5-2.5V397.9c0-3.3,2.7-5.9,5.9-5.9c3.3,0,5.9,2.7,5.9,5.9v124.2
			C453.2,523.5,452,524.6,450.7,524.6z M444.2,521.7h6.1V397.9c0-1.7-1.4-3.1-3.1-3.1s-3.1,1.4-3.1,3.1v123.8H444.2z"/>
	</g>
</g>
<g>
	<rect x="529.4" y="370.2" class="st0" width="34.6" height="9.8"/>
</g>
<g>
	<rect x="524.8" y="378.6" class="st0" width="43.9" height="148.2"/>
</g>
<g>
	<path class="st3" d="M570.6,381.2h-47.9c-0.8,0-1.4-0.6-1.4-1.4s0.6-1.4,1.4-1.4h47.9c0.8,0,1.4,0.6,1.4,1.4
		C572.1,380.6,571.4,381.2,570.6,381.2z"/>
</g>
<g>
	<g>
		<path class="st3" d="M551.2,524.6h-6.9c-1.4,0-2.5-1.1-2.5-2.5V397.9c0-3.3,2.7-5.9,5.9-5.9c3.3,0,5.9,2.7,5.9,5.9v124.2
			C553.7,523.5,552.5,524.6,551.2,524.6z M544.7,521.7h6.1V397.9c0-1.7-1.4-3.1-3.1-3.1c-1.7,0-3.1,1.4-3.1,3.1L544.7,521.7
			L544.7,521.7z"/>
	</g>
</g>
<g>
	<path class="st4" d="M586.9,359.9H209.6c-0.8,0-1.4-0.6-1.4-1.4s0.6-1.4,1.4-1.4h377.3c0.8,0,1.4,0.6,1.4,1.4
		S587.7,359.9,586.9,359.9z"/>
</g>
<g>
	<path class="st4" d="M593.7,552.7H201.3c-0.8,0-1.4-0.6-1.4-1.4c0-0.8,0.6-1.4,1.4-1.4h392.4c0.8,0,1.4,0.6,1.4,1.4
		C595.1,552.1,594.5,552.7,593.7,552.7z"/>
</g>
<g>
	<path class="st3" d="M586.9,302.5H211.1c-0.8,0-1.4-0.6-1.4-1.4s0.6-1.4,1.4-1.4h375.8c0.8,0,1.4,0.6,1.4,1.4
		C588.3,301.8,587.7,302.5,586.9,302.5z"/>
</g>
<g>
	<path class="st3" d="M586.9,327.5H211.1c-0.8,0-1.4-0.6-1.4-1.4s0.6-1.4,1.4-1.4h375.8c0.8,0,1.4,0.6,1.4,1.4
		C588.3,326.9,587.7,327.5,586.9,327.5z"/>
</g>
<g>
	<path class="st3" d="M586.9,292.8H210.8c-0.8,0-1.4-0.6-1.4-1.4s0.6-1.4,1.4-1.4h376.1c0.8,0,1.4,0.6,1.4,1.4
		C588.3,292.2,587.7,292.8,586.9,292.8z"/>
</g>
<g>
	<path class="st4" d="M582,327.2c-0.8,0-1.4-0.6-1.4-1.4v-22.5c0-0.8,0.6-1.4,1.4-1.4c0.8,0,1.4,0.6,1.4,1.4v22.5
		C583.4,326.5,582.8,327.2,582,327.2z"/>
</g>
<g>
	<path class="st4" d="M575.5,327.2c-0.8,0-1.4-0.6-1.4-1.4v-22.5c0-0.8,0.6-1.4,1.4-1.4c0.8,0,1.4,0.6,1.4,1.4v22.5
		C576.9,326.5,576.3,327.2,575.5,327.2z"/>
</g>
<g>
	<path class="st4" d="M568.6,327.2c-0.8,0-1.4-0.6-1.4-1.4v-22.5c0-0.8,0.6-1.4,1.4-1.4c0.8,0,1.4,0.6,1.4,1.4v22.5
		C570,326.5,569.4,327.2,568.6,327.2z"/>
</g>
<g>
	<path class="st4" d="M523.9,327.2c-0.8,0-1.4-0.6-1.4-1.4v-22.5c0-0.8,0.6-1.4,1.4-1.4c0.8,0,1.4,0.6,1.4,1.4v22.5
		C525.3,326.5,524.6,327.2,523.9,327.2z"/>
</g>
<g>
	<path class="st4" d="M517.3,327.2c-0.8,0-1.4-0.6-1.4-1.4v-22.5c0-0.8,0.6-1.4,1.4-1.4c0.8,0,1.4,0.6,1.4,1.4v22.5
		C518.8,326.5,518.1,327.2,517.3,327.2z"/>
</g>
<g>
	<path class="st4" d="M510.4,327.2c-0.8,0-1.4-0.6-1.4-1.4v-22.5c0-0.8,0.6-1.4,1.4-1.4s1.4,0.6,1.4,1.4v22.5
		C511.9,326.5,511.2,327.2,510.4,327.2z"/>
</g>
<g>
	<path class="st4" d="M464.3,327.2c-0.8,0-1.4-0.6-1.4-1.4v-22.5c0-0.8,0.6-1.4,1.4-1.4s1.4,0.6,1.4,1.4v22.5
		C465.8,326.5,465.1,327.2,464.3,327.2z"/>
</g>
<g>
	<path class="st4" d="M457.8,327.2c-0.8,0-1.4-0.6-1.4-1.4v-22.5c0-0.8,0.6-1.4,1.4-1.4s1.4,0.6,1.4,1.4v22.5
		C459.2,326.5,458.6,327.2,457.8,327.2z"/>
</g>
<g>
	<path class="st4" d="M450.9,327.2c-0.8,0-1.4-0.6-1.4-1.4v-22.5c0-0.8,0.6-1.4,1.4-1.4s1.4,0.6,1.4,1.4v22.5
		C452.4,326.5,451.7,327.2,450.9,327.2z"/>
</g>
<g>
	<path class="st4" d="M406.2,327.2c-0.8,0-1.4-0.6-1.4-1.4v-22.5c0-0.8,0.6-1.4,1.4-1.4s1.4,0.6,1.4,1.4v22.5
		C407.6,326.5,407,327.2,406.2,327.2z"/>
</g>
<g>
	<path class="st4" d="M399.6,327.2c-0.8,0-1.4-0.6-1.4-1.4v-22.5c0-0.8,0.6-1.4,1.4-1.4s1.4,0.6,1.4,1.4v22.5
		C401.1,326.5,400.4,327.2,399.6,327.2z"/>
</g>
<g>
	<path class="st4" d="M392.8,327.2c-0.8,0-1.4-0.6-1.4-1.4v-22.5c0-0.8,0.6-1.4,1.4-1.4s1.4,0.6,1.4,1.4v22.5
		C394.2,326.5,393.6,327.2,392.8,327.2z"/>
</g>
<g>
	<path class="st4" d="M348,327.2c-0.8,0-1.4-0.6-1.4-1.4v-22.5c0-0.8,0.6-1.4,1.4-1.4s1.4,0.6,1.4,1.4v22.5
		C349.5,326.5,348.8,327.2,348,327.2z"/>
</g>
<g>
	<path class="st4" d="M341.5,327.2c-0.8,0-1.4-0.6-1.4-1.4v-22.5c0-0.8,0.6-1.4,1.4-1.4s1.4,0.6,1.4,1.4v22.5
		C342.9,326.5,342.3,327.2,341.5,327.2z"/>
</g>
<g>
	<path class="st4" d="M334.6,327.2c-0.8,0-1.4-0.6-1.4-1.4v-22.5c0-0.8,0.6-1.4,1.4-1.4s1.4,0.6,1.4,1.4v22.5
		C336.1,326.5,335.4,327.2,334.6,327.2z"/>
</g>
<g>
	<path class="st4" d="M288.5,327.2c-0.8,0-1.4-0.6-1.4-1.4v-22.5c0-0.8,0.6-1.4,1.4-1.4s1.4,0.6,1.4,1.4v22.5
		C290,326.5,289.3,327.2,288.5,327.2z"/>
</g>
<g>
	<path class="st4" d="M282,327.2c-0.8,0-1.4-0.6-1.4-1.4v-22.5c0-0.8,0.6-1.4,1.4-1.4s1.4,0.6,1.4,1.4v22.5
		C283.4,326.5,282.8,327.2,282,327.2z"/>
</g>
<g>
	<path class="st4" d="M275.1,327.2c-0.8,0-1.4-0.6-1.4-1.4v-22.5c0-0.8,0.6-1.4,1.4-1.4s1.4,0.6,1.4,1.4v22.5
		C276.5,326.5,275.9,327.2,275.1,327.2z"/>
</g>
<g>
	<path class="st4" d="M228.6,327.2c-0.8,0-1.4-0.6-1.4-1.4v-22.5c0-0.8,0.6-1.4,1.4-1.4s1.4,0.6,1.4,1.4v22.5
		C230.1,326.5,229.4,327.2,228.6,327.2z"/>
</g>
<g>
	<path class="st4" d="M222.1,327.2c-0.8,0-1.4-0.6-1.4-1.4v-22.5c0-0.8,0.6-1.4,1.4-1.4s1.4,0.6,1.4,1.4v22.5
		C223.6,326.5,222.9,327.2,222.1,327.2z"/>
</g>
<g>
	<path class="st4" d="M215.2,327.2c-0.8,0-1.4-0.6-1.4-1.4v-22.5c0-0.8,0.6-1.4,1.4-1.4s1.4,0.6,1.4,1.4v22.5
		C216.7,326.5,216,327.2,215.2,327.2z"/>
</g>
<g class="st5">
	<path d="M298.4,427.2L298.4,427.2c-10.9,0-19.7,8.8-19.7,19.7v80h39.5v-80C318.1,436.1,309.3,427.2,298.4,427.2z"/>
</g>
<g class="st5">
	<path d="M398.5,427.2L398.5,427.2c-10.9,0-19.7,8.8-19.7,19.7v80h39.5v-80C418.2,436.1,409.4,427.2,398.5,427.2z"/>
</g>
<g class="st5">
	<path d="M499.1,427.2L499.1,427.2c-10.9,0-19.7,8.8-19.7,19.7v80h39.5v-80C518.9,436.1,510,427.2,499.1,427.2z"/>
</g>
<g>
	<rect x="370.4" y="528.5" class="st3" width="56.5" height="7.3"/>
</g>
<g>
	<rect x="370.4" y="538.2" class="st3" width="56.5" height="9"/>
</g>
<g>
	<rect x="370.4" y="552.4" class="st3" width="56.5" height="9"/>
</g>
<g>
	<rect x="370.4" y="565.3" class="st3" width="56.5" height="9"/>
</g>
<g class="st1">
	<polygon points="203.8,553.2 203.8,584 370.4,584 	"/>
</g>
<g class="st1">
	<polygon points="397.2,214.5 397.4,316.1 214,316.1 213.8,282.4 	"/>
</g>
<g>
	<path class="st6" d="M637.8,584.1H162.2c-1.6,0-2.8-1.3-2.8-2.8c0-1.6,1.3-2.8,2.8-2.8h475.7c1.6,0,2.8,1.3,2.8,2.8
		S639.4,584.1,637.8,584.1z"/>
</g>
<g>
	<path class="st4" d="M586.9,528.7H209.6c-0.8,0-1.4-0.6-1.4-1.4c0-0.8,0.6-1.4,1.4-1.4h377.3c0.8,0,1.4,0.6,1.4,1.4
		C588.3,528.1,587.7,528.7,586.9,528.7z"/>
</g>
<g>
	<circle class="st7" cx="397.2" cy="254" r="16"/>
	<line class="st8" x1="381.5" y1="254" x2="413.2" y2="254"/>
</g>
</svg>
