<?xml version="1.0" encoding="utf-8"?>
<!-- Generator: Adobe Illustrator 25.2.1, SVG Export Plug-In . SVG Version: 6.00 Build 0)  -->
<svg version="1.1" id="Layer_1" xmlns="http://www.w3.org/2000/svg" xmlns:xlink="http://www.w3.org/1999/xlink" x="0px" y="0px"
	 viewBox="0 0 800 700" style="enable-background:new 0 0 800 700;" xml:space="preserve">
<style type="text/css">
	.st0{fill:#B5BABB;}
	.st1{opacity:0.25;fill:#004D2B;}
	.st2{fill:#008A50;}
	.st3{opacity:0.1;clip-path:url(#SVGID_2_);}
	.st4{fill:#A4ABAC;}
	.st5{fill:#008049;}
	.st6{opacity:0.1;clip-path:url(#SVGID_4_);fill:#A4ABAC;}
	.st7{opacity:0.1;clip-path:url(#SVGID_6_);}
	.st8{opacity:0.1;clip-path:url(#SVGID_8_);fill:#00B467;}
	.st9{fill:#F2FBFB;}
	.st10{fill:#DDE3E4;}
	.st11{fill:#00B467;}
	.st12{fill:none;}
	.st13{opacity:0.1;}
</style>
<g>
	<path class="st0" d="M297.1,584.4H137.5c-5.1,0-9.2-4.2-9.2-9.2v-67.6c0-5.1,4.2-9.2,9.2-9.2h159.6c5.1,0,9.2,4.2,9.2,9.2v67.6
		C306.3,580.2,302.2,584.4,297.1,584.4z"/>
	<path class="st1" d="M163.1,521.7c-2.1,17.2,10.2,32.8,27.4,34.9l11.4,1.4c17.2,2.1,32.8-10.2,34.9-27.4l4.6-38.3l11.2-6.3
		L237,418.2l-65.5,34.4l0,0"/>
	<path class="st2" d="M163.6,517.6c-2.1,17.2,10.2,32.8,27.4,34.9l11.4,1.4c17.2,2.1,32.8-10.2,34.9-27.4l4.6-38.3l11.2-6.3
		l-15.5-67.7l-65.5,34.4l0,0"/>
	<g>
		<defs>
			<path id="SVGID_1_" d="M163.6,517.6c-2.1,17.2,10.2,32.8,27.4,34.9l11.4,1.4c17.2,2.1,32.8-10.2,34.9-27.4l4.6-38.3l11.2-6.3
				l-15.5-67.7l-65.5,34.4l0,0"/>
		</defs>
		<clipPath id="SVGID_2_">
			<use xlink:href="#SVGID_1_"  style="overflow:visible;"/>
		</clipPath>
		<path class="st3" d="M417.9,375.1L269.6,487.7c-22.4,17-55.5,9.6-72.1-16.1l0,0c-16.4-25.5-9.6-58.4,14.9-71.9l163.1-89.4
			c16.4-10.7,39.2-5,50.9,12.9l0,0C438.2,341.1,434.3,364.3,417.9,375.1z"/>
	</g>
	<path class="st4" d="M229.6,346v-85.3h30.6V346c0,3.9-3.1,7-7,7h-16.6C232.7,353,229.6,349.8,229.6,346z"/>
	<path class="st5" d="M271.1,422.5h-52.4v-82.6c0-4.4,3.5-7.9,7.9-7.9h36.5c4.4,0,7.9,3.5,7.9,7.9V422.5z"/>
	<g>
		<defs>
			<path id="SVGID_3_" d="M271.1,422.5h-52.4v-82.6c0-4.4,3.5-7.9,7.9-7.9h36.5c4.4,0,7.9,3.5,7.9,7.9V422.5z"/>
		</defs>
		<use xlink:href="#SVGID_3_"  style="overflow:visible;fill:#A4ABAC;"/>
		<clipPath id="SVGID_4_">
			<use xlink:href="#SVGID_3_"  style="overflow:visible;"/>
		</clipPath>
		<rect x="214.4" y="373.8" transform="matrix(0.866 -0.5 0.5 0.866 -157.8221 175.7153)" class="st6" width="69.3" height="17.1"/>
	</g>
	<path class="st2" d="M296.9,269.4l-69.7,19.8c-6.3,1.8-12.9-1.9-14.7-8.2l-18-63.1c-1.8-6.3,1.9-12.9,8.2-14.7l69.7-19.8
		c6.3-1.8,12.9,1.9,14.7,8.2l18,63.1C306.8,261.1,303.2,267.6,296.9,269.4z"/>
	<g>
		<defs>
			<path id="SVGID_5_" d="M290,293.3l-55.1-6.3c-10.6,3-21.5-3.1-24.5-13.7l-13.6-47.7c-3-10.6,3.1-21.5,13.7-24.5l54.3-15.4
				c10.6-3,21.5,3.1,24.5,13.7l13.6,47.7C305.8,257.6,300.5,290.3,290,293.3z"/>
		</defs>
		<clipPath id="SVGID_6_">
			<use xlink:href="#SVGID_5_"  style="overflow:visible;"/>
		</clipPath>
		<path class="st7" d="M490.5,269l-200,30.6c-30.2,4.6-58-17.4-60.4-47.9v0c-2.4-30.2,21.3-56.2,51.6-56.7l202.1-3.1
			c21.3-1.8,40,13.9,41.8,35.2v0C527.5,248.4,511.8,267.2,490.5,269z"/>
	</g>
	
		<rect x="498.8" y="241.6" transform="matrix(0.5387 0.8425 -0.8425 0.5387 462.0364 -330.0024)" class="st2" width="67.1" height="30.6"/>
	<g>
		<defs>
			
				<rect id="SVGID_7_" x="498.8" y="241.6" transform="matrix(0.5387 0.8425 -0.8425 0.5387 462.0364 -330.0024)" width="67.1" height="30.6"/>
		</defs>
		<use xlink:href="#SVGID_7_"  style="overflow:visible;fill:#00B467;"/>
		<clipPath id="SVGID_8_">
			<use xlink:href="#SVGID_7_"  style="overflow:visible;"/>
		</clipPath>
		<path class="st8" d="M501.5,259.5l-200,30.6c-30.2,4.6-58-17.4-60.4-47.9v0c-2.4-30.2,21.3-56.2,51.6-56.7l202.1-3.1
			c21.3-1.8,40,13.9,41.8,35.2l0,0C538.5,238.9,522.7,257.6,501.5,259.5z"/>
	</g>
	<circle class="st9" cx="244.3" cy="349.4" r="8.9"/>
	<path class="st10" d="M423.4,371L275.2,483.6c-22.4,17-55.5,9.6-72.1-16.1l0,0c-16.4-25.5-9.6-58.4,14.9-71.9l163.1-89.4
		c16.4-10.7,39.2-5,50.9,12.9l0,0C443.7,337,439.9,360.2,423.4,371z"/>
	<g>
		<path class="st4" d="M582.1,584.4H130.8c-1.4,0-2.6-1.1-2.6-2.5s1.1-2.5,2.6-2.5h451.3c1.4,0,2.6,1.1,2.6,2.5
			S583.5,584.4,582.1,584.4z"/>
	</g>
	
		<rect x="330.1" y="295.4" transform="matrix(0.559 0.8292 -0.8292 0.559 418.0077 -164.4791)" class="st2" width="67.1" height="30.6"/>
	<circle class="st2" cx="387.7" cy="345.9" r="24.6"/>
	<circle class="st11" cx="387.7" cy="345.9" r="14.4"/>
	<g>
		<path class="st12" d="M398.7,336.6l-22.2,18.1c2.6,3.3,6.7,5.4,11.2,5.4c7.9,0,14.4-6.4,14.4-14.4
			C402,342.4,400.8,339.1,398.7,336.6z"/>
		<path class="st1" d="M387.7,331.5c-7.9,0-14.4,6.4-14.4,14.4c0,3.4,1.2,6.5,3.1,8.9l22.2-18.1C396,333.5,392.1,331.5,387.7,331.5z
			"/>
	</g>
	<circle class="st11" cx="199.4" cy="514.7" r="16.3"/>
	<g>
		<path class="st12" d="M211.8,504.1l-25.3,20.6c3,3.8,7.6,6.2,12.8,6.2c9,0,16.3-7.3,16.3-16.3C215.6,510.6,214.2,507,211.8,504.1z
			"/>
		<path class="st1" d="M199.3,498.3c-9,0-16.3,7.3-16.3,16.3c0,3.8,1.3,7.4,3.6,10.2l25.3-20.6C208.8,500.6,204.3,498.3,199.3,498.3
			z"/>
	</g>
	<polygon class="st13" points="368.4,290.4 337.8,299.5 330.6,289.1 355.9,272.4 	"/>
	<path class="st10" d="M501.4,255.2l-197.2,45.2c-29.8,6.8-59.1-13.1-63.7-43.3l0,0c-4.6-30,17.1-57.6,47.3-60.3l201.3-17.9
		c21.1-3.4,40.9,10.9,44.3,32l0,0C536.8,231.9,522.5,251.8,501.4,255.2z"/>
	<circle class="st5" cx="491.7" cy="214.7" r="23.4"/>
	<g>
		<path class="st12" d="M509.5,199.7l-36.2,29.5c4.3,5.4,10.9,8.8,18.3,8.8c12.9,0,23.3-10.4,23.3-23.3
			C514.9,208.9,512.9,203.7,509.5,199.7z"/>
		<path class="st1" d="M491.6,191.3c-12.9,0-23.3,10.4-23.3,23.3c0,5.5,1.9,10.5,5.1,14.5l36.2-29.5
			C505.2,194.6,498.8,191.3,491.6,191.3z"/>
	</g>
	<rect x="555.2" y="332.3" transform="matrix(0.866 -0.5 0.5 0.866 -92.1075 337.451)" class="st4" width="56.9" height="16.7"/>
	<path class="st4" d="M612.5,320.5l-62.7,36.2c-5.7,3.3-12.9,1.3-16.2-4.3l-32.8-56.8c-3.3-5.7-1.3-12.9,4.3-16.2l62.7-36.2
		c5.7-3.3,12.9-1.3,16.2,4.3l32.8,56.8C620.1,310,618.2,317.2,612.5,320.5z"/>
	<circle class="st9" cx="558.7" cy="299.3" r="30.5"/>
	<circle class="st5" cx="558.8" cy="299.9" r="12.9"/>
	<g>
		<path class="st12" d="M568.7,291.6l-19.9,16.2c2.4,3,6,4.9,10.1,4.9c7.1,0,12.9-5.8,12.9-12.9
			C571.7,296.8,570.5,293.9,568.7,291.6z"/>
		<path class="st1" d="M558.8,287c-7.1,0-12.9,5.8-12.9,12.9c0,3,1.1,5.8,2.8,8l19.9-16.2C566.3,288.8,562.8,287,558.8,287z"/>
	</g>
	<g>
		<path class="st11" d="M566.6,383.9c-0.1,0-0.3,0-0.4,0c-1.2-0.2-2-1.4-1.8-2.6l4.9-25.6l36.5-21l30.2,6.7c1.2,0.3,2,1.5,1.7,2.7
			c-0.3,1.2-1.4,2-2.7,1.7l-28.5-6.3l-33.2,19.1l-4.5,23.6C568.6,383.1,567.7,383.9,566.6,383.9z"/>
	</g>
	<g>
		<path class="st11" d="M603.3,369.7c-0.7,0-1.5-0.4-1.9-1l-12.8-20.2c-0.7-1-0.4-2.4,0.7-3.1c1-0.7,2.4-0.4,3.1,0.7l12.8,20.2
			c0.7,1,0.4,2.4-0.7,3.1C604.1,369.6,603.7,369.7,603.3,369.7z"/>
	</g>
	<g>
		<path class="st11" d="M498.8,330.6c-5.8,0-11.3-1.3-16.5-3.8c-12.4-6.1-22.7-19.2-30.6-39c-5.8-14.6-8.1-27.2-8.2-27.7
			c-0.2-1,0.5-2,1.6-2.2c1-0.2,2,0.5,2.2,1.6c0.1,0.5,9.1,50.3,36.7,63.9c10.9,5.4,23.4,4.4,37.3-2.8c0.9-0.5,2.1-0.1,2.6,0.8
			c0.5,0.9,0.1,2.1-0.8,2.6C514.6,328.4,506.5,330.6,498.8,330.6z"/>
	</g>
	<path class="st2" d="M583,409.4l-8.7-12.9c-0.1-0.2-0.3-0.4-0.5-0.6l1.3-15.6c0.4-4.4-2.9-8.3-7.4-8.7h0c-4.4-0.4-8.3,2.9-8.7,7.4
		l-1.7,20.5c-0.1,0.8,0,1.7,0.2,2.4c0.1,1.7,0.5,3.3,1.5,4.8l8.7,12.9c2.8,4.2,8.6,5.3,12.7,2.5h0
		C584.7,419.3,585.9,413.6,583,409.4z"/>
	<path class="st2" d="M655.9,369.6l-8.6-13c-0.1-0.2-0.2-0.4-0.3-0.6l-14.9-4.8c-4.2-1.4-6.6-5.9-5.2-10.1l0,0
		c1.4-4.2,5.9-6.6,10.1-5.2l19.6,6.3c0.8,0.3,1.5,0.7,2.2,1.1c1.5,0.7,2.9,1.8,3.8,3.2l8.6,13c2.8,4.2,1.6,9.9-2.6,12.7l0,0
		C664.4,375,658.7,373.8,655.9,369.6z"/>
	<path class="st2" d="M624.8,395.7l-8.5,4.9c-2,1.1-4.6,0.5-5.7-1.5l-18.4-31.9c-1.1-2-0.5-4.6,1.5-5.7l8.5-4.9
		c2-1.1,4.6-0.5,5.7,1.5l18.4,31.9C627.4,392,626.8,394.6,624.8,395.7z"/>
</g>
</svg>
