<?xml version="1.0" encoding="utf-8"?>
<!-- Generator: Adobe Illustrator 25.2.1, SVG Export Plug-In . SVG Version: 6.00 Build 0)  -->
<svg version="1.1" id="Layer_1" xmlns="http://www.w3.org/2000/svg" xmlns:xlink="http://www.w3.org/1999/xlink" x="0px" y="0px"
	 viewBox="0 0 800 700" style="enable-background:new 0 0 800 700;" xml:space="preserve">
<style type="text/css">
	.st0{fill:#008855;}
	.st1{opacity:0.1;}
	.st2{fill:#004B2E;}
	.st3{fill:#DFE4E5;}
	.st4{fill:#00B16E;}
	.st5{opacity:0.1;clip-path:url(#SVGID_2_);}
	.st6{fill:#B7BBBC;}
	.st7{fill:#F5FCFC;}
	.st8{opacity:0.25;}
	.st9{fill:#A6ACAD;}
</style>
<g>
	<path class="st0" d="M639.9,482.5L626,467.9l-5.3-5.6l0.6-13l-9.3-0.4c-17.8-0.8-33,12.9-33.9,30.8v0c-0.8,17.8,12.9,33,30.8,33.9
		l9.3,0.4l0.6-13l5.8-5.1L639.9,482.5z"/>
</g>
<g class="st1">
	<path d="M578.2,479.2c-0.8,17.8,12.9,33,30.8,33.9l9.3,0.4l0.6-13l5.8-5.1l15.1-13.2"/>
</g>
<g>
	<path class="st2" d="M589.3,484.2c-4.3,0-10.1-0.6-15.4-2.9c-10.4-4.6-16.6-13.3-18.9-26.4c-16.2-0.9-37.1-5.5-38.3-5.8
		c-1.1-0.2-1.7-1.3-1.5-2.4c0.2-1.1,1.3-1.7,2.4-1.5c0.3,0.1,21.1,4.6,36.9,5.7c0-0.1,0-0.2,0-0.3c-1-9.3,2.8-18.5,9.8-24
		c3.6-2.8,8.3-3.9,12.4-2.9c2.6,0.7,6.2,2.5,8.5,7.5c1.5,3.4,1.4,7-0.1,10.4c-2.8,6.1-9.8,10.7-15.1,12.3c-2.7,0.8-6.4,1.1-10.8,1.1
		c2.2,11.4,7.5,18.7,16.5,22.7c8.9,3.9,19.4,2.2,19.5,2.2c1.1-0.2,2.1,0.5,2.3,1.6c0.2,1.1-0.5,2.1-1.6,2.3
		C595.4,483.8,592.9,484.2,589.3,484.2z M558.4,451c4.2,0.1,7.8-0.1,10.2-0.9c4.6-1.4,10.5-5.4,12.7-10.2c1.1-2.4,1.1-4.9,0.1-7.2
		c-1.3-2.9-3.2-4.7-5.8-5.3c-2.9-0.7-6.4,0.1-9,2.2c-6,4.7-9.1,12.5-8.3,20.5C558.3,450.4,558.3,450.7,558.4,451z"/>
</g>
<g>
	<path class="st3" d="M325.8,172.7v93.6c0,7.4-4,13.6-11.3,17.4c-15.5,8.2-24.8,22.4-24.8,37.9v245.9c0,15.1,28.1,15.1,60.7,15.1
		c32.7,0,57.7,0,57.7-15.1V321.6c0-15.6-9.3-29.7-24.8-37.9c-7.3-3.8-11.3-10-11.3-17.4v-93.6C371.9,172.7,327.7,172.7,325.8,172.7z
		"/>
</g>
<g class="st1">
	<path d="M314.7,283.7c-15.5,8.2-24.8,22.4-24.8,37.9v245.9c0,15.1,28.1,15.1,60.7,15.1c32.7,0,57.7,0,57.7-15.1V321.6
		c0-15.6-9.3-29.7-24.8-37.9"/>
</g>
<g class="st1">
	<rect x="289.8" y="370" width="108.4" height="158.2"/>
</g>
<g>
	<rect x="289.8" y="365.9" class="st0" width="104.2" height="157.4"/>
</g>
<g class="st1">
	<rect x="341.9" y="366.1" width="51.5" height="158.2"/>
</g>
<g>
	<path class="st0" d="M372,179.2h-46.2v-15.3c0-2.1,1.7-3.9,3.9-3.9h38.4c2.1,0,3.9,1.7,3.9,3.9V179.2z"/>
</g>
<g>
	<path class="st2" d="M374.3,182.8h-51c-1.1,0-2-0.9-2-2c0-1.1,0.9-2,2-2h51c1.1,0,2,0.9,2,2C376.3,181.9,375.4,182.8,374.3,182.8z"
		/>
</g>
<g>
	<path class="st0" d="M189.5,384.5h-9.3v13.1l-5.6,5.4l-14.5,13.9l14.5,13.9l5.6,5.4v13.1h9.3c17.9,0,32.4-14.5,32.4-32.4v0
		C221.8,399,207.3,384.5,189.5,384.5z"/>
</g>
<g>
	<path class="st2" d="M244.9,444.1c-4.7,0-9-1.4-9.3-1.5c-1-0.3-1.6-1.5-1.2-2.5c0.3-1,1.4-1.6,2.5-1.3c2.6,0.9,10.2,2.5,13.7-0.1
		c1.4-1,2.1-2.7,2.1-5.1c0-10.5-6-11.8-8.9-12.4c-0.3-0.1-0.5-0.1-0.8-0.2c-9.7-2.4-40.9-0.5-41.2-0.5c-1.1,0.1-2-0.8-2.1-1.8
		c-0.1-1.1,0.8-2,1.8-2.1c1.3-0.1,32.1-1.9,42.4,0.6c0.2,0,0.4,0.1,0.6,0.1c3,0.6,12,2.5,12,16.2c0,3.7-1.3,6.5-3.8,8.3
		C250.6,443.6,247.7,444.1,244.9,444.1z"/>
</g>
<g>
	<path class="st2" d="M293.5,421.9h-24.8c-1.1,0-2-0.9-2-2s0.9-2,2-2h24.8c1.1,0,2,0.9,2,2S294.6,421.9,293.5,421.9z"/>
</g>
<g class="st1">
	<path d="M221.8,417.2c0-17.9-14.5-32.4-32.4-32.4h-9.3v13.1l-5.6,5.4l-14.5,13.9"/>
</g>
<g>
	<circle class="st4" cx="220.4" cy="477.9" r="9.8"/>
</g>
<g>
	<circle class="st4" cx="241.1" cy="477.5" r="9.8"/>
</g>
<g>
	<circle class="st4" cx="220.4" cy="520.4" r="9.8"/>
</g>
<g>
	<circle class="st4" cx="241.1" cy="520" r="9.8"/>
</g>
<g>
	<circle class="st4" cx="230.6" cy="540.8" r="9.8"/>
</g>
<g>
	<circle class="st4" cx="230.6" cy="498.6" r="9.8"/>
</g>
<g>
	<circle class="st4" cx="208.2" cy="498.6" r="9.8"/>
</g>
<g>
	<circle class="st4" cx="251.6" cy="498.6" r="9.8"/>
</g>
<g>
	<defs>
		<rect id="SVGID_1_" x="289.5" y="352.7" width="21.6" height="41.8"/>
	</defs>
	<clipPath id="SVGID_2_">
		<use xlink:href="#SVGID_1_"  style="overflow:visible;"/>
	</clipPath>
	<g class="st5">
		<path d="M272.9,355.8v41.6c17.2-0.7,30.9-14.9,30.9-32.3v-9.3H272.9z"/>
	</g>
</g>
<g>
	<path class="st0" d="M288.4,354l-5.4-5.6l-13.9-14.5l-13.9,14.5l-5.4,5.6h-13.1v9.3c0,17.9,14.5,32.4,32.4,32.4h0
		c17.9,0,32.4-14.5,32.4-32.4V354H288.4z"/>
</g>
<g class="st1">
	<path d="M269.1,395.6c17.9,0,32.4-14.5,32.4-32.4v-9.3h-13.1l-5.4-5.6l-13.9-14.5"/>
</g>
<g>
	<path class="st2" d="M230,465.8C229.9,465.8,229.9,465.8,230,465.8c-1.2,0-2-0.9-2-2c0-0.4,1.9-43.5,38.8-45.6v-40.5
		c0-1.1,0.9-2,2-2c1.1,0,2,0.9,2,2v42.4c0,1.1-0.9,1.9-1.9,2c-14.7,0.3-25.3,7.3-31.6,20.9c-4.8,10.4-5.2,20.9-5.2,21
		C231.9,465,231,465.8,230,465.8z"/>
</g>
<g>
	<rect x="482" y="487.4" class="st6" width="11.3" height="69.7"/>
</g>
<g>
	<path class="st6" d="M532.2,576.6c0-14.5-19.9-26.2-44.5-26.2c-24.6,0-44.5,11.7-44.5,26.2c0,0.3,0,0.7,0,1h89
		C532.2,577.3,532.2,577,532.2,576.6z"/>
</g>
<g>
	<path class="st7" d="M374.8,397.2h-65.7c-1.1,0-2-0.9-2-2s0.9-2,2-2h65.7c1.1,0,2,0.9,2,2S375.9,397.2,374.8,397.2z"/>
</g>
<g>
	<path class="st7" d="M361.1,485.9h-39.6c-1.1,0-2-0.9-2-2s0.9-2,2-2h39.6c1.1,0,2,0.9,2,2S362.2,485.9,361.1,485.9z"/>
</g>
<g>
	<path class="st7" d="M361.1,496.9h-39.6c-1.1,0-2-0.9-2-2s0.9-2,2-2h39.6c1.1,0,2,0.9,2,2S362.2,496.9,361.1,496.9z"/>
</g>
<g>
	<path class="st3" d="M487.5,490.4L487.5,490.4c-33.1,0-59.9-26.8-59.9-59.9v-82.1h120.1v81.8C547.7,463.4,520.7,490.4,487.5,490.4z
		"/>
</g>
<g>
	<path class="st6" d="M547.7,430.4c0,33.2-26.9,60-60,60h0c-33.2,0-60-26.9-60-60"/>
</g>
<g class="st8">
	<g class="st8">
		<path d="M427.4,430.9c0,33.2,26.9,60,60,60h0c28.2,0,57-16.3,60.2-59.5l-120.3-82.2V430.9z"/>
	</g>
</g>
<g>
	<path class="st9" d="M576.8,584.1H253c-0.8,0-1.4-1.5-1.4-3.3c0-1.8,0.6-3.3,1.4-3.3h323.8c0.8,0,1.4,1.5,1.4,3.3
		C578.2,582.6,577.6,584.1,576.8,584.1z"/>
</g>
</svg>
