<?xml version="1.0" encoding="utf-8"?>
<!-- Generator: Adobe Illustrator 25.2.1, SVG Export Plug-In . SVG Version: 6.00 Build 0)  -->
<svg version="1.1" id="Layer_1" xmlns="http://www.w3.org/2000/svg" xmlns:xlink="http://www.w3.org/1999/xlink" x="0px" y="0px"
	 viewBox="0 0 800 700" style="enable-background:new 0 0 800 700;" xml:space="preserve">
<style type="text/css">
	.st0{fill:#DFE4E5;}
	.st1{fill:#A6ACAD;}
	.st2{fill:#008855;}
	.st3{fill:#00B16E;}
	.st4{fill:#F5FCFC;}
	.st5{opacity:0.1;enable-background:new    ;}
	.st6{opacity:0.1;clip-path:url(#SVGID_2_);enable-background:new    ;}
	.st7{opacity:0.1;clip-path:url(#SVGID_4_);enable-background:new    ;}
	.st8{fill:#004B2E;}
	.st9{opacity:0.1;clip-path:url(#SVGID_6_);enable-background:new    ;}
	.st10{fill:#B7BBBC;}
	.st11{opacity:0.25;fill:#004B2E;enable-background:new    ;}
	.st12{opacity:0.1;clip-path:url(#SVGID_8_);enable-background:new    ;}
	.st13{opacity:0.1;clip-path:url(#SVGID_10_);enable-background:new    ;}
</style>
<g>
	<rect x="100.7" y="249.9" class="st0" width="422.4" height="293.2"/>
	<g>
		<path class="st1" d="M788.6,584.1H11.4c-1.8,0-3.3-1.5-3.3-3.3s1.5-3.3,3.3-3.3h777.3c1.8,0,3.3,1.5,3.3,3.3
			S790.5,584.1,788.6,584.1z"/>
	</g>
	<path class="st0" d="M521.3,273.1l90.3-0.3L664.9,403l36.8,25.7c3.5,2.5,5.7,6.5,5.7,10.8v103.6H523.1L521.3,273.1z"/>
	<rect x="101" y="454.8" class="st2" width="606.3" height="50.6"/>
	<g>
		<path class="st3" d="M587.8,439.1H551c-1.5,0-2.7-1.2-2.7-2.7s1.2-2.7,2.7-2.7h36.8c1.5,0,2.7,1.2,2.7,2.7
			S589.3,439.1,587.8,439.1z"/>
	</g>
	<polygon class="st4" points="546.3,298.9 610.6,298.9 652.5,405.1 549.1,405.1 	"/>
	<polygon class="st0" points="592.8,298.9 610.6,298.9 652.5,405.1 595.6,405.1 	"/>
	<polygon class="st5" points="592.8,298.9 610.6,298.9 652.5,405.1 595.6,405.1 	"/>
	<rect x="521.3" y="273.1" class="st5" width="15.2" height="270"/>
	<g>
		<path class="st0" d="M310.9,419.9h-11.8c-6.5,0-11.7-5.2-11.7-11.7v-83.7c0-6.5,5.2-11.7,11.7-11.7h11.8c6.5,0,11.7,5.2,11.7,11.7
			v83.7C322.6,414.7,317.3,419.9,310.9,419.9z"/>
	</g>
	<g>
		<g>
			<g>
				<defs>
					<path id="SVGID_1_" d="M345.5,348.7h-22.9v-22.9c0-7.2-5.9-13.1-13.1-13.1h-9.1c-7.2,0-13.1,5.9-13.1,13.1v22.9h-22.9
						c-7.2,0-13.1,5.9-13.1,13.1v9.1c0,7.2,5.9,13.1,13.1,13.1h22.9v22.9c0,7.2,5.9,13.1,13.1,13.1h9.1c7.2,0,13.1-5.9,13.1-13.1
						V384h22.9c7.2,0,13.1-5.9,13.1-13.1v-9.1C358.5,354.6,352.7,348.7,345.5,348.7z"/>
				</defs>
				<clipPath id="SVGID_2_">
					<use xlink:href="#SVGID_1_"  style="overflow:visible;"/>
				</clipPath>
				<rect x="286.8" y="241" class="st6" width="19.3" height="187.6"/>
			</g>
		</g>
	</g>
	<path class="st3" d="M251.3,379.2V353c0-2.5,2-4.5,4.5-4.5H354c2.5,0,4.5,2,4.5,4.5v26.2c0,2.5-2,4.5-4.5,4.5h-98.1
		C253.3,383.7,251.3,381.7,251.3,379.2z"/>
	<g>
		<g>
			<g>
				<defs>
					<path id="SVGID_3_" d="M251.4,379.2V353c0-2.5,2-4.5,4.5-4.5H354c2.5,0,4.5,2,4.5,4.5v26.2c0,2.5-2,4.5-4.5,4.5h-98.1
						C253.4,383.7,251.4,381.7,251.4,379.2z"/>
				</defs>
				<clipPath id="SVGID_4_">
					<use xlink:href="#SVGID_3_"  style="overflow:visible;"/>
				</clipPath>
				<rect x="251" y="365.2" class="st7" width="108.4" height="19.3"/>
			</g>
		</g>
	</g>
	<g>
		<path class="st4" d="M521.8,545.1c-1.1,0-1.9-0.9-1.9-1.9V251.3c0-1.1,0.9-1.9,1.9-1.9s1.9,0.9,1.9,1.9v291.8
			C523.7,544.2,522.9,545.1,521.8,545.1z"/>
	</g>
	<path class="st8" d="M719.4,559.7H686c-2,0-3.7-1.6-3.7-3.7v-20.2c0-2,1.6-3.7,3.7-3.7h33.4c2,0,3.7,1.6,3.7,3.7V556
		C723.1,558.1,721.4,559.7,719.4,559.7z"/>
	<path class="st8" d="M121.8,559.7H88.4c-2,0-3.7-1.6-3.7-3.7v-20.2c0-2,1.6-3.7,3.7-3.7h33.4c2,0,3.7,1.6,3.7,3.7V556
		C125.4,558.1,123.8,559.7,121.8,559.7z"/>
	<g>
		<path class="st4" d="M100.3,458.7c-1.1,0-1.9-0.9-1.9-1.9c0-1.1,0.9-1.9,1.9-1.9l605.7-0.2c1.1,0,1.9,0.9,1.9,1.9
			c0,1.1-0.9,1.9-1.9,1.9L100.3,458.7z"/>
	</g>
	<g>
		<path class="st4" d="M705.9,509.6H102.6c-1.1,0-1.9-0.9-1.9-1.9c0-1.1,0.9-1.9,1.9-1.9h603.3c1.1,0,1.9,0.9,1.9,1.9
			C707.9,508.7,707,509.6,705.9,509.6z"/>
	</g>
	<g>
		<g>
			<g>
				<defs>
					<rect id="SVGID_5_" x="528" y="459.5" width="80.8" height="84.3"/>
				</defs>
				<clipPath id="SVGID_6_">
					<use xlink:href="#SVGID_5_"  style="overflow:visible;"/>
				</clipPath>
				<circle class="st9" cx="608.2" cy="533.2" r="57"/>
			</g>
		</g>
	</g>
	<circle class="st10" cx="607.5" cy="531.3" r="50.1"/>
	<circle class="st3" cx="607.6" cy="531.2" r="18.3"/>
	<path class="st11" d="M622.1,542.7c-6.2,8-17.7,9.5-25.7,3.3s-9.5-17.7-3.3-25.7"/>
	<path class="st2" d="M598.3,272.9h-52c-1.7,0-3.2-1.4-3.2-3.2v-13c0-1.7,1.4-3.2,3.2-3.2h52c1.7,0,3.2,1.4,3.2,3.2v13
		C601.5,271.5,600.1,272.9,598.3,272.9z"/>
	<g>
		<g>
			<g>
				<defs>
					<rect id="SVGID_7_" x="133.7" y="459.5" width="80.8" height="84.3"/>
				</defs>
				<clipPath id="SVGID_8_">
					<use xlink:href="#SVGID_7_"  style="overflow:visible;"/>
				</clipPath>
				<circle class="st12" cx="213.9" cy="533.2" r="57"/>
			</g>
		</g>
	</g>
	<circle class="st10" cx="213.2" cy="531.3" r="50.1"/>
	<circle class="st3" cx="213.3" cy="531.2" r="18.3"/>
	<path class="st11" d="M227.8,542.7c-6.2,8-17.7,9.5-25.7,3.3s-9.5-17.7-3.3-25.7"/>
	<path class="st3" d="M318,420.2h-26.2c-2.5,0-4.5-2-4.5-4.5v-98.1c0-2.5,2-4.5,4.5-4.5H318c2.5,0,4.5,2,4.5,4.5v98.1
		C322.5,418.2,320.5,420.2,318,420.2z"/>
	<g>
		<g>
			<g>
				<defs>
					<path id="SVGID_9_" d="M318,420.2h-26.2c-2.5,0-4.5-2-4.5-4.5v-98.1c0-2.5,2-4.5,4.5-4.5H318c2.5,0,4.5,2,4.5,4.5v98.1
						C322.5,418.2,320.5,420.2,318,420.2z"/>
				</defs>
				<clipPath id="SVGID_10_">
					<use xlink:href="#SVGID_9_"  style="overflow:visible;"/>
				</clipPath>
				<rect x="304" y="312.3" class="st13" width="19.3" height="108.4"/>
			</g>
		</g>
	</g>
</g>
</svg>
