<?xml version="1.0" encoding="utf-8"?>
<!-- Generator: Adobe Illustrator 25.2.1, SVG Export Plug-In . SVG Version: 6.00 Build 0)  -->
<svg version="1.1" id="Layer_1" xmlns="http://www.w3.org/2000/svg" xmlns:xlink="http://www.w3.org/1999/xlink" x="0px" y="0px"
	 viewBox="0 0 800 700" style="enable-background:new 0 0 800 700;" xml:space="preserve">
<style type="text/css">
	.st0{fill:#DFE4E5;}
	.st1{fill:#008855;}
	.st2{fill:#A6ACAD;}
	.st3{opacity:0.1;}
	.st4{fill:#004B2E;}
	.st5{clip-path:url(#SVGID_2_);}
	.st6{opacity:0.25;}
</style>
<g>
	<path class="st0" d="M519.6,212.7H295.4l0,0h-38.3v29.2l25.8,4.8v289.3c0,23.2,18.8,42,42,42h208c9.4,0,17-7.6,17-17V243
		C549.9,226.3,536.3,212.7,519.6,212.7z"/>
	<path class="st1" d="M548,578.4H309v-47h258.8v27.3C567.8,569.6,558.9,578.4,548,578.4z"/>
	<path class="st0" d="M323.4,578.7h-17.9c-12.6,0-22.7-10.2-22.7-22.7v-27.1h50.8v39.7C333.5,574.2,329,578.7,323.4,578.7z"/>
	<g>
		<path class="st2" d="M374.1,287.1h-57.8c-0.9,0-1.7-0.8-1.7-1.7s0.8-1.7,1.7-1.7h57.8c0.9,0,1.7,0.8,1.7,1.7
			S375,287.1,374.1,287.1z"/>
	</g>
	<g>
		<path class="st2" d="M390.2,301.6h-73.9c-0.9,0-1.7-0.8-1.7-1.7s0.8-1.7,1.7-1.7h73.9c0.9,0,1.7,0.8,1.7,1.7
			S391.1,301.6,390.2,301.6z"/>
	</g>
	<g>
		<path class="st2" d="M533.6,483.1h-50.7c-0.9,0-1.7-0.8-1.7-1.7s0.8-1.7,1.7-1.7h50.7c0.9,0,1.7,0.8,1.7,1.7
			S534.6,483.1,533.6,483.1z"/>
	</g>
	<g>
		<path class="st2" d="M515.9,362.8H316.3c-0.9,0-1.7-0.8-1.7-1.7c0-0.9,0.8-1.7,1.7-1.7h199.6c0.9,0,1.7,0.8,1.7,1.7
			C517.6,362,516.8,362.8,515.9,362.8z"/>
	</g>
	<g>
		<path class="st2" d="M515.9,390H316.3c-0.9,0-1.7-0.8-1.7-1.7c0-0.9,0.8-1.7,1.7-1.7h199.6c0.9,0,1.7,0.8,1.7,1.7
			C517.6,389.2,516.8,390,515.9,390z"/>
	</g>
	<g>
		<path class="st2" d="M515.9,419.5H316.3c-0.9,0-1.7-0.8-1.7-1.7s0.8-1.7,1.7-1.7h199.6c0.9,0,1.7,0.8,1.7,1.7
			S516.8,419.5,515.9,419.5z"/>
	</g>
	<path class="st1" d="M253.3,212.7h8.9c11.5,0,20.8,9.3,20.8,20.8v28.1h-50.8v-27.9C232.2,222.1,241.6,212.7,253.3,212.7z"/>
	<path class="st3" d="M251.8,212.7h11.7c10.8,0,19.6,8.8,19.6,19.6v21.9l-45.4-35C238.3,217.4,245.2,212.7,251.8,212.7z"/>
	<path class="st3" d="M508.5,286.1c-0.9-1.2-1.1-2.8-0.3-4.1c0.9-1.7,0.4-3.9-1.3-5h0c-1.3-0.8-1.9-2.3-1.7-3.8
		c0.3-1.9-0.9-3.8-2.8-4.3c-1.5-0.4-2.6-1.6-2.8-3c-0.3-1.9-2.1-3.3-4-3.1c-1.5,0.1-2.9-0.6-3.6-2c-0.9-1.7-3-2.4-4.8-1.7h0
		c-1.4,0.6-3,0.3-4.1-0.7h0c-1.4-1.3-3.7-1.3-5.1,0c-1.1,1-2.7,1.3-4.1,0.7l0,0c-1.8-0.8-3.9-0.1-4.8,1.7c-0.7,1.3-2.1,2.1-3.6,2
		c-2-0.2-3.7,1.2-4,3.1c-0.2,1.5-1.3,2.7-2.8,3c-1.9,0.5-3.1,2.3-2.8,4.3c0.2,1.5-0.4,3-1.7,3.8l0,0c-1.6,1.1-2.2,3.2-1.3,5
		c0.7,1.3,0.6,2.9-0.3,4.1v0c-1.2,1.6-1,3.8,0.4,5.1v0c1.1,1,1.5,2.6,1,4c-0.6,1.9,0.3,3.9,2.1,4.7c1.4,0.6,2.3,2,2.3,3.5
		c0,2,1.5,3.6,3.5,3.8c1.5,0.1,2.8,1.1,3.3,2.5c0.6,1.9,2.6,2.9,4.5,2.4c1.5-0.4,3,0.2,3.9,1.3c1.2,1.5,3.4,1.9,5,0.8
		c1.3-0.8,2.9-0.8,4.1,0c1.6,1.1,3.8,0.7,5-0.8c0.9-1.2,2.5-1.7,3.9-1.3c1.9,0.5,3.9-0.6,4.5-2.4c0.5-1.4,1.8-2.4,3.3-2.5
		c2-0.2,3.5-1.8,3.5-3.8c0-1.5,0.9-2.9,2.3-3.5c1.8-0.8,2.7-2.8,2.1-4.7c-0.5-1.4-0.1-3,1-4v0C509.5,289.8,509.7,287.6,508.5,286.1
		L508.5,286.1z"/>
	<path class="st1" d="M509.1,283.5c-0.9-1.1-1-2.7-0.3-4c0.9-1.7,0.4-3.8-1.2-4.8h0c-1.2-0.8-1.9-2.2-1.6-3.7
		c0.3-1.9-0.9-3.7-2.7-4.2c-1.4-0.4-2.5-1.5-2.7-3c-0.3-1.9-2-3.2-3.9-3.1c-1.5,0.1-2.8-0.6-3.5-1.9c-0.9-1.7-3-2.4-4.7-1.6h0
		c-1.3,0.6-2.9,0.3-4-0.7h0c-1.4-1.3-3.6-1.3-5,0c-1.1,1-2.6,1.2-4,0.7l0,0c-1.7-0.8-3.8-0.1-4.7,1.6c-0.7,1.3-2.1,2-3.5,1.9
		c-1.9-0.2-3.6,1.2-3.9,3.1c-0.2,1.4-1.3,2.6-2.7,3c-1.9,0.5-3,2.3-2.7,4.2c0.2,1.4-0.4,2.9-1.6,3.7l0,0c-1.6,1-2.1,3.1-1.2,4.8
		c0.7,1.3,0.6,2.9-0.3,4v0c-1.2,1.5-1,3.7,0.4,5v0c1.1,1,1.5,2.5,1,3.9c-0.6,1.8,0.2,3.8,2,4.6c1.3,0.6,2.2,1.9,2.2,3.4
		c0,1.9,1.5,3.5,3.4,3.7c1.5,0.1,2.7,1.1,3.2,2.5c0.6,1.8,2.5,2.8,4.4,2.4c1.4-0.4,2.9,0.2,3.8,1.3c1.2,1.5,3.3,1.9,4.9,0.8
		c1.2-0.8,2.8-0.8,4,0c1.6,1,3.7,0.7,4.9-0.8c0.9-1.1,2.4-1.7,3.8-1.3c1.9,0.5,3.8-0.6,4.4-2.4c0.5-1.4,1.7-2.3,3.2-2.5
		c1.9-0.2,3.4-1.7,3.4-3.7c0-1.5,0.9-2.8,2.2-3.4c1.7-0.8,2.6-2.7,2-4.6c-0.5-1.4-0.1-2.9,1-3.9v0
		C510.1,287.2,510.3,285,509.1,283.5L509.1,283.5z"/>
	<path class="st3" d="M505.5,270.5c-0.2,1.4,0.5,2.9,1.7,3.6c1.6,1,2.2,3.1,1.3,4.8c-0.7,1.3-0.5,2.9,0.4,4c1.2,1.5,1.1,3.6-0.3,5
		l0,0c-1.1,1-1.4,2.5-0.9,3.9c0.7,1.8-0.2,3.8-1.9,4.6c-1.3,0.6-2.2,1.9-2.1,3.4c0,1.9-1.4,3.5-3.3,3.7c-1.4,0.1-2.7,1.1-3.1,2.5
		c-0.6,1.8-2.5,2.9-4.3,2.5c-1.4-0.3-2.9,0.2-3.8,1.4c-1.1,1.5-3.3,1.9-4.9,0.9c-1.2-0.8-2.8-0.7-4,0.1c-1.6,1.1-3.7,0.8-4.9-0.7
		c-0.9-1.1-2.4-1.6-3.8-1.2c-1.8,0.5-3.8-0.5-4.4-2.3c-0.5-1.4-1.8-2.3-3.2-2.4c-1.9-0.1-3.4-1.7-3.4-3.6c0-0.6-0.2-1.1-0.4-1.6
		L505,268C505.5,268.7,505.7,269.6,505.5,270.5z"/>
	<g>
		<path class="st4" d="M497.6,482.1c-2.5,0-4.7-2.2-4.7-4.7c0-1.7,0.9-3.1,2.7-4.2c1.3-0.8,3.1-1.3,5.4-1.6c0-0.1,0-0.2,0-0.4
			c0-1.8-0.3-3.4-0.9-4.5c-0.6-1.1-1.4-1.6-2.4-1.6c-6.1,0-11.3,5.5-11.3,11.9h-1.9c0-7.6,5.9-13.9,13.2-13.9c1.8,0,3.2,0.9,4.2,2.7
			c0.9,1.7,1.1,3.9,1.1,5.4c0,0.1,0,0.2,0,0.2c0.3,0,0.7,0,1,0c1.5,0,2,1.4,2.4,2.4c0.2,0.5,0.5,1.3,0.7,1.3c0.3,0,0.4-0.1,0.9-0.7
			c0.6-0.7,1.4-1.8,3.4-1.8c2,0,2.4,1.4,2.7,2.1c0.2,0.7,0.3,0.9,1.1,0.9c1,0,1.5-0.5,2.2-1.2c0.9-1,2.1-2.1,4.6-2.1
			c2.1,0,2.6,0.7,3.1,1.6c0.3,0.6,0.7,1.3,4.5,1.3v1.9c-4.6,0-5.5-1-6.2-2.3c-0.2-0.4-0.3-0.6-1.4-0.6c-1.7,0-2.4,0.7-3.2,1.6
			c-0.8,0.9-1.8,1.8-3.6,1.8c-2.3,0-2.7-1.5-3-2.3c-0.2-0.7-0.2-0.8-0.8-0.8c-1,0-1.4,0.5-1.9,1.1c-0.5,0.6-1.1,1.4-2.4,1.4
			c-1.6,0-2.1-1.5-2.5-2.5c-0.1-0.4-0.4-1.1-0.6-1.2c-0.4,0-0.8,0-1.2,0C502.2,477.6,500.5,482.1,497.6,482.1z M500.8,473.6
			c-1.8,0.2-3.2,0.7-4.2,1.3c-1.1,0.7-1.7,1.5-1.7,2.5c0,1.4,1.3,2.8,2.8,2.8C498.8,480.2,500.3,477.3,500.8,473.6z"/>
	</g>
	<g class="st3">
		<defs>
			<path id="SVGID_1_" class="st3" d="M475.3,578.5l-173.1,0.3c-10.5,0-19.1-8.5-19.1-19l-1-257l101.5,147.7L475.3,578.5z"/>
		</defs>
		<use xlink:href="#SVGID_1_"  style="overflow:visible;"/>
		<clipPath id="SVGID_2_">
			<use xlink:href="#SVGID_1_"  style="overflow:visible;"/>
		</clipPath>
		<g class="st5">
			<path class="st6" d="M518.8,216.1H294.6l0,0h-38.3v29.2l25.8,4.8v306.4c0,13.8,10.1,23.2,23.9,23.2l226.1,1.8c9.4,0,17-7.6,17-17
				v-318C549.1,229.7,535.5,216.1,518.8,216.1z"/>
		</g>
	</g>
</g>
</svg>
