<?xml version="1.0" encoding="utf-8"?>
<!-- Generator: Adobe Illustrator 25.2.1, SVG Export Plug-In . SVG Version: 6.00 Build 0)  -->
<svg version="1.1" id="Layer_1" xmlns="http://www.w3.org/2000/svg" xmlns:xlink="http://www.w3.org/1999/xlink" x="0px" y="0px"
	 viewBox="0 0 800 700" style="enable-background:new 0 0 800 700;" xml:space="preserve">
<style type="text/css">
	.st0{fill:#DFE4E5;}
	.st1{fill:#B7BBBC;}
	.st2{fill:#008855;}
	.st3{fill:#F5FCFC;}
	.st4{fill:#00B16E;}
	.st5{fill:#FFFFFF;}
	.st6{fill:#004B2E;}
	.st7{opacity:0.1;}
	.st8{fill:#A6ACAD;}
	.st9{opacity:0.1;clip-path:url(#SVGID_2_);}
</style>
<g>
	<g>
		<rect x="192.1" y="208.1" class="st0" width="225.6" height="371.9"/>
	</g>
	<g>
		<path class="st1" d="M420.4,443.7h-233c-1.1,0-2-0.8-2-1.8s0.9-1.8,2-1.8h233c1.1,0,2,0.8,2,1.8S421.5,443.7,420.4,443.7z"/>
	</g>
	<g>
		<path class="st1" d="M420.4,454.1h-233c-1.1,0-2-0.8-2-1.8c0-1,0.9-1.8,2-1.8h233c1.1,0,2,0.8,2,1.8
			C422.4,453.3,421.5,454.1,420.4,454.1z"/>
	</g>
	<g>
		<path class="st1" d="M420.4,302.9H191.3c-1.1,0-2-0.8-2-1.8s0.9-1.8,2-1.8h229.1c1.1,0,2,0.8,2,1.8S421.5,302.9,420.4,302.9z"/>
	</g>
	<g>
		<path class="st1" d="M420.4,313.2H191.3c-1.1,0-2-0.8-2-1.8s0.9-1.8,2-1.8h229.1c1.1,0,2,0.8,2,1.8S421.5,313.2,420.4,313.2z"/>
	</g>
	<g>
		<path class="st1" d="M341.5,581.4c-1,0-1.8-0.8-1.8-1.8V208c0-1,0.8-1.8,1.8-1.8c1,0,1.8,0.8,1.8,1.8v371.5
			C343.3,580.5,342.5,581.4,341.5,581.4z"/>
	</g>
	<g>
		<path class="st1" d="M266.2,581.4c-1,0-1.8-0.8-1.8-1.8V208c0-1,0.8-1.8,1.8-1.8s1.8,0.8,1.8,1.8v371.5
			C268,580.5,267.2,581.4,266.2,581.4z"/>
	</g>
	<g>
		<rect x="362.4" y="235.8" class="st2" width="31.8" height="44.9"/>
	</g>
	<g>
		<rect x="287.4" y="235.8" class="st2" width="31.8" height="44.9"/>
	</g>
	<g>
		<rect x="214.7" y="235.8" class="st2" width="31.8" height="44.9"/>
	</g>
	<g>
		<path class="st2" d="M393.9,408.7h-31.8v-54.2c0-8.8,7.1-15.9,15.9-15.9h0c8.8,0,15.9,7.1,15.9,15.9V408.7z"/>
	</g>
	<g>
		<path class="st2" d="M318.8,408.7h-31.8v-54.2c0-8.8,7.1-15.9,15.9-15.9h0c8.8,0,15.9,7.1,15.9,15.9V408.7z"/>
	</g>
	<g>
		<path class="st2" d="M245.7,408.7h-31.8v-54.2c0-8.8,7.1-15.9,15.9-15.9h0c8.8,0,15.9,7.1,15.9,15.9V408.7z"/>
	</g>
	<g>
		<path class="st3" d="M229.8,284.1c-1,0-1.8-1-1.8-2.2v-46.3c0-1.2,0.8-2.2,1.8-2.2s1.8,1,1.8,2.2v46.3
			C231.6,283.1,230.8,284.1,229.8,284.1z"/>
	</g>
	<g>
		<path class="st3" d="M250,262.4h-39.1c-1,0-1.8-0.8-1.8-1.8s0.8-1.8,1.8-1.8H250c1,0,1.8,0.8,1.8,1.8S251,262.4,250,262.4z"/>
	</g>
	<g>
		<path class="st3" d="M303.2,284.1c-1,0-1.8-1-1.8-2.2v-46.3c0-1.2,0.8-2.2,1.8-2.2s1.8,1,1.8,2.2v46.3
			C305,283.1,304.2,284.1,303.2,284.1z"/>
	</g>
	<g>
		<path class="st3" d="M323.4,262.4h-39.1c-1,0-1.8-0.8-1.8-1.8s0.8-1.8,1.8-1.8h39.1c1,0,1.8,0.8,1.8,1.8S324.4,262.4,323.4,262.4z
			"/>
	</g>
	<g>
		<rect x="287.4" y="494.2" class="st2" width="31.8" height="44.9"/>
	</g>
	<g>
		<path class="st3" d="M303.2,542.5c-1,0-1.8-1-1.8-2.2V494c0-1.2,0.8-2.2,1.8-2.2s1.8,1,1.8,2.2v46.3
			C305,541.6,304.2,542.5,303.2,542.5z"/>
	</g>
	<g>
		<path class="st3" d="M323.4,520.8h-39.1c-1,0-1.8-0.8-1.8-1.8c0-1,0.8-1.8,1.8-1.8h39.1c1,0,1.8,0.8,1.8,1.8
			C325.2,520,324.4,520.8,323.4,520.8z"/>
	</g>
	<g>
		<path class="st3" d="M378.3,284.1c-1,0-1.8-1-1.8-2.2v-46.3c0-1.2,0.8-2.2,1.8-2.2s1.8,1,1.8,2.2v46.3
			C380.1,283.1,379.3,284.1,378.3,284.1z"/>
	</g>
	<g>
		<path class="st3" d="M378,408.4c-1,0-1.8-0.8-1.8-1.8v-65.8c0-1,0.8-1.8,1.8-1.8c1,0,1.8,0.8,1.8,1.8v65.8
			C379.8,407.6,379,408.4,378,408.4z"/>
	</g>
	<g>
		<path class="st3" d="M397.5,359.7h-39.1c-1,0-1.8-0.8-1.8-1.8c0-1,0.8-1.8,1.8-1.8h39.1c1,0,1.8,0.8,1.8,1.8
			C399.3,358.9,398.5,359.7,397.5,359.7z"/>
	</g>
	<g>
		<path class="st3" d="M302.9,408.4c-1,0-1.8-0.8-1.8-1.8v-65.8c0-1,0.8-1.8,1.8-1.8c1,0,1.8,0.8,1.8,1.8v65.8
			C304.8,407.6,303.9,408.4,302.9,408.4z"/>
	</g>
	<g>
		<path class="st3" d="M322.5,359.7h-39.1c-1,0-1.8-0.8-1.8-1.8c0-1,0.8-1.8,1.8-1.8h39.1c1,0,1.8,0.8,1.8,1.8
			C324.3,358.9,323.5,359.7,322.5,359.7z"/>
	</g>
	<g>
		<path class="st3" d="M398.2,409.3h-39.1c-1,0-1.8-0.8-1.8-1.8c0-1,0.8-1.8,1.8-1.8h39.1c1,0,1.8,0.8,1.8,1.8
			C400,408.5,399.2,409.3,398.2,409.3z"/>
	</g>
	<g>
		<path class="st3" d="M323.1,409.3H284c-1,0-1.8-0.8-1.8-1.8c0-1,0.8-1.8,1.8-1.8h39.1c1,0,1.8,0.8,1.8,1.8
			C325,408.5,324.1,409.3,323.1,409.3z"/>
	</g>
	<g>
		<path class="st3" d="M229.8,408.4c-1,0-1.8-0.8-1.8-1.8v-65.8c0-1,0.8-1.8,1.8-1.8s1.8,0.8,1.8,1.8v65.8
			C231.6,407.6,230.8,408.4,229.8,408.4z"/>
	</g>
	<g>
		<path class="st3" d="M249.3,359.7h-39.1c-1,0-1.8-0.8-1.8-1.8c0-1,0.8-1.8,1.8-1.8h39.1c1,0,1.8,0.8,1.8,1.8
			C251.1,358.9,250.3,359.7,249.3,359.7z"/>
	</g>
	<g>
		<path class="st3" d="M244.5,409.3h-39.1c-1,0-1.8-0.8-1.8-1.8c0-1,0.8-1.8,1.8-1.8h39.1c1,0,1.8,0.8,1.8,1.8
			C246.3,408.5,245.5,409.3,244.5,409.3z"/>
	</g>
	<g>
		<path class="st3" d="M397.8,262.4h-39.1c-1,0-1.8-0.8-1.8-1.8s0.8-1.8,1.8-1.8h39.1c1,0,1.8,0.8,1.8,1.8S398.9,262.4,397.8,262.4z
			"/>
	</g>
	<g>
		<rect x="362.4" y="494.8" class="st2" width="31.8" height="44.9"/>
	</g>
	<g>
		<rect x="214.7" y="494.8" class="st2" width="31.8" height="44.9"/>
	</g>
	<g>
		<path class="st3" d="M229.8,543c-1,0-1.8-1-1.8-2.2v-46.3c0-1.2,0.8-2.2,1.8-2.2s1.8,1,1.8,2.2v46.3
			C231.6,542.1,230.8,543,229.8,543z"/>
	</g>
	<g>
		<path class="st3" d="M250,521.3h-39.1c-1,0-1.8-0.8-1.8-1.8c0-1,0.8-1.8,1.8-1.8H250c1,0,1.8,0.8,1.8,1.8
			C251.8,520.5,251,521.3,250,521.3z"/>
	</g>
	<g>
		<path class="st3" d="M378.3,543c-1,0-1.8-1-1.8-2.2v-46.3c0-1.2,0.8-2.2,1.8-2.2s1.8,1,1.8,2.2v46.3
			C380.1,542.1,379.3,543,378.3,543z"/>
	</g>
	<g>
		<path class="st3" d="M397.8,521.3h-39.1c-1,0-1.8-0.8-1.8-1.8c0-1,0.8-1.8,1.8-1.8h39.1c1,0,1.8,0.8,1.8,1.8
			C399.7,520.5,398.9,521.3,397.8,521.3z"/>
	</g>
	<g>
		<path class="st2" d="M374,203.8H186c-2.6,0-4.7-2.3-4.7-5.2l0,0c0-2.9,2.1-5.2,4.7-5.2h11.4c1,0,1.9-0.3,2.7-0.9
			c2.6-2,8.8-6.8,10.9-9.3c0.9-1,2.1-1.5,3.3-1.5H372"/>
	</g>
	<g>
		<path class="st2" d="M345.4,203.8H422c2.6,0,4.7-2.3,4.7-5.2l0,0c0-2.9-2.1-5.2-4.7-5.2h-11.4c-1,0-1.9-0.3-2.7-0.9
			c-2.6-2-8.8-6.8-10.9-9.3c-0.9-1-2.1-1.5-3.3-1.5h-48.3"/>
	</g>
	<g>
		<path class="st4" d="M424,214.9C424,214.9,424,214.9,424,214.9l-55.7-0.7H185.1c-2.1,0-3.8-2-3.8-4.4s1.7-4.4,3.8-4.4h183.2
			l55.7,0.7c2.1,0,3.8,2,3.8,4.4C427.8,213,426.1,214.9,424,214.9z"/>
	</g>
	<g>
		<path class="st5" d="M434.4,535.4c-0.8,0-1.4-0.8-1.4-1.7v-50.9c0-0.9,0.6-1.7,1.4-1.7c0.8,0,1.4,0.8,1.4,1.7v50.9
			C435.8,534.6,435.2,535.4,434.4,535.4z"/>
	</g>
	<g>
		<rect x="441.2" y="397.5" class="st0" width="147.3" height="182.7"/>
	</g>
	<g>
		<rect x="537.2" y="429.1" class="st2" width="31.8" height="44.9"/>
	</g>
	<g>
		<rect x="469" y="509.4" class="st2" width="83.2" height="71"/>
	</g>
	<g>
		<polygon class="st6" points="510.6,486.1 531.4,497.8 552.2,509.5 510.6,509.5 469,509.5 489.8,497.8 		"/>
	</g>
	<g>
		<path class="st3" d="M510.6,579.9c-1,0-1.8-0.6-1.8-1.4v-67.6c0-0.8,0.8-1.4,1.8-1.4s1.8,0.6,1.8,1.4v67.6
			C512.4,579.3,511.6,579.9,510.6,579.9z"/>
	</g>
	<g>
		<path class="st6" d="M520.6,547.6h-20c-0.8,0-1.5-0.7-1.5-1.5c0-0.8,0.7-1.5,1.5-1.5h20c0.8,0,1.5,0.7,1.5,1.5
			C522,547,521.4,547.6,520.6,547.6z"/>
	</g>
	<g>
		<path class="st3" d="M572.3,475.3h-38.5c-0.9,0-1.6-0.7-1.6-1.6s0.7-1.6,1.6-1.6h38.5c0.9,0,1.6,0.7,1.6,1.6
			S573.2,475.3,572.3,475.3z"/>
	</g>
	<g>
		<rect x="456.6" y="429.1" class="st2" width="31.8" height="44.9"/>
	</g>
	<g>
		<path class="st3" d="M491.7,475.3h-38.5c-0.9,0-1.6-0.7-1.6-1.6s0.7-1.6,1.6-1.6h38.5c0.9,0,1.6,0.7,1.6,1.6
			S492.6,475.3,491.7,475.3z"/>
	</g>
	<g class="st7">
		<polygon points="192.7,440.9 192.7,577.8 336,577.8 		"/>
	</g>
	<g>
		<path class="st8" d="M669,584.1H131c-1.8,0-3.2-1.4-3.2-3.2s1.4-3.2,3.2-3.2h538c1.8,0,3.2,1.4,3.2,3.2S670.8,584.1,669,584.1z"/>
	</g>
	<g>
		<defs>
			
				<rect id="SVGID_1_" x="562.6" y="397.5" transform="matrix(-1 -1.224647e-16 1.224647e-16 -1 1147.3909 977.6816)" width="22.2" height="182.7"/>
		</defs>
		<clipPath id="SVGID_2_">
			<use xlink:href="#SVGID_1_"  style="overflow:visible;"/>
		</clipPath>
		<g class="st9">
			<path d="M603.4,507.4c1.9-2.9,3.1-6.3,3.1-10c0-9.8-8-17.8-17.8-17.8c-9.8,0-17.8,8-17.8,17.8c0,2.6,0.6,5.1,1.6,7.4
				c-4.9,4.1-8.1,10.2-8.1,17.1c0,12.3,9.9,22.2,22.2,22.2c12.3,0,22.2-9.9,22.2-22.2C608.8,516.3,606.8,511.3,603.4,507.4z"/>
		</g>
	</g>
	<g>
		<g>
			<circle class="st2" cx="594" cy="520.3" r="22.2"/>
		</g>
		<g>
			<circle class="st2" cx="626.4" cy="520.3" r="22.2"/>
		</g>
		<g>
			<circle class="st2" cx="596.1" cy="495.8" r="17.8"/>
		</g>
		<g>
			<circle class="st2" cx="622" cy="495.8" r="17.8"/>
		</g>
		<g>
			<circle class="st2" cx="609.5" cy="472.6" r="17.8"/>
		</g>
	</g>
	<g>
		<path class="st6" d="M609.9,579.3c-1,0-1.8-0.8-1.8-1.8v-86.6c0-1,0.8-1.8,1.8-1.8s1.8,0.8,1.8,1.8v86.6
			C611.7,578.5,610.9,579.3,609.9,579.3z"/>
	</g>
	<g>
		<path class="st6" d="M610.1,526.5c-0.1,0-0.2,0-0.3,0c-1-0.2-1.7-1.1-1.5-2.1c1.1-5.9,6.2-16.8,17.9-15.4c1,0.1,1.7,1,1.6,2.1
			c-0.1,1-1,1.7-2.1,1.6c-11.1-1.4-13.7,11.8-13.8,12.4C611.7,525.9,610.9,526.5,610.1,526.5z"/>
	</g>
	<g>
		<path class="st6" d="M610.3,513.9c-0.4,0-0.8-0.1-1.1-0.4c-0.8-0.6-1-1.8-0.4-2.6l12.6-16.7c0.6-0.8,1.8-1,2.6-0.4
			c0.8,0.6,1,1.8,0.4,2.6l-12.6,16.7C611.4,513.7,610.9,513.9,610.3,513.9z"/>
	</g>
	<g>
		<path class="st6" d="M610.2,526.5c-0.9,0-1.6-0.6-1.8-1.5c-0.1-0.6-2.7-13.7-13.8-12.4c-1,0.1-1.9-0.6-2.1-1.6
			c-0.1-1,0.6-1.9,1.6-2.1c11.7-1.5,16.8,9.4,17.9,15.4c0.2,1-0.5,2-1.5,2.1C610.5,526.5,610.4,526.5,610.2,526.5z"/>
	</g>
	<g>
		<path class="st6" d="M610,513.9c-0.6,0-1.1-0.3-1.5-0.7l-12.6-16.7c-0.6-0.8-0.5-2,0.4-2.6c0.8-0.6,2-0.5,2.6,0.4l12.6,16.7
			c0.6,0.8,0.5,2-0.4,2.6C610.8,513.8,610.4,513.9,610,513.9z"/>
	</g>
</g>
</svg>
