<svg xmlns="http://www.w3.org/2000/svg" xmlns:xlink="http://www.w3.org/1999/xlink" width="24" height="24"
     xmlns:v="https://vecta.io/nano">
    <defs>
        <path d="M12 2C6.48 2 2 6.48 2 12s4.48 10 10 10 10-4.48 10-10S17.52 2 12 2zm0 16.75a1 1 0 1 1 0-2 1 1 0 1 1 0 2zm2.686-7.375l-.787.828c-.63.657-1.024 1.197-1.024 2.547h-1.75v-.45c0-1 .394-1.9 1.024-2.547l1.085-1.134c.324-.324.516-.774.516-1.27 0-1-.787-1.8-1.75-1.8s-1.75.8-1.75 1.8H8.5c0-1.99 1.566-3.6 3.5-3.6s3.5 1.61 3.5 3.6c0 .792-.315 1.512-.814 2.025z"
              id="A"/>
    </defs>
    <use fill="#000" xlink:href="#A" fill-rule="evenodd"/>
</svg>