<svg xmlns="http://www.w3.org/2000/svg" width="24" height="24" xmlns:v="https://vecta.io/nano">
    <path d="M20.632 3.483l.707.707-16.97 16.97-.707-.707 16.97-16.97zm-2.648 4.77c1.5 1.072 2.89 2.4 4.016 3.747-1.204 1.454-2.6 2.903-4.19 4.007-1.7 1.19-3.635 1.993-5.812 1.993a9.04 9.04 0 0 1-3.176-.585l1.697-1.696c.457.182.956.282 1.48.282 1.105 0 2.105-.447 2.828-1.17h0c.727-.727 1.174-1.727 1.174-2.828 0-.524-.1-1.024-.283-1.482zM11.998 6c1.42 0 2.86.448 4.238 1.172l-1.72 1.72A3.98 3.98 0 0 0 11.998 8c-1.1 0-2.1.447-2.824 1.175h0A3.98 3.98 0 0 0 8 12.003c0 .954.333 1.83.9 2.517l-1.967 1.968-.737-.48C4.6 14.9 3.204 13.453 2 12c1.35-1.602 3.06-3.203 4.923-4.35C8.55 6.65 10.288 6 11.998 6zm2.924 5.315c.05.22.078.45.078.685 0 .828-.336 1.58-.875 2.12S12.833 15 12 15c-.236 0-.465-.027-.684-.08zM12 9c.677 0 1.303.225 1.806.604l-4.2 4.2C9.225 13.3 9 12.677 9 12a2.97 2.97 0 0 1 .88-2.12h0A2.98 2.98 0 0 1 12 9z"
          fill-rule="evenodd"/>
</svg>