<svg xmlns="http://www.w3.org/2000/svg" xmlns:xlink="http://www.w3.org/1999/xlink" width="24" height="24" xmlns:v="https://vecta.io/nano"><defs><path d="M12 2C6.47 2 2 6.48 2 12s4.47 10 10 10A10.01 10.01 0 0 0 22 12 10.01 10.01 0 0 0 11.99 2zM12 20a8 8 0 1 1 0-16 8 8 0 1 1 0 16zm-.075-13.85c-.51 0-.925.414-.925.925v6.27a.5.5 0 0 0 .271.444l4.35 2.243a.96.96 0 0 0 1.26-.358.82.82 0 0 0-.344-1.162l-3.688-1.8V7.075c0-.51-.414-.925-.925-.925z" id="A"/></defs><use fill="#000" xlink:href="#A" fill-rule="evenodd"/></svg>