<svg xmlns="http://www.w3.org/2000/svg" xmlns:xlink="http://www.w3.org/1999/xlink" width="24" height="24" xmlns:v="https://vecta.io/nano"><defs><path d="M17.25 9h-.875V7.286C16.375 4.92 14.415 3 12 3S7.625 4.92 7.625 7.286V9H6.75C5.788 9 5 9.77 5 10.714v8.57C5 20.23 5.788 21 6.75 21h10.5c.962 0 1.75-.77 1.75-1.714v-8.57C19 9.77 18.213 9 17.25 9zM12 17c-1.1 0-2-.9-2-2s.9-2 2-2 2 .9 2 2-.9 2-2 2zm3-8H9V7.04C9 5.363 10.345 4 12 4s3 1.363 3 3.04V9z" id="A"/></defs><use fill="#000" xlink:href="#A" fill-rule="evenodd"/></svg>