<svg xmlns="http://www.w3.org/2000/svg" width="42" height="32" xmlns:v="https://vecta.io/nano">
    <path d="M10.018 32C15.43 32 19 28.128 19 23.687c0-4.783-2.994-7.858-8.176-7.858-1.036 0-1.842.228-2.418.57.23-5.238 5.067-8.77 9.442-9.452V0C10.594.683 0 5.808 0 21.068 0 27.103 3.915 32 10.018 32zm23 0C38.43 32 42 28.128 42 23.687c0-4.783-2.994-7.858-8.176-7.858-1.036 0-1.842.228-2.418.57.23-5.238 5.067-8.77 9.442-9.452V0C33.594.683 23 5.808 23 21.068 23 27.103 26.915 32 33.018 32z"
          fill-rule="evenodd"/>
</svg>