<svg xmlns="http://www.w3.org/2000/svg" width="248" height="240" xmlns:v="https://vecta.io/nano">
    <path d="M104 0c13.255 0 24 10.745 24 24v192c0 13.255-10.745 24-24 24H24c-13.255 0-24-10.745-24-24V24C0 10.745 10.745 0 24 0h80zM32 16V8h-8C15.27 8 8.17 14.994 8.003 23.685L8 24v192c0 8.73 6.994 15.83 15.685 15.997L24 232h80c8.73 0 15.83-6.994 15.997-15.685L120 216V24c0-8.73-6.994-15.83-15.685-15.997L104 8h-8v8h-8v8H40v-8h-8z"/>
    <path d="M224 88c13.255 0 24 10.745 24 24v80c0 13.255-10.745 24-24 24h-96v-8h96c8.73 0 15.83-6.994 15.997-15.685L240 192v-8h-8v-8h-8v-48h8v-8h8v-8c0-8.73-6.994-15.83-15.685-15.997L224 96h-96v-8h96zm-55.103-73v8.887c15.158.933 27.22 13.313 27.648 28.603h9.228l-12.216 18.897L181.34 52.5l8.2-.001v-.02c-.43-11.413-9.36-20.65-20.643-21.564v8.526L150 27.216 168.897 15z"/>
</svg>