<svg xmlns="http://www.w3.org/2000/svg" xmlns:xlink="http://www.w3.org/1999/xlink" width="24" height="24" xmlns:v="https://vecta.io/nano"><defs><path d="M21.878 10.44c-.027-.178-.158-.32-.336-.364l-1.03-.248c-.566-.136-.975-.446-1.15-.876s-.11-.938.195-1.434l.552-.902a.45.45 0 0 0-.02-.494c-.616-.848-1.36-1.592-2.21-2.21a.44.44 0 0 0-.263-.086c-.082 0-.16.022-.23.064l-.902.552c-.3.2-.636.3-.94.3-.658 0-1.184-.478-1.37-1.246l-.246-1.033c-.045-.176-.188-.306-.364-.333A10.07 10.07 0 0 0 11.999 2c-.524 0-1.05.04-1.56.12-.177.027-.322.16-.363.334l-.25 1.03c-.187.77-.7 1.246-1.37 1.246-.305 0-.63-.1-.94-.3l-.903-.553c-.07-.042-.15-.064-.23-.064a.44.44 0 0 0-.263.086c-.848.616-1.59 1.36-2.21 2.21-.106.146-.115.34-.022.494l.554.902c.303.495.373 1.003.195 1.434s-.586.74-1.15.875l-1.03.248c-.176.044-.307.187-.334.364-.08.524-.12 1.05-.12 1.56a10.27 10.27 0 0 0 .121 1.562c.027.177.16.323.335.363l1.03.25c.565.136.974.448 1.15.876s.108.94-.195 1.436l-.553.902c-.093.155-.084.348.02.493.62.85 1.362 1.594 2.21 2.21a.44.44 0 0 0 .261.086c.083 0 .163-.023.233-.066l.902-.55c.313-.19.64-.292.94-.292.658 0 1.183.478 1.37 1.248l.25 1.03c.04.174.183.306.363.336a10.22 10.22 0 0 0 1.563.121 10.25 10.25 0 0 0 1.562-.121.45.45 0 0 0 .363-.336l.246-1.03c.187-.77.71-1.248 1.37-1.248.3 0 .628.1.94.292l.9.55a.44.44 0 0 0 .234.067c.094 0 .185-.03.26-.086.85-.616 1.592-1.36 2.21-2.21.106-.146.114-.34.02-.494l-.552-.9c-.305-.497-.375-1.007-.195-1.436s.585-.74 1.15-.876l1.03-.248c.174-.04.3-.188.335-.363A10.22 10.22 0 0 0 22 11.998c-.001-.51-.042-1.034-.122-1.56h0zM12 17.294c-2.92 0-5.295-2.377-5.295-5.296a5.3 5.3 0 0 1 5.295-5.293 5.3 5.3 0 0 1 5.294 5.293c-.001 2.92-2.375 5.296-5.294 5.296z" id="A"/></defs><use fill="#000" xlink:href="#A" fill-rule="evenodd"/></svg>