<svg xmlns="http://www.w3.org/2000/svg" width="24" height="24" xmlns:v="https://vecta.io/nano"><path d="M14.125 14.12c.54-.54.875-1.292.875-2.12s-.336-1.58-.875-2.12S12.828 9 12 9s-1.58.336-2.12.875v.005A2.97 2.97 0 0 0 9 12c0 .828.336 1.576.88 2.12S11.173 15 12 15c.833 0 1.58-.336 2.124-.88h0zM16 12.003a4 4 0 0 1-1.17 2.828h-.004c-.723.723-1.723 1.17-2.828 1.17s-2.105-.447-2.828-1.17S8 13.108 8 12.003s.447-2.105 1.17-2.828h.004C9.897 8.447 10.897 8 11.998 8s2.105.447 2.832 1.175c.723.723 1.17 1.723 1.17 2.828zm-9.814 4.004C7.9 17.196 9.826 18 11.998 18c2.177 0 4.112-.804 5.812-1.993C19.4 14.902 20.796 13.454 22 12c-1.35-1.6-3.06-3.204-4.927-4.35-1.626-1-3.366-1.65-5.075-1.65s-3.448.65-5.075 1.65C5.06 8.797 3.35 10.398 2 12c1.204 1.453 2.6 2.902 4.186 4.007h0z" fill-rule="evenodd"/></svg>