<svg xmlns="http://www.w3.org/2000/svg" width="32" height="32" xmlns:v="https://vecta.io/nano"><path d="M28 8.31a10.26 10.26 0 0 1-2.835.777c1.02-.61 1.8-1.566 2.165-2.72-.95.567-2 .968-3.12 1.19A4.93 4.93 0 0 0 20.616 6a4.92 4.92 0 0 0-4.917 4.922c0 .4.033.765.114 1.122-4.09-.2-7.7-2.16-10.14-5.146-.425.736-.674 1.58-.674 2.487 0 1.704.878 3.214 2.186 4.09a4.86 4.86 0 0 1-2.223-.606v.054c0 2.39 1.705 4.377 3.942 4.835a4.91 4.91 0 0 1-1.29.162 4.35 4.35 0 0 1-.931-.084c.637 1.948 2.447 3.38 4.598 3.427-1.674 1.3-3.8 2.1-6.1 2.1-.404 0-.79-.018-1.178-.067a13.85 13.85 0 0 0 7.548 2.208c9.054 0 14.004-7.5 14.004-14 0-.218-.008-.428-.018-.636C26.51 10.17 27.33 9.305 28 8.31z" fill-rule="evenodd"/></svg>