<svg xmlns="http://www.w3.org/2000/svg" xmlns:xlink="http://www.w3.org/1999/xlink" width="57" height="44"
     xmlns:v="https://vecta.io/nano">
    <defs>
        <path d="M3 0h42.5v22.89a2 2 0 0 1-2 2H0V3a3 3 0 0 1 3-3z" id="A"/>
        <path d="M2 0h45a2 2 0 0 1 2 2v28a2 2 0 0 1-2 2H2a2 2 0 0 1-2-2V2a2 2 0 0 1 2-2z" id="B"/>
        <rect id="C" x="26.25" y="8.889" width="3.5" height="21.333" rx="1"/>
        <filter x="-28.6%" y="-4.7%" width="157.1%" height="118.7%" id="D">
            <feOffset dy="2" in="SourceAlpha"/>
            <feColorMatrix values="0 0 0 0 0 0 0 0 0 0 0 0 0 0 0 0 0 0 0.1 0"/>
        </filter>
        <path d="M27.222 9.056h1.556a1 1 0 0 1 1 1v19a1 1 0 0 1-1 1h-1.556a1 1 0 0 1-1-1v-19a1 1 0 0 1 1-1z" id="E"/>
        <filter x="-28.1%" y="-4.8%" width="156.2%" height="119.0%" id="F">
            <feOffset dy="2" in="SourceAlpha"/>
            <feColorMatrix values="0 0 0 0 0 0 0 0 0 0 0 0 0 0 0 0 0 0 0.1 0"/>
        </filter>
    </defs>
    <g transform="translate(.5 .667)" fill="none" fill-rule="evenodd">
        <path d="M2 0h45a2 2 0 0 1 2 2v28a2 2 0 0 1-2 2H2a2 2 0 0 1-2-2V2a2 2 0 0 1 2-2z" fill="#004b2e"/>
        <rect x="5.25" y="3.556" width="10.5" height="7.111" rx="1" fill="#007e4e"/>
        <g transform="translate(3.5 7.111)">
            <use fill="#004b2e" opacity=".25" xlink:href="#A"/>
            <g transform="translate(3.5 3.556)">
                <mask id="G" fill="#fff">
                    <use xlink:href="#B"/>
                </mask>
                <use fill="#00b16e" xlink:href="#B"/>
                <path fill="#004b2e" mask="url(#G)" d="M0 5.333h49v5.333H0z"/>
            </g>
            <use fill="#000" filter="url(#D)" xlink:href="#C"/>
            <use fill="#fff" xlink:href="#C"/>
            <g transform="matrix(0 1 -1 0 47.555556 -8.444444)">
                <use fill="#000" filter="url(#F)" xlink:href="#E"/>
                <use fill="#fff" xlink:href="#E"/>
            </g>
        </g>
    </g>
</svg>