<svg xmlns="http://www.w3.org/2000/svg" xmlns:xlink="http://www.w3.org/1999/xlink" width="68" height="50"
     xmlns:v="https://vecta.io/nano">
    <defs>
        <path d="M2 0h53.375a2 2 0 0 1 2 2v29.214a2 2 0 0 1-2 2H2a2 2 0 0 1-2-2V2a2 2 0 0 1 2-2z" id="A"/>
        <filter x="-12.3%" y="-16.4%" width="125.7%" height="135.5%" id="B">
            <feOffset dy="2" in="SourceAlpha"/>
            <feColorMatrix values="0 0 0 0 0 0 0 0 0 0 0 0 0 0 0 0 0 0 0.1 0" result="B"/>
            <feMerge>
                <feMergeNode in="B"/>
                <feMergeNode in="SourceGraphic"/>
            </feMerge>
        </filter>
    </defs>
    <g transform="translate(.25 .643)" fill="none" fill-rule="evenodd">
        <g transform="matrix(1 0 0 1 0 0)">
            <use fill="#004b2e" xlink:href="#A"/>
            <g fill="#00b16e">
                <path d="M4.5 25.464h9v2.214h-9z"/>
                <rect x="4.5" y="4.429" width="9" height="6.643" rx="1"/>
            </g>
        </g>
        <path d="M10.875 13.286h46.5v15.93a4 4 0 0 1-4 4h-45.5v-16.93a3 3 0 0 1 3-3z" fill="#000" fill-opacity=".15"/>
        <g transform="matrix(1 0 0 1 10.125 15.5)">
            <mask id="C" fill="#fff">
                <use xlink:href="#B" href="#A"/>
            </mask>
            <use fill="#00b16e" xlink:href="#B" href="#A"/>
            <path fill="#007e4e" opacity=".25" mask="url(#C)" d="M57.375 0v33.214H0z"/>
            <path fill="#015b44" mask="url(#C)" d="M0 5.536h57.375v4.43H0z"/>
        </g>
        <g filter="url(#B)" transform="translate(22.5 19.929)" fill="#fff">
            <path d="M23.945.003c-.212.023-.37.182-.37.372v4.442H12.793c-.23.001-.416.167-.418.372v5.133c.001.205.188.37.418.372h10.782v4.442c.004.15.107.282.264.337a.46.46 0 0 0 .452-.082l8.215-7.375c.158-.145.158-.376 0-.52L24.29.11c-.09-.08-.22-.12-.346-.106h0z"/>
            <path d="M8.587 8.86c-.094.01-.184.046-.25.106L.124 16.34c-.08.07-.124.166-.124.266s.045.195.124.266l8.213 7.376a.46.46 0 0 0 .458.08c.157-.058.258-.194.258-.345V19.55h10.78c.23-.001.416-.167.418-.372v-5.133c.003-.1-.04-.197-.12-.27a.45.45 0 0 0-.298-.113H9.053V9.23c0-.106-.05-.207-.14-.278a.45.45 0 0 0-.325-.094h0z"/>
        </g>
    </g>
</svg>