<svg xmlns="http://www.w3.org/2000/svg" xmlns:xlink="http://www.w3.org/1999/xlink" width="68" height="41"
     xmlns:v="https://vecta.io/nano">
    <defs>
        <path d="M2 0h63.5a2 2 0 0 1 2 2v36.5a2 2 0 0 1-2 2H2a2 2 0 0 1-2-2V2a2 2 0 0 1 2-2z" id="A"/>
    </defs>
    <g transform="translate(.25 .25)" fill-rule="evenodd">
        <mask id="B" fill="#fff">
            <use xlink:href="#A"/>
        </mask>
        <use fill="#00b16e" xlink:href="#A"/>
        <g fill="#004b2e">
            <path opacity=".25" mask="url(#B)" d="M67.5 0v40.5H0z"/>
            <path d="M13.5 30.375v3.375H3.375v-3.375H13.5zm16.875 0v3.375H20.25v-3.375h10.125zm16.875 0v3.375H37.125v-3.375H47.25zm16.875 0v3.375H54v-3.375h10.125zM17 4.5a1 1 0 0 1 1 1v7a1 1 0 0 1-1 1H4.375a1 1 0 0 1-1-1v-7a1 1 0 0 1 1-1H17z"/>
        </g>
    </g>
</svg>