<?xml version="1.0" encoding="UTF-8"?>
<svg width="68px" height="41px" viewBox="0 0 68 41" version="1.1" xmlns="http://www.w3.org/2000/svg" xmlns:xlink="http://www.w3.org/1999/xlink">
    <title>UI Elements/Icon / Account Settings / Card Services</title>
    <defs>
        <path d="M2,0 L65.5,0 C66.6045695,-2.02906125e-16 67.5,0.8954305 67.5,2 L67.5,38.5 C67.5,39.6045695 66.6045695,40.5 65.5,40.5 L2,40.5 C0.8954305,40.5 1.3527075e-16,39.6045695 0,38.5 L0,2 C-1.3527075e-16,0.8954305 0.8954305,2.02906125e-16 2,0 Z" id="path-1"></path>
    </defs>
    <g id="Iconography-&amp;-Interface-Details" stroke="none" stroke-width="1" fill="none" fill-rule="evenodd">
        <g id="Icons" transform="translate(-785.000000, -164.000000)">
            <g id="Card-Services-Copy" transform="translate(783.000000, 153.000000)">
                <rect id="Rectangle" x="0" y="0" width="72" height="63"></rect>
                <g id="Card-Services" transform="translate(2.250000, 11.250000)">
                    <g id="Group" transform="translate(33.750000, 20.250000) rotate(-360.000000) translate(-33.750000, -20.250000) ">
                        <g id="Group-5">
                            <mask id="mask-2" fill="white">
                                <use xlink:href="#path-1"></use>
                            </mask>
                            <use id="Rectangle" fill="#00B16E" xlink:href="#path-1"></use>
                            <polygon id="Shadow" fill="#004B2E" opacity="0.25" mask="url(#mask-2)" points="67.5 -2.97450953e-12 67.5 40.5 1.59872116e-14 40.5"></polygon>
                        </g>
                        <path d="M13.5,30.375 L13.5,33.75 L3.375,33.75 L3.375,30.375 L13.5,30.375 Z M30.375,30.375 L30.375,33.75 L20.25,33.75 L20.25,30.375 L30.375,30.375 Z M47.25,30.375 L47.25,33.75 L37.125,33.75 L37.125,30.375 L47.25,30.375 Z M64.125,30.375 L64.125,33.75 L54,33.75 L54,30.375 L64.125,30.375 Z M17,4.5 C17.5522847,4.5 18,4.94771525 18,5.5 L18,12.5 C18,13.0522847 17.5522847,13.5 17,13.5 L4.375,13.5 C3.82271525,13.5 3.375,13.0522847 3.375,12.5 L3.375,5.5 C3.375,4.94771525 3.82271525,4.5 4.375,4.5 L17,4.5 Z" id="Detail" fill="#004B2E"></path>
                    </g>
                </g>
            </g>
        </g>
    </g>
</svg>