<svg xmlns="http://www.w3.org/2000/svg" xmlns:xlink="http://www.w3.org/1999/xlink" width="50" height="59"
     xmlns:v="https://vecta.io/nano">
    <defs>
        <path d="M2 0h43.25a2 2 0 0 1 2 2v27.5a2 2 0 0 1-2 2H2a2 2 0 0 1-2-2V2a2 2 0 0 1 2-2z" id="A"/>
        <path d="M2 0h45.5a2 2 0 0 1 2 2v29.75a2 2 0 0 1-2 2H2a2 2 0 0 1-2-2V2a2 2 0 0 1 2-2z" id="B"/>
    </defs>
    <g transform="translate(.25 .25)" fill="none" fill-rule="evenodd">
        <g transform="matrix(0 1 -1 0 40.5 0)">
            <use fill="#004b2e" xlink:href="#A"/>
            <g fill="#00b16e">
                <path d="M3.405 22.5h6.713v2.25H3.405zm12.345 0h6.75v2.25h-6.75zm10.374.662h6.247v1.853h-6.247zm11.246 0h6.247v1.853H37.37z"/>
                <rect x="3.635" y="3.706" width="8.178" height="6.485" rx="1"/>
            </g>
        </g>
        <use fill="#00b16e" xlink:href="#B" transform="translate(0 24.75)"/>
        <path d="M36.75 38.25H49.5V45H36.75a3 3 0 0 1-3-3v-.75a3 3 0 0 1 3-3z" fill="#007e4e"/>
        <circle fill="#fff" cx="37.125" cy="41.625" r="2.25"/>
        <path fill-opacity=".2" fill="#000" d="M9 22.5h31.5v2.25H9z"/>
    </g>
</svg>