<svg xmlns="http://www.w3.org/2000/svg" xmlns:xlink="http://www.w3.org/1999/xlink" width="67" height="40"
     xmlns:v="https://vecta.io/nano">
    <defs>
        <rect id="A" width="55.34" height="28.569" rx="1"/>
    </defs>
    <g transform="translate(.323 .25)" fill="none" fill-rule="evenodd">
        <path d="M2.215 2.25h9.96c.612 0 1.108-.504 1.108-1.125S12.788 0 12.176 0H1.108C.496 0 0 .504 0 1.125v10.988c0 .62.496 1.125 1.108 1.125s1.108-.504 1.108-1.125V2.25zm61.98 0h-9.96c-.612 0-1.108-.504-1.108-1.125S53.623 0 54.234 0h11.068c.612 0 1.108.504 1.108 1.125v10.988c0 .62-.496 1.125-1.108 1.125s-1.108-.504-1.108-1.125V2.25zm-61.98 35.1h9.96c.612 0 1.108.504 1.108 1.125s-.496 1.125-1.108 1.125H1.108C.496 39.6 0 39.105 0 38.484V27.496c0-.62.496-1.125 1.108-1.125s1.108.504 1.108 1.125v9.863zm52.02 0c-.612 0-1.108.504-1.108 1.125s.496 1.125 1.108 1.125h11.068c.612 0 1.108-.504 1.108-1.125v-10.99c0-.62-.496-1.125-1.108-1.125s-1.108.504-1.108 1.125v9.863h-9.96z"
              fill="#004b2e"/>
        <g transform="translate(5.535 5.52)">
            <mask id="B" fill="#fff">
                <use xlink:href="#A"/>
            </mask>
            <use fill="#00b16e" xlink:href="#A"/>
            <rect fill="#004b2e" mask="url(#B)" x="4.427" y="23.075" width="46.486" height="1.099" rx=".5"/>
            <path d="M25.457 17.407c0-3.988 3.08-7.518 7.036-7.518s2.53 9.89 0 9.89-4.288-5.043 3.605-5.043c.95 0 .758 2.176 1.778 2.176s.912-1.448 2.46-1.448.436 1.758 2.193 1.758 1.64-1.97 3.9-1.97.03 1.66 4.362 1.66"
                  stroke="#023f2c" mask="url(#B)"/>
            <path d="M8.8 11.246c0-.31-.127-.574-.38-.796s-.67-.42-1.248-.593c-.8-.212-1.405-.494-1.813-.848s-.612-.825-.612-1.415c0-.572.187-1.04.562-1.4s.9-.577 1.548-.65v-1.15h.94V5.55c.666.083 1.182.332 1.548.746s.55.97.55 1.667H8.72c0-.472-.125-.853-.374-1.144s-.596-.437-1.04-.437c-.468 0-.817.107-1.05.32s-.348.505-.348.877c0 .336.12.61.36.817s.673.406 1.3.593c.812.23 1.414.514 1.807.856s.588.805.588 1.392c0 .597-.204 1.07-.612 1.423s-.97.56-1.682.627v1h-.933v-.994c-.68-.062-1.24-.28-1.676-.653s-.646-.92-.63-1.64l.012-.026h1.13c0 .534.154.915.46 1.142s.684.34 1.132.34c.51 0 .9-.107 1.198-.32s.43-.51.43-.887z"
                  fill="#004b2e" mask="url(#B)"/>
        </g>
    </g>
</svg>