<svg xmlns="http://www.w3.org/2000/svg" xmlns:xlink="http://www.w3.org/1999/xlink" width="68" height="41"
     xmlns:v="https://vecta.io/nano">
    <defs>
        <rect id="A" width="67.5" height="40.5" rx="1"/>
    </defs>
    <g transform="matrix(1 0 0 -1 .25 40.75)" fill="none" fill-rule="evenodd">
        <mask id="B" fill="#fff">
            <use xlink:href="#A"/>
        </mask>
        <use fill="#007e4e" xlink:href="#A"/>
        <path d="M33.75-1.4c.93 0 1.86.26 2.675.776h0L70.948 21.25H-3.448L31.075-.614c.817-.517 1.746-.776 2.675-.776z"
              stroke="#004b2e" stroke-width="2" mask="url(#B)" transform="matrix(1 0 0 -1 0 19.125)"/>
        <path d="M36.132 11.114L67.5 34.37v5.005H0V34.37l31.368-23.256a4 4 0 0 1 4.765 0z" fill-opacity=".5" fill="#000"
              opacity=".25" mask="url(#B)"/>
        <path d="M36.044 16.23L67.5 38.25H0l31.456-22.02a4 4 0 0 1 4.588 0z" fill="#004b2e" mask="url(#B)"/>
        <path d="M33.75 14.165a5.49 5.49 0 0 1 3.346 1.135h0L71.922 42H-4.422l34.826-26.7a5.49 5.49 0 0 1 3.346-1.135z"
              stroke="#004b2e" stroke-width="3" fill="#00b16e" mask="url(#B)"/>
    </g>
</svg>