<svg xmlns="http://www.w3.org/2000/svg" width="55" height="53" fill-rule="evenodd" xmlns:v="https://vecta.io/nano">
    <path d="M8.875.625h37.25a8 8 0 0 1 8 8v35.75a8 8 0 0 1-8 8H8.875a8 8 0 0 1-8-8V8.625a8 8 0 0 1 8-8zm29.506 7.46c-.495 0-.896-.4-.896-.917s.4-.917.896-.917h4.82c1.48 0 2.823.62 3.798 1.616a5.55 5.55 0 0 1 1.579 3.887v4.83c0 .507-.4.917-.896.917s-.896-.4-.896-.917v-4.83c0-1.008-.403-1.925-1.054-2.6s-1.546-1.078-2.53-1.078h-4.82zm8.41 28.34c0-.51.4-.924.894-.924s.894.413.894.924v4.78a5.63 5.63 0 0 1-1.574 3.917c-.972 1.005-2.312 1.628-3.787 1.628h-4.84c-.494 0-.894-.413-.894-.924s.4-.924.894-.924h4.84c.982 0 1.876-.415 2.523-1.087a3.75 3.75 0 0 0 1.051-2.61v-4.78zm-30.188 8.478c.504 0 .912.413.912.924s-.408.924-.912.924h-4.7c-1.505 0-2.873-.625-3.865-1.628s-1.607-2.39-1.607-3.917v-4.78c0-.51.408-.924.912-.924s.912.413.912.924v4.78a3.7 3.7 0 0 0 1.072 2.61c.66.67 1.573 1.087 2.576 1.087h4.7zm-8.38-28.325c0 .5-.403.923-.9.923s-.9-.413-.9-.923V11.8a5.6 5.6 0 0 1 1.587-3.914c.98-1.005 2.33-1.627 3.818-1.627h4.79c.498 0 .9.413.9.923s-.403.923-.9.923h-4.79c-1 0-1.89.415-2.544 1.086a3.73 3.73 0 0 0-1.059 2.608v4.786zm11.51-.202c.61 0 1.11.4 1.11.868v2.764c0 .476-.498.868-1.11.868s-1.11-.4-1.11-.868v-2.764c0-.476.498-.868 1.11-.868zm7.47 4.162c.002-.433.496-.788 1.005-.787s.92.353.918.787v6.325c-.004.472.038 1.356-.305 1.94-.4.68-1.26 1.103-2.64 1.073-.51-.01-.912-.37-.9-.802s.434-.776.943-.765c.5.01.723-.123.827-.3.163-.275.15-.83.152-1.142v-6.325zm-7.092 10.75c.4-.383.99-.27 1.29.253.177.308.383.585.615.84 1.132 1.235 2.848 1.878 4.632 1.903 1.8.028 3.64-.576 4.988-1.832a6.12 6.12 0 0 0 .893-1.04c.33-.494.915-.55 1.302-.13s.432 1.162.1 1.653a8.15 8.15 0 0 1-1.204 1.407c-1.68 1.563-3.927 2.314-6.102 2.282-2.193-.032-4.345-.863-5.81-2.463a7.11 7.11 0 0 1-.906-1.235c-.302-.52-.213-1.256.2-1.64zm15.153-14.91c.555 0 1.11.4 1.11.868v2.764c0 .476-.498.868-1.11.868s-1.11-.4-1.11-.868v-2.764c0-.476.555-.868 1.11-.868z"
          fill="#00b16e"/>
    <path fill="#007e4e" opacity=".25" d="M.875 52.375L53.775-.24l.35 52.262z"/>
</svg>