<?xml version="1.0" encoding="UTF-8"?>
<svg width="55px" height="53px" viewBox="0 0 55 53" version="1.1" xmlns="http://www.w3.org/2000/svg" xmlns:xlink="http://www.w3.org/1999/xlink">
    <title>UI Elements/Icon / Account Settings / FaceID</title>
    <g id="Iconography-&amp;-Interface-Details" stroke="none" stroke-width="1" fill="none" fill-rule="evenodd">
        <g id="Icons" transform="translate(-1296.000000, -158.000000)">
            <g id="UI-Elements/Icon-/-Account-Settings-/-FaceID" transform="translate(1288.000000, 153.000000)">
                <rect id="Rectangle" x="0" y="0" width="71" height="63"></rect>
                <g id="Path-10" transform="translate(8.875000, 5.625000)">
                    <g id="Mask" fill="#00B16E">
                        <path d="M8,0 L45.25,0 C49.668278,-8.11624501e-16 53.25,3.581722 53.25,8 L53.25,43.75 C53.25,48.168278 49.668278,51.75 45.25,51.75 L8,51.75 C3.581722,51.75 5.41083001e-16,48.168278 0,43.75 L0,8 C-5.41083001e-16,3.581722 3.581722,8.11624501e-16 8,0 Z M37.50555,7.45911453 C37.0101893,7.45911453 36.609375,7.04894691 36.609375,6.54205727 C36.609375,6.03516762 37.0102027,5.625 37.50555,5.625 L42.3260752,5.625 C43.8051223,5.625 45.1493848,6.2447473 46.1243335,7.24057978 C47.0992823,8.23824638 47.703125,9.61383228 47.703125,11.1273436 L47.703125,15.9579427 C47.703125,16.4648461 47.3022973,16.875 46.80695,16.875 C46.3116028,16.875 45.9107751,16.4648324 45.9107751,15.9579427 L45.9107751,11.1273436 C45.9107751,10.1189474 45.5081953,9.20189016 44.8570525,8.53739046 C44.2076841,7.87289077 43.3115092,7.45911453 42.3260752,7.45911453 L37.50555,7.45911453 Z M45.9161163,35.7991005 C45.9161163,35.288304 46.3157495,34.875 46.8096207,34.875 C47.3034918,34.875 47.703125,35.2883178 47.703125,35.7991005 L47.703125,40.5803967 C47.703125,42.1055323 47.0992948,43.4916831 46.1290384,44.4970121 C45.156995,45.5023411 43.8167385,46.125 42.3420989,46.125 L37.5028793,46.125 C37.0089948,46.125 36.609375,45.7116822 36.609375,45.2008995 C36.609375,44.6901167 37.0090082,44.2767989 37.5028793,44.2767989 L42.3420989,44.2767989 C43.3245963,44.2767989 44.2181006,43.8616745 44.8655339,43.1902415 C45.5129671,42.5206382 45.9161163,41.5965377 45.9161163,40.5803967 L45.9161163,35.7991005 Z M15.7286102,44.2767989 C16.2327264,44.2767989 16.640625,44.6901167 16.640625,45.2008995 C16.640625,45.7116822 16.2327127,46.125 15.7286102,46.125 L11.0189659,46.125 C9.51377674,46.125 8.14575458,45.5004929 7.15357371,44.4970121 C6.16139056,43.4916831 5.546875,42.1055323 5.546875,40.5803967 L5.546875,35.7991005 C5.546875,35.288304 5.95478729,34.875 6.45888977,34.875 C6.96299454,34.875 7.37090683,35.2883178 7.37090683,35.7991005 L7.37090683,40.5803967 C7.37090683,41.5965377 7.78060211,42.5206382 8.4432538,43.1902415 C9.10409971,43.8598448 10.0161145,44.2767989 11.0189659,44.2767989 L15.7286102,44.2767989 Z M7.34832172,15.95162 C7.34832172,16.4620183 6.94546009,16.875 6.44759746,16.875 C5.94973663,16.875 5.546875,16.4620045 5.546875,15.95162 L5.546875,11.1652799 C5.546875,9.64133357 6.15558324,8.25626359 7.13367956,7.25171851 C8.11357553,6.24717343 9.46465922,5.625 10.9512116,5.625 L15.7399025,5.625 C16.2377769,5.625 16.640625,6.03799555 16.640625,6.54837998 C16.640625,7.05876441 16.2377634,7.47175996 15.7399025,7.47175996 L10.9512116,7.47175996 C9.96077715,7.47175996 9.06005469,7.88656072 8.4073912,8.55747014 C7.7547277,9.22655128 7.34832172,10.1499313 7.34832172,11.1652799 L7.34832172,15.95162 Z M18.859375,15.75 C19.4680932,15.75 19.96875,16.1398585 19.96875,16.6180155 L19.96875,19.3819845 C19.96875,19.8582679 19.4704879,20.25 18.859375,20.25 C18.2506568,20.25 17.75,19.8601368 17.75,19.3819845 L17.75,16.6180155 C17.75,16.1417321 18.2482621,15.75 18.859375,15.75 Z M26.3291667,19.911871 C26.33097,19.4784652 26.8251138,19.1234706 27.3344807,19.125 C27.8438662,19.1265433 28.2538808,19.4784809 28.2520833,19.911871 L28.2520833,26.2372128 C28.2484614,26.7090177 28.2900168,27.5932908 27.946829,28.1757291 C27.5458359,28.856565 26.6860593,29.2791574 25.3060575,29.2484303 C24.7966721,29.2376738 24.393871,28.8795868 24.4065409,28.446181 C24.419183,28.0127751 24.8400457,27.6700556 25.3494311,27.6808357 C25.8389332,27.6915921 26.0719391,27.5578879 26.1767201,27.3796155 C26.3392832,27.1045192 26.3255553,26.5492052 26.3291667,26.2372128 L26.3291667,19.911871 Z M19.2374756,30.6613756 C19.6478844,30.2779867 20.2264242,30.390475 20.5283806,30.91391 C20.7055601,31.2215426 20.9116716,31.4993252 21.1430774,31.7541636 C22.2748582,32.9893016 23.9906033,33.6320835 25.7751726,33.6573551 C27.5758949,33.6849071 29.4146164,33.08112 30.7631911,31.8253356 C31.0958569,31.515411 31.395985,31.1687425 31.656332,30.7853772 C31.9871881,30.2917921 32.5711801,30.236694 32.9580674,30.6568149 C33.3467783,31.0769358 33.3901695,31.8184888 33.0593135,32.3097582 C32.7013351,32.8377832 32.2981744,33.3061083 31.8551909,33.7170374 C30.1737885,35.280472 27.9282776,36.031158 25.7531183,35.9990101 C23.5600471,35.9668681 21.4085851,35.135777 19.9440229,33.5356691 C19.604123,33.1637583 19.2985935,32.7505431 19.0382465,32.3005311 C18.7366697,31.7794293 18.8252571,31.0447996 19.2374756,30.6613756 Z M34.390625,15.75 C34.9453125,15.75 35.5,16.1398585 35.5,16.6180155 L35.5,19.3819845 C35.5,19.8582679 35.0017379,20.25 34.390625,20.25 C33.7819068,20.25 33.28125,19.8601368 33.28125,19.3819845 L33.28125,16.6180155 C33.28125,16.1417321 33.8359375,15.75 34.390625,15.75 Z" id="Fill-1"></path>
                    </g>
                    <polygon id="Path-2" fill="#007E4E" opacity="0.25" points="0 51.75 52.8997308 -0.865384615 53.25 51.396393"></polygon>
                </g>
            </g>
        </g>
    </g>
</svg>