<svg xmlns="http://www.w3.org/2000/svg" xmlns:xlink="http://www.w3.org/1999/xlink" width="50" height="49"
     xmlns:v="https://vecta.io/nano">
    <defs>
        <circle id="A" cx="36" cy="31.5" r="22.5"/>
        <filter x="-6.7%" y="-6.7%" width="113.3%" height="113.3%" id="B">
            <feOffset dy="2" in="SourceAlpha"/>
            <feComposite in2="SourceAlpha" operator="arithmetic" k2="-1" k3="1"/>
            <feColorMatrix values="0 0 0 0 0 0 0 0 0 0 0 0 0 0 0 0 0 0 0.1 0"/>
        </filter>
    </defs>
    <g transform="translate(-11 -7)" fill="none" fill-rule="evenodd">
        <use fill="#00b16e" xlink:href="#A"/>
        <use fill="#000" filter="url(#B)" xlink:href="#A"/>
        <circle stroke="#004b2e" stroke-width="2" cx="36" cy="31.5" r="23.5"/>
        <g fill="#004b2e">
            <rect x="34.875" y="11.25" width="2.25" height="5.625" rx="1"/>
            <rect x="34.875" y="46.125" width="2.25" height="5.625" rx="1"/>
        </g>
        <path d="M24.42 20.045c.44-.44 1.152-.44 1.59 0l10.34 10.34 4.773-4.773c.44-.44 1.152-.44 1.59 0s.44 1.152 0 1.59l-5.568 5.568c-.44.44-1.152.44-1.59 0L24.42 21.636c-.44-.44-.44-1.152 0-1.59z"
              fill="#fff"/>
        <path d="M24.42 22.295c.44-.44 1.152-.44 1.59 0l10.34 10.34 4.773-4.773c.44-.44 1.152-.44 1.59 0s.44 1.152 0 1.59l-5.568 5.568c-.44.44-1.152.44-1.59 0L24.42 23.886c-.44-.44-.44-1.152 0-1.59z"
              fill-opacity=".1" fill="#000"/>
        <g transform="matrix(0 -1 1 0 15.75 32.625)">
            <rect fill="#015b44" width="2.25" height="5.625" rx="1"/>
            <rect fill="#004b2e" y="34.875" width="2.25" height="5.625" rx="1"/>
        </g>
    </g>
</svg>