<?xml version="1.0" encoding="UTF-8"?>
<svg width="59px" height="60px" viewBox="0 0 59 60" version="1.1" xmlns="http://www.w3.org/2000/svg" xmlns:xlink="http://www.w3.org/1999/xlink">
    <title>UI Elements/Icon / Account Settings / Location</title>
    <g id="Iconography-&amp;-Interface-Details" stroke="none" stroke-width="1" fill="none" fill-rule="evenodd">
        <g id="Icons" transform="translate(-790.000000, -263.000000)">
            <g id="UI-Elements/Icon-/-Account-Settings-/-Location" transform="translate(783.000000, 261.000000)">
                <rect id="Rectangle" x="0" y="0" width="72" height="63"></rect>
                <g id="Group-13" transform="translate(6.750000, 2.250000)">
                    <g id="Group" transform="translate(0.000000, 41.625000)">
                        <path d="M43.0710888,10.4917243 L30.0512874,16.4310335 C29.5223652,16.6723147 28.9146324,16.6715107 28.3863505,16.4288309 L15.4312671,10.4775838 C14.917882,10.2417472 14.3287003,10.2340432 13.8093242,10.4563755 L1.6609269,15.6568099 C1.15320605,15.8741529 0.565425663,15.6387552 0.34808267,15.1310343 C0.221640344,14.8356606 0.244825401,14.4975217 0.410400416,14.2221706 L3.99803659,8.25593588 C4.33891238,7.68905983 4.81505005,7.21556728 5.38381626,6.87785473 L15.9234856,0.619784905 C16.5155364,0.268246793 17.2467858,0.245976478 17.8591319,0.560834499 L28.339456,5.94964076 C28.91362,6.2448662 29.5949856,6.24476927 30.1690655,5.94938051 L40.6676465,0.547409914 C41.2653318,0.239875186 41.9775277,0.25313938 42.5633472,0.582716127 L53.1725992,6.55138547 C54.1852537,7.12109576 55.0107062,7.97257862 55.5487116,9.00242774 L58.3634579,14.3904111 C58.6191848,14.8799233 58.4296645,15.484059 57.9401523,15.7397859 C57.6741838,15.878731 57.359878,15.8908944 57.0839669,15.7729198 L44.687453,10.4723905 C44.1699458,10.2511136 43.5831551,10.2581324 43.0710888,10.4917243 Z" id="Fill-1" fill="#004B2E"></path>
                        <line x1="29.25" y1="6.1875" x2="29.25" y2="16.875" id="Stroke-7" stroke="#FEFEFE" stroke-linecap="round" stroke-linejoin="round"></line>
                    </g>
                    <path d="M29.9676132,42.3481032 C29.6202985,42.8839656 28.8796273,42.8839656 28.5323126,42.3481032 L17.483301,25.2785864 C14.3444568,20.4290852 13.653831,14.0917905 16.0970449,8.80375919 C18.3250637,3.97564973 22.7370615,0.37542455 28.3161167,0.0288788116 C28.6243961,0.00962627052 28.936679,0 29.2499629,0 C29.5632468,0 29.8735279,0.00962627052 30.1828082,0.0288788116 C35.7618634,0.373285379 40.1738612,3.97458014 42.4038818,8.8026896 C44.8450938,14.0917905 44.1564699,20.4280156 41.0166248,25.2785864 L29.9676132,42.3481032 Z" id="Fill-9" fill="#00B16E"></path>
                    <path d="M29.2496676,19.125 C26.7644788,19.125 24.75,17.1105212 24.75,14.6253324 C24.75,12.1401437 26.7644788,10.125 29.2496676,10.125 C31.7355212,10.125 33.75,12.1401437 33.75,14.6253324 C33.75,17.1105212 31.7355212,19.125 29.2496676,19.125 Z" id="Fill-11" fill="#FEFEFE"></path>
                </g>
                <line x1="50.625" y1="55.125" x2="48.375" y2="43.3125" id="Path-11" stroke="#FFFFFF" stroke-linecap="round"></line>
                <line x1="21.375" y1="55.125" x2="23.625" y2="42.7756859" id="Path-12" stroke="#FFFFFF" stroke-linecap="round"></line>
            </g>
        </g>
    </g>
</svg>