<svg xmlns="http://www.w3.org/2000/svg" width="59" height="60" fill="none" fill-rule="evenodd"
     xmlns:v="https://vecta.io/nano">
    <path d="M42.82 52.367l-13.02 5.94a2 2 0 0 1-1.665-.002l-12.955-5.95a2 2 0 0 0-1.622-.021l-12.148 5.2A1 1 0 0 1 .16 56.097l3.588-5.966a4 4 0 0 1 1.386-1.378l10.54-6.258a2 2 0 0 1 1.936-.059l10.48 5.39a2 2 0 0 0 1.83 0l10.5-5.402a2 2 0 0 1 1.896.035l10.61 5.97a6 6 0 0 1 2.376 2.451l2.815 5.388a1 1 0 0 1-1.279 1.383l-12.397-5.3a2 2 0 0 0-1.616.019z"
          fill="#004b2e"/>
    <path stroke="#fefefe" stroke-linecap="round" stroke-linejoin="round" d="M29 48.063V58.75"/>
    <path d="M29.718 42.598a.84.84 0 0 1-1.435 0l-11.05-17.07c-3.14-4.85-3.83-11.187-1.386-16.475C18.075 4.226 22.487.625 28.066.28c.308-.02.62-.03.934-.03s.624.01.933.03c5.58.344 9.99 3.946 12.22 8.774 2.44 5.29 1.753 11.625-1.387 16.476l-11.05 17.07z"
          fill="#00b16e"/>
    <path d="M29 19.375a4.5 4.5 0 1 1 0-9 4.5 4.5 0 1 1 0 9z" fill="#fefefe"/>
    <path d="M43.625 53.125l-2.25-11.812m-27 11.812l2.25-12.35" stroke-linecap="round" stroke="#fff"/>
</svg>