<svg xmlns="http://www.w3.org/2000/svg" xmlns:xlink="http://www.w3.org/1999/xlink" width="57" height="36"
     xmlns:v="https://vecta.io/nano">
    <defs>
        <rect id="A" width="56" height="35.556" rx="2"/>
        <path d="M33.862 10.578v5.343c1.595 0 2.888 1.15 2.888 2.567v9.14c0 1.432-1.306 2.593-2.917 2.593H22.167c-1.61 0-2.917-1.16-2.917-2.593v-9.142c0-1.417 1.292-2.566 2.887-2.566v-5.343c0-6.993 11.726-6.993 11.726 0zm-5.876 8.977c-1.818 0-2.61 1.197-2.61 2.44 0 1.1.64 2.02 1.533 2.488l-.51 3.176c-.002.02-.004.043-.004.064 0 .4.165.72.694.72h1.865a1.23 1.23 0 0 0 .083-.003c.526-.036.58-.374.535-.783l-.434-3.176c1.042-.47 1.49-1.313 1.49-2.488 0-1.522-1.165-2.44-2.64-2.44zm-3.267-9.35v5.498h6.563v-5.498c0-3.73-6.562-3.73-6.562 0z"
              id="B"/>
        <filter x="-5.7%" y="-4.0%" width="111.4%" height="116.1%" id="C">
            <feOffset dy="2" in="SourceAlpha"/>
            <feColorMatrix values="0 0 0 0 0 0 0 0 0 0 0 0 0 0 0 0 0 0 0.1 0"/>
        </filter>
    </defs>
    <g transform="translate(.5 .222)" fill="none" fill-rule="evenodd">
        <mask id="D" fill="#fff">
            <use xlink:href="#A"/>
        </mask>
        <use fill="#00b16e" xlink:href="#A"/>
        <path fill="#007e4e" opacity=".25" mask="url(#D)" d="M56 0v35.556H0z"/>
        <path fill="#004b2e" mask="url(#D)" d="M-1.75 5.333h59.5v7.11h-59.5z"/>
        <g mask="url(#D)">
            <use fill="#000" filter="url(#C)" xlink:href="#B"/>
            <use fill="#fff" xlink:href="#B"/>
        </g>
    </g>
</svg>