<svg xmlns="http://www.w3.org/2000/svg" xmlns:xlink="http://www.w3.org/1999/xlink" width="56" height="35"
     xmlns:v="https://vecta.io/nano">
    <defs>
        <rect id="A" width="55.111" height="35" rx="2"/>
        <path d="M27.553 25.758h.073a2.47 2.47 0 0 1 2.469 2.469 2.47 2.47 0 0 1-2.469 2.469h-.073a2.47 2.47 0 0 1-2.469-2.469 2.47 2.47 0 0 1 2.469-2.469zm-8.608-12.305c.135-3.247 1.25-5.548 3.347-6.904 1.323-.866 2.95-1.3 4.877-1.3 2.534 0 4.64.615 6.315 1.846s2.514 3.053 2.514 5.47c0 1.48-.364 2.73-1.093 3.743-.426.615-1.245 1.4-2.456 2.358l-1.194.94c-.65.513-1.082 1.11-1.295 1.794-.135.433-.207 1.105-.22 2.017H25.2c.067-1.925.247-3.256.538-4s1.043-1.58 2.254-2.538l1.228-.974c.404-.308.73-.644.975-1.008.448-.627.673-1.316.673-2.068a4.03 4.03 0 0 0-.748-2.367c-.5-.712-1.4-1.068-2.733-1.068-1.3 0-2.223.44-2.767 1.316-.363.585-.634 1.496-.816 2.734h-4.86z"
              id="B"/>
        <filter x="-5.9%" y="-3.9%" width="111.7%" height="115.7%" id="C">
            <feOffset dy="2" in="SourceAlpha"/>
            <feColorMatrix values="0 0 0 0 0 0 0 0 0 0 0 0 0 0 0 0 0 0 0.1 0"/>
        </filter>
    </defs>
    <g transform="translate(.444)" fill="none" fill-rule="evenodd">
        <mask id="D" fill="#fff">
            <use xlink:href="#A"/>
        </mask>
        <use fill="#00b16e" xlink:href="#A"/>
        <path fill="#007e4e" opacity=".25" mask="url(#D)" d="M55.11 0v36.75H-3.444z"/>
        <path fill="#004b2e" mask="url(#D)" d="M-1.722 5.25h58.556v7H-1.722z"/>
        <g fill-rule="nonzero" mask="url(#D)">
            <use fill="#000" filter="url(#C)" xlink:href="#B"/>
            <use fill="#fff" xlink:href="#B"/>
        </g>
    </g>
</svg>