<svg xmlns="http://www.w3.org/2000/svg" xmlns:xlink="http://www.w3.org/1999/xlink" width="57" height="43"
     xmlns:v="https://vecta.io/nano">
    <defs>
        <path d="M2 0h45a2 2 0 0 1 2 2v27.5a2 2 0 0 1-2 2H2a2 2 0 0 1-2-2V2a2 2 0 0 1 2-2z" id="A"/>
    </defs>
    <g transform="translate(.5 .5)" fill="none" fill-rule="evenodd">
        <path d="M2 0h45a2 2 0 0 1 2 2v27.5a2 2 0 0 1-2 2H2a2 2 0 0 1-2-2V2a2 2 0 0 1 2-2z" fill="#004b2e"/>
        <rect x="5.25" y="3.5" width="10.5" height="7" rx="1" fill="#007e4e"/>
        <path d="M8.5 7H49v20.5a4 4 0 0 1-4 4H3.5V12a5 5 0 0 1 5-5z" fill-opacity=".1" fill="#000"/>
        <g transform="translate(7.008 10.5)">
            <mask id="B" fill="#fff">
                <use xlink:href="#A"/>
            </mask>
            <use fill="#00b16e" xlink:href="#A"/>
            <path fill="#007e4e" opacity=".253" mask="url(#B)" d="M0 31.5L49 0l-.008 31.5z"/>
        </g>
        <path fill="#007e4e" d="M7 15.75h49V21H7z"/>
        <path d="M32.615 19.59V23.6h-11.18c-.238.001-.432.15-.433.336v4.636c.002.185.195.335.433.336h11.18v4.012c.005.134.11.254.274.305s.345.02.47-.074l8.52-6.662c.164-.13.164-.34 0-.47l-8.52-6.67c-.094-.073-.228-.108-.36-.096-.22.02-.384.165-.384.336z"
              fill="#fff"/>
    </g>
</svg>