<?xml version="1.0" encoding="UTF-8"?>
<svg width="44px" height="57px" viewBox="0 0 44 57" version="1.1" xmlns="http://www.w3.org/2000/svg" xmlns:xlink="http://www.w3.org/1999/xlink">
    <title>UI Elements/Icon / Payments / Make A Payment</title>
    <g id="Iconography-&amp;-Interface-Details" stroke="none" stroke-width="1" fill="none" fill-rule="evenodd">
        <g id="Icons" transform="translate(-1133.000000, -811.000000)">
            <g id="UI-Elements/Icon-/-Payments-/-Make-A-Payment" transform="translate(1123.000000, 808.000000)">
                <polygon id="Rectangle" points="0 4.54383881e-28 64 0 64 63 0 63"></polygon>
                <g id="Make-Payment" transform="translate(10.666667, 3.500000)">
                    <g id="Group-Copy">
                        <g id="Bill-Pay-Icon" fill="#00B16E">
                            <path d="M2,0 L32,0 L32,0 L42.6666667,10.5 L42.6666667,54 C42.6666667,55.1045695 41.7712362,56 40.6666667,56 L2,56 C0.8954305,56 1.3527075e-16,55.1045695 0,54 L0,2 C-1.3527075e-16,0.8954305 0.8954305,2.02906125e-16 2,0 Z" id="Rectangle"></path>
                        </g>
                        <path d="M32,0 L42.6666667,10.5 L34,10.5 C32.8954305,10.5 32,9.6045695 32,8.5 L32,0 L32,0 Z" id="Path" fill="#007E4E"></path>
                        <rect id="Rectangle-Copy-38" fill="#FFFFFF" x="5.33333333" y="49" width="32" height="1.75" rx="0.5"></rect>
                        <rect id="Rectangle-Copy-40" fill="#FFFFFF" x="5.33333333" y="42" width="32" height="1.75" rx="0.5"></rect>
                        <rect id="Rectangle-Copy-40" fill="#FFFFFF" x="5.33333333" y="35" width="32" height="1.75" rx="0.5"></rect>
                    </g>
                    <path d="M22.3054824,29.75 C22.782928,29.75 23.1794206,29.3463902 23.1792715,28.8451958 L23.1786487,26.7521949 L23.6156418,26.6312764 C27.180405,25.7035585 28.4450061,23.1639444 28.4444444,21.2758819 C28.443403,17.776638 25.5301882,16.3218174 22.6750165,15.3559011 C19.9946709,14.438667 19.1377885,13.8829298 19.1375444,13.0626841 C19.1373256,12.3272984 19.9587214,11.5910675 21.7996982,11.5916397 C23.8275137,11.5922699 25.0972438,12.1900152 25.639377,12.4492528 C25.7562988,12.5035938 25.8786761,12.5341785 25.9999618,12.5342162 C26.3375581,12.5343211 26.6467041,12.329644 26.791914,12.0151656 L27.6250119,10.1871697 C27.7243735,9.97563851 27.7352231,9.72221172 27.6543071,9.4993205 C27.5788515,9.26963348 27.414911,9.08855851 27.2050983,8.98669027 C26.2030722,8.49763744 25.1136644,8.18392509 23.8833929,8.0330538 L23.370965,7.96614477 L23.3704247,6.15034361 C23.3702776,5.65595449 22.9801172,5.25079331 22.4960986,5.25064288 L20.4278666,5.25 C19.950421,5.25 19.5539284,5.65360982 19.5540759,6.14915743 L19.5546771,8.16975212 L19.1176819,8.28388186 C16.2400866,9.03760418 14.5207883,10.9490261 14.5215155,13.3928781 C14.5224742,16.6149513 17.605181,18.0515783 20.6295759,19.0357936 C23.420298,19.9779407 23.799644,20.7926276 23.7998449,21.4680321 C23.8001557,22.5122734 22.4958389,23.2710029 20.7007606,23.2704449 C19.1744449,23.2699705 17.5310949,22.8655783 16.3072118,22.188635 C16.1793595,22.1161892 16.0394994,22.0799426 15.8930855,22.0798971 C15.8002172,22.0798683 15.7062606,22.0979406 15.6134013,22.1284584 C15.3861714,22.2132391 15.1993845,22.3874076 15.1011387,22.6170406 L14.2975561,24.4687949 C14.1174095,24.897528 14.268331,25.391964 14.6650037,25.6217595 C15.684547,26.2318809 17.2000888,26.6837607 18.8082724,26.8720531 L19.3272694,26.926519 L19.3278404,28.8452817 C19.3279892,29.3453466 19.7181492,29.7493493 20.2021678,29.7494997 L22.3054824,29.75 Z" id="Fill-1-Copy-7" fill="#FFFFFF"></path>
                </g>
            </g>
        </g>
    </g>
</svg>