<svg xmlns="http://www.w3.org/2000/svg" width="44" height="57" fill-rule="evenodd" xmlns:v="https://vecta.io/nano">
    <path d="M2.667.5h30L43.334 11v43.5a2 2 0 0 1-2 2H2.667a2 2 0 0 1-2-2v-52a2 2 0 0 1 2-2z" fill="#00b16e"/>
    <path d="M32.667.5L43.334 11h-8.667a2 2 0 0 1-2-2V.5z" fill="#007e4e"/>
    <g fill="#fff">
        <rect x="6" y="49.5" width="32" height="1.75" rx=".5"/>
        <rect x="6" y="42.5" width="32" height="1.75" rx=".5"/>
        <rect x="6" y="35.5" width="32" height="1.75" rx=".5"/>
        <path d="M22.972 30.25c.477 0 .874-.404.874-.905v-2.093l.437-.12c3.565-.928 4.83-3.467 4.83-5.355-.001-3.5-2.914-4.954-5.77-5.92-2.68-.917-3.537-1.473-3.537-2.293 0-.735.82-1.472 2.662-1.47 2.028.001 3.298.598 3.84.858a.86.86 0 0 0 .361.085.88.88 0 0 0 .792-.519l.833-1.828a.91.91 0 0 0 .029-.688.87.87 0 0 0-.449-.513c-1.002-.49-2.09-.803-3.322-.954l-.512-.067-.001-1.816c0-.494-.4-.9-.874-.9h-2.068c-.477 0-.874.404-.874.9l.001 2.02-.437.114c-2.878.754-4.597 2.665-4.596 5.11.001 3.222 3.084 4.66 6.108 5.643 2.79.942 3.17 1.757 3.17 2.432 0 1.044-1.304 1.803-3.1 1.802-1.526 0-3.17-.405-4.394-1.082a.83.83 0 0 0-.414-.109.9.9 0 0 0-.28.049.9.9 0 0 0-.512.489l-.804 1.852c-.18.43-.03.923.367 1.153 1.02.6 2.535 1.062 4.143 1.25l.52.054.001 1.92c0 .5.4.904.874.904h2.103z"/>
    </g>
</svg>