<?xml version="1.0" encoding="UTF-8"?>
<svg width="56px" height="57px" viewBox="0 0 56 57" version="1.1" xmlns="http://www.w3.org/2000/svg" xmlns:xlink="http://www.w3.org/1999/xlink">
    <title>UI Elements/Icon / Payments / Manage Payees</title>
    <defs>
        <path d="M1,0 L47.2222222,0 C47.774507,3.71174381e-15 48.2222222,0.44771525 48.2222222,1 L48.2222222,35 L48.2222222,35 L0,35 L0,1 C-1.78657678e-16,0.44771525 0.44771525,-9.5692398e-18 1,0 Z" id="path-1"></path>
    </defs>
    <g id="Iconography-&amp;-Interface-Details" stroke="none" stroke-width="1" fill="none" fill-rule="evenodd">
        <g id="Icons" transform="translate(-623.000000, -811.000000)">
            <g id="UI-Elements/Icon-/-Payments-/-Manage-Payees" transform="translate(620.000000, 808.000000)">
                <rect id="Rectangle" x="0" y="0" width="62" height="63"></rect>
                <g id="Shop-Icon" transform="translate(3.444444, 3.500000)">
                    <g id="Group" transform="translate(3.444444, 21.000000)">
                        <mask id="mask-2" fill="white">
                            <use xlink:href="#path-1"></use>
                        </mask>
                        <use id="Rectangle" fill="#00B16E" xlink:href="#path-1"></use>
                        <path d="M7.60288535,-9.9475983e-14 C7.60288535,3.86599325 5.52366489,7 2.07922045,7 C-1.36522399,7 -3.44444444,3.86599325 -3.44444444,-9.9475983e-14 L-3.44444444,-9.9475983e-14 Z M18.6502151,-2.41140441e-13 C18.6502151,3.86599325 16.5781121,7 13.1265502,7 C9.67498837,7 7.60288535,3.86599325 7.60288535,-2.41140441e-13 L7.60288535,-2.41140441e-13 Z M29.6975449,-2.50910404e-13 C29.6975449,3.86599325 27.6776891,7 24.17388,7 C20.6700709,7 18.6502151,3.86599325 18.6502151,-2.50910404e-13 L18.6502151,-2.50910404e-13 Z M51.6666667,-8.8817842e-16 C51.6666667,3.86599325 50.5018752,7 46.5,7 C42.6603912,7 40.8242294,4.11499357 40.6816382,0.466499842 C40.5726151,4.11490855 39.1467568,7 35.2212098,7 C31.1298248,7 29.6975449,3.86599325 29.6975449,-2.50910404e-13 L29.6975449,-2.50910404e-13 Z" id="Combined-Shape" fill="#015B44" opacity="0.5" mask="url(#mask-2)"></path>
                    </g>
                    <rect id="Rectangle" fill="#FFFFFF" x="6.88888889" y="31.5" width="10.3333333" height="10.5"></rect>
                    <rect id="Rectangle-Copy-57" fill="#FFFFFF" x="37.8888889" y="31.5" width="10.3333333" height="10.5"></rect>
                    <path d="M21.6666667,35 L33.4444444,35 C33.9967292,35 34.4444444,35.4477153 34.4444444,36 L34.4444444,56 L34.4444444,56 L20.6666667,56 L20.6666667,36 C20.6666667,35.4477153 21.1143819,35 21.6666667,35 Z" id="Rectangle-Copy-56" fill="#004B2E"></path>
                    <path d="M27.6183245,26.25 C24.6420943,26.25 22.2156388,24.0127554 22.0990456,21.2111523 L22.094,21 L22.0902736,21.2111523 C21.9736804,24.0127554 19.5472248,26.25 16.5709947,26.25 C13.5947646,26.25 11.168309,24.0127554 11.0517158,21.2111523 L11.047,21 L11.0429438,21.2111523 C10.9263506,24.0127554 8.49989503,26.25 5.52366489,26.25 C2.54743476,26.25 0.120979171,24.0127554 0.00438599478,21.2111523 L1.24344979e-14,21 L7.21633209,0.66555379 C7.3579198,0.266582717 7.7353972,-2.22856435e-15 8.15874693,0 L46.9523642,0 C47.3757139,-7.77680847e-17 47.7531913,0.266582717 47.894779,0.66555379 L55.1111111,21 C55.1111111,23.8994949 52.6380821,26.25 49.5874462,26.25 C46.8195522,26.25 44.5271582,24.3150072 44.1260032,21.7906191 C43.7259423,24.3150072 41.4335483,26.25 38.6656543,26.25 C35.6894241,26.25 33.2629685,24.0127554 33.1463754,21.2111523 L33.141,21 L33.1376034,21.2111523 C33.0210102,24.0127554 30.5945546,26.25 27.6183245,26.25 Z" id="Combined-Shape" fill="#004B2E"></path>
                </g>
            </g>
        </g>
    </g>
</svg>