<svg xmlns="http://www.w3.org/2000/svg" xmlns:xlink="http://www.w3.org/1999/xlink" width="56" height="57"
     xmlns:v="https://vecta.io/nano">
    <defs>
        <path d="M1 0h46.222a1 1 0 0 1 1 1v34H0V1a1 1 0 0 1 1-1z" id="A"/>
    </defs>
    <g transform="translate(.444 .5)" fill="none" fill-rule="evenodd">
        <g transform="translate(3.444 21)">
            <mask id="B" fill="#fff">
                <use xlink:href="#A"/>
            </mask>
            <use fill="#00b16e" xlink:href="#A"/>
            <path d="M7.603 0c0 3.866-2.08 7-5.524 7s-5.524-3.134-5.524-7h0zM18.65 0c0 3.866-2.072 7-5.524 7S7.603 3.866 7.603 0h0zm11.047 0c0 3.866-2.02 7-5.524 7S18.65 3.866 18.65 0h0zm21.97 0c0 3.866-1.165 7-5.167 7-3.84 0-5.676-2.885-5.818-6.534C40.573 4.115 39.147 7 35.22 7c-4.09 0-5.524-3.134-5.524-7h0z"
                  fill="#015b44" opacity=".5" mask="url(#B)"/>
        </g>
        <path d="M6.9 31.5h10.333V42H6.9zm31 0h10.333V42H37.9z" fill="#fff"/>
        <path d="M21.667 35h11.778a1 1 0 0 1 1 1v20H20.667V36a1 1 0 0 1 1-1zm5.95-8.75c-2.976 0-5.403-2.237-5.52-5.04l-.005-.2-.004.2c-.117 2.802-2.543 5.04-5.52 5.04s-5.403-2.237-5.52-5.04l-.005-.2-.004.2c-.117 2.802-2.543 5.04-5.52 5.04S.12 24.013.004 21.2L0 21 7.216.666A1 1 0 0 1 8.159 0h38.794a1 1 0 0 1 .942.666L55.1 21c0 2.9-2.473 5.25-5.524 5.25-2.768 0-5.06-1.935-5.46-4.46-.4 2.524-2.692 4.46-5.46 4.46-2.976 0-5.403-2.237-5.52-5.04l-.006-.2-.003.2c-.117 2.802-2.543 5.04-5.52 5.04z"
              fill="#004b2e"/>
    </g>
</svg>