<svg xmlns="http://www.w3.org/2000/svg" xmlns:xlink="http://www.w3.org/1999/xlink" width="49" height="57"
     xmlns:v="https://vecta.io/nano">
    <defs>
        <path id="A" d="M43.767 19.25l1.733 2.042L36.835 31.5 31.5 27.68l1.61-2.305 3.726 2.305z"/>
        <filter x="-7.1%" y="-8.2%" width="114.3%" height="132.7%" id="B">
            <feOffset dy="2" in="SourceAlpha"/>
            <feColorMatrix values="0 0 0 0 0 0 0 0 0 0 0 0 0 0 0 0 0 0 0.1 0"/>
        </filter>
    </defs>
    <g transform="translate(-7 -3)" fill="none" fill-rule="evenodd">
        <path d="M8 3.5h34.75a1 1 0 0 1 1 1v47a1 1 0 0 1-1 1H8a1 1 0 0 1-1-1v-47a1 1 0 0 1 1-1z" fill="#004b2e"/>
        <path d="M18.75 7h25v45.5h-28V10a3 3 0 0 1 3-3z" fill-opacity=".1" fill="#000"/>
        <path d="M20.363 10.5h25.012L55.933 21l.07 37.498a1 1 0 0 1-.998 1.002H20.252a1 1 0 0 1-1-1l.1-47.002a1 1 0 0 1 1-.998z"
              fill="#00b16e"/>
        <g fill-rule="nonzero">
            <use fill="#000" filter="url(#B)" xlink:href="#A"/>
            <use fill="#fff" xlink:href="#A"/>
        </g>
        <g fill="#fff">
            <rect x="22.75" y="38.5" width="29.75" height="1.75" rx=".875"/>
            <rect x="22.75" y="45.5" width="29.75" height="1.75" rx=".875"/>
            <rect x="22.75" y="52.5" width="29.75" height="1.75" rx=".875"/>
        </g>
        <path d="M45.5 10.5L56 21h-8.5a2 2 0 0 1-2-2v-8.5z" fill="#007e4e"/>
    </g>
</svg>