<svg xmlns="http://www.w3.org/2000/svg" xmlns:xlink="http://www.w3.org/1999/xlink" width="56" height="44"
     xmlns:v="https://vecta.io/nano">
    <defs>
        <path id="A" d="M0 0h48.222v32H0z"/>
        <path d="M2 0h44.222a2 2 0 0 1 2 2v28a2 2 0 0 1-2 2H2a2 2 0 0 1-2-2V2a2 2 0 0 1 2-2z" id="B"/>
    </defs>
    <g transform="translate(.444 .667)" fill="none" fill-rule="evenodd">
        <mask id="C" fill="#fff">
            <use xlink:href="#A"/>
        </mask>
        <path d="M44.75.175L44.3 1.57c1.048.275 1.876 1.023 2.184 1.968l1.542-.4C47.56 1.696 46.335.592 44.75.175h0zm1.865 7.718h1.607v-2.91h-1.607v2.91zm0 4.364h1.607v-2.91h-1.607v2.91zm0 4.364h1.607v-2.91h-1.607v2.91zm0 4.364h1.607v-2.91h-1.607v2.91zm0 4.364h1.607v-2.91h-1.607v2.91zm1.607 1.455h-1.607v.893l-.002.004v.047l-.002.004v.03l-.002.003v.023l-.002.004v.02l-.002.004v.016l-.002.004v.013l-.002.004v.015l-.002.001v.015l-.002.004v.01.004.012l-.002.004v.006l-.003.02v.007l-.002.006v.007l-.002.02h-.002 0l-.002.004v.01l-.002.003v.004l-.003.016v.007l-.002.001v.01.004.004l-.003.015v.003l-.002.004v.006l-.002.004v.004c-.003.01-.003.017-.005.023v.001l-.002.004v.004l-.002.003v.003l-.005.02v.004.004.004l-.002.007v.004l-.006.023v.01l-.002.004v.004l-.002.004-.006.026-.002.01-.002.004-.002.003v.001l-.005.023h-.002v.004l-.002.004-.002.01c-.002.01-.005.015-.006.022l-.002.01-.002.004-.003.012-.006.022v.001l-.005.012v.004l-.008.023-.002.004v.004.004l-.003.006-.005.016v.004l-.002.007-.003.01-.002.003-.006.02-.002.004-.002.003-.002.01-.002.003v.001l-.006.017-.002.006-.002.004v.003l-.005.013-.002.006-.008.02-.003.01-.008.02-.006.015-.002.006-.002.004-.002.001-.008.022-.005.01-.002.004-.006.015v.001l-.002.004-.003.007-.002.004-.005.01v.004l-.01.02v.001l-.003.007-.002.003v.001l-.002.003-.002.001v.003l-.008.02-.005.01v.001l-.002.003c-.005.01-.01.017-.013.023l-.002.004-.005.01c-.127.255-.294.49-.493.697l1.215.953c.757-.793 1.175-1.807 1.175-2.855V26.8zm-3.695 3.56a3.44 3.44 0 0 1-.76.164h-.005l-.032.004h-.014l-.003.001-.018.001h-.01l-.005.001h-.014l-.016.001h-.005l-.006.001h-.014l-.005.001h-.02-.005-.02l-.008.001h-.03l-.008.001h-.035l-.005.001h-2.152V32H43.4a5.25 5.25 0 0 0 1.689-.276l-.563-1.36zM36.514 32h3.215v-1.455h-3.215V32zm-4.822 0h3.215v-1.455h-3.215V32zm-4.822 0h3.215v-1.455H26.87V32zm-4.822 0h3.215v-1.455h-3.215V32zm-4.822 0h3.215v-1.455h-3.215V32zm-4.822 0h3.215v-1.455h-3.215V32zM7.58 32h3.215v-1.455H7.58V32zm-4.684-2.033l-.963 1.164a5.11 5.11 0 0 0 2.889.87h1.15v-1.455h-1.24l-.006-.001h-.035l-.01-.001h-.026l-.005-.001h-.023-.006-.02l-.006-.001H4.58l-.006-.001H4.56l-.005-.001H4.54l-.005-.001h-.014l-.005-.001h-.005l-.008-.001H4.49h-.01-.003l-.005-.001H4.47l-.014-.001H4.45l-.02-.003h-.003l-.016-.001H4.41l-.02-.003h-.005c-.006-.001-.013-.003-.02-.003l-.04-.006c-.442-.063-.855-.205-1.218-.413l-.03-.016-.008-.004-.003-.001-.008-.006-.01-.006-.006-.004-.024-.015-.005-.004-.005-.003-.003-.001L3 30.033l-.01-.007-.003-.003-.088-.057zm-1.29-3.99H0v1.66c0 .633.146 1.244.437 1.817l1.46-.607-.02-.036-.002-.003-.006-.013-.003-.01-.002-.001-.01-.02-.002-.006-.002-.003-.003-.007v-.001l-.003-.004-.003-.01c-.113-.25-.188-.515-.22-.79l-.002-.016h-.002v-.004l-.003-.033v-.016l-.002-.006v-.01l-.002-.004v-.006l-.002-.02v-.016l-.002-.004v-.02l-.002-.004v-.03-.004-.04l-.002-.01v-1.722zM0 24.52h1.607v-2.91H0v2.91zm0-4.364h1.607v-2.91H0v2.91zm0-4.364h1.607v-2.91H0v2.91zm0-4.364h1.607V8.52H0v2.91zm.01-7.375L0 4.364v2.703h1.607V4.298l.002-.007v-.04-.013l.005-.08L.01 4.055zM4.822 0C3.175 0 1.657.75.765 2.004l1.352.787.027-.038c.005-.004.01-.012.013-.017l.03-.038.01-.013.005-.004.014-.02.01-.013.005-.006.01-.013c.01-.015.013-.016.014-.016l.014-.02.014-.017.03-.032.006-.01h.002l.008-.012.003-.003c.013-.015.014-.015.014-.015l.01-.012.016-.016.003-.004.014-.016.006-.007.005-.003.013-.012.003-.004.008-.01.003-.004.018-.016.014-.016.027-.025.003-.004.043-.04a3.17 3.17 0 0 1 .781-.527l.138-.064.023-.01.018-.007.023-.01.018-.007.005-.001.018-.007.005-.001.013-.006h.005l.018-.007.005-.001.014-.006.005-.001.018-.006.005-.001.013-.004.01-.003.02-.007.013-.004.01-.003.013-.006h.005l.014-.006.01-.003.01-.004h.002l.03-.01.013-.004L3.8 1.6h.006l.01-.003h.002l.03-.01.01-.003.005-.001.006-.001.04-.012h.003l.01-.003.006-.001.01-.003.013-.003h.005l.016-.004h.003l.02-.006L4 1.548l.008-.001.006-.001.01-.003.008-.001h.006l.005-.001h.003l.01-.001h.003l.026-.006H4.1h.002l.008-.001.013-.003h.003l.01-.003h.003.005.008l.006-.001h.003l.005-.001h.002l.008-.001.013-.003h.003l.013-.003h.002l.006-.001.008-.001h.003l.006-.001h.002l.005-.001.008-.001h.003.006.003l.006-.001h.003l.006-.001h.003l.005-.001.008-.001h.006l.005-.001h.005l.006-.001h.003.005.005l.006-.001h.002l.006-.001h.006l.006-.001.008-.001h.005l.006-.001h.006l.006-.001H4.4h.006.006l.006-.001h.02l.005-.001h.006l.008-.001h.006l.006-.001h.006l.008-.001h.006l.006-.001h.006.006.013l.008-.001h.01l.013-.001h.003l.006-.001h.013l.006-.001h.018l.006-.001h.014l.006-.001h.02.006.024l.006-.001h.037l.006-.001h.05l.006-.001h.047V0zM6.43 1.455h3.215V0H6.43v1.455zm4.822 0h3.215V0h-3.215v1.455zm4.822 0h3.215V0h-3.215v1.455zm4.822 0h3.215V0h-3.215v1.455zm4.822 0h3.215V0H25.72v1.455zm4.822 0h3.215V0H30.54v1.455zm4.822 0h3.215V0h-3.215v1.455zm4.822 0H43.4V0h-3.215v1.455z"
              fill="#007e4e" mask="url(#C)"/>
        <g transform="translate(6.889 10.667)">
            <mask id="D" fill="#fff">
                <use xlink:href="#B"/>
            </mask>
            <use fill="#00b16e" xlink:href="#B"/>
            <path fill="#007e4e" opacity=".25" mask="url(#D)" d="M48.222-.08v32.077H0z"/>
            <g fill="#004b2e">
                <rect x="3.444" y="3.556" width="10.333" height="7.111" rx="1"/>
                <path d="M3.215 23.1h8.037v3.556H3.215zm11.257 0h8.037v3.556h-8.037zm11.258 0h8.037v3.556H25.73zm11.258 0h8.037v3.556h-8.037z"/>
            </g>
        </g>
    </g>
</svg>