<?xml version="1.0" encoding="UTF-8"?>
<svg width="56px" height="44px" viewBox="0 0 56 44" version="1.1" xmlns="http://www.w3.org/2000/svg" xmlns:xlink="http://www.w3.org/1999/xlink">
    <title>UI Elements/Icon / Account Settings / Order Replacement</title>
    <defs>
        <polygon id="path-1" points="0 0 48.2222222 0 48.2222222 32 0 32"></polygon>
        <path d="M2,0 L46.2222222,0 C47.3267917,-4.1271253e-15 48.2222222,0.8954305 48.2222222,2 L48.2222222,30 C48.2222222,31.1045695 47.3267917,32 46.2222222,32 L2,32 C0.8954305,32 1.3527075e-16,31.1045695 0,30 L0,2 C-1.3527075e-16,0.8954305 0.8954305,2.02906125e-16 2,0 Z" id="path-3"></path>
    </defs>
    <g id="Iconography-&amp;-Interface-Details" stroke="none" stroke-width="1" fill="none" fill-rule="evenodd">
        <g id="Icons" transform="translate(-623.000000, -602.000000)">
            <g id="UI-Elements/Icon-/-Account-Settings-/-Order-Replacement" transform="translate(620.000000, 592.000000)">
                <rect id="Rectangle" x="0" y="0" width="62" height="64"></rect>
                <g id="Group-2" transform="translate(3.444444, 10.666667)">
                    <g id="Group-3">
                        <mask id="mask-2" fill="white">
                            <use xlink:href="#path-1"></use>
                        </mask>
                        <g id="Clip-2"></g>
                        <path d="M44.7502222,0.174545455 L44.3001481,1.57090909 C45.3481778,1.84581818 46.1759926,2.59345455 46.4846148,3.53890909 L48.0261185,3.12872727 C47.5599704,1.696 46.3351259,0.592 44.7502222,0.174545455 L44.7502222,0.174545455 Z M46.6148148,7.89236364 L48.2222222,7.89236364 L48.2222222,4.98327273 L46.6148148,4.98327273 L46.6148148,7.89236364 Z M46.6148148,12.256 L48.2222222,12.256 L48.2222222,9.34690909 L46.6148148,9.34690909 L46.6148148,12.256 Z M46.6148148,16.6196364 L48.2222222,16.6196364 L48.2222222,13.7105455 L46.6148148,13.7105455 L46.6148148,16.6196364 Z M46.6148148,20.9832727 L48.2222222,20.9832727 L48.2222222,18.0741818 L46.6148148,18.0741818 L46.6148148,20.9832727 Z M46.6148148,25.3469091 L48.2222222,25.3469091 L48.2222222,22.4378182 L46.6148148,22.4378182 L46.6148148,25.3469091 Z M48.2222222,26.8014545 L46.6148148,26.8014545 L46.6148148,27.6363636 L46.6148148,27.6407273 L46.6148148,27.6421818 L46.6148148,27.6465455 L46.6148148,27.648 L46.6148148,27.6509091 L46.6148148,27.6523636 L46.6148148,27.6552727 L46.6148148,27.6567273 L46.6148148,27.6596364 L46.6148148,27.6610909 L46.6148148,27.6625455 L46.6148148,27.6654545 L46.6148148,27.6683636 L46.6148148,27.6698182 L46.6148148,27.6727273 L46.6148148,27.6741818 L46.6148148,27.6770909 L46.6148148,27.6785455 L46.6148148,27.6829091 L46.6148148,27.6843636 L46.6148148,27.6872727 L46.6148148,27.6901818 L46.6148148,27.6930909 L46.6148148,27.6945455 C46.6148148,27.696 46.6148148,27.696 46.6132074,27.6974545 L46.6132074,27.6989091 L46.6132074,27.7018182 L46.6132074,27.7032727 L46.6132074,27.7061818 L46.6132074,27.7076364 L46.6132074,27.7105455 L46.6132074,27.7134545 L46.6132074,27.7163636 L46.6132074,27.7178182 L46.6132074,27.7192727 L46.6132074,27.7207273 L46.6132074,27.7250909 C46.6132074,27.7265455 46.6132074,27.728 46.6132074,27.7294545 L46.6132074,27.7309091 L46.6132074,27.7338182 L46.6132074,27.7352727 L46.6132074,27.7381818 L46.6132074,27.7410909 L46.6132074,27.744 L46.6132074,27.7454545 C46.6116,27.7469091 46.6116,27.7469091 46.6116,27.7483636 L46.6116,27.7498182 L46.6116,27.7527273 L46.6116,27.7541818 L46.6116,27.7570909 L46.6116,27.7585455 L46.6116,27.7614545 L46.6116,27.7643636 C46.6116,27.7643636 46.6116,27.7658182 46.6116,27.7672727 L46.6116,27.7687273 L46.6116,27.7774545 L46.6116,27.7789091 C46.6116,27.7803636 46.6099926,27.7803636 46.6099926,27.7803636 L46.6099926,27.7818182 L46.6099926,27.7847273 L46.6099926,27.7876364 L46.6099926,27.7890909 L46.6099926,27.792 C46.6099926,27.792 46.6099926,27.7934545 46.6099926,27.7934545 L46.6099926,27.7963636 L46.6099926,27.7992727 L46.6099926,27.8007273 L46.6099926,27.8036364 L46.6099926,27.8050909 C46.6083852,27.8065455 46.6083852,27.8065455 46.6083852,27.808 L46.6083852,27.8094545 L46.6083852,27.8138182 L46.6083852,27.8181818 C46.6083852,27.8196364 46.6083852,27.8196364 46.6083852,27.8210909 L46.6083852,27.824 L46.6083852,27.8254545 L46.6083852,27.8283636 C46.6083852,27.8283636 46.6083852,27.8298182 46.6067778,27.8298182 L46.6067778,27.8327273 L46.6067778,27.8341818 L46.6067778,27.8370909 L46.6067778,27.8385455 C46.6067778,27.84 46.6067778,27.84 46.6067778,27.8414545 L46.6067778,27.8414545 L46.6067778,27.8443636 L46.6067778,27.8472727 L46.6067778,27.8487273 C46.6051704,27.8501818 46.6051704,27.8501818 46.6051704,27.8516364 L46.6051704,27.8530909 L46.6051704,27.856 L46.6051704,27.8574545 C46.6051704,27.8589091 46.6051704,27.8603636 46.6051704,27.8618182 L46.6051704,27.8647273 L46.6051704,27.8661818 C46.6051704,27.8676364 46.6051704,27.8676364 46.603563,27.8690909 L46.603563,27.8705455 L46.603563,27.8734545 L46.603563,27.8763636 L46.603563,27.8778182 C46.603563,27.8792727 46.603563,27.8792727 46.603563,27.8807273 L46.603563,27.8821818 L46.603563,27.8850909 L46.6019556,27.8865455 L46.6019556,27.8894545 L46.6019556,27.8909091 L46.6019556,27.8938182 C46.6019556,27.8952727 46.6019556,27.8952727 46.6019556,27.8952727 L46.6019556,27.8981818 L46.6019556,27.9010909 C46.6019556,27.9010909 46.6019556,27.9010909 46.6003481,27.9010909 L46.6003481,27.9054545 L46.6003481,27.9069091 C46.6003481,27.9083636 46.6003481,27.9098182 46.6003481,27.9098182 L46.6003481,27.9127273 L46.6003481,27.9141818 C46.6003481,27.9156364 46.6003481,27.9170909 46.5987407,27.9170909 L46.5987407,27.9185455 L46.5987407,27.9214545 L46.5987407,27.9229091 C46.5987407,27.9243636 46.5987407,27.9258182 46.5987407,27.9258182 L46.5987407,27.9272727 L46.5987407,27.9301818 C46.5987407,27.9316364 46.5987407,27.9316364 46.5971333,27.9316364 L46.5971333,27.9345455 L46.5971333,27.936 L46.5971333,27.9389091 L46.5971333,27.9403636 C46.5971333,27.9461818 46.5955259,27.9505455 46.5955259,27.9563636 C46.5955259,27.9578182 46.5955259,27.9592727 46.5939185,27.9592727 L46.5939185,27.9607273 L46.5939185,27.9621818 L46.5939185,27.9636364 C46.5939185,27.9650909 46.5939185,27.9665455 46.5939185,27.9665455 L46.5939185,27.968 C46.5939185,27.9694545 46.5939185,27.9709091 46.5923111,27.9709091 L46.5923111,27.9738182 L46.5923111,27.9752727 L46.5923111,27.9767273 C46.5923111,27.9781818 46.5923111,27.9796364 46.5923111,27.9796364 L46.5923111,27.9810909 C46.5923111,27.9825455 46.5923111,27.984 46.5923111,27.9854545 C46.5923111,27.9898182 46.5907037,27.9927273 46.5907037,27.9970909 L46.5907037,28.0014545 L46.5890963,28.0014545 L46.5890963,28.0043636 L46.5890963,28.0058182 C46.5890963,28.0072727 46.5890963,28.0087273 46.5890963,28.0087273 L46.5890963,28.0101818 C46.5890963,28.0116364 46.5890963,28.0130909 46.5874889,28.0130909 L46.5874889,28.0145455 L46.5874889,28.0174545 L46.5874889,28.0189091 L46.5874889,28.0218182 L46.5874889,28.0232727 C46.5858815,28.0232727 46.5858815,28.0247273 46.5858815,28.0247273 L46.5858815,28.0261818 C46.5858815,28.0276364 46.5858815,28.0290909 46.5858815,28.0290909 L46.5858815,28.0305455 C46.5842741,28.0349091 46.5842741,28.0378182 46.5842741,28.0421818 C46.5842741,28.0436364 46.5826667,28.0450909 46.5826667,28.0450909 L46.5826667,28.0465455 C46.5826667,28.048 46.5826667,28.0494545 46.5826667,28.0494545 L46.5826667,28.0509091 L46.5826667,28.0538182 L46.5810593,28.0552727 L46.5810593,28.0581818 L46.5810593,28.0596364 L46.5810593,28.0625455 L46.5810593,28.064 C46.5794519,28.0654545 46.5794519,28.0669091 46.5794519,28.0669091 L46.5794519,28.0683636 C46.5794519,28.0698182 46.5794519,28.0712727 46.5794519,28.0712727 L46.5794519,28.0727273 C46.5778444,28.0770909 46.5778444,28.0829091 46.576237,28.0858182 L46.576237,28.0872727 L46.576237,28.0901818 C46.576237,28.0916364 46.576237,28.0916364 46.5746296,28.0916364 L46.5746296,28.0945455 C46.5746296,28.0945455 46.5746296,28.096 46.5746296,28.096 L46.5746296,28.0989091 L46.5746296,28.1003636 C46.5730222,28.1018182 46.5730222,28.1018182 46.5730222,28.1032727 L46.5730222,28.1047273 C46.5730222,28.1061818 46.5730222,28.1061818 46.5730222,28.1076364 L46.5730222,28.1090909 C46.5714148,28.1090909 46.5714148,28.1105455 46.5714148,28.112 C46.5698074,28.1192727 46.5698074,28.1265455 46.5682,28.1323636 L46.5682,28.1338182 C46.5682,28.1338182 46.5682,28.1352727 46.5665926,28.1367273 L46.5665926,28.1381818 C46.5665926,28.1381818 46.5665926,28.1396364 46.5665926,28.1410909 L46.5665926,28.1425455 C46.5665926,28.1425455 46.5665926,28.144 46.5649852,28.144 L46.5649852,28.1454545 L46.5649852,28.1469091 L46.5649852,28.1483636 C46.5649852,28.1498182 46.5633778,28.1512727 46.5633778,28.1527273 C46.5633778,28.1541818 46.5633778,28.1556364 46.5633778,28.1570909 C46.5617704,28.1614545 46.5617704,28.1643636 46.560163,28.1687273 C46.560163,28.1701818 46.560163,28.1716364 46.560163,28.1716364 L46.560163,28.1730909 C46.560163,28.1745455 46.5585556,28.1745455 46.5585556,28.176 L46.5585556,28.1774545 C46.5585556,28.1789091 46.5585556,28.1789091 46.5585556,28.1803636 L46.5585556,28.1818182 C46.5585556,28.1832727 46.5585556,28.1832727 46.5585556,28.1847273 C46.5585556,28.1847273 46.5585556,28.1861818 46.5569481,28.1861818 L46.5569481,28.1890909 L46.5569481,28.1905455 L46.5569481,28.1934545 C46.5553407,28.1934545 46.5553407,28.1934545 46.5553407,28.1949091 C46.5553407,28.1949091 46.5553407,28.1963636 46.5553407,28.1978182 C46.5553407,28.1992727 46.5553407,28.2007273 46.5537333,28.2021818 C46.5537333,28.2065455 46.5521259,28.2109091 46.5505185,28.2167273 C46.5505185,28.2181818 46.5505185,28.2196364 46.5505185,28.2210909 C46.5489111,28.2225455 46.5489111,28.224 46.5489111,28.2254545 L46.5489111,28.2254545 C46.5489111,28.2269091 46.5489111,28.2283636 46.5473037,28.2283636 L46.5473037,28.2298182 C46.5473037,28.2312727 46.5473037,28.2312727 46.5473037,28.2327273 L46.5473037,28.2341818 C46.5473037,28.2356364 46.5456963,28.2356364 46.5456963,28.2370909 L46.5456963,28.2385455 C46.5456963,28.2385455 46.5456963,28.24 46.5456963,28.2414545 C46.5424815,28.2501818 46.5408741,28.2574545 46.5392667,28.2647273 L46.5392667,28.2647273 C46.5392667,28.2661818 46.5392667,28.2676364 46.5376593,28.2690909 C46.5376593,28.2705455 46.5376593,28.272 46.5376593,28.272 L46.5376593,28.2734545 C46.5360519,28.2749091 46.5360519,28.2763636 46.5360519,28.2763636 L46.5360519,28.2778182 L46.5344444,28.2807273 L46.5344444,28.2821818 C46.532837,28.288 46.5312296,28.2952727 46.5296222,28.3010909 C46.5296222,28.3025455 46.5296222,28.304 46.5296222,28.3054545 L46.5280148,28.3054545 L46.5280148,28.3098182 L46.5280148,28.3098182 C46.5280148,28.3112727 46.5264074,28.3127273 46.5264074,28.3127273 L46.5264074,28.3141818 C46.5264074,28.3156364 46.5264074,28.3170909 46.5264074,28.3170909 C46.5264074,28.3170909 46.5264074,28.3185455 46.5248,28.3185455 C46.5248,28.32 46.5248,28.32 46.5248,28.3214545 L46.5248,28.3229091 C46.5248,28.3229091 46.5248,28.3243636 46.5248,28.3258182 C46.5231926,28.3316364 46.5199778,28.3374545 46.5183704,28.3447273 C46.5183704,28.3461818 46.5183704,28.3476364 46.5183704,28.3490909 C46.516763,28.3505455 46.516763,28.352 46.516763,28.352 L46.516763,28.3534545 C46.516763,28.3549091 46.5151556,28.3549091 46.5151556,28.3563636 L46.5151556,28.3578182 C46.5151556,28.3578182 46.5151556,28.3592727 46.5151556,28.3607273 C46.5135481,28.3607273 46.5135481,28.3607273 46.5135481,28.3621818 C46.5135481,28.3621818 46.5135481,28.3636364 46.5135481,28.3650909 C46.5119407,28.3665455 46.5119407,28.368 46.5119407,28.3694545 L46.5119407,28.3694545 C46.5103333,28.3738182 46.5087259,28.3796364 46.5071185,28.3854545 C46.5071185,28.3869091 46.5071185,28.3869091 46.5071185,28.3869091 C46.5055111,28.3869091 46.5055111,28.3883636 46.5055111,28.3883636 C46.5055111,28.3883636 46.5055111,28.3898182 46.5055111,28.3912727 L46.5055111,28.3927273 C46.5039037,28.3927273 46.5039037,28.3941818 46.5039037,28.3956364 C46.5039037,28.3970909 46.5022963,28.3985455 46.5022963,28.4 C46.5022963,28.4014545 46.5022963,28.4029091 46.5006889,28.4029091 L46.5006889,28.4043636 C46.5006889,28.4058182 46.5006889,28.4072727 46.5006889,28.4072727 L46.5006889,28.4087273 C46.4990815,28.4130909 46.4974741,28.4189091 46.4958667,28.4232727 C46.4942593,28.4247273 46.4942593,28.4261818 46.4942593,28.4276364 C46.4942593,28.4290909 46.4926519,28.4305455 46.4926519,28.432 L46.4926519,28.432 C46.4926519,28.4334545 46.4926519,28.4349091 46.4910444,28.4349091 L46.4910444,28.4363636 C46.4910444,28.4378182 46.4910444,28.4378182 46.4910444,28.4392727 L46.4910444,28.4407273 C46.4910444,28.4421818 46.489437,28.4421818 46.489437,28.4436364 L46.489437,28.4450909 C46.489437,28.4450909 46.489437,28.4465455 46.4878296,28.4465455 C46.4878296,28.448 46.4878296,28.4494545 46.4878296,28.4509091 L46.4862222,28.4509091 C46.4846148,28.4552727 46.4830074,28.4610909 46.4814,28.4654545 L46.4814,28.4669091 C46.4814,28.4669091 46.4814,28.4683636 46.4814,28.4698182 L46.4797926,28.4712727 C46.4797926,28.4712727 46.4797926,28.4727273 46.4797926,28.4741818 C46.4781852,28.4756364 46.4781852,28.4770909 46.4781852,28.4770909 L46.4781852,28.4785455 C46.4781852,28.48 46.4765778,28.4814545 46.4765778,28.4814545 C46.4765778,28.4829091 46.4765778,28.4829091 46.4765778,28.4829091 C46.4765778,28.4843636 46.4765778,28.4843636 46.4749704,28.4858182 L46.4749704,28.4872727 L46.473363,28.4901818 C46.4717556,28.4974545 46.4701481,28.5032727 46.4669333,28.5076364 L46.4669333,28.5090909 C46.4669333,28.5090909 46.4669333,28.5105455 46.4653259,28.512 L46.4653259,28.5134545 C46.4653259,28.5134545 46.4653259,28.5149091 46.4653259,28.5163636 L46.4637185,28.5163636 C46.4637185,28.5178182 46.4637185,28.5192727 46.4637185,28.5192727 C46.4637185,28.5207273 46.4637185,28.5207273 46.4621111,28.5207273 C46.4621111,28.5221818 46.4621111,28.5221818 46.4621111,28.5236364 L46.4621111,28.5250909 L46.4605037,28.528 L46.4605037,28.5294545 C46.4588963,28.5294545 46.4588963,28.5309091 46.4588963,28.5323636 C46.4588963,28.5323636 46.4588963,28.5323636 46.4588963,28.5338182 L46.4540741,28.5469091 C46.4540741,28.5469091 46.4540741,28.5483636 46.4540741,28.5483636 C46.4540741,28.5483636 46.4540741,28.5498182 46.4524667,28.5512727 L46.4524667,28.5527273 C46.4524667,28.5527273 46.4524667,28.5541818 46.4508593,28.5541818 L46.4508593,28.5570909 C46.4508593,28.5570909 46.4508593,28.5585455 46.4492519,28.5585455 L46.4492519,28.56 C46.4492519,28.5614545 46.4492519,28.5614545 46.4492519,28.5629091 C46.4476444,28.5629091 46.4476444,28.5643636 46.4476444,28.5643636 C46.4476444,28.5658182 46.4476444,28.5658182 46.4476444,28.5672727 C46.446037,28.5672727 46.446037,28.5687273 46.446037,28.5687273 C46.446037,28.5687273 46.446037,28.5687273 46.446037,28.5701818 C46.446037,28.5701818 46.4444296,28.5701818 46.4444296,28.5716364 L46.4444296,28.5730909 C46.4444296,28.5745455 46.4428222,28.5745455 46.4428222,28.5745455 C46.4428222,28.576 46.4428222,28.5774545 46.4428222,28.5774545 L46.4428222,28.5789091 C46.4412148,28.5803636 46.4412148,28.5832727 46.4396074,28.5847273 C46.4396074,28.5847273 46.4396074,28.5847273 46.4396074,28.5861818 C46.4396074,28.5861818 46.4396074,28.5876364 46.438,28.5876364 C46.438,28.5890909 46.438,28.5890909 46.438,28.5905455 C46.438,28.5905455 46.438,28.592 46.4363926,28.592 C46.4363926,28.592 46.4363926,28.5934545 46.4363926,28.5934545 C46.4363926,28.5949091 46.4363926,28.5949091 46.4347852,28.5963636 C46.4347852,28.5963636 46.4347852,28.5978182 46.4347852,28.5978182 C46.4347852,28.5992727 46.4347852,28.5992727 46.4331778,28.6007273 C46.4331778,28.6007273 46.4331778,28.6021818 46.4331778,28.6021818 C46.4331778,28.6036364 46.4331778,28.6036364 46.4315704,28.6050909 L46.4315704,28.6065455 C46.4315704,28.6065455 46.4315704,28.608 46.429963,28.608 C46.429963,28.6094545 46.429963,28.6094545 46.429963,28.6109091 C46.429963,28.6109091 46.429963,28.6123636 46.4283556,28.6123636 C46.4283556,28.6138182 46.4283556,28.6138182 46.4283556,28.6152727 C46.4283556,28.6152727 46.4283556,28.6167273 46.4267481,28.6167273 C46.4267481,28.6167273 46.4267481,28.6181818 46.4267481,28.6181818 C46.4267481,28.6196364 46.4251407,28.6210909 46.4251407,28.6225455 C46.4251407,28.6225455 46.4251407,28.624 46.4251407,28.6254545 L46.4235333,28.6269091 C46.4235333,28.6269091 46.4235333,28.6283636 46.4235333,28.6283636 C46.4235333,28.6283636 46.4235333,28.6283636 46.4219259,28.6298182 C46.4219259,28.6298182 46.4219259,28.6312727 46.4219259,28.6312727 C46.4219259,28.6327273 46.4219259,28.6327273 46.4203185,28.6327273 C46.4203185,28.6341818 46.4203185,28.6341818 46.4203185,28.6356364 C46.4203185,28.6356364 46.4203185,28.6370909 46.4187111,28.6370909 C46.4187111,28.6385455 46.4187111,28.6385455 46.4187111,28.64 L46.4171037,28.6414545 C46.4171037,28.6429091 46.4171037,28.6429091 46.4171037,28.6443636 C46.4171037,28.6443636 46.4154963,28.6443636 46.4154963,28.6458182 L46.4154963,28.6472727 C46.4154963,28.6487273 46.4138889,28.6487273 46.4138889,28.6501818 L46.4138889,28.6516364 L46.4122815,28.6530909 C46.4122815,28.6545455 46.4122815,28.656 46.4106741,28.656 L46.4106741,28.6574545 C46.4090667,28.6603636 46.4090667,28.6632727 46.4074593,28.6661818 L46.4074593,28.6661818 C46.4074593,28.6676364 46.4058519,28.6690909 46.4058519,28.6705455 C46.4058519,28.6705455 46.4058519,28.6705455 46.4058519,28.672 C46.4042444,28.672 46.4042444,28.6734545 46.4042444,28.6734545 L46.4042444,28.6749091 C46.402637,28.6763636 46.402637,28.6778182 46.402637,28.6778182 C46.402637,28.6792727 46.402637,28.6792727 46.4010296,28.6792727 C46.4010296,28.6807273 46.4010296,28.6821818 46.4010296,28.6821818 L46.3994222,28.6836364 C46.3994222,28.6850909 46.3994222,28.6850909 46.3994222,28.6865455 L46.3978148,28.688 C46.3978148,28.6894545 46.3978148,28.6894545 46.3978148,28.6894545 C46.3962074,28.6894545 46.3962074,28.6894545 46.3962074,28.6909091 C46.3962074,28.6909091 46.3962074,28.6923636 46.3946,28.6938182 L46.3946,28.6952727 C46.3946,28.6952727 46.3929926,28.6967273 46.3929926,28.6981818 L46.3913852,28.7025455 L46.3913852,28.704 C46.3913852,28.704 46.3913852,28.7054545 46.3897778,28.7069091 L46.3897778,28.7083636 C46.3897778,28.7083636 46.3881704,28.7098182 46.3881704,28.7112727 C46.3881704,28.7112727 46.3881704,28.7112727 46.3881704,28.7127273 C46.3881704,28.7127273 46.386563,28.7141818 46.386563,28.7156364 L46.386563,28.7156364 C46.3849556,28.7170909 46.3849556,28.7185455 46.3849556,28.7185455 L46.3849556,28.72 C46.3833481,28.7214545 46.3833481,28.7229091 46.3833481,28.7229091 C46.3833481,28.7243636 46.3833481,28.7243636 46.3817407,28.7243636 C46.3817407,28.7258182 46.3817407,28.7272727 46.3817407,28.7272727 L46.3801333,28.7287273 C46.3801333,28.7301818 46.3801333,28.7301818 46.3785259,28.7316364 L46.3785259,28.7330909 C46.3785259,28.7330909 46.3785259,28.7345455 46.3769185,28.736 C46.3753111,28.7389091 46.3753111,28.7418182 46.3737037,28.7447273 C46.3720963,28.7461818 46.3720963,28.7476364 46.3720963,28.7490909 C46.3704889,28.7490909 46.3704889,28.7490909 46.3704889,28.7505455 C46.3704889,28.7505455 46.3704889,28.7505455 46.3688815,28.752 L46.3688815,28.7534545 C46.3688815,28.7534545 46.3688815,28.7549091 46.3672741,28.7549091 C46.3672741,28.7563636 46.3672741,28.7563636 46.3672741,28.7563636 C46.3672741,28.7578182 46.3656667,28.7592727 46.3656667,28.7592727 L46.3656667,28.7607273 L46.3640593,28.7636364 L46.3640593,28.7650909 L46.3624519,28.768 L46.3608444,28.7694545 L46.359237,28.7723636 C46.3576296,28.7781818 46.3544148,28.784 46.3528074,28.7898182 C46.3512,28.7912727 46.3512,28.7927273 46.3512,28.7927273 C46.3512,28.7941818 46.3512,28.7941818 46.3495926,28.7941818 C46.3495926,28.7956364 46.3495926,28.7956364 46.3479852,28.7970909 L46.3479852,28.7985455 L46.3463778,28.8014545 L46.3463778,28.8029091 C46.3463778,28.8029091 46.3447704,28.8043636 46.3447704,28.8058182 L46.3447704,28.8058182 C46.343163,28.8072727 46.343163,28.8087273 46.343163,28.8101818 C46.3399481,28.816 46.3351259,28.8232727 46.3319111,28.8290909 C46.3319111,28.8305455 46.3303037,28.832 46.3303037,28.8334545 L46.3303037,28.8334545 C46.3303037,28.8349091 46.3286963,28.8363636 46.3286963,28.8378182 L46.3254815,28.8421818 C46.1984963,29.0967273 46.0313259,29.3309091 45.8320074,29.5389091 L47.0472074,30.4916364 C47.8042963,29.6989091 48.2222222,28.6850909 48.2222222,27.6363636 L48.2222222,26.8014545 Z M44.5267926,30.3621818 C44.2856815,30.4436364 44.0301037,30.5003636 43.7664889,30.5265455 L43.7616667,30.5265455 C43.7504148,30.528 43.7407704,30.5294545 43.7295185,30.5309091 L43.7263037,30.5309091 L43.7246963,30.5309091 L43.7214815,30.5309091 L43.7198741,30.5309091 L43.7166593,30.5309091 L43.7150519,30.5309091 C43.7134444,30.5323636 43.7134444,30.5323636 43.711837,30.5323636 L43.711837,30.5323636 C43.7054074,30.5323636 43.7005852,30.5323636 43.6941556,30.5338182 L43.6941556,30.5338182 L43.6893333,30.5338182 L43.6893333,30.5338182 L43.6845111,30.5338182 L43.6845111,30.5338182 C43.6829037,30.5338182 43.6812963,30.5338182 43.6812963,30.5352727 L43.6796889,30.5352727 L43.6764741,30.5352727 L43.6748667,30.5352727 L43.6716519,30.5352727 L43.6700444,30.5352727 L43.6668296,30.5352727 L43.6652222,30.5352727 C43.6620074,30.5367273 43.6571852,30.5367273 43.652363,30.5367273 L43.6491481,30.5367273 L43.6475407,30.5367273 L43.6459333,30.5367273 L43.6443259,30.5367273 C43.6427185,30.5381818 43.6411111,30.5381818 43.6411111,30.5381818 L43.6378963,30.5381818 L43.6362889,30.5381818 L43.6330741,30.5381818 L43.6314667,30.5381818 L43.6282519,30.5381818 L43.625037,30.5381818 L43.6234296,30.5381818 C43.6234296,30.5381818 43.6218222,30.5381818 43.6202148,30.5396364 L43.6186074,30.5396364 L43.6121778,30.5396364 L43.6121778,30.5396364 L43.608963,30.5396364 L43.6073556,30.5396364 L43.6041407,30.5396364 L43.6025333,30.5396364 L43.5993185,30.5396364 L43.5977111,30.5396364 C43.5961037,30.5396364 43.5961037,30.5410909 43.5944963,30.5410909 L43.5928889,30.5410909 L43.5896741,30.5410909 L43.5864593,30.5410909 L43.5848519,30.5410909 L43.581637,30.5410909 L43.5800296,30.5410909 L43.5784222,30.5410909 L43.5752074,30.5410909 L43.5736,30.5410909 C43.5719926,30.5410909 43.5703852,30.5410909 43.5671704,30.5425455 L43.565563,30.5425455 L43.5623481,30.5425455 L43.5607407,30.5425455 L43.5575259,30.5425455 L43.5559185,30.5425455 L43.5527037,30.5425455 L43.5510963,30.5425455 L43.5478815,30.5425455 L43.5462741,30.5425455 L43.5446667,30.5425455 L43.5414519,30.5425455 L43.5398444,30.5425455 L43.5366296,30.5425455 C43.5350222,30.5425455 43.5350222,30.5425455 43.5334148,30.544 L43.5285926,30.544 L43.5237704,30.544 L43.522163,30.544 L43.5189481,30.544 L43.5173407,30.544 L43.5141259,30.544 L43.5125185,30.544 L43.5093037,30.544 L43.5076963,30.544 L43.5044815,30.544 L43.5028741,30.544 L43.4996593,30.544 L43.4980519,30.544 L43.494837,30.544 L43.4932296,30.544 C43.4916222,30.544 43.4900148,30.544 43.4884074,30.5454545 L43.4884074,30.5454545 L43.4819778,30.5454545 L43.4803704,30.5454545 L43.4771556,30.5454545 L43.4771556,30.5454545 L43.4739407,30.5454545 L43.4707259,30.5454545 L43.4675111,30.5454545 L43.4659037,30.5454545 L43.4626889,30.5454545 L43.4610815,30.5454545 L43.4578667,30.5454545 L43.4562593,30.5454545 L43.4530444,30.5454545 L43.451437,30.5454545 L43.4466148,30.5454545 L43.4466148,30.5454545 L43.4417926,30.5454545 L43.4401852,30.5454545 L43.4369704,30.5454545 L43.435363,30.5454545 L43.4321481,30.5454545 L43.4289333,30.5454545 L43.4273259,30.5454545 L43.4241111,30.5454545 L43.4208963,30.5454545 L43.4192889,30.5454545 L43.4160741,30.5454545 L43.4144667,30.5454545 L43.4112519,30.5454545 L43.4096444,30.5454545 L43.4064296,30.5454545 L43.4048222,30.5454545 L43.4,30.5454545 L41.3360889,30.5454545 L41.3360889,32 L43.4,32 C43.9802741,32 44.5492963,31.9069091 45.0893852,31.7236364 L44.5267926,30.3621818 Z M36.5138667,32 L39.7286815,32 L39.7286815,30.5454545 L36.5138667,30.5454545 L36.5138667,32 Z M31.6916444,32 L34.9064593,32 L34.9064593,30.5454545 L31.6916444,30.5454545 L31.6916444,32 Z M26.8694222,32 L30.084237,32 L30.084237,30.5454545 L26.8694222,30.5454545 L26.8694222,32 Z M22.0472,32 L25.2620148,32 L25.2620148,30.5454545 L22.0472,30.5454545 L22.0472,32 Z M17.2249778,32 L20.4397926,32 L20.4397926,30.5454545 L17.2249778,30.5454545 L17.2249778,32 Z M12.4027556,32 L15.6175704,32 L15.6175704,30.5454545 L12.4027556,30.5454545 L12.4027556,32 Z M7.58053333,32 L10.7953481,32 L10.7953481,30.5454545 L7.58053333,30.5454545 L7.58053333,32 Z M2.89654815,29.9665455 L1.93371111,31.1301818 C2.77277778,31.7003636 3.77097778,32 4.82222222,32 L5.97312593,32 L5.97312593,30.5454545 L4.82222222,30.5454545 L4.8174,30.5454545 L4.81579259,30.5454545 L4.81257778,30.5454545 L4.81097037,30.5454545 L4.80775556,30.5454545 L4.80614815,30.5454545 L4.80132593,30.5454545 L4.80132593,30.5454545 L4.7965037,30.5454545 L4.7948963,30.5454545 L4.79168148,30.5454545 L4.79007407,30.5454545 L4.78685926,30.5454545 L4.78525185,30.5454545 L4.78203704,30.5454545 L4.78042963,30.5454545 L4.77560741,30.5454545 L4.774,30.5454545 L4.77078519,30.5454545 L4.76917778,30.5454545 L4.76596296,30.5454545 L4.76435556,30.5454545 L4.76114074,30.5454545 L4.75953333,30.5454545 L4.74988889,30.5454545 L4.74828148,30.5454545 L4.74506667,30.5454545 L4.74345926,30.5454545 L4.74024444,30.5454545 L4.73863704,30.5454545 L4.73542222,30.5454545 L4.73381481,30.5454545 C4.73220741,30.5454545 4.7306,30.544 4.72899259,30.544 L4.72738519,30.544 L4.72417037,30.544 L4.72256296,30.544 L4.71934815,30.544 L4.71774074,30.544 L4.71452593,30.544 L4.71291852,30.544 L4.7080963,30.544 L4.70648889,30.544 L4.70327407,30.544 L4.70166667,30.544 L4.69845185,30.544 L4.69684444,30.544 L4.69362963,30.544 L4.69202222,30.544 C4.68880741,30.544 4.68559259,30.5425455 4.68237778,30.5425455 L4.68077037,30.5425455 L4.67755556,30.5425455 L4.67594815,30.5425455 L4.67273333,30.5425455 L4.67112593,30.5425455 L4.66791111,30.5425455 L4.6663037,30.5425455 L4.66308889,30.5425455 L4.66148148,30.5425455 L4.65826667,30.5425455 L4.65505185,30.5425455 C4.65505185,30.5425455 4.65344444,30.5425455 4.65183704,30.5410909 L4.65022963,30.5410909 L4.64701481,30.5410909 L4.64540741,30.5410909 L4.64058519,30.5410909 L4.63897778,30.5410909 L4.63576296,30.5410909 L4.63415556,30.5410909 L4.63254815,30.5410909 L4.63094074,30.5410909 L4.62772593,30.5410909 C4.62611852,30.5410909 4.62611852,30.5410909 4.62611852,30.5396364 L4.6212963,30.5396364 L4.6212963,30.5396364 L4.61647407,30.5396364 L4.61325926,30.5396364 L4.61165185,30.5396364 L4.60843704,30.5396364 L4.60682963,30.5396364 L4.60361481,30.5396364 L4.60200741,30.5396364 C4.6004,30.5396364 4.6004,30.5396364 4.59879259,30.5381818 L4.59557778,30.5381818 L4.59397037,30.5381818 L4.59075556,30.5381818 L4.58914815,30.5381818 L4.58593333,30.5381818 L4.58432593,30.5381818 L4.58111111,30.5381818 L4.5795037,30.5381818 C4.5778963,30.5367273 4.5778963,30.5367273 4.57628889,30.5367273 L4.57307407,30.5367273 L4.56985926,30.5367273 L4.56825185,30.5367273 L4.56503704,30.5367273 L4.56342963,30.5367273 L4.56182222,30.5367273 L4.55860741,30.5367273 C4.55860741,30.5352727 4.557,30.5352727 4.55539259,30.5352727 L4.55378519,30.5352727 L4.54896296,30.5352727 L4.54735556,30.5352727 L4.54414074,30.5352727 L4.54253333,30.5352727 L4.54092593,30.5352727 C4.53931852,30.5338182 4.53931852,30.5338182 4.53771111,30.5338182 L4.5361037,30.5338182 L4.52645926,30.5338182 L4.52485185,30.5338182 L4.52163704,30.5338182 C4.52163704,30.5323636 4.52163704,30.5323636 4.52002963,30.5323636 L4.51681481,30.5323636 L4.51520741,30.5323636 L4.51199259,30.5323636 C4.51038519,30.5323636 4.50717037,30.5323636 4.50556296,30.5309091 L4.50395556,30.5309091 L4.50074074,30.5309091 L4.49913333,30.5309091 L4.49752593,30.5309091 L4.49591852,30.5309091 L4.4927037,30.5309091 L4.4910963,30.5309091 C4.48788148,30.5294545 4.48466667,30.5294545 4.47984444,30.5294545 L4.47984444,30.5294545 L4.47662963,30.5294545 C4.47502222,30.5294545 4.47502222,30.5294545 4.47502222,30.528 L4.47180741,30.528 L4.4702,30.528 C4.46698519,30.528 4.46377037,30.528 4.45894815,30.5265455 L4.45573333,30.5265455 L4.45412593,30.5265455 L4.45091111,30.5265455 L4.45091111,30.5265455 C4.44448148,30.5250909 4.43965926,30.5250909 4.43483704,30.5250909 C4.43322963,30.5236364 4.43162222,30.5236364 4.43162222,30.5236364 L4.43001481,30.5236364 L4.4268,30.5236364 C4.42197778,30.5236364 4.41876296,30.5221818 4.41394074,30.5221818 L4.41072593,30.5221818 L4.40911852,30.5221818 C4.40751111,30.5221818 4.40751111,30.5207273 4.4059037,30.5207273 C4.39947407,30.5207273 4.39625926,30.5192727 4.38982963,30.5192727 L4.38982963,30.5192727 L4.38661481,30.5192727 L4.38500741,30.5192727 C4.37857778,30.5178182 4.37214815,30.5163636 4.36411111,30.5163636 C4.35125185,30.5149091 4.33839259,30.512 4.32553333,30.5105455 C3.8834963,30.448 3.47039259,30.3054545 3.10711852,30.0974545 C3.10711852,30.0974545 3.10551111,30.096 3.1039037,30.096 C3.09908148,30.0930909 3.09586667,30.0901818 3.09104444,30.0872727 C3.08622222,30.0858182 3.08300741,30.0829091 3.07818519,30.0814545 C3.07657778,30.0814545 3.07657778,30.08 3.07497037,30.08 C3.07497037,30.08 3.07497037,30.08 3.07497037,30.0785455 C3.07336296,30.0785455 3.07175556,30.0785455 3.07175556,30.0770909 L3.07014815,30.0770909 C3.07014815,30.0770909 3.06854074,30.0756364 3.06854074,30.0756364 L3.06693333,30.0756364 C3.06371852,30.0727273 3.06211111,30.0712727 3.0588963,30.0698182 L3.0588963,30.0698182 C3.05728889,30.0683636 3.05728889,30.0683636 3.05568148,30.0683636 C3.05568148,30.0669091 3.05407407,30.0669091 3.05407407,30.0669091 C3.05407407,30.0669091 3.05246667,30.0654545 3.05246667,30.0654545 C3.05085926,30.0654545 3.05085926,30.0654545 3.05085926,30.064 L3.04764444,30.064 C3.04764444,30.0625455 3.04764444,30.0625455 3.04764444,30.0625455 C3.04603704,30.0625455 3.04442963,30.0610909 3.04282222,30.0596364 L3.04121481,30.0596364 C3.04121481,30.0581818 3.03960741,30.0581818 3.03960741,30.0581818 C3.038,30.0581818 3.038,30.0567273 3.038,30.0567273 C3.03639259,30.0567273 3.03639259,30.0567273 3.03639259,30.0552727 C3.03478519,30.0552727 3.03478519,30.0552727 3.03317778,30.0538182 L3.03157037,30.0538182 C3.03157037,30.0523636 3.02996296,30.0523636 3.02996296,30.0523636 C3.02835556,30.0509091 3.02835556,30.0509091 3.02674815,30.0509091 C3.02674815,30.0494545 3.02514074,30.0494545 3.02514074,30.0494545 C3.02514074,30.048 3.02353333,30.048 3.02353333,30.048 C3.02353333,30.048 3.02192593,30.0465455 3.02192593,30.0465455 C3.02031852,30.0465455 3.02031852,30.0465455 3.02031852,30.0450909 L3.0171037,30.0450909 C3.0171037,30.0436364 3.0171037,30.0436364 3.0154963,30.0436364 C3.0154963,30.0421818 3.01388889,30.0421818 3.01388889,30.0421818 L3.01228148,30.0407273 C3.01067407,30.0407273 3.01067407,30.0392727 3.00906667,30.0392727 L3.00745926,30.0378182 C3.00745926,30.0378182 3.00585185,30.0363636 3.00424444,30.0363636 L3.00424444,30.0363636 C3.00263704,30.0349091 3.00263704,30.0349091 3.00102963,30.0334545 L2.99942222,30.0334545 C2.99942222,30.032 2.99781481,30.032 2.99620741,30.0305455 C2.99299259,30.0290909 2.99138519,30.0276364 2.98977778,30.0261818 L2.98817037,30.0261818 C2.98817037,30.0247273 2.98656296,30.0247273 2.98495556,30.0232727 L2.98495556,30.0232727 C2.98013333,30.0218182 2.9737037,30.0174545 2.96888148,30.0145455 C2.94477037,29.9985455 2.92065926,29.9825455 2.89654815,29.9665455 L2.89654815,29.9665455 Z M1.60740741,25.9752727 L0,25.9752727 L0,27.6363636 C0,28.2690909 0.146274074,28.88 0.437214815,29.4530909 L1.89834815,28.8465455 C1.89191852,28.8349091 1.88548889,28.8218182 1.87905926,28.8101818 L1.87745185,28.8072727 C1.87745185,28.8058182 1.87745185,28.8058182 1.87745185,28.8058182 C1.87745185,28.8043636 1.87584444,28.8029091 1.87584444,28.8029091 C1.87584444,28.8014545 1.87584444,28.8014545 1.87423704,28.8014545 C1.87423704,28.8 1.87423704,28.7985455 1.87423704,28.7985455 C1.87262963,28.7985455 1.87262963,28.7970909 1.87262963,28.7970909 L1.87102222,28.7941818 C1.87102222,28.7941818 1.87102222,28.7927273 1.87102222,28.7927273 C1.87102222,28.7912727 1.86941481,28.7912727 1.86941481,28.7898182 C1.86941481,28.7898182 1.86941481,28.7883636 1.86941481,28.7883636 L1.86780741,28.7854545 L1.8662,28.784 C1.8662,28.7825455 1.8662,28.7825455 1.8662,28.7810909 C1.86459259,28.7810909 1.86459259,28.7796364 1.86459259,28.7796364 C1.86459259,28.7781818 1.86459259,28.7781818 1.86298519,28.7767273 C1.86137778,28.7738182 1.86137778,28.7709091 1.85977037,28.768 L1.85655556,28.7636364 C1.85655556,28.7621818 1.85655556,28.7607273 1.85494815,28.7592727 L1.85494815,28.7578182 L1.85334074,28.7549091 C1.85334074,28.7534545 1.85334074,28.752 1.85173333,28.7505455 C1.85173333,28.7505455 1.85173333,28.7505455 1.85173333,28.7505455 L1.85012593,28.7476364 L1.85012593,28.7461818 C1.84851852,28.7461818 1.84851852,28.7447273 1.84851852,28.7432727 L1.84691111,28.7418182 C1.84691111,28.7403636 1.84691111,28.7403636 1.8453037,28.7389091 L1.8453037,28.7374545 L1.8436963,28.7330909 C1.73117778,28.4843636 1.65562963,28.2181818 1.62508889,27.9418182 C1.62348148,27.9403636 1.62348148,27.9374545 1.62348148,27.936 C1.62348148,27.9345455 1.62348148,27.9330909 1.62348148,27.9316364 L1.62348148,27.9258182 L1.62187407,27.9258182 L1.62187407,27.9214545 C1.62026667,27.9098182 1.62026667,27.8996364 1.61865926,27.888 L1.61865926,27.8865455 L1.61865926,27.8821818 C1.61865926,27.8807273 1.61865926,27.8792727 1.61865926,27.8778182 L1.61865926,27.8763636 L1.61865926,27.872 C1.61705185,27.8705455 1.61705185,27.8690909 1.61705185,27.8676364 L1.61705185,27.8661818 L1.61705185,27.8618182 C1.61705185,27.8603636 1.61705185,27.8589091 1.61705185,27.8574545 L1.61705185,27.856 C1.61705185,27.8545455 1.61705185,27.8530909 1.61544444,27.8530909 L1.61544444,27.8516364 L1.61544444,27.8472727 L1.61544444,27.8458182 C1.61544444,27.8414545 1.61544444,27.8341818 1.61383704,27.8283636 L1.61383704,27.8269091 L1.61383704,27.8225455 C1.61383704,27.8210909 1.61383704,27.8196364 1.61383704,27.8181818 L1.61383704,27.8167273 L1.61383704,27.8138182 L1.61383704,27.8109091 C1.61383704,27.8109091 1.61222963,27.8094545 1.61222963,27.808 L1.61222963,27.8065455 L1.61222963,27.8036364 L1.61222963,27.8007273 L1.61222963,27.7978182 L1.61222963,27.7963636 C1.61222963,27.7949091 1.61222963,27.7949091 1.61222963,27.7934545 L1.61222963,27.792 L1.61222963,27.7876364 L1.61222963,27.7861818 C1.61222963,27.7847273 1.61222963,27.7832727 1.61062222,27.7832727 L1.61062222,27.7818182 L1.61062222,27.7789091 L1.61062222,27.7774545 L1.61062222,27.7730909 C1.61062222,27.7716364 1.61062222,27.7701818 1.61062222,27.7672727 L1.61062222,27.7629091 L1.61062222,27.7614545 L1.61062222,27.7585455 L1.61062222,27.7556364 L1.61062222,27.7527273 C1.61062222,27.7527273 1.61062222,27.7512727 1.60901481,27.7512727 L1.60901481,27.7483636 L1.60901481,27.7469091 L1.60901481,27.7425455 L1.60901481,27.7410909 L1.60901481,27.7381818 L1.60901481,27.7367273 L1.60901481,27.7323636 L1.60901481,27.7309091 C1.60901481,27.7294545 1.60901481,27.7294545 1.60901481,27.728 L1.60901481,27.7265455 L1.60901481,27.7236364 L1.60901481,27.7207273 L1.60901481,27.7192727 L1.60901481,27.7178182 L1.60901481,27.7134545 L1.60901481,27.712 L1.60901481,27.7090909 L1.60901481,27.7076364 C1.60740741,27.7061818 1.60740741,27.7047273 1.60740741,27.7018182 L1.60740741,27.6974545 L1.60740741,27.696 L1.60740741,27.6930909 L1.60740741,27.6901818 L1.60740741,27.6872727 L1.60740741,27.6858182 L1.60740741,27.6829091 L1.60740741,27.68 L1.60740741,27.6770909 L1.60740741,27.6756364 L1.60740741,27.6727273 L1.60740741,27.6698182 L1.60740741,27.6669091 L1.60740741,27.6654545 L1.60740741,27.6625455 L1.60740741,27.6610909 L1.60740741,27.6596364 C1.60740741,27.6581818 1.60740741,27.6581818 1.60740741,27.6567273 L1.60740741,27.6538182 L1.60740741,27.6523636 L1.60740741,27.648 L1.60740741,27.6465455 L1.60740741,27.6436364 L1.60740741,27.6421818 L1.60740741,27.6363636 L1.60740741,25.9752727 Z M0,24.5207273 L1.60740741,24.5207273 L1.60740741,21.6116364 L0,21.6116364 L0,24.5207273 Z M0,20.1570909 L1.60740741,20.1570909 L1.60740741,17.248 L0,17.248 L0,20.1570909 Z M0,15.7934545 L1.60740741,15.7934545 L1.60740741,12.8843636 L0,12.8843636 L0,15.7934545 Z M0,11.4298182 L1.60740741,11.4298182 L1.60740741,8.52072727 L0,8.52072727 L0,11.4298182 Z M0.0112518519,4.05527273 C0.00321481481,4.15709091 0,4.26036364 0,4.36363636 L0,7.06618182 L1.60740741,7.06618182 L1.60740741,4.36363636 L1.60740741,4.35781818 L1.60740741,4.35636364 L1.60740741,4.352 L1.60740741,4.35054545 L1.60740741,4.34472727 C1.60740741,4.34327273 1.60740741,4.34327273 1.60740741,4.34327273 L1.60740741,4.33890909 L1.60740741,4.336 L1.60740741,4.33163636 L1.60740741,4.33018182 L1.60740741,4.32581818 L1.60740741,4.32436364 L1.60740741,4.32 L1.60740741,4.31854545 L1.60740741,4.31272727 L1.60740741,4.31127273 L1.60740741,4.30690909 L1.60740741,4.304 L1.60740741,4.30109091 L1.60740741,4.29818182 C1.60740741,4.29672727 1.60740741,4.29527273 1.60901481,4.29236364 L1.60901481,4.29090909 L1.60901481,4.28654545 L1.60901481,4.28509091 L1.60901481,4.28072727 L1.60901481,4.27781818 L1.60901481,4.27345455 L1.60901481,4.27054545 C1.60901481,4.27054545 1.60901481,4.26909091 1.60901481,4.26763636 L1.60901481,4.26618182 L1.60901481,4.26327273 L1.60901481,4.25890909 L1.60901481,4.256 L1.60901481,4.25309091 L1.60901481,4.25018182 C1.61062222,4.24581818 1.61062222,4.24145455 1.61062222,4.23854545 L1.61062222,4.23709091 C1.61222963,4.20945455 1.61383704,4.18472727 1.61544444,4.15709091 L0.0112518519,4.05527273 Z M4.82222222,0 C3.17462963,0 1.65723704,0.750545455 0.765125926,2.00436364 L2.11695556,2.79127273 C2.12499259,2.77963636 2.13463704,2.76654545 2.14428148,2.75345455 C2.1491037,2.74909091 2.15392593,2.74181818 2.15714074,2.736 C2.16035556,2.73163636 2.16517778,2.72581818 2.16839259,2.72145455 C2.16839259,2.72 2.17,2.71854545 2.17160741,2.71709091 L2.17160741,2.71709091 C2.17482222,2.71272727 2.17803704,2.70690909 2.18285926,2.70254545 C2.18285926,2.70109091 2.18446667,2.69963636 2.18607407,2.69818182 L2.1925037,2.68945455 L2.1925037,2.68945455 C2.19411111,2.688 2.19411111,2.688 2.19571852,2.68654545 L2.19571852,2.68509091 C2.19732593,2.68363636 2.19893333,2.68218182 2.19893333,2.68072727 L2.20054074,2.68072727 C2.20054074,2.67927273 2.20214815,2.67781818 2.20375556,2.67636364 C2.20375556,2.67490909 2.20536296,2.67345455 2.20697037,2.672 C2.20697037,2.672 2.20697037,2.67054545 2.20697037,2.67054545 C2.20857778,2.66909091 2.20857778,2.66909091 2.21018519,2.66763636 C2.21018519,2.66763636 2.21018519,2.66618182 2.21179259,2.66618182 C2.21179259,2.66472727 2.2134,2.66327273 2.21500741,2.66181818 C2.21500741,2.66036364 2.21661481,2.65890909 2.21822222,2.65745455 L2.21822222,2.65745455 C2.21982963,2.656 2.21982963,2.65454545 2.22143704,2.65309091 L2.22143704,2.65309091 L2.22465185,2.64872727 L2.22465185,2.64872727 C2.22625926,2.64727273 2.22786667,2.64581818 2.22786667,2.64436364 L2.22947407,2.64290909 C2.22947407,2.64145455 2.23108148,2.64145455 2.23268889,2.64 C2.23268889,2.63854545 2.23268889,2.63854545 2.23268889,2.63854545 C2.2342963,2.63709091 2.2342963,2.63563636 2.2359037,2.63563636 C2.2359037,2.63418182 2.2359037,2.63418182 2.2359037,2.63418182 C2.23751111,2.63272727 2.23911852,2.63127273 2.23911852,2.62981818 L2.24072593,2.62981818 C2.24072593,2.62836364 2.24233333,2.62836364 2.24394074,2.62690909 C2.24394074,2.62690909 2.24394074,2.62690909 2.24394074,2.62545455 C2.24554815,2.62545455 2.24554815,2.624 2.24715556,2.62254545 C2.24715556,2.62254545 2.24715556,2.62254545 2.24876296,2.62109091 C2.24876296,2.62109091 2.25037037,2.61963636 2.25037037,2.61818182 C2.25037037,2.61818182 2.25197778,2.61818182 2.25197778,2.61672727 C2.25197778,2.61527273 2.25358519,2.61381818 2.25519259,2.61381818 C2.25519259,2.61236364 2.25519259,2.61236364 2.25519259,2.61236364 C2.25519259,2.61090909 2.2568,2.60945455 2.2568,2.60945455 C2.25840741,2.608 2.25840741,2.608 2.25840741,2.608 C2.26001481,2.60654545 2.26001481,2.60509091 2.26162222,2.60509091 C2.26162222,2.60363636 2.26162222,2.60363636 2.26322963,2.60363636 C2.26322963,2.60218182 2.26322963,2.60072727 2.26483704,2.60072727 C2.26483704,2.60072727 2.26483704,2.59927273 2.26644444,2.59927273 C2.26644444,2.59781818 2.26805185,2.59636364 2.26965926,2.59490909 C2.26965926,2.59490909 2.26965926,2.59345455 2.27126667,2.59345455 C2.27126667,2.59345455 2.27126667,2.592 2.27287407,2.59054545 C2.27287407,2.59054545 2.27448148,2.59054545 2.27448148,2.58909091 C2.27448148,2.58909091 2.27608889,2.58763636 2.27608889,2.58763636 C2.27608889,2.58618182 2.2776963,2.58618182 2.2776963,2.58472727 C2.2793037,2.58472727 2.2793037,2.58327273 2.2793037,2.58181818 C2.28091111,2.58181818 2.28091111,2.58036364 2.28251852,2.58036364 C2.28251852,2.57890909 2.28412593,2.57745455 2.28412593,2.57745455 C2.28573333,2.576 2.28573333,2.576 2.28573333,2.576 C2.28734074,2.57454545 2.28734074,2.57454545 2.28734074,2.57309091 C2.28734074,2.57309091 2.28894815,2.57163636 2.28894815,2.57163636 C2.28894815,2.57018182 2.29055556,2.57018182 2.29055556,2.56872727 C2.29055556,2.56872727 2.29216296,2.56872727 2.29216296,2.56872727 C2.29377037,2.56727273 2.29377037,2.56581818 2.29537778,2.56581818 C2.29537778,2.56436364 2.29698519,2.56436364 2.29698519,2.56290909 C2.29859259,2.56290909 2.29859259,2.56145455 2.29859259,2.56145455 C2.3002,2.56 2.3002,2.56 2.3002,2.55854545 C2.30180741,2.55854545 2.30180741,2.55709091 2.30341481,2.55709091 C2.30341481,2.55563636 2.30341481,2.55563636 2.30502222,2.55418182 C2.30502222,2.55418182 2.30502222,2.55418182 2.30662963,2.55272727 C2.30662963,2.55127273 2.30823704,2.55127273 2.30823704,2.54981818 C2.30984444,2.54836364 2.30984444,2.54836364 2.31145185,2.54690909 C2.31145185,2.54690909 2.31305926,2.54545455 2.31305926,2.54545455 C2.31305926,2.544 2.31466667,2.544 2.31466667,2.544 C2.31466667,2.54254545 2.31627407,2.54254545 2.31627407,2.54109091 C2.31788148,2.54109091 2.31788148,2.53963636 2.31788148,2.53963636 L2.31948889,2.53672727 L2.3210963,2.53672727 C2.3210963,2.53381818 2.3227037,2.53236364 2.32431111,2.53090909 C2.32431111,2.53090909 2.32591852,2.53090909 2.32591852,2.52945455 C2.32591852,2.52945455 2.32752593,2.528 2.32752593,2.528 L2.32913333,2.52509091 C2.33074074,2.52509091 2.33074074,2.52363636 2.33234815,2.52363636 L2.33234815,2.52218182 C2.33395556,2.52072727 2.33717037,2.51781818 2.33877778,2.51636364 C2.33877778,2.51490909 2.34038519,2.51490909 2.34038519,2.51345455 C2.34038519,2.51345455 2.34199259,2.51345455 2.34199259,2.512 C2.34199259,2.512 2.3436,2.51054545 2.3436,2.51054545 C2.3436,2.50909091 2.34520741,2.50909091 2.34520741,2.50909091 C2.34520741,2.50763636 2.34681481,2.50763636 2.34681481,2.50763636 C2.34842222,2.50763636 2.34842222,2.50763636 2.34842222,2.50618182 C2.35002963,2.50472727 2.35163704,2.50327273 2.35324444,2.50181818 C2.35324444,2.50036364 2.35324444,2.50036364 2.35485185,2.50036364 C2.35485185,2.49890909 2.35485185,2.49890909 2.35645926,2.49745455 L2.35645926,2.496 C2.35806667,2.496 2.35806667,2.49454545 2.35967407,2.49454545 C2.35967407,2.49309091 2.35967407,2.49309091 2.35967407,2.49309091 C2.36288889,2.49018182 2.3661037,2.48727273 2.36771111,2.48436364 C2.36931852,2.48436364 2.36931852,2.48290909 2.36931852,2.48290909 C2.37092593,2.48290909 2.37092593,2.48145455 2.37253333,2.48 L2.37253333,2.48 C2.37414074,2.47854545 2.37414074,2.47709091 2.37574815,2.47709091 L2.37574815,2.47563636 C2.37896296,2.47272727 2.38217778,2.46981818 2.38378519,2.46690909 C2.38539259,2.46690909 2.38539259,2.46690909 2.38539259,2.46545455 C2.387,2.46545455 2.387,2.464 2.38860741,2.464 C2.38860741,2.46254545 2.38860741,2.46254545 2.38860741,2.46254545 C2.38860741,2.46109091 2.39021481,2.46109091 2.39021481,2.45963636 C2.39342963,2.45818182 2.39503704,2.45527273 2.39664444,2.45381818 L2.39664444,2.45236364 C2.39825185,2.45236364 2.39985926,2.45090909 2.39985926,2.44945455 L2.40146667,2.44945455 C2.40146667,2.448 2.40307407,2.448 2.40307407,2.44654545 C2.40307407,2.44654545 2.40468148,2.44654545 2.40468148,2.44654545 C2.4078963,2.44363636 2.4095037,2.44072727 2.41271852,2.43781818 L2.41432593,2.43781818 C2.41432593,2.43636364 2.41593333,2.43490909 2.41593333,2.43490909 L2.41754074,2.43345455 L2.42557778,2.42472727 C2.42718519,2.42327273 2.42718519,2.42181818 2.42879259,2.42181818 L2.42879259,2.42036364 C2.4304,2.41890909 2.43200741,2.41890909 2.43200741,2.41745455 L2.44165185,2.40872727 C2.44165185,2.40727273 2.44165185,2.40727273 2.44325926,2.40727273 C2.44325926,2.40581818 2.44486667,2.40581818 2.44486667,2.40436364 L2.44647407,2.40436364 C2.44968889,2.4 2.45451111,2.39563636 2.45772593,2.39127273 C2.45933333,2.38981818 2.46094074,2.38836364 2.46094074,2.38836364 C2.46576296,2.38545455 2.47058519,2.38109091 2.47540741,2.37672727 C2.48022963,2.37236364 2.48344444,2.368 2.48826667,2.36363636 C2.48826667,2.36218182 2.48987407,2.36072727 2.49148148,2.36072727 L2.49148148,2.35927273 C2.4963037,2.35490909 2.49951852,2.352 2.50434074,2.34763636 C2.51077037,2.34181818 2.51559259,2.336 2.52202222,2.33163636 C2.52202222,2.33163636 2.52202222,2.33163636 2.52202222,2.33018182 C2.52523704,2.32727273 2.53005926,2.32436364 2.53488148,2.32 L2.53488148,2.32 C2.53648889,2.31854545 2.5380963,2.31709091 2.5380963,2.31709091 C2.76634815,2.10763636 3.02674815,1.93163636 3.31608148,1.79345455 C3.36108889,1.77163636 3.4077037,1.74981818 3.45431852,1.72945455 C3.46074815,1.72654545 3.46557037,1.72509091 3.472,1.72218182 C3.47360741,1.72218182 3.47521481,1.72072727 3.47682222,1.72072727 L3.47682222,1.72072727 C3.48325185,1.71927273 3.48807407,1.71636364 3.4945037,1.71490909 L3.4945037,1.71345455 C3.49611111,1.71345455 3.49771852,1.71345455 3.49932593,1.712 C3.50414815,1.71054545 3.50736296,1.70909091 3.51218519,1.70618182 C3.51379259,1.70618182 3.5154,1.70618182 3.51700741,1.70472727 L3.51700741,1.70472727 C3.52343704,1.70181818 3.52825926,1.70036364 3.53468889,1.69745455 L3.53468889,1.69745455 C3.5362963,1.69745455 3.5379037,1.696 3.53951111,1.696 L3.53951111,1.696 C3.54433333,1.69454545 3.54754815,1.69163636 3.55237037,1.69018182 C3.55397778,1.69018182 3.55558519,1.68872727 3.55719259,1.68872727 L3.55719259,1.68872727 C3.5588,1.68727273 3.56040741,1.68727273 3.56040741,1.68727273 L3.56201481,1.68727273 C3.56522963,1.68436364 3.57005185,1.68290909 3.57487407,1.68145455 L3.57487407,1.68145455 C3.57648148,1.68145455 3.57808889,1.68 3.5796963,1.68 L3.5796963,1.68 C3.58612593,1.67709091 3.59255556,1.67563636 3.59737778,1.67272727 L3.59737778,1.67272727 C3.59898519,1.67272727 3.60059259,1.67127273 3.6022,1.67127273 L3.6022,1.67127273 C3.60702222,1.66981818 3.61184444,1.66690909 3.61505926,1.66545455 L3.61666667,1.66545455 C3.61827407,1.66545455 3.61827407,1.66545455 3.61988148,1.664 L3.62148889,1.664 C3.62631111,1.66254545 3.63274074,1.65963636 3.63756296,1.65963636 L3.63917037,1.65818182 C3.64077778,1.65818182 3.64238519,1.65818182 3.64238519,1.65672727 L3.64399259,1.65672727 C3.64881481,1.65527273 3.65202963,1.65381818 3.65685185,1.65236364 L3.65685185,1.65236364 C3.65845926,1.65236364 3.66006667,1.65090909 3.66167407,1.65090909 L3.66167407,1.65090909 C3.66328148,1.64945455 3.66488889,1.64945455 3.66488889,1.64945455 L3.6664963,1.64945455 C3.66971111,1.648 3.67453333,1.64654545 3.67935556,1.64509091 C3.67935556,1.64363636 3.67935556,1.64363636 3.68096296,1.64363636 C3.68096296,1.64363636 3.68257037,1.64363636 3.68417778,1.64218182 L3.68578519,1.64218182 C3.689,1.64072727 3.69382222,1.63927273 3.69703704,1.63781818 L3.69864444,1.63781818 C3.69864444,1.63781818 3.70025185,1.63636364 3.70185926,1.63636364 L3.70346667,1.63636364 C3.70507407,1.63490909 3.70507407,1.63490909 3.70668148,1.63490909 L3.70828889,1.63490909 C3.7115037,1.63345455 3.71632593,1.632 3.72114815,1.63054545 L3.72114815,1.62909091 L3.72597037,1.62909091 C3.72597037,1.62763636 3.72597037,1.62763636 3.72757778,1.62763636 C3.73079259,1.62618182 3.73561481,1.62472727 3.73882963,1.62327273 L3.74043704,1.62327273 C3.74043704,1.62327273 3.74204444,1.62327273 3.74365185,1.62181818 L3.74525926,1.62181818 C3.74686667,1.62181818 3.74686667,1.62036364 3.74847407,1.62036364 L3.75008148,1.62036364 L3.76133333,1.616 L3.76294074,1.616 C3.76454815,1.616 3.76615556,1.61454545 3.76615556,1.61454545 L3.76776296,1.61454545 C3.76937037,1.61454545 3.77097778,1.61309091 3.77258519,1.61309091 L3.77258519,1.61309091 C3.7758,1.61163636 3.77901481,1.61163636 3.78062222,1.61018182 L3.78222963,1.61018182 C3.78222963,1.61018182 3.78383704,1.60872727 3.78544444,1.60872727 L3.78705185,1.60872727 C3.78865926,1.60727273 3.78865926,1.60727273 3.79026667,1.60727273 L3.79187407,1.60727273 C3.79508889,1.60581818 3.79991111,1.60436364 3.80473333,1.60290909 L3.80473333,1.60290909 C3.80634074,1.60290909 3.80794815,1.60145455 3.80955556,1.60145455 L3.80955556,1.60145455 C3.81116296,1.6 3.81277037,1.6 3.81437778,1.6 L3.81598519,1.6 L3.82723704,1.59709091 L3.82884444,1.59709091 C3.83045185,1.59709091 3.83045185,1.59563636 3.83205926,1.59563636 L3.83366667,1.59563636 C3.83527407,1.59563636 3.83688148,1.59418182 3.83688148,1.59418182 L3.83848889,1.59418182 C3.8400963,1.59272727 3.84331111,1.59272727 3.84652593,1.59127273 L3.84813333,1.59127273 C3.84813333,1.59127273 3.84974074,1.59127273 3.85134815,1.58981818 L3.85295556,1.58981818 C3.85456296,1.58981818 3.85456296,1.58981818 3.85617037,1.58836364 L3.85777778,1.58836364 C3.86099259,1.58836364 3.8626,1.58690909 3.86420741,1.58690909 C3.86420741,1.58690909 3.86581481,1.58545455 3.86581481,1.58545455 L3.86902963,1.58545455 C3.86902963,1.58545455 3.87063704,1.584 3.87063704,1.584 L3.87385185,1.584 C3.87545926,1.584 3.87545926,1.58254545 3.87706667,1.58254545 L3.88028148,1.58254545 C3.88028148,1.58254545 3.88028148,1.58109091 3.88188889,1.58109091 C3.8834963,1.58109091 3.88671111,1.57963636 3.88831852,1.57963636 L3.88992593,1.57963636 C3.89153333,1.57963636 3.89314074,1.57818182 3.89314074,1.57818182 L3.89474815,1.57818182 C3.89635556,1.57672727 3.89635556,1.57672727 3.89796296,1.57672727 L3.89957037,1.57672727 C3.90439259,1.57527273 3.90760741,1.57381818 3.91242963,1.57381818 C3.91242963,1.57236364 3.91242963,1.57236364 3.91403704,1.57236364 C3.91564444,1.57236364 3.91564444,1.57236364 3.91725185,1.57090909 L3.91885926,1.57090909 L3.92207407,1.57090909 C3.92368148,1.56945455 3.92368148,1.56945455 3.92528889,1.56945455 C3.9268963,1.56945455 3.9285037,1.568 3.93011111,1.568 L3.93171852,1.568 C3.93332593,1.56654545 3.93493333,1.56654545 3.93493333,1.56654545 L3.93814815,1.56654545 C3.93814815,1.56509091 3.93975556,1.56509091 3.94136296,1.56509091 L3.94297037,1.56509091 C3.94457778,1.56509091 3.94618519,1.56363636 3.94618519,1.56363636 L3.94779259,1.56363636 C3.95100741,1.56218182 3.95261481,1.56218182 3.95422222,1.56218182 C3.95582963,1.56218182 3.95582963,1.56072727 3.95743704,1.56072727 L3.96065185,1.56072727 C3.96065185,1.56072727 3.96225926,1.55927273 3.96225926,1.55927273 L3.96547407,1.55927273 C3.96547407,1.55927273 3.96708148,1.55927273 3.96708148,1.55781818 C3.9702963,1.55781818 3.97511852,1.55636364 3.97833333,1.55490909 L3.98154815,1.55490909 L3.98476296,1.55490909 C3.98476296,1.55345455 3.98637037,1.55345455 3.98637037,1.55345455 L3.98958519,1.55345455 C3.98958519,1.55345455 3.99119259,1.552 3.99119259,1.552 C3.99440741,1.552 3.99601481,1.552 3.99762222,1.55054545 L3.99922963,1.55054545 C4.00083704,1.55054545 4.00083704,1.55054545 4.00244444,1.54909091 L4.00405185,1.54909091 C4.00565926,1.54909091 4.00726667,1.54909091 4.00887407,1.54763636 L4.01048148,1.54763636 C4.01208889,1.54763636 4.0136963,1.54763636 4.0136963,1.54618182 L4.01851852,1.54618182 C4.02012593,1.54618182 4.02012593,1.54472727 4.02173333,1.54472727 L4.02494815,1.54472727 C4.02494815,1.54472727 4.02655556,1.54472727 4.02816296,1.54327273 L4.02977037,1.54327273 C4.02977037,1.54327273 4.03137778,1.54327273 4.03298519,1.54181818 L4.03459259,1.54181818 C4.0362,1.54181818 4.03780741,1.54181818 4.04102222,1.54036364 L4.04262963,1.54036364 C4.04423704,1.54036364 4.04423704,1.53890909 4.04584444,1.53890909 L4.04905926,1.53890909 C4.04905926,1.53890909 4.05066667,1.53890909 4.05227407,1.53745455 L4.05388148,1.53745455 L4.0570963,1.53745455 C4.0587037,1.53745455 4.0587037,1.53745455 4.06031111,1.53745455 C4.06191852,1.53745455 4.06352593,1.53745455 4.06513333,1.536 L4.06674074,1.536 L4.06995556,1.536 C4.07156296,1.53454545 4.07156296,1.53454545 4.07317037,1.53454545 L4.07638519,1.53454545 C4.07638519,1.53454545 4.07799259,1.53309091 4.07799259,1.53309091 L4.08281481,1.53309091 C4.08442222,1.53163636 4.08602963,1.53163636 4.08602963,1.53163636 L4.08924444,1.53163636 C4.09085185,1.53163636 4.09085185,1.53018182 4.09245926,1.53018182 L4.09567407,1.53018182 C4.09567407,1.53018182 4.09567407,1.53018182 4.09728148,1.52872727 L4.1004963,1.52872727 L4.1021037,1.52872727 C4.10531852,1.52727273 4.10692593,1.52727273 4.10853333,1.52727273 L4.11014074,1.52727273 C4.11174815,1.52581818 4.11335556,1.52581818 4.11335556,1.52581818 L4.11657037,1.52581818 C4.11817778,1.52581818 4.11817778,1.52436364 4.11978519,1.52436364 L4.123,1.52436364 L4.12621481,1.52436364 C4.12782222,1.52290909 4.12942963,1.52290909 4.12942963,1.52290909 C4.13103704,1.52290909 4.13103704,1.52290909 4.13264444,1.52145455 L4.13585926,1.52145455 L4.13907407,1.52145455 C4.13907407,1.52145455 4.14068148,1.52 4.14068148,1.52 L4.1438963,1.52 C4.1455037,1.52 4.1455037,1.52 4.14711111,1.51854545 L4.15193333,1.51854545 C4.15354074,1.51854545 4.15354074,1.51854545 4.15514815,1.51709091 L4.15836296,1.51709091 L4.16157778,1.51709091 C4.16157778,1.51709091 4.16318519,1.51563636 4.16318519,1.51563636 L4.1664,1.51563636 L4.16800741,1.51563636 C4.16961481,1.51418182 4.17282963,1.51418182 4.17443704,1.51418182 L4.17604444,1.51418182 C4.17765185,1.51272727 4.17925926,1.51272727 4.17925926,1.51272727 L4.18247407,1.51272727 C4.18408148,1.51272727 4.18408148,1.51272727 4.18568889,1.51127273 L4.1889037,1.51127273 L4.19211852,1.51127273 C4.19211852,1.51127273 4.19372593,1.50981818 4.19533333,1.50981818 L4.19854815,1.50981818 C4.20015556,1.50981818 4.20015556,1.50836364 4.20176296,1.50836364 L4.20497778,1.50836364 L4.20658519,1.50836364 C4.20819259,1.50836364 4.2098,1.50690909 4.2098,1.50690909 L4.21301481,1.50690909 C4.21462222,1.50690909 4.21622963,1.50690909 4.21783704,1.50545455 L4.22105185,1.50545455 L4.22426667,1.50545455 C4.22426667,1.50545455 4.22587407,1.504 4.22748148,1.504 L4.2306963,1.504 L4.2323037,1.504 C4.23391111,1.504 4.23391111,1.50254545 4.23551852,1.50254545 L4.23712593,1.50254545 C4.24034074,1.50254545 4.24194815,1.50254545 4.24355556,1.50109091 L4.24516296,1.50109091 L4.24837778,1.50109091 C4.24998519,1.50109091 4.25159259,1.50109091 4.25159259,1.49963636 L4.25480741,1.49963636 L4.25802222,1.49963636 C4.25962963,1.49963636 4.25962963,1.49818182 4.26123704,1.49818182 L4.26445185,1.49818182 L4.26766667,1.49818182 C4.26927407,1.49672727 4.26927407,1.49672727 4.27088148,1.49672727 L4.2740963,1.49672727 L4.27731111,1.49672727 C4.27731111,1.49672727 4.27891852,1.49527273 4.28052593,1.49527273 L4.28213333,1.49527273 C4.28374074,1.49527273 4.28534815,1.49527273 4.28856296,1.49381818 L4.29017037,1.49381818 L4.29338519,1.49381818 L4.2966,1.49381818 C4.2966,1.49236364 4.29820741,1.49236364 4.29820741,1.49236364 L4.30142222,1.49236364 L4.30624444,1.49236364 C4.30624444,1.49090909 4.30624444,1.49090909 4.30785185,1.49090909 L4.31267407,1.49090909 L4.31588889,1.49090909 C4.31588889,1.48945455 4.3174963,1.48945455 4.3191037,1.48945455 L4.32071111,1.48945455 L4.32553333,1.48945455 C4.32553333,1.48945455 4.32714074,1.488 4.32714074,1.488 L4.33196296,1.488 L4.33357037,1.488 C4.33517778,1.488 4.33678519,1.48654545 4.33839259,1.48654545 L4.34,1.48654545 L4.34482222,1.48654545 L4.34642963,1.48654545 C4.34803704,1.48509091 4.34964444,1.48509091 4.34964444,1.48509091 L4.35285926,1.48509091 C4.35446667,1.48509091 4.35607407,1.48509091 4.35768148,1.48363636 L4.3608963,1.48363636 L4.36411111,1.48363636 L4.36571852,1.48363636 C4.36732593,1.48363636 4.36732593,1.48218182 4.36893333,1.48218182 L4.37214815,1.48218182 L4.37697037,1.48218182 L4.37857778,1.48218182 C4.38018519,1.48072727 4.38179259,1.48072727 4.3834,1.48072727 L4.38500741,1.48072727 L4.38982963,1.48072727 C4.38982963,1.48072727 4.39143704,1.48072727 4.39143704,1.47927273 L4.39625926,1.47927273 L4.39786667,1.47927273 L4.40268889,1.47927273 C4.40268889,1.47781818 4.4042963,1.47781818 4.4042963,1.47781818 L4.40911852,1.47781818 L4.41072593,1.47781818 L4.41394074,1.47781818 C4.41554815,1.47781818 4.41554815,1.47781818 4.41715556,1.47781818 L4.42197778,1.47781818 L4.42358519,1.47781818 L4.42840741,1.47781818 C4.43001481,1.47636364 4.43001481,1.47636364 4.43162222,1.47636364 L4.43322963,1.47636364 L4.43644444,1.47636364 L4.43965926,1.47636364 C4.44126667,1.47636364 4.44126667,1.47490909 4.44287407,1.47490909 L4.4476963,1.47490909 L4.4493037,1.47490909 L4.45412593,1.47490909 C4.45412593,1.47490909 4.45573333,1.47345455 4.45573333,1.47345455 L4.46055556,1.47345455 L4.46216296,1.47345455 L4.46698519,1.47345455 L4.46698519,1.47345455 C4.4702,1.472 4.47180741,1.472 4.47341481,1.472 L4.47502222,1.472 L4.47984444,1.472 L4.48145185,1.472 C4.48305926,1.472 4.48466667,1.47054545 4.48627407,1.47054545 L4.48788148,1.47054545 L4.49431111,1.47054545 L4.49431111,1.47054545 C4.49591852,1.47054545 4.49752593,1.47054545 4.49913333,1.46909091 L4.50074074,1.46909091 L4.50556296,1.46909091 L4.50717037,1.46909091 L4.51199259,1.46909091 L4.5136,1.46909091 C4.51520741,1.46909091 4.51681481,1.46763636 4.51842222,1.46763636 L4.52163704,1.46763636 L4.52485185,1.46763636 L4.52806667,1.46763636 L4.53128148,1.46763636 C4.53128148,1.46618182 4.53128148,1.46618182 4.53288889,1.46618182 L4.54414074,1.46618182 L4.54735556,1.46618182 C4.54735556,1.46618182 4.54896296,1.46618182 4.55057037,1.46472727 L4.55378519,1.46472727 L4.557,1.46472727 L4.55860741,1.46472727 L4.56503704,1.46472727 L4.56664444,1.46472727 C4.56664444,1.46472727 4.56825185,1.46472727 4.56985926,1.46327273 L4.57307407,1.46327273 L4.57628889,1.46327273 L4.5795037,1.46327273 L4.58432593,1.46327273 L4.58432593,1.46327273 L4.59075556,1.46327273 C4.59075556,1.46181818 4.59236296,1.46181818 4.59236296,1.46181818 L4.59718519,1.46181818 L4.59879259,1.46181818 L4.60200741,1.46181818 L4.60522222,1.46181818 L4.61004444,1.46181818 L4.61165185,1.46181818 C4.61325926,1.46036364 4.61486667,1.46036364 4.61647407,1.46036364 L4.61808148,1.46036364 L4.6229037,1.46036364 L4.62451111,1.46036364 L4.62933333,1.46036364 L4.63094074,1.46036364 L4.63576296,1.46036364 L4.63737037,1.46036364 C4.63897778,1.46036364 4.64058519,1.45890909 4.64219259,1.45890909 L4.6438,1.45890909 L4.64862222,1.45890909 L4.65022963,1.45890909 L4.65665926,1.45890909 L4.66308889,1.45890909 L4.6646963,1.45890909 L4.66791111,1.45890909 C4.66951852,1.45890909 4.66951852,1.45890909 4.67112593,1.45745455 L4.67434074,1.45745455 L4.67594815,1.45745455 L4.68237778,1.45745455 L4.68398519,1.45745455 L4.68880741,1.45745455 L4.69041481,1.45745455 L4.69523704,1.45745455 L4.69684444,1.45745455 L4.70166667,1.45745455 L4.70327407,1.45745455 L4.7080963,1.45745455 L4.71131111,1.45745455 C4.71131111,1.456 4.71291852,1.456 4.71452593,1.456 L4.71774074,1.456 L4.72095556,1.456 L4.72256296,1.456 L4.72899259,1.456 L4.7306,1.456 L4.73542222,1.456 L4.73702963,1.456 L4.74024444,1.456 L4.74345926,1.456 L4.74828148,1.456 L4.74988889,1.456 L4.75471111,1.456 L4.75631852,1.456 L4.76114074,1.456 L4.76435556,1.456 L4.76757037,1.456 L4.76917778,1.456 C4.77078519,1.456 4.77239259,1.45454545 4.77560741,1.45454545 L4.77560741,1.45454545 L4.78203704,1.45454545 L4.78364444,1.45454545 L4.78685926,1.45454545 L4.79007407,1.45454545 L4.7948963,1.45454545 L4.7965037,1.45454545 L4.80132593,1.45454545 L4.80293333,1.45454545 L4.80775556,1.45454545 L4.80936296,1.45454545 L4.81418519,1.45454545 L4.81579259,1.45454545 L4.82222222,1.45454545 L4.82222222,0 Z M6.42962963,1.45454545 L9.64444444,1.45454545 L9.64444444,0 L6.42962963,0 L6.42962963,1.45454545 Z M11.2518519,1.45454545 L14.4666667,1.45454545 L14.4666667,0 L11.2518519,0 L11.2518519,1.45454545 Z M16.0740741,1.45454545 L19.2888889,1.45454545 L19.2888889,0 L16.0740741,0 L16.0740741,1.45454545 Z M20.8962963,1.45454545 L24.1111111,1.45454545 L24.1111111,0 L20.8962963,0 L20.8962963,1.45454545 Z M25.7185185,1.45454545 L28.9333333,1.45454545 L28.9333333,0 L25.7185185,0 L25.7185185,1.45454545 Z M30.5407407,1.45454545 L33.7555556,1.45454545 L33.7555556,0 L30.5407407,0 L30.5407407,1.45454545 Z M35.362963,1.45454545 L38.5777778,1.45454545 L38.5777778,0 L35.362963,0 L35.362963,1.45454545 Z M40.1851852,1.45454545 L43.4,1.45454545 L43.4,0 L40.1851852,0 L40.1851852,1.45454545 Z" id="Fill-1" fill="#007E4E" mask="url(#mask-2)"></path>
                    </g>
                    <g id="Group-6" transform="translate(6.888889, 10.666667)">
                        <g id="Group" transform="translate(24.111111, 16.000000) rotate(-360.000000) translate(-24.111111, -16.000000) ">
                            <g id="Group-5">
                                <mask id="mask-4" fill="white">
                                    <use xlink:href="#path-3"></use>
                                </mask>
                                <use id="Rectangle" fill="#00B16E" xlink:href="#path-3"></use>
                                <polygon id="Rectangle-Copy" fill="#007E4E" opacity="0.25" mask="url(#mask-4)" points="48.2222222 -0.079913769 48.2222222 31.9973434 -1.46549439e-13 31.9973434"></polygon>
                            </g>
                            <g id="Group-4" transform="translate(4.822222, 3.555556)"></g>
                        </g>
                        <rect id="Rectangle" fill="#004B2E" x="3.44444444" y="3.55555556" width="10.3333333" height="7.11111111" rx="1"></rect>
                        <polygon id="Rectangle" fill="#004B2E" points="3.21481481 23.1111111 11.2518519 23.1111111 11.2518519 26.6666667 3.21481481 26.6666667"></polygon>
                        <rect id="Rectangle" fill="#004B2E" x="14.4724074" y="23.1111111" width="8.03703704" height="3.55555556"></rect>
                        <rect id="Rectangle" fill="#004B2E" x="25.73" y="23.1111111" width="8.03703704" height="3.55555556"></rect>
                        <rect id="Rectangle" fill="#004B2E" x="36.9875926" y="23.1111111" width="8.03703704" height="3.55555556"></rect>
                    </g>
                </g>
            </g>
        </g>
    </g>
</svg>