<svg xmlns="http://www.w3.org/2000/svg" xmlns:xlink="http://www.w3.org/1999/xlink" width="64" height="59"
     xmlns:v="https://vecta.io/nano">
    <defs>
        <path d="M4.877 47.148C13.67 38.4 18.323 34.3 21.62 23.005c-4.398 10.32-9.725 13.82-18.7 22.304C-8.825 13.646 17.982 12.595 27.198 0c12.096 18.632 8.968 49.246-22.322 47.148z"
              id="A"/>
    </defs>
    <g transform="translate(.5 .25)" fill="none" fill-rule="evenodd">
        <g transform="translate(0 4.5)">
            <mask id="B" fill="#fff">
                <use xlink:href="#A"/>
            </mask>
            <use fill="#004b2e" transform="matrix(-1 0 0 1 33.75 0)" xlink:href="#A"/>
            <path d="M24.7 52.296C35.458 41.3 41.145 36.132 45.173 21.946 39.798 34.92 33.287 39.318 22.33 49.985 7.964 10.18 40.728 8.86 51.992-6.975c14.783 23.423 10.96 61.91-27.282 59.27z"
                  fill-opacity=".5" fill="#000" opacity=".25" mask="url(#B)"/>
        </g>
        <path d="M27.39 58.373c10.845-10.83 16.584-15.92 20.65-29.89-5.425 12.778-11.995 17.11-23.05 27.615C10.49 16.895 43.553 15.594 54.92 0c14.918 23.068 11.06 60.97-27.53 58.373z"
              fill="#00b16e"/>
    </g>
</svg>