<svg xmlns="http://www.w3.org/2000/svg" xmlns:xlink="http://www.w3.org/1999/xlink" width="50" height="49"
     xmlns:v="https://vecta.io/nano">
    <defs>
        <path d="M16.484 29.278H18.5c.955 0 1.662-.235 2.122-.705s.7-1.094.7-1.87c0-.752-.228-1.337-.684-1.756s-1.083-.628-1.882-.628c-.72 0-1.324.194-1.8.583a1.85 1.85 0 0 0-.729 1.519h-3.763c0-.974.267-1.848.8-2.62s1.28-1.378 2.24-1.814 2.016-.654 3.17-.654c2.005 0 3.576.472 4.714 1.416s1.706 2.245 1.706 3.903c0 .854-.265 1.64-.794 2.358s-1.224 1.27-2.083 1.653c1.068.376 1.864.94 2.39 1.692s.788 1.64.788 2.666c0 1.658-.614 2.986-1.842 3.986s-2.854 1.5-4.876 1.5c-1.892 0-3.44-.49-4.642-1.474S12.2 36.75 12.2 35.136h3.763a2.13 2.13 0 0 0 .801 1.718c.534.444 1.19.667 1.973.667.894 0 1.595-.233 2.103-.7s.762-1.083.762-1.852c0-1.863-1.042-2.794-3.125-2.794h-1.992v-2.897zM37.096 40.25h-3.763V25.97l-4.492 1.37V24.33l7.852-2.77h.404V40.25z"
              id="A"/>
        <filter x="-2.0%" y="-2.6%" width="104.0%" height="110.4%" id="B">
            <feOffset dy="1" in="SourceAlpha"/>
            <feColorMatrix values="0 0 0 0 0 0 0 0 0 0 0 0 0 0 0 0 0 0 0.1 0"/>
        </filter>
    </defs>
    <g transform="translate(.111)" fill="none" fill-rule="evenodd">
        <path d="M0 17.5h49.778V47a2 2 0 0 1-2 2H2a2 2 0 0 1-2-2V17.5z" fill="#00b16e"/>
        <path d="M1 3.5h47.778a1 1 0 0 1 1 1v13H0v-13a1 1 0 0 1 1-1z" fill="#004b2e"/>
        <path d="M9.9 0H15a1 1 0 0 1 1 1v8.5a1 1 0 0 1-1 1H9.9a1 1 0 0 1-1-1V1a1 1 0 0 1 1-1zm24.888 0h5.1a1 1 0 0 1 1 1v8.5a1 1 0 0 1-1 1h-5.1a1 1 0 0 1-1-1V1a1 1 0 0 1 1-1z"
              fill="#00b16e"/>
        <g fill-rule="nonzero">
            <use fill="#000" filter="url(#B)" xlink:href="#A"/>
            <use fill="#fff" xlink:href="#A"/>
        </g>
    </g>
</svg>