<svg xmlns="http://www.w3.org/2000/svg" xmlns:xlink="http://www.w3.org/1999/xlink" width="50" height="60"
     xmlns:v="https://vecta.io/nano">
    <defs>
        <path d="M21.374 6.857s-2.19 1.608-4.684 2.7c-2.4 1.05-4.315 1.15-4.315 1.15v8.003c0 2.2.342 4.6 3.13 7.303s5.868 3.7 5.868 3.7 3.078-1 5.868-3.7 3.132-5.1 3.132-7.302v-8.003s-1.917-.1-4.316-1.15c-2.494-1.092-4.684-2.7-4.684-2.7z"
              id="A"/>
        <filter x="-5.6%" y="-4.4%" width="111.1%" height="117.5%" id="B">
            <feOffset dy="2" in="SourceAlpha"/>
            <feColorMatrix values="0 0 0 0 0 0 0 0 0 0 0 0 0 0 0 0 0 0 0.1 0"/>
        </filter>
        <path id="C" d="M7.75 34.286H35a1 1 0 0 1 1 1v.286a1 1 0 0 1-1 1H7.75a1 1 0 0 1-1-1v-.286a1 1 0 0 1 1-1z"/>
    </defs>
    <g transform="translate(.25 .286)" fill="none" fill-rule="evenodd">
        <path d="M1 0h36.25a1 1 0 0 1 1 1v52.857a1 1 0 0 1-1 1H1a1 1 0 0 1-1-1V1a1 1 0 0 1 1-1z" fill="#004b2e"/>
        <g transform="translate(9 4.571)">
            <path d="M3 0h26.25v49.286a1 1 0 0 1-1 1H0V3a3 3 0 0 1 3-3z" fill-opacity=".1" fill="#000"/>
            <path d="M3.25 2.286h30.5l6.75 8.006-.01 43.566a1 1 0 0 1-1 1H3.25a1 1 0 0 1-1-1V3.286a1 1 0 0 1 1-1z"
                  fill="#00b16e"/>
            <use fill="#000" filter="url(#B)" xlink:href="#A"/>
            <g fill="#fff">
                <use xlink:href="#A"/>
                <use xlink:href="#C"/>
                <use xlink:href="#C" y="6.857"/>
                <path d="M7.75 48H35a1 1 0 0 1 1 1v.286a1 1 0 0 1-1 1H7.75a1 1 0 0 1-1-1V49a1 1 0 0 1 1-1z"/>
            </g>
            <path d="M33.75 2.286l6.75 8.006-4.77-.045a2 2 0 0 1-1.981-2v-5.96z" fill="#007e4e"/>
        </g>
    </g>
</svg>