<svg xmlns="http://www.w3.org/2000/svg" xmlns:xlink="http://www.w3.org/1999/xlink" width="50" height="60"
     xmlns:v="https://vecta.io/nano">
    <defs>
        <rect id="A" width="24.75" height="3.429" rx="1.714"/>
    </defs>
    <g transform="translate(.25 .286)" fill-rule="evenodd">
        <use fill="#004b2e" xlink:href="#A" transform="translate(5.625 9.143)"/>
        <g fill="#00b16e">
            <path d="M32.55 59.427l4.326.002c.982 0 1.797-.98 1.797-2.195v-5.077l.9-.293c7.33-2.25 9.932-8.41 9.93-13-.002-8.488-5.994-12.017-11.866-14.36-5.513-2.225-7.275-3.573-7.275-5.563 0-1.784 1.69-3.57 5.475-3.568 4.17.002 6.782 1.45 7.897 2.08a1.55 1.55 0 0 0 .742.206c.694 0 1.33-.496 1.63-1.26l1.713-4.434a2.57 2.57 0 0 0 .06-1.668c-.155-.557-.492-.996-.924-1.243-2.06-1.186-4.3-1.947-6.832-2.313l-1.054-.162-.001-4.405c0-1.2-.803-2.182-1.798-2.182L33.013 0c-.982 0-1.797.98-1.797 2.18l.001 4.9-.9.277c-5.918 1.828-9.454 6.465-9.453 12.393.002 7.816 6.342 11.3 12.562 13.688 5.74 2.285 6.52 4.26 6.52 5.9.001 2.533-2.682 4.373-6.374 4.372-3.14-.001-6.52-.982-9.036-2.624-.263-.176-.55-.264-.852-.264-.19 0-.384.044-.575.118-.467.206-.85.628-1.054 1.185l-1.653 4.492c-.37 1.04-.06 2.24.756 2.797 2.097 1.48 5.214 2.576 8.52 3.033l1.067.132v4.654c0 1.213.803 2.193 1.798 2.193h0z"/>
            <rect y="9.143" width="4.5" height="3.429" rx="1.714"/>
        </g>
        <rect fill="#fff" x="10.125" y="18.286" width="18" height="3.429" rx="1.714"/>
        <g fill="#00b16e">
            <rect y="18.286" width="18" height="3.429" rx="1.714"/>
            <rect x="13.5" y="28.571" width="19.125" height="3.429" rx="1.714"/>
        </g>
        <g fill="#004b2e">
            <rect y="28.571" width="5.625" height="3.429" rx="1.714"/>
            <rect x="11.25" y="36.571" width="7.875" height="3.429" rx="1.714"/>
        </g>
        <rect fill="#fff" x="7.875" y="43.429" width="19.125" height="3.429" rx="1.714"/>
        <rect fill="#00b16e" x="1.125" y="43.429" width="19.125" height="3.429" rx="1.714"/>
    </g>
</svg>