<svg xmlns="http://www.w3.org/2000/svg" xmlns:xlink="http://www.w3.org/1999/xlink" width="58" height="35"
     xmlns:v="https://vecta.io/nano">
    <defs>
        <rect id="A" width="56.889" height="35" rx="2"/>
        <path d="M28.787 8.166v4.37H16.662a1 1 0 0 0-1 1v5.11a1 1 0 0 0 1 1h12.125v4.413a.5.5 0 0 0 .793.405l10.476-7.56a1 1 0 0 0-.002-1.623L29.578 7.76a.5.5 0 0 0-.792.406z"
              id="B"/>
        <filter x="-11.8%" y="-2.9%" width="112.9%" height="105.9%" id="C">
            <feOffset dx="-2" in="SourceAlpha"/>
            <feColorMatrix values="0 0 0 0 0 0 0 0 0 0 0 0 0 0 0 0 0 0 0.1 0"/>
        </filter>
    </defs>
    <g transform="translate(.556)" fill="none" fill-rule="evenodd">
        <mask id="D" fill="#fff">
            <use xlink:href="#A"/>
        </mask>
        <use fill="#00b16e" xlink:href="#A"/>
        <path fill="#007e4e" opacity=".25" mask="url(#D)" d="M56.89 0v36.75H-3.556z"/>
        <path fill="#004b2e" mask="url(#D)" d="M-1.778 5.25h60.444v7H-1.778z"/>
        <g mask="url(#D)" transform="matrix(0 -1 -1 0 44.536669 44.536669)">
            <use fill="#000" filter="url(#C)" xlink:href="#B"/>
            <use fill="#fff" xlink:href="#B"/>
        </g>
    </g>
</svg>