<svg xmlns="http://www.w3.org/2000/svg" width="49" height="49" fill-rule="evenodd" xmlns:v="https://vecta.io/nano">
    <path d="M1 3.5h47a1 1 0 0 1 1 1v14.75H0V4.5a1 1 0 0 1 1-1z" fill="#004b2e"/>
    <path d="M8 0h5a1 1 0 0 1 1 1v8.5a1 1 0 0 1-1 1H8a1 1 0 0 1-1-1V1a1 1 0 0 1 1-1zm28 0h5a1 1 0 0 1 1 1v8.5a1 1 0 0 1-1 1h-5a1 1 0 0 1-1-1V1a1 1 0 0 1 1-1zM0 17.5h49V47a2 2 0 0 1-2 2H2a2 2 0 0 1-2-2V17.5z"
          fill="#00b16e"/>
    <path d="M25.218 42c.352 0 .645-.346.645-.776V39.43l.323-.104c2.632-.795 3.565-2.972 3.565-4.6-.001-3-2.152-4.246-4.26-5.074-1.98-.786-2.61-1.263-2.612-1.966 0-.63.606-1.26 1.965-1.26a5.55 5.55 0 0 1 2.835.735c.086.047.177.073.266.073.25 0 .477-.175.585-.445l.615-1.567c.073-.18.08-.4.022-.6-.056-.197-.177-.352-.332-.44-.74-.42-1.544-.688-2.452-.817l-.378-.057v-1.556c0-.424-.288-.77-.645-.77h-1.527c-.352 0-.645.346-.645.77v1.732l-.323.098c-2.124.646-3.394 2.284-3.393 4.38.001 2.762 2.277 3.993 4.51 4.837 2.06.808 2.34 1.506 2.34 2.085 0 .895-.963 1.545-2.288 1.545-1.127 0-2.34-.347-3.244-.927a.55.55 0 0 0-.306-.093.58.58 0 0 0-.206.042c-.168.073-.306.222-.378.42l-.593 1.587c-.133.367-.022.79.27.988.753.523 1.872.9 3.06 1.072l.383.047v1.645c0 .43.288.775.645.775h1.553z"
          fill="#fff"/>
</svg>