<svg xmlns="http://www.w3.org/2000/svg" xmlns:xlink="http://www.w3.org/1999/xlink" width="64" height="60"
     xmlns:v="https://vecta.io/nano">
    <defs>
        <path d="M4 0h41.5a4 4 0 0 1 4 4v25.188C49.5 30.74 48.24 32 46.688 32h-1.812a1 1 0 0 0-1 1v6.063a1 1 0 0 1-1.729.684l-6.975-7.432a1 1 0 0 0-.729-.316H4a4 4 0 0 1-4-4V4a4 4 0 0 1 4-4z"
              id="A"/>
        <path d="M39.212 38.856c-.108.01-.2-.07-.288-.152s-.122-.2-.118-.32c-.05-1.19-.012-2.013.204-3.177.126-.574.4-1.097.765-1.514.34-.4.706-.757 1.074-1.136l1.22-1.174c.815-.757.717-2.074-.303-2.695-.59-.358-1.29-.42-1.925-.17s-1.146.785-1.405 1.476a5.48 5.48 0 0 0-.204.713c-.08.33-.218.447-.523.405l-2.423-.325c-.126-.006-.244-.074-.32-.185s-.106-.254-.08-.392c.113-1.202.575-2.33 1.318-3.213s1.725-1.468 2.795-1.67c1.433-.353 2.93-.2 4.28.44 1.214.553 2.16 1.653 2.6 3.028.475 1.348.26 2.876-.564 3.997a13.61 13.61 0 0 1-1.957 2.132l-.68.67c-.37.337-.578.85-.562 1.38l-.044 1.503c.008.095-.018.176-.077.242-.09.1-.214.148-.34.133h-1.196l-1.246.003zm3.538 4c0 .694-.41 1.318-1.04 1.584a1.67 1.67 0 0 1-1.839-.372c-.482-.5-.627-1.228-.366-1.868s.877-1.058 1.56-1.058c.447 0 .877.18 1.193.502a1.73 1.73 0 0 1 .494 1.212h0z"
              id="B"/>
        <filter x="-8.9%" y="-5.1%" width="117.8%" height="120.6%" id="C">
            <feOffset dy="2" in="SourceAlpha"/>
            <feColorMatrix values="0 0 0 0 0 0 0 0 0 0 0 0 0 0 0 0 0 0 0.1 0"/>
        </filter>
    </defs>
    <g transform="translate(.5 .286)" fill-rule="evenodd">
        <use fill="#004b2e" transform="matrix(-1 0 0 1 49.5 0)" xlink:href="#A"/>
        <path d="M19.625 16H49.5v16H14.625V21a5 5 0 0 1 5-5z" fill="#000" opacity=".15"/>
        <path d="M20.875 18.286H59a4 4 0 0 1 4 4v25.768c0 1.864-1.51 3.375-3.375 3.375H57.25a1 1 0 0 0-1 1v5.702a1 1 0 0 1-1.713.702l-6.994-7.105a1 1 0 0 0-.713-.298H20.875a4 4 0 0 1-4-4V22.286a4 4 0 0 1 4-4z"
              fill="#00b16e"/>
        <use fill="#000" filter="url(#C)" xlink:href="#B"/>
        <use fill="#fff" xlink:href="#B"/>
    </g>
</svg>