<svg xmlns="http://www.w3.org/2000/svg" xmlns:xlink="http://www.w3.org/1999/xlink" width="64" height="60"
     xmlns:v="https://vecta.io/nano">
    <defs>
        <path d="M4 0h41.5a4 4 0 0 1 4 4v25.188C49.5 30.74 48.24 32 46.688 32h-1.812a1 1 0 0 0-1 1v6.984a1 1 0 0 1-1.766.643l-6.934-8.27a1 1 0 0 0-.766-.357H4a4 4 0 0 1-4-4V4a4 4 0 0 1 4-4z"
              id="A"/>
    </defs>
    <g transform="translate(.5 .286)" fill-rule="evenodd">
        <use fill="#004b2e" transform="matrix(-1 0 0 1 49.5 0)" xlink:href="#A"/>
        <path d="M19.625 16H49.5v16H14.625V21a5 5 0 0 1 5-5z" fill="#000" opacity=".15"/>
        <path d="M20.875 18.286H59a4 4 0 0 1 4 4V47.84c0 1.864-1.51 3.375-3.375 3.375H57.25a1 1 0 0 0-1 1v5.916a1 1 0 0 1-1.723.691l-6.982-7.3a1 1 0 0 0-.723-.309H20.875a4 4 0 0 1-4-4v-24.93a4 4 0 0 1 4-4z"
              fill="#00b16e"/>
        <path d="M27 40c-1.88 0-3.375-1.517-3.375-3.43s1.493-3.43 3.375-3.43c1.826 0 3.375 1.517 3.375 3.43S28.882 40 27 40zm12.938 0c-1.88 0-3.375-1.517-3.375-3.43s1.493-3.43 3.375-3.43c1.826 0 3.375 1.517 3.375 3.43S41.82 40 39.938 40zm12.937 0c-1.88 0-3.375-1.517-3.375-3.43s1.55-3.43 3.375-3.43 3.32 1.574 3.375 3.43c0 1.912-1.493 3.43-3.375 3.43z"
              fill="#fff"/>
    </g>
</svg>