<svg xmlns="http://www.w3.org/2000/svg" xmlns:xlink="http://www.w3.org/1999/xlink" width="58" height="43"
     xmlns:v="https://vecta.io/nano">
    <defs>
        <rect id="A" width="49.778" height="31.5" rx="4"/>
        <filter x="-22.5%" y="-32.7%" width="146.3%" height="171.4%" id="B">
            <feOffset dy="2" in="SourceAlpha"/>
            <feColorMatrix values="0 0 0 0 0 0 0 0 0 0 0 0 0 0 0 0 0 0 0.1 0" result="B"/>
            <feMerge>
                <feMergeNode in="B"/>
                <feMergeNode in="SourceGraphic"/>
            </feMerge>
        </filter>
        <path id="C"
              d="M9.833.296v3.51H.367C.165 3.808.001 3.94 0 4.1v4.057c.001.162.165.293.367.294h9.466v3.51c.004.118.094.223.232.267s.292.018.397-.065l7.212-5.83c.14-.114.14-.297 0-.412L10.462.086c-.08-.064-.193-.094-.304-.084-.186.018-.325.144-.325.294z"/>
    </defs>
    <g transform="translate(-3 -10)" fill="none" fill-rule="evenodd">
        <path d="M5.556 10.5h45.778a2 2 0 0 1 2 2V40a2 2 0 0 1-2 2H5.556a2 2 0 0 1-2-2V12.5a2 2 0 0 1 2-2z"
              fill="#004b2e"/>
        <path d="M9.89 14h8a1 1 0 0 1 1 1v5a1 1 0 0 1-1 1h-8a1 1 0 0 1-1-1v-5a1 1 0 0 1 1-1z" fill="#007e4e"/>
        <g transform="translate(7.111 17.5)">
            <path d="M5 0h41.222v20.5a4 4 0 0 1-4 4H0V5a5 5 0 0 1 5-5z" fill-opacity=".1" fill="#000"/>
            <g transform="translate(3.556 3.5)">
                <mask id="D" fill="#fff">
                    <use xlink:href="#A"/>
                </mask>
                <use fill="#00b16e" xlink:href="#A"/>
                <path fill="#007e4e" opacity=".254" mask="url(#D)" d="M0 31.5L49.778 0v31.5z"/>
            </g>
        </g>
        <path fill="#004b2e" d="M10.667 26.25h49.778v5.25H10.667z"/>
        <g transform="matrix(0 1 -1 0 47.777778 24.319444)" fill="#fff">
            <g filter="url(#B)" transform="matrix(0 1 -1 0 12.347222 -.138889)">
                <use xlink:href="#C" transform="matrix(-1 0 0 -1 17.777778 12.25)"/>
            </g>
            <g filter="url(#B)" transform="matrix(0 -1 1 0 10.763889 28.138889)">
                <use xlink:href="#C" transform="matrix(-1 0 0 -1 17.777778 12.25)"/>
            </g>
        </g>
    </g>
</svg>