<svg xmlns="http://www.w3.org/2000/svg" xmlns:xlink="http://www.w3.org/1999/xlink" width="56" height="57"
     xmlns:v="https://vecta.io/nano">
    <defs>
        <path d="M37.528 23.008v-9.926c0-3.653-2.89-9.677-6.45-9.677s-6.45 6.024-6.45 9.677V22.8L5.17 33.734c-.947.5-1.425.815-1.425 1.8V41.7c0 .998.45 1.8 1.425 1.8l19.456-5.714 1.8 10.035-6.21 2.36c-.46.28-.5 2.196-.124 5.744a1 1 0 0 0 1.204.872l9.926-2.13 9.45 2.124a1 1 0 0 0 1.211-.845c.436-3.32.447-5.125.03-5.412l-6.302-2.712 1.91-9.862 19.287 5.534c.976 0 1.425-.8 1.425-1.8v-6.156c0-.988-.474-1.304-1.42-1.803L37.528 23.008z"
              id="A"/>
    </defs>
    <g transform="translate(-3 -3)" fill-rule="evenodd">
        <mask id="B" fill="#fff">
            <use xlink:href="#A"/>
        </mask>
        <use fill="#00b16e" fill-rule="nonzero" xlink:href="#A"/>
        <path mask="url(#B)" d="M35.586 47.846h9.195l-2.35 9.6-9.907-2.463zm-18.39 0l9.23-.014 3.048 7.255-9.834 3z"
              fill="#004b2e"/>
        <path fill="#015b44" opacity=".502" mask="url(#B)" d="M21.795 20.262h3.065v19.922h-3.065z"/>
        <path d="M50.75 30.37l-7-3.874V23.75a1 1 0 0 1 1-1h5a1 1 0 0 1 1 1v6.62zm-31.5-4.546l-7 3.924v-6a1 1 0 0 1 1-1h5a1 1 0 0 1 1 1v2.074z"
              fill-rule="nonzero" fill="#004b2e"/>
        <path d="M30.74 47.25h1.575v11.813a.79.79 0 0 1-.788.788.79.79 0 0 1-.787-.788V47.25z" fill="#004b2e"/>
        <path fill="#015b44" opacity=".496" d="M26.427 47.832l3.048 7.22-2.557.556-2.557-6.992z"/>
        <path d="M31.15 6.694c2.068 0 4.9 6.24 4.9 4.172S33.245 5.25 31.177 5.25s-4.927 3.548-4.927 5.616 2.832-4.172 4.9-4.172z"
              fill="#004b2e"/>
    </g>
</svg>