<svg xmlns="http://www.w3.org/2000/svg" xmlns:xlink="http://www.w3.org/1999/xlink" width="67" height="34"
     xmlns:v="https://vecta.io/nano">
    <defs>
        <rect id="A" width="21.078" height="3.321" rx="1.661"/>
    </defs>
    <g transform="translate(.219 .286)" fill-rule="evenodd">
        <path fill="#00b16e" d="M21.078 5.536h39.938V27.68H21.078z"/>
        <g fill="#004b2e">
            <path d="M17.75 0h46.594c1.225 0 2.22.99 2.22 2.214V31c0 1.223-.993 2.214-2.22 2.214H17.75c-1.225 0-2.22-.99-2.22-2.214V2.214C15.53.99 16.525 0 17.75 0zm3.328 5.536V27.68h39.938V5.536H21.078z"/>
            <ellipse cx="61.016" cy="5.536" rx="4.438" ry="4.429"/>
            <ellipse cx="61.016" cy="27.679" rx="4.438" ry="4.429"/>
            <ellipse cx="21.078" cy="5.536" rx="4.438" ry="4.429"/>
            <ellipse cx="21.078" cy="27.679" rx="4.438" ry="4.429"/>
            <ellipse cx="41.047" cy="16.607" rx="5.547" ry="5.536"/>
        </g>
        <rect fill="#fff" x="2.219" y="9.964" width="16.641" height="3.321" rx="1.661"/>
        <g fill="#00b16e">
            <rect y="9.964" width="13.313" height="3.321" rx="1.661"/>
            <rect x="8.875" y="17.714" width="11.094" height="3.321" rx="1.661"/>
        </g>
        <rect fill="#fff" x="2.219" y="25.464" width="19.969" height="3.321" rx="1.661"/>
        <rect fill="#00b16e" y="25.464" width="12.203" height="3.321" rx="1.661"/>
        <use fill="#004b2e" xlink:href="#A" transform="translate(7.766 2.214)"/>
        <rect fill="#00b16e" y="2.214" width="4.438" height="3.321" rx="1.661"/>
        <rect fill="#004b2e" y="17.714" width="5.547" height="3.321" rx="1.661"/>
    </g>
</svg>