<svg xmlns="http://www.w3.org/2000/svg" width="11" height="11" fill-rule="evenodd" xmlns:v="https://vecta.io/nano">
    <path d="M5.25 6.543c.133 0 .26-.053.355-.147a.5.5 0 0 0 .147-.355V2.595a.502.502 0 1 0-1.004 0V6.04a.5.5 0 0 0 .147.355c.094.094.222.147.355.147zm0 .857a.5.5 0 0 0-.355.857.5.5 0 1 0 .71-.71.53.53 0 0 0-.355-.147h0zm0 3.098a5.25 5.25 0 0 0 5.249-5.249A5.25 5.25 0 0 0 5.249 0 5.25 5.25 0 0 0 0 5.249a5.21 5.21 0 0 0 1.54 3.7c.985.974 2.318 1.538 3.7 1.54zm0-9.68c1.175 0 2.303.467 3.134 1.298a4.43 4.43 0 0 1-.002 6.268A4.43 4.43 0 0 1 5.25 9.68c-1.174 0-2.303-.467-3.134-1.298S.816 6.424.816 5.25s.47-2.302 1.3-3.132S4.074.818 5.25.816z"/>
</svg>