<?xml version="1.0" encoding="UTF-8"?>
<svg width="153px" height="48px" viewBox="0 0 153 48" version="1.1" xmlns="http://www.w3.org/2000/svg" xmlns:xlink="http://www.w3.org/1999/xlink">
    <title>atoms/iconography/generic/appstore</title>
    <g id="atoms/iconography/generic/appstore" stroke="none" stroke-width="1" fill="none" fill-rule="evenodd">
        <path d="M4,0 L149,0 C151.209139,-1.61026889e-14 153,1.790861 153,4 L153,44 C153,46.209139 151.209139,48 149,48 L4,48 C1.790861,48 2.705415e-16,46.209139 0,44 L0,4 C-2.705415e-16,1.790861 1.790861,4.05812251e-16 4,0 Z" id="Rectangle" fill="#1A1A1A"></path>
        <g id="Icon" transform="translate(11.000000, 8.000000)" fill="#FFFFFF" fill-rule="nonzero">
            <path d="M19.6417964,15.371411 C19.6089394,11.719752 22.6317834,9.943208 22.7700094,9.860499 C21.0580464,7.3645 18.4045604,7.023467 17.4721014,6.996275 C15.2434904,6.761744 13.0817264,8.329816 11.9464604,8.329816 C10.7885344,8.329816 9.04031537,7.018935 7.15613637,7.057457 C4.73151637,7.094846 2.46325037,8.498633 1.21921637,10.678525 C-1.34816163,15.123284 0.566608366,21.655029 3.02635137,25.247772 C4.25678937,27.007321 5.69456637,28.971943 7.57647937,28.90283 C9.41760437,28.826919 10.1053354,27.729042 12.3271484,27.729042 C14.5285674,27.729042 15.1743774,28.90283 17.0936794,28.858643 C19.0696314,28.826919 20.3136654,27.091163 21.5010494,25.315752 C22.9229644,23.299012 23.4939964,21.312863 23.5166564,21.210893 C23.4702034,21.195031 19.6791854,19.74819 19.6417964,15.371411 Z" id="Shape"></path>
            <path d="M16.0161964,4.632837 C17.0064384,3.394468 17.6839724,1.709697 17.4958944,-1.00630615e-14 C16.0626494,0.063448 14.2702434,0.991375 13.2380804,2.202552 C12.3248824,3.269838 11.5091224,5.01919 11.7198604,6.664306 C13.3298534,6.784404 14.9829004,5.851945 16.0161964,4.632837 Z" id="Shape"></path>
        </g>
        <path d="M46.048,20 C47.1,20 47.967,19.834 48.649,19.502 C49.331,19.17 49.839,18.678 50.173,18.026 C50.507,17.374 50.674,16.568 50.674,15.608 C50.674,14.692 50.519,13.92 50.209,13.292 C49.899,12.664 49.413,12.185 48.751,11.855 C48.089,11.525 47.226,11.352 46.162,11.336 C45.978,11.332 45.776,11.329 45.556,11.327 C45.336,11.325 45.124,11.325 44.92,11.327 C44.716,11.329 44.543,11.329 44.401,11.327 C44.259,11.325 44.174,11.324 44.146,11.324 L44.146,11.324 L44.146,20 L46.048,20 Z M46.048,19.046 L45.286,19.046 L45.286,12.278 L46.096,12.278 C46.812,12.278 47.424,12.383 47.932,12.593 C48.44,12.803 48.829,13.152 49.099,13.64 C49.369,14.128 49.504,14.79 49.504,15.626 C49.504,16.462 49.365,17.13 49.087,17.63 C48.809,18.13 48.412,18.491 47.896,18.713 C47.38,18.935 46.764,19.046 46.048,19.046 L46.048,19.046 Z M54.705625,20.12 C55.321625,20.12 55.838625,19.985 56.256625,19.715 C56.674625,19.445 56.990625,19.07 57.204625,18.59 C57.418625,18.11 57.525625,17.554 57.525625,16.922 C57.525625,16.226 57.409625,15.636 57.177625,15.152 C56.945625,14.668 56.618625,14.301 56.196625,14.051 C55.774625,13.801 55.277625,13.676 54.705625,13.676 C54.097625,13.676 53.580625,13.811 53.154625,14.081 C52.728625,14.351 52.405625,14.73 52.185625,15.218 C51.965625,15.706 51.855625,16.274 51.855625,16.922 C51.855625,17.61 51.973625,18.192 52.209625,18.668 C52.445625,19.144 52.777625,19.505 53.205625,19.751 C53.633625,19.997 54.133625,20.12 54.705625,20.12 Z M54.705625,19.244 C54.293625,19.244 53.959625,19.14 53.703625,18.932 C53.447625,18.724 53.259625,18.442 53.139625,18.086 C53.019625,17.73 52.959625,17.334 52.959625,16.898 C52.959625,16.406 53.026625,15.984 53.160625,15.632 C53.294625,15.28 53.491625,15.011 53.751625,14.825 C54.011625,14.639 54.329625,14.546 54.705625,14.546 C55.113625,14.546 55.444625,14.65 55.698625,14.858 C55.952625,15.066 56.137625,15.347 56.253625,15.701 C56.369625,16.055 56.427625,16.454 56.427625,16.898 C56.427625,17.382 56.361625,17.8 56.229625,18.152 C56.097625,18.504 55.903625,18.774 55.647625,18.962 C55.391625,19.15 55.077625,19.244 54.705625,19.244 Z M61.190125,20 L62.534125,15.422 L63.950125,20 L65.042125,20 L66.920125,13.796 L65.882125,13.796 L64.520125,18.554 L64.424125,18.554 L62.972125,13.796 L62.132125,13.796 L60.734125,18.566 L60.638125,18.566 L59.216125,13.796 L58.190125,13.796 L60.104125,20 L61.190125,20 Z M69.2884375,20 L69.2884375,15.854 C69.2884375,15.578 69.3644375,15.349 69.5164375,15.167 C69.6684375,14.985 69.8664375,14.849 70.1104375,14.759 C70.3544375,14.669 70.6164375,14.624 70.8964375,14.624 C71.3004375,14.624 71.6294375,14.741 71.8834375,14.975 C72.1374375,15.209 72.2644375,15.568 72.2644375,16.052 L72.2644375,16.052 L72.2644375,20 L73.3744375,20 L73.3744375,15.944 C73.3744375,15.424 73.2754375,14.999 73.0774375,14.669 C72.8794375,14.339 72.6154375,14.096 72.2854375,13.94 C71.9554375,13.784 71.5944375,13.706 71.2024375,13.706 C70.8704375,13.706 70.5774375,13.752 70.3234375,13.844 C70.0694375,13.936 69.8534375,14.058 69.6754375,14.21 C69.4974375,14.362 69.3584375,14.524 69.2584375,14.696 L69.2584375,14.696 L69.2584375,13.796 L68.1844375,13.796 L68.1844375,20 L69.2884375,20 Z M76.67425,20.078 C76.75425,20.078 76.84425,20.069 76.94425,20.051 C77.04425,20.033 77.14025,20.01 77.23225,19.982 L77.23225,19.982 L77.23225,19.262 L76.89625,19.256 C76.67625,19.24 76.50525,19.154 76.38325,18.998 C76.26125,18.842 76.20025,18.608 76.20025,18.296 L76.20025,18.296 L76.20025,11.084 L75.10825,11.084 L75.10825,18.404 C75.10825,18.62 75.12725,18.829 75.16525,19.031 C75.20325,19.233 75.27725,19.412 75.38725,19.568 C75.49725,19.724 75.65525,19.848 75.86125,19.94 C76.06725,20.032 76.33825,20.078 76.67425,20.078 Z M81.044125,20.12 C81.660125,20.12 82.177125,19.985 82.595125,19.715 C83.013125,19.445 83.329125,19.07 83.543125,18.59 C83.757125,18.11 83.864125,17.554 83.864125,16.922 C83.864125,16.226 83.748125,15.636 83.516125,15.152 C83.284125,14.668 82.957125,14.301 82.535125,14.051 C82.113125,13.801 81.616125,13.676 81.044125,13.676 C80.436125,13.676 79.919125,13.811 79.493125,14.081 C79.067125,14.351 78.744125,14.73 78.524125,15.218 C78.304125,15.706 78.194125,16.274 78.194125,16.922 C78.194125,17.61 78.312125,18.192 78.548125,18.668 C78.784125,19.144 79.116125,19.505 79.544125,19.751 C79.972125,19.997 80.472125,20.12 81.044125,20.12 Z M81.044125,19.244 C80.632125,19.244 80.298125,19.14 80.042125,18.932 C79.786125,18.724 79.598125,18.442 79.478125,18.086 C79.358125,17.73 79.298125,17.334 79.298125,16.898 C79.298125,16.406 79.365125,15.984 79.499125,15.632 C79.633125,15.28 79.830125,15.011 80.090125,14.825 C80.350125,14.639 80.668125,14.546 81.044125,14.546 C81.452125,14.546 81.783125,14.65 82.037125,14.858 C82.291125,15.066 82.476125,15.347 82.592125,15.701 C82.708125,16.055 82.766125,16.454 82.766125,16.898 C82.766125,17.382 82.700125,17.8 82.568125,18.152 C82.436125,18.504 82.242125,18.774 81.986125,18.962 C81.730125,19.15 81.416125,19.244 81.044125,19.244 Z M86.958625,20.12 C87.402625,20.12 87.809625,20.027 88.179625,19.841 C88.549625,19.655 88.854625,19.32 89.094625,18.836 L89.094625,18.836 L89.172625,20 L90.120625,20 L90.120625,15.668 C90.120625,15.236 90.031625,14.872 89.853625,14.576 C89.675625,14.28 89.407625,14.056 89.049625,13.904 C88.691625,13.752 88.242625,13.676 87.702625,13.676 C87.202625,13.676 86.769625,13.748 86.403625,13.892 C86.037625,14.036 85.752625,14.247 85.548625,14.525 C85.344625,14.803 85.230625,15.144 85.206625,15.548 L85.206625,15.548 L86.184625,15.548 C86.264625,15.176 86.439625,14.908 86.709625,14.744 C86.979625,14.58 87.292625,14.496 87.648625,14.492 C88.128625,14.492 88.482625,14.603 88.710625,14.825 C88.938625,15.047 89.052625,15.348 89.052625,15.728 L89.052625,15.728 L89.052625,16.214 L87.942625,16.244 C86.882625,16.268 86.112625,16.448 85.632625,16.784 C85.152625,17.12 84.912625,17.632 84.912625,18.32 C84.912625,18.7 84.999625,19.024 85.173625,19.292 C85.347625,19.56 85.588625,19.765 85.896625,19.907 C86.204625,20.049 86.558625,20.12 86.958625,20.12 Z M87.294625,19.322 C86.910625,19.322 86.597625,19.224 86.355625,19.028 C86.113625,18.832 85.992625,18.56 85.992625,18.212 C85.992625,17.908 86.071625,17.662 86.229625,17.474 C86.387625,17.286 86.625625,17.148 86.943625,17.06 C87.261625,16.972 87.656625,16.924 88.128625,16.916 L88.128625,16.916 L89.052625,16.898 L89.052625,17.96 C89.048625,18.132 88.995625,18.299 88.893625,18.461 C88.791625,18.623 88.654625,18.769 88.482625,18.899 C88.310625,19.029 88.121625,19.132 87.915625,19.208 C87.709625,19.284 87.502625,19.322 87.294625,19.322 Z M94.2559375,20.12 C94.6199375,20.12 94.9269375,20.072 95.1769375,19.976 C95.4269375,19.88 95.6319375,19.757 95.7919375,19.607 C95.9519375,19.457 96.0759375,19.303 96.1639375,19.145 C96.2519375,18.987 96.3159375,18.848 96.3559375,18.728 L96.3559375,18.728 L96.4759375,20 L97.3219375,20 L97.3219375,11.084 L96.2059375,11.084 L96.2059375,14.78 C96.1539375,14.676 96.0749375,14.562 95.9689375,14.438 C95.8629375,14.314 95.7259375,14.194 95.5579375,14.078 C95.3899375,13.962 95.1909375,13.866 94.9609375,13.79 C94.7309375,13.714 94.4679375,13.676 94.1719375,13.676 C93.6119375,13.676 93.1439375,13.808 92.7679375,14.072 C92.3919375,14.336 92.1089375,14.708 91.9189375,15.188 C91.7289375,15.668 91.6339375,16.23 91.6339375,16.874 C91.6339375,17.934 91.8699375,18.74 92.3419375,19.292 C92.8139375,19.844 93.4519375,20.12 94.2559375,20.12 Z M94.4539375,19.268 C93.8979375,19.268 93.4749375,19.054 93.1849375,18.626 C92.8949375,18.198 92.7499375,17.596 92.7499375,16.82 C92.7499375,16.028 92.9099375,15.45 93.2299375,15.086 C93.5499375,14.722 93.9659375,14.54 94.4779375,14.54 C94.8899375,14.54 95.2209375,14.629 95.4709375,14.807 C95.7209375,14.985 95.9049375,15.244 96.0229375,15.584 C96.1409375,15.924 96.2019375,16.336 96.2059375,16.82 C96.2059375,17.688 96.0709375,18.313 95.8009375,18.695 C95.5309375,19.077 95.0819375,19.268 94.4539375,19.268 Z M104.234875,20.12 C104.850875,20.12 105.367875,19.985 105.785875,19.715 C106.203875,19.445 106.519875,19.07 106.733875,18.59 C106.947875,18.11 107.054875,17.554 107.054875,16.922 C107.054875,16.226 106.938875,15.636 106.706875,15.152 C106.474875,14.668 106.147875,14.301 105.725875,14.051 C105.303875,13.801 104.806875,13.676 104.234875,13.676 C103.626875,13.676 103.109875,13.811 102.683875,14.081 C102.257875,14.351 101.934875,14.73 101.714875,15.218 C101.494875,15.706 101.384875,16.274 101.384875,16.922 C101.384875,17.61 101.502875,18.192 101.738875,18.668 C101.974875,19.144 102.306875,19.505 102.734875,19.751 C103.162875,19.997 103.662875,20.12 104.234875,20.12 Z M104.234875,19.244 C103.822875,19.244 103.488875,19.14 103.232875,18.932 C102.976875,18.724 102.788875,18.442 102.668875,18.086 C102.548875,17.73 102.488875,17.334 102.488875,16.898 C102.488875,16.406 102.555875,15.984 102.689875,15.632 C102.823875,15.28 103.020875,15.011 103.280875,14.825 C103.540875,14.639 103.858875,14.546 104.234875,14.546 C104.642875,14.546 104.973875,14.65 105.227875,14.858 C105.481875,15.066 105.666875,15.347 105.782875,15.701 C105.898875,16.055 105.956875,16.454 105.956875,16.898 C105.956875,17.382 105.890875,17.8 105.758875,18.152 C105.626875,18.504 105.432875,18.774 105.176875,18.962 C104.920875,19.15 104.606875,19.244 104.234875,19.244 Z M109.615375,20 L109.615375,15.854 C109.615375,15.578 109.691375,15.349 109.843375,15.167 C109.995375,14.985 110.193375,14.849 110.437375,14.759 C110.681375,14.669 110.943375,14.624 111.223375,14.624 C111.627375,14.624 111.956375,14.741 112.210375,14.975 C112.464375,15.209 112.591375,15.568 112.591375,16.052 L112.591375,16.052 L112.591375,20 L113.701375,20 L113.701375,15.944 C113.701375,15.424 113.602375,14.999 113.404375,14.669 C113.206375,14.339 112.942375,14.096 112.612375,13.94 C112.282375,13.784 111.921375,13.706 111.529375,13.706 C111.197375,13.706 110.904375,13.752 110.650375,13.844 C110.396375,13.936 110.180375,14.058 110.002375,14.21 C109.824375,14.362 109.685375,14.524 109.585375,14.696 L109.585375,14.696 L109.585375,13.796 L108.511375,13.796 L108.511375,20 L109.615375,20 Z M120.4765,20.036 C120.7045,20.036 120.8955,20.025 121.0495,20.003 C121.2035,19.981 121.3185,19.956 121.3945,19.928 L121.3945,19.928 L121.3945,19.184 L120.7165,19.184 C120.5245,19.184 120.3735,19.17 120.2635,19.142 C120.1535,19.114 120.0755,19.049 120.0295,18.947 C119.9835,18.845 119.9605,18.684 119.9605,18.464 L119.9605,18.464 L119.9605,14.606 L121.3585,14.606 L121.3585,13.79 L119.9605,13.79 L119.9605,11.99 L119.1445,11.99 L118.8745,13.796 L117.8365,13.796 L117.8365,14.606 L118.8445,14.606 L118.8445,18.5 C118.8445,18.832 118.8915,19.112 118.9855,19.34 C119.0795,19.568 119.2445,19.741 119.4805,19.859 C119.7165,19.977 120.0485,20.036 120.4765,20.036 Z M124.055875,20 L124.055875,15.86 C124.055875,15.58 124.130875,15.349 124.280875,15.167 C124.430875,14.985 124.627875,14.849 124.871875,14.759 C125.115875,14.669 125.375875,14.624 125.651875,14.624 C126.059875,14.624 126.390875,14.725 126.644875,14.927 C126.898875,15.129 127.025875,15.416 127.025875,15.788 L127.025875,15.788 L127.025875,20 L128.135875,20 L128.135875,15.566 C128.135875,15.186 128.039875,14.858 127.847875,14.582 C127.655875,14.306 127.395875,14.093 127.067875,13.943 C126.739875,13.793 126.373875,13.718 125.969875,13.718 C125.637875,13.718 125.345875,13.765 125.093875,13.859 C124.841875,13.953 124.627875,14.075 124.451875,14.225 C124.275875,14.375 124.135875,14.536 124.031875,14.708 L124.031875,14.708 L124.031875,11.084 L122.951875,11.084 L122.951875,20 L124.055875,20 Z M132.475562,20.12 C132.875563,20.12 133.259563,20.047 133.627563,19.901 C133.995563,19.755 134.309562,19.538 134.569562,19.25 C134.829563,18.962 134.997563,18.608 135.073562,18.188 L135.073562,18.188 L134.023562,18.188 C133.943563,18.536 133.760562,18.802 133.474562,18.986 C133.188562,19.17 132.847563,19.262 132.451562,19.262 C132.051563,19.262 131.718563,19.168 131.452562,18.98 C131.186563,18.792 130.988563,18.539 130.858563,18.221 C130.728563,17.903 130.663562,17.548 130.663562,17.156 L130.663562,17.156 L135.109562,17.156 L135.109562,16.748 C135.109562,16.12 135.004562,15.577 134.794562,15.119 C134.584563,14.661 134.277562,14.306 133.873562,14.054 C133.469562,13.802 132.975562,13.676 132.391562,13.676 C131.791562,13.676 131.278562,13.814 130.852562,14.09 C130.426562,14.366 130.101562,14.75 129.877563,15.242 C129.653563,15.734 129.541562,16.306 129.541562,16.958 C129.541562,17.618 129.665562,18.184 129.913562,18.656 C130.161562,19.128 130.505562,19.49 130.945562,19.742 C131.385562,19.994 131.895563,20.12 132.475562,20.12 Z M134.041562,16.406 L130.669562,16.406 C130.665562,16.098 130.726562,15.799 130.852562,15.509 C130.978563,15.219 131.168563,14.981 131.422562,14.795 C131.676562,14.609 131.997563,14.516 132.385562,14.516 C132.757563,14.516 133.066563,14.599 133.312562,14.765 C133.558562,14.931 133.741562,15.157 133.861562,15.443 C133.981562,15.729 134.041562,16.05 134.041562,16.406 L134.041562,16.406 Z" id="Downloadonthe" fill="#FFFFFF" fill-rule="nonzero"></path>
        <path d="M45.439,38 L46.744,34.436 L52.063,34.436 L53.341,38 L55.042,38 L50.335,24.986 L48.454,24.986 L43.747,38 L45.439,38 Z M51.622,32.906 L47.167,32.906 L49.408,26.633 L51.622,32.906 Z M58.8338125,40.898 L58.8338125,36.317 C58.9358125,36.515 59.0663125,36.722 59.2253125,36.938 C59.3843125,37.154 59.5823125,37.3565 59.8193125,37.5455 C60.0563125,37.7345 60.3353125,37.8875 60.6563125,38.0045 C60.9773125,38.1215 61.3448125,38.18 61.7588125,38.18 C62.5808125,38.18 63.2828125,37.988 63.8648125,37.604 C64.4468125,37.22 64.8923125,36.6605 65.2013125,35.9255 C65.5103125,35.1905 65.6648125,34.289 65.6648125,33.221 C65.6648125,32.153 65.5058125,31.271 65.1878125,30.575 C64.8698125,29.879 64.4273125,29.3615 63.8603125,29.0225 C63.2933125,28.6835 62.6378125,28.514 61.8938125,28.514 C61.4678125,28.514 61.0883125,28.571 60.7553125,28.685 C60.4223125,28.799 60.1313125,28.946 59.8823125,29.126 C59.6333125,29.306 59.4233125,29.501 59.2523125,29.711 C59.0813125,29.921 58.9418125,30.122 58.8338125,30.314 L58.8338125,30.314 L58.8158125,28.694 L57.1598125,28.694 L57.1598125,40.898 L58.8338125,40.898 Z M61.4438125,36.884 C60.8678125,36.884 60.3848125,36.722 59.9948125,36.398 C59.6048125,36.074 59.3108125,35.639 59.1128125,35.093 C58.9148125,34.547 58.8158125,33.941 58.8158125,33.275 C58.8158125,32.243 59.0378125,31.4075 59.4818125,30.7685 C59.9258125,30.1295 60.5798125,29.81 61.4438125,29.81 C62.2958125,29.81 62.9438125,30.122 63.3878125,30.746 C63.8318125,31.37 64.0538125,32.213 64.0538125,33.275 C64.0538125,34.511 63.8108125,35.4215 63.3248125,36.0065 C62.8388125,36.5915 62.2118125,36.884 61.4438125,36.884 Z M69.5221562,40.898 L69.5221562,36.317 C69.6241562,36.515 69.7546562,36.722 69.9136563,36.938 C70.0726563,37.154 70.2706563,37.3565 70.5076562,37.5455 C70.7446563,37.7345 71.0236563,37.8875 71.3446562,38.0045 C71.6656562,38.1215 72.0331563,38.18 72.4471563,38.18 C73.2691563,38.18 73.9711563,37.988 74.5531563,37.604 C75.1351563,37.22 75.5806563,36.6605 75.8896563,35.9255 C76.1986562,35.1905 76.3531563,34.289 76.3531563,33.221 C76.3531563,32.153 76.1941563,31.271 75.8761563,30.575 C75.5581563,29.879 75.1156563,29.3615 74.5486562,29.0225 C73.9816563,28.6835 73.3261563,28.514 72.5821562,28.514 C72.1561562,28.514 71.7766563,28.571 71.4436563,28.685 C71.1106563,28.799 70.8196563,28.946 70.5706562,29.126 C70.3216563,29.306 70.1116563,29.501 69.9406563,29.711 C69.7696562,29.921 69.6301562,30.122 69.5221562,30.314 L69.5221562,30.314 L69.5041563,28.694 L67.8481563,28.694 L67.8481563,40.898 L69.5221562,40.898 Z M72.1321563,36.884 C71.5561563,36.884 71.0731562,36.722 70.6831562,36.398 C70.2931562,36.074 69.9991562,35.639 69.8011563,35.093 C69.6031563,34.547 69.5041563,33.941 69.5041563,33.275 C69.5041563,32.243 69.7261563,31.4075 70.1701563,30.7685 C70.6141563,30.1295 71.2681563,29.81 72.1321563,29.81 C72.9841562,29.81 73.6321562,30.122 74.0761562,30.746 C74.5201562,31.37 74.7421562,32.213 74.7421562,33.275 C74.7421562,34.511 74.4991562,35.4215 74.0131563,36.0065 C73.5271563,36.5915 72.9001562,36.884 72.1321563,36.884 Z M87.3314687,38.18 C88.3574688,38.18 89.2349688,38.0225 89.9639688,37.7075 C90.6929688,37.3925 91.2524687,36.9665 91.6424688,36.4295 C92.0324688,35.8925 92.2274688,35.297 92.2274688,34.643 C92.2274688,34.283 92.1839688,33.917 92.0969688,33.545 C92.0099688,33.173 91.8539688,32.816 91.6289688,32.474 C91.4039688,32.132 91.0859688,31.826 90.6749688,31.556 C90.2639688,31.286 89.7344688,31.082 89.0864688,30.944 L89.0864688,30.944 L86.6114688,30.35 C85.7654687,30.14 85.1819688,29.888 84.8609688,29.594 C84.5399688,29.3 84.3794688,28.919 84.3794688,28.451 C84.3794688,28.085 84.4604688,27.764 84.6224688,27.488 C84.7844688,27.212 85.0019688,26.981 85.2749687,26.795 C85.5479687,26.609 85.8569688,26.4695 86.2019688,26.3765 C86.5469688,26.2835 86.9054688,26.237 87.2774688,26.237 C87.7934688,26.237 88.2704687,26.3105 88.7084688,26.4575 C89.1464687,26.6045 89.5109688,26.8505 89.8019688,27.1955 C90.0929688,27.5405 90.2654687,28.007 90.3194687,28.595 L90.3194687,28.595 L92.0384688,28.595 C92.0324688,27.941 91.8494687,27.326 91.4894688,26.75 C91.1294688,26.174 90.5954688,25.709 89.8874688,25.355 C89.1794688,25.001 88.3064687,24.824 87.2684688,24.824 C86.3684688,24.824 85.5689688,24.983 84.8699687,25.301 C84.1709688,25.619 83.6219688,26.063 83.2229688,26.633 C82.8239688,27.203 82.6244688,27.863 82.6244688,28.613 C82.6364688,29.501 82.9139688,30.215 83.4569688,30.755 C83.9999688,31.295 84.7514688,31.67 85.7114688,31.88 L85.7114688,31.88 L88.2674688,32.474 C88.7474687,32.582 89.1554688,32.732 89.4914688,32.924 C89.8274688,33.116 90.0839688,33.356 90.2609688,33.644 C90.4379688,33.932 90.5264688,34.271 90.5264688,34.661 C90.5264688,35.105 90.3869687,35.486 90.1079687,35.804 C89.8289688,36.122 89.4479688,36.3665 88.9649688,36.5375 C88.4819688,36.7085 87.9344688,36.794 87.3224688,36.794 C86.7764688,36.794 86.2709688,36.71 85.8059688,36.542 C85.3409688,36.374 84.9479688,36.122 84.6269688,35.786 C84.3059688,35.45 84.0914688,35.036 83.9834688,34.544 L83.9834688,34.544 L82.2374688,34.544 C82.3154688,35.144 82.5089688,35.6705 82.8179688,36.1235 C83.1269688,36.5765 83.5154688,36.956 83.9834688,37.262 C84.4514688,37.568 84.9734688,37.7975 85.5494688,37.9505 C86.1254688,38.1035 86.7194688,38.18 87.3314687,38.18 Z M97.8575313,38.054 C98.1995313,38.054 98.4860312,38.0375 98.7170313,38.0045 C98.9480313,37.9715 99.1205312,37.934 99.2345313,37.892 L99.2345313,37.892 L99.2345313,36.776 L98.2175313,36.776 C97.9295312,36.776 97.7030313,36.755 97.5380313,36.713 C97.3730313,36.671 97.2560313,36.5735 97.1870313,36.4205 C97.1180313,36.2675 97.0835313,36.026 97.0835313,35.696 L97.0835313,35.696 L97.0835313,29.909 L99.1805313,29.909 L99.1805313,28.685 L97.0835313,28.685 L97.0835313,25.985 L95.8595313,25.985 L95.4545313,28.694 L93.8975313,28.694 L93.8975313,29.909 L95.4095313,29.909 L95.4095313,35.75 C95.4095313,36.248 95.4800313,36.668 95.6210313,37.01 C95.7620313,37.352 96.0095313,37.6115 96.3635313,37.7885 C96.7175313,37.9655 97.2155312,38.054 97.8575313,38.054 Z M105.026594,38.18 C105.950594,38.18 106.726094,37.9775 107.353094,37.5725 C107.980094,37.1675 108.454094,36.605 108.775094,35.885 C109.096094,35.165 109.256594,34.331 109.256594,33.383 C109.256594,32.339 109.082594,31.454 108.734594,30.728 C108.386594,30.002 107.896094,29.4515 107.263094,29.0765 C106.630094,28.7015 105.884594,28.514 105.026594,28.514 C104.114594,28.514 103.339094,28.7165 102.700094,29.1215 C102.061094,29.5265 101.576594,30.095 101.246594,30.827 C100.916594,31.559 100.751594,32.411 100.751594,33.383 C100.751594,34.415 100.928594,35.288 101.282594,36.002 C101.636594,36.716 102.134594,37.2575 102.776594,37.6265 C103.418594,37.9955 104.168594,38.18 105.026594,38.18 Z M105.026594,36.866 C104.408594,36.866 103.907594,36.71 103.523594,36.398 C103.139594,36.086 102.857594,35.663 102.677594,35.129 C102.497594,34.595 102.407594,34.001 102.407594,33.347 C102.407594,32.609 102.508094,31.976 102.709094,31.448 C102.910094,30.92 103.205594,30.5165 103.595594,30.2375 C103.985594,29.9585 104.462594,29.819 105.026594,29.819 C105.638594,29.819 106.135094,29.975 106.516094,30.287 C106.897094,30.599 107.174594,31.0205 107.348594,31.5515 C107.522594,32.0825 107.609594,32.681 107.609594,33.347 C107.609594,34.073 107.510594,34.7 107.312594,35.228 C107.114594,35.756 106.823594,36.161 106.439594,36.443 C106.055594,36.725 105.584594,36.866 105.026594,36.866 Z M113.097344,38 L113.097344,32.213 C113.097344,31.823 113.167844,31.4915 113.308844,31.2185 C113.449844,30.9455 113.643344,30.725 113.889344,30.557 C114.135344,30.389 114.420344,30.2705 114.744344,30.2015 C115.068344,30.1325 115.416344,30.11 115.788344,30.134 C115.884344,30.134 116.002844,30.1415 116.143844,30.1565 C116.284844,30.1715 116.400344,30.2 116.490344,30.242 L116.490344,30.242 L116.490344,28.631 C116.418344,28.589 116.316344,28.559 116.184344,28.541 C116.052344,28.523 115.917344,28.514 115.779344,28.514 C115.389344,28.514 115.012844,28.586 114.649844,28.73 C114.286844,28.874 113.964344,29.0915 113.682344,29.3825 C113.400344,29.6735 113.181344,30.041 113.025344,30.485 L113.025344,30.485 L113.025344,28.694 L111.441344,28.694 L111.441344,38 L113.097344,38 Z M122.11675,38.18 C122.71675,38.18 123.29275,38.0705 123.84475,37.8515 C124.39675,37.6325 124.86775,37.307 125.25775,36.875 C125.64775,36.443 125.89975,35.912 126.01375,35.282 L126.01375,35.282 L124.43875,35.282 C124.31875,35.804 124.04425,36.203 123.61525,36.479 C123.18625,36.755 122.67475,36.893 122.08075,36.893 C121.48075,36.893 120.98125,36.752 120.58225,36.47 C120.18325,36.188 119.88625,35.8085 119.69125,35.3315 C119.49625,34.8545 119.39875,34.322 119.39875,33.734 L119.39875,33.734 L126.06775,33.734 L126.06775,33.122 C126.06775,32.18 125.91025,31.3655 125.59525,30.6785 C125.28025,29.9915 124.81975,29.459 124.21375,29.081 C123.60775,28.703 122.86675,28.514 121.99075,28.514 C121.09075,28.514 120.32125,28.721 119.68225,29.135 C119.04325,29.549 118.55575,30.125 118.21975,30.863 C117.88375,31.601 117.71575,32.459 117.71575,33.437 C117.71575,34.427 117.90175,35.276 118.27375,35.984 C118.64575,36.692 119.16175,37.235 119.82175,37.613 C120.48175,37.991 121.24675,38.18 122.11675,38.18 Z M124.46575,32.609 L119.40775,32.609 C119.40175,32.147 119.49325,31.6985 119.68225,31.2635 C119.87125,30.8285 120.15625,30.4715 120.53725,30.1925 C120.91825,29.9135 121.39975,29.774 121.98175,29.774 C122.53975,29.774 123.00325,29.8985 123.37225,30.1475 C123.74125,30.3965 124.01575,30.7355 124.19575,31.1645 C124.37575,31.5935 124.46575,32.075 124.46575,32.609 L124.46575,32.609 Z" id="AppStore" fill="#FFFFFF" fill-rule="nonzero"></path>
    </g>
</svg>