<svg xmlns="http://www.w3.org/2000/svg" width="153" height="48" fill-rule="evenodd" xmlns:v="https://vecta.io/nano">
    <path d="M4 0h145a4 4 0 0 1 4 4v40a4 4 0 0 1-4 4H4a4 4 0 0 1-4-4V4a4 4 0 0 1 4-4z" fill="#1a1a1a"/>
    <path d="M30.642 23.37c-.033-3.652 3-5.428 3.128-5.5-1.712-2.496-4.365-2.837-5.298-2.864-2.23-.235-4.4 1.334-5.526 1.334-1.158 0-2.906-1.3-4.8-1.272-2.425.037-4.693 1.44-5.937 3.62-2.567 4.445-.653 10.977 1.807 14.57 1.23 1.76 2.668 3.724 4.55 3.655 1.84-.076 2.53-1.174 4.75-1.174 2.2 0 2.847 1.174 4.767 1.13 1.976-.032 3.22-1.767 4.407-3.543 1.422-2.017 1.993-4.003 2.016-4.105-.046-.016-3.837-1.463-3.875-5.84zm-3.626-10.737c1-1.238 1.668-2.923 1.48-4.633-1.433.063-3.226 1-4.258 2.203-.913 1.067-1.73 2.817-1.518 4.462 1.6.12 3.263-.812 4.296-2.03zM46.048 18.5c1.052 0 1.92-.166 2.6-.498s1.2-.824 1.524-1.476.5-1.458.5-2.418c0-.916-.155-1.688-.465-2.316s-.796-1.107-1.458-1.437-1.525-.503-2.6-.52l-.606-.01c-.22-.002-.432-.002-.636 0h-.52l-.255-.003V18.5h1.902zm0-.954h-.762v-6.768h.8c.716 0 1.328.105 1.836.315a2.31 2.31 0 0 1 1.167 1.047c.27.487.405 1.15.405 1.986s-.14 1.504-.417 2.004a2.43 2.43 0 0 1-1.191 1.083c-.516.222-1.132.333-1.848.333h0zm8.658 1.074c.616 0 1.133-.135 1.55-.405a2.53 2.53 0 0 0 .948-1.125c.214-.48.32-1.036.32-1.668 0-.696-.116-1.286-.348-1.77a2.49 2.49 0 0 0-.981-1.101c-.422-.25-.92-.375-1.5-.375-.608 0-1.125.135-1.55.405a2.55 2.55 0 0 0-.969 1.137c-.22.488-.33 1.056-.33 1.704 0 .688.118 1.27.354 1.746s.568.837.996 1.083.928.37 1.5.37zm0-.876c-.412 0-.746-.104-1.002-.312s-.444-.5-.564-.846a3.66 3.66 0 0 1-.18-1.188c0-.492.067-.914.2-1.266s.33-.62.6-.807.578-.28.954-.28c.408 0 .74.104.993.312s.44.5.555.843a3.86 3.86 0 0 1 .174 1.197c0 .484-.066.902-.198 1.254s-.326.622-.582.8-.57.282-.942.282zm6.485.756l1.344-4.578L63.95 18.5h1.092l1.878-6.204h-1.038l-1.362 4.758h-.096l-1.452-4.758h-.84l-1.398 4.77h-.096l-1.422-4.77H58.2l1.914 6.204H61.2zm8.098 0v-4.146c0-.276.076-.505.228-.687s.35-.318.594-.408.506-.135.786-.135c.404 0 .733.117.987.35s.38.593.38 1.077h0v3.95h1.1v-4.056c0-.52-.1-.945-.297-1.275a1.82 1.82 0 0 0-.792-.73 2.5 2.5 0 0 0-1.083-.234c-.332 0-.625.046-.88.138s-.47.214-.648.366-.317.314-.417.486h0v-.9h-1.074V18.5h1.104zm7.386.078a1.54 1.54 0 0 0 .27-.027c.1-.018.196-.04.288-.07h0v-.72l-.336-.006a.68.68 0 0 1-.513-.258c-.122-.156-.183-.4-.183-.702h0v-7.21H75.11v7.32c0 .216.02.425.057.627s.112.38.222.537.268.28.474.372.477.138.813.138zm4.37.042c.616 0 1.133-.135 1.55-.405a2.53 2.53 0 0 0 .948-1.125c.214-.48.32-1.036.32-1.668 0-.696-.116-1.286-.348-1.77a2.49 2.49 0 0 0-.981-1.101c-.422-.25-.92-.375-1.5-.375-.608 0-1.125.135-1.55.405a2.55 2.55 0 0 0-.969 1.137c-.22.488-.33 1.056-.33 1.704 0 .688.118 1.27.354 1.746s.568.837.996 1.083.928.37 1.5.37zm0-.876c-.412 0-.746-.104-1.002-.312s-.444-.5-.564-.846a3.66 3.66 0 0 1-.18-1.188c0-.492.067-.914.2-1.266s.33-.62.6-.807.578-.28.954-.28c.408 0 .74.104.993.312s.44.5.555.843a3.86 3.86 0 0 1 .174 1.197c0 .484-.066.902-.198 1.254s-.326.622-.582.8-.57.282-.942.282zm5.915.876a2.68 2.68 0 0 0 1.221-.279c.37-.186.675-.52.915-1.005h0l.078 1.164h.948v-4.332c0-.432-.1-.796-.267-1.092a1.66 1.66 0 0 0-.804-.672c-.358-.152-.807-.228-1.347-.228-.5 0-.933.072-1.3.216s-.65.355-.855.633-.318.62-.342 1.023h.978c.08-.372.255-.64.525-.804s.583-.248.94-.252c.48 0 .834.1 1.062.333s.342.523.342.903h0v.486l-1.1.03c-1.06.024-1.83.204-2.3.54s-.72.848-.72 1.536c0 .38.087.704.26.972a1.67 1.67 0 0 0 .723.615c.308.142.662.213 1.062.213zm.336-.798c-.384 0-.697-.098-.94-.294s-.363-.468-.363-.816c0-.304.08-.55.237-.738s.396-.326.714-.414.713-.136 1.185-.144h0l.924-.018v1.062c-.004.172-.057.34-.16.5a1.66 1.66 0 0 1-.411.438 2.21 2.21 0 0 1-.567.31c-.207.077-.413.114-.62.114zm6.96.798c.364 0 .67-.048.92-.144s.455-.22.615-.37.284-.304.372-.462a2.52 2.52 0 0 0 .192-.417h0l.12 1.272h.846V9.584h-1.116v3.696a1.7 1.7 0 0 0-.237-.342 2.18 2.18 0 0 0-.41-.36c-.167-.116-.367-.212-.597-.288s-.493-.114-.8-.114c-.56 0-1.028.132-1.404.396s-.66.636-.85 1.116-.285 1.042-.285 1.686c0 1.06.236 1.866.708 2.418s1.1.828 1.914.828zm.198-.852c-.556 0-.98-.214-1.27-.642s-.435-1.03-.435-1.806c0-.792.16-1.37.48-1.734s.736-.546 1.248-.546c.412 0 .743.1.993.267s.434.437.552.777.18.752.183 1.236c0 .868-.135 1.493-.405 1.875s-.72.573-1.347.573zm9.78.852c.616 0 1.133-.135 1.55-.405a2.53 2.53 0 0 0 .948-1.125c.214-.48.32-1.036.32-1.668 0-.696-.116-1.286-.348-1.77a2.49 2.49 0 0 0-.981-1.101c-.422-.25-.92-.375-1.5-.375-.608 0-1.125.135-1.55.405a2.55 2.55 0 0 0-.969 1.137c-.22.488-.33 1.056-.33 1.704 0 .688.118 1.27.354 1.746s.568.837.996 1.083.928.37 1.5.37zm0-.876c-.412 0-.746-.104-1.002-.312s-.444-.5-.564-.846a3.66 3.66 0 0 1-.18-1.188c0-.492.067-.914.2-1.266s.33-.62.6-.807.578-.28.954-.28c.408 0 .74.104.993.312s.44.5.555.843a3.86 3.86 0 0 1 .174 1.197c0 .484-.066.902-.198 1.254s-.326.622-.582.8-.57.282-.942.282zm5.38.756v-4.146c0-.276.076-.505.228-.687s.35-.318.594-.408.506-.135.786-.135c.404 0 .733.117.987.35s.38.593.38 1.077h0v3.95h1.1v-4.056c0-.52-.1-.945-.297-1.275a1.82 1.82 0 0 0-.792-.73 2.5 2.5 0 0 0-1.083-.234c-.332 0-.625.046-.88.138s-.47.214-.648.366-.317.314-.417.486h0v-.9h-1.074V18.5h1.104zm10.86.036c.228 0 .42-.01.573-.033a1.81 1.81 0 0 0 .345-.075h0v-.744h-.678a1.92 1.92 0 0 1-.453-.042c-.1-.028-.188-.093-.234-.195s-.07-.263-.07-.483h0v-3.858h1.398V12.3h-1.398v-1.8h-.816l-.27 1.806h-1.038v.8h1.008V17c0 .332.047.612.14.84s.26.4.495.52.568.177.996.177zm3.58-.036v-4.14c0-.28.075-.5.225-.693a1.35 1.35 0 0 1 .59-.408 2.23 2.23 0 0 1 .78-.135c.408 0 .74.1.993.303s.38.5.38.86h0V18.5h1.1v-4.434c0-.38-.096-.708-.288-.984a1.88 1.88 0 0 0-.78-.639 2.61 2.61 0 0 0-1.098-.225 2.5 2.5 0 0 0-.876.141c-.252.094-.466.216-.642.366s-.316.3-.42.483h0V9.584h-1.08V18.5h1.104zm8.42.12c.4 0 .784-.073 1.152-.22s.682-.363.942-.65.428-.642.504-1.062h0-1.05a1.24 1.24 0 0 1-.549.798c-.286.184-.627.276-1.023.276s-.733-.094-1-.282a1.69 1.69 0 0 1-.594-.759 2.79 2.79 0 0 1-.195-1.065h4.446v-.408c0-.628-.105-1.17-.315-1.63a2.4 2.4 0 0 0-.921-1.065c-.404-.252-.898-.378-1.482-.378-.6 0-1.113.138-1.54.414s-.75.66-.975 1.152-.336 1.064-.336 1.716c0 .66.124 1.226.372 1.698s.592.834 1.032 1.086.95.378 1.53.378zm1.566-3.714h-3.372c-.004-.308.057-.607.183-.897a1.72 1.72 0 0 1 .57-.714c.254-.186.575-.28.963-.28.372 0 .68.083.927.25s.43.392.55.678.18.607.18.963h0zM45.44 36.5l1.305-3.564h5.32L53.34 36.5h1.7l-4.707-13.014h-1.88L43.747 36.5h1.692zm6.183-5.094h-4.455l2.24-6.273 2.214 6.273zm7.212 7.992v-4.58a4.65 4.65 0 0 0 .392.621c.16.216.357.418.594.607a2.95 2.95 0 0 0 .837.459 3.21 3.21 0 0 0 1.102.175c.822 0 1.524-.192 2.106-.576s1.028-.944 1.337-1.678.463-1.636.463-2.705-.16-1.95-.477-2.646-.76-1.213-1.328-1.552-1.222-.5-1.966-.5c-.426 0-.806.057-1.14.17a3.31 3.31 0 0 0-.873.441c-.25.18-.46.375-.63.585a4.55 4.55 0 0 0-.42.603h0l-.018-1.62H57.16v12.204h1.674zm2.6-4.014c-.576 0-1.06-.162-1.45-.486s-.684-.76-.882-1.305-.297-1.152-.297-1.818c0-1.032.222-1.867.666-2.506s1.098-.96 1.962-.96c.852 0 1.5.312 1.944.936s.666 1.467.666 2.53c0 1.236-.243 2.147-.73 2.732a2.33 2.33 0 0 1-1.881.877zm8.078 4.014v-4.58a4.65 4.65 0 0 0 .392.621c.16.216.357.418.594.607a2.95 2.95 0 0 0 .837.459c.32.117.7.175 1.103.175.822 0 1.524-.192 2.106-.576s1.028-.944 1.337-1.678.463-1.636.463-2.705-.16-1.95-.477-2.646-.76-1.213-1.328-1.552-1.222-.5-1.966-.5c-.426 0-.805.057-1.138.17a3.31 3.31 0 0 0-.873.441c-.25.18-.46.375-.63.585a4.55 4.55 0 0 0-.42.603h0l-.018-1.62H67.84v12.204h1.674zm2.6-4.014c-.576 0-1.06-.162-1.45-.486s-.684-.76-.882-1.305-.297-1.152-.297-1.818c0-1.032.222-1.867.666-2.506s1.098-.96 1.962-.96c.852 0 1.5.312 1.944.936s.666 1.467.666 2.53c0 1.236-.243 2.147-.73 2.732a2.33 2.33 0 0 1-1.881.877zm15.2 1.296c1.026 0 1.904-.157 2.633-.472s1.288-.74 1.678-1.278a2.97 2.97 0 0 0 .585-1.786 4.81 4.81 0 0 0-.13-1.098 3.29 3.29 0 0 0-.468-1.07c-.225-.34-.543-.648-.954-.918s-.94-.474-1.588-.612h0l-2.475-.594c-.846-.2-1.43-.462-1.75-.756a1.48 1.48 0 0 1-.48-1.143c0-.366.08-.687.243-.963s.38-.507.652-.693a3.05 3.05 0 0 1 .927-.42 4.07 4.07 0 0 1 1.075-.14 4.49 4.49 0 0 1 1.43.22 2.4 2.4 0 0 1 1.093.738c.3.345.463.812.517 1.4h1.72c-.006-.654-.2-1.27-.55-1.845s-.894-1.04-1.602-1.395-1.58-.53-2.62-.53c-.9 0-1.7.16-2.4.477s-1.248.762-1.647 1.332-.6 1.23-.6 1.98c.012.888.3 1.602.832 2.142s1.294.915 2.255 1.125h0l2.556.594c.48.108.888.258 1.224.45s.592.432.77.72.266.627.266 1.017a1.67 1.67 0 0 1-.42 1.143c-.28.318-.66.563-1.143.733s-1.03.256-1.642.256c-.546 0-1.05-.084-1.516-.252s-.858-.42-1.18-.756-.535-.75-.644-1.242h0-1.746a3.59 3.59 0 0 0 .58 1.58 4.13 4.13 0 0 0 1.165 1.139c.468.306 1 .535 1.566.688a6.91 6.91 0 0 0 1.782.23zm10.526-.126c.342 0 .628-.017.86-.05s.403-.07.517-.112h0v-1.116H98.2a2.88 2.88 0 0 1-.68-.063.5.5 0 0 1-.351-.293c-.07-.153-.103-.394-.103-.724h0V28.4h2.097v-1.224h-2.097v-2.7H95.86l-.405 2.7h-1.557v1.215H95.4v5.84c0 .498.07.918.212 1.26s.4.602.743.78.852.266 1.494.266zm7.17.126c.924 0 1.7-.203 2.326-.608s1.1-.968 1.422-1.687.482-1.554.482-2.502c0-1.044-.174-1.93-.522-2.655s-.838-1.277-1.472-1.652-1.378-.562-2.236-.562c-.912 0-1.687.203-2.326.608s-1.124.973-1.454 1.706-.495 1.584-.495 2.556c0 1.032.177 1.905.53 2.62s.852 1.255 1.494 1.624 1.392.553 2.25.553zm0-1.314c-.618 0-1.12-.156-1.503-.468s-.666-.735-.846-1.27-.27-1.128-.27-1.782c0-.738.1-1.37.3-1.9s.497-.93.887-1.2.867-.42 1.43-.42c.612 0 1.108.156 1.5.468s.66.733.833 1.265.26 1.13.26 1.796c0 .726-.1 1.353-.297 1.88s-.5.933-.873 1.215-.855.423-1.413.423zm8.07 1.134v-5.787c0-.4.07-.722.2-.995a1.77 1.77 0 0 1 .581-.662 2.35 2.35 0 0 1 .855-.355 3.82 3.82 0 0 1 1.044-.067c.096 0 .215.008.356.023s.257.043.346.085h0v-1.6c-.072-.042-.174-.072-.306-.1s-.267-.027-.405-.027c-.4 0-.766.072-1.13.216s-.686.36-.968.652-.5.66-.657 1.102h0v-1.8h-1.584V36.5h1.656zm9.02.18c.6 0 1.176-.1 1.728-.328a3.73 3.73 0 0 0 1.413-.977c.4-.432.642-.963.756-1.593h0-1.575a1.86 1.86 0 0 1-.823 1.197c-.43.277-.94.414-1.535.414s-1.1-.14-1.498-.423-.696-.66-.9-1.14-.292-1-.292-1.597h6.67v-.612c0-.942-.157-1.756-.473-2.443a3.61 3.61 0 0 0-1.38-1.598c-.605-.378-1.347-.567-2.223-.567-.9 0-1.67.207-2.3.62s-1.126 1-1.462 1.728-.504 1.596-.504 2.574c0 1 .186 1.84.558 2.547a3.94 3.94 0 0 0 1.548 1.629c.66.378 1.425.567 2.295.567zm2.35-5.57h-5.058a3.24 3.24 0 0 1 .275-1.346 2.56 2.56 0 0 1 .855-1.07c.38-.278.862-.418 1.445-.418.558 0 1.02.124 1.4.373s.644.588.824 1.017a3.7 3.7 0 0 1 .27 1.445h0z"
          fill="#fff" fill-rule="nonzero"/>
</svg>