<?xml version="1.0" encoding="UTF-8"?>
<svg width="153px" height="48px" viewBox="0 0 153 48" version="1.1" xmlns="http://www.w3.org/2000/svg" xmlns:xlink="http://www.w3.org/1999/xlink">
    <title>atoms/iconography/generic/googleplay</title>
    <g id="atoms/iconography/generic/googleplay" stroke="none" stroke-width="1" fill="none" fill-rule="evenodd">
        <path d="M4,0 L149,0 C151.209139,-1.61026889e-14 153,1.790861 153,4 L153,44 C153,46.209139 151.209139,48 149,48 L4,48 C1.790861,48 2.705415e-16,46.209139 0,44 L0,4 C-2.705415e-16,1.790861 1.790861,4.05812251e-16 4,0 Z" id="Rectangle" fill="#1A1A1A"></path>
        <path d="M47.332,20.12 C47.792,20.12 48.189,20.052 48.523,19.916 C48.857,19.78 49.14,19.602 49.372,19.382 C49.604,19.162 49.796,18.928 49.948,18.68 L49.948,18.68 L49.948,20 L50.782,20 L50.782,15.524 L47.518,15.518 L47.518,16.334 L49.63,16.334 L49.594,17.102 C49.586,17.318 49.533,17.543 49.435,17.777 C49.337,18.011 49.198,18.229 49.018,18.431 C48.838,18.633 48.613,18.798 48.343,18.926 C48.073,19.054 47.756,19.118 47.392,19.118 C47.032,19.118 46.697,19.053 46.387,18.923 C46.077,18.793 45.807,18.591 45.577,18.317 C45.347,18.043 45.168,17.686 45.04,17.246 C44.912,16.806 44.848,16.278 44.848,15.662 C44.848,14.862 44.953,14.206 45.163,13.694 C45.373,13.182 45.667,12.803 46.045,12.557 C46.423,12.311 46.862,12.188 47.362,12.188 C47.73,12.188 48.061,12.272 48.355,12.44 C48.649,12.608 48.892,12.83 49.084,13.106 C49.276,13.382 49.4,13.68 49.456,14 L49.456,14 L50.644,14 C50.62,13.636 50.519,13.286 50.341,12.95 C50.163,12.614 49.926,12.315 49.63,12.053 C49.334,11.791 48.994,11.584 48.61,11.432 C48.226,11.28 47.816,11.204 47.38,11.204 C46.616,11.204 45.954,11.381 45.394,11.735 C44.834,12.089 44.403,12.6 44.101,13.268 C43.799,13.936 43.648,14.742 43.648,15.686 C43.648,16.622 43.796,17.42 44.092,18.08 C44.388,18.74 44.812,19.245 45.364,19.595 C45.916,19.945 46.572,20.12 47.332,20.12 Z M55.3174375,20.12 C55.7174375,20.12 56.1014375,20.047 56.4694375,19.901 C56.8374375,19.755 57.1514375,19.538 57.4114375,19.25 C57.6714375,18.962 57.8394375,18.608 57.9154375,18.188 L57.9154375,18.188 L56.8654375,18.188 C56.7854375,18.536 56.6024375,18.802 56.3164375,18.986 C56.0304375,19.17 55.6894375,19.262 55.2934375,19.262 C54.8934375,19.262 54.5604375,19.168 54.2944375,18.98 C54.0284375,18.792 53.8304375,18.539 53.7004375,18.221 C53.5704375,17.903 53.5054375,17.548 53.5054375,17.156 L53.5054375,17.156 L57.9514375,17.156 L57.9514375,16.748 C57.9514375,16.12 57.8464375,15.577 57.6364375,15.119 C57.4264375,14.661 57.1194375,14.306 56.7154375,14.054 C56.3114375,13.802 55.8174375,13.676 55.2334375,13.676 C54.6334375,13.676 54.1204375,13.814 53.6944375,14.09 C53.2684375,14.366 52.9434375,14.75 52.7194375,15.242 C52.4954375,15.734 52.3834375,16.306 52.3834375,16.958 C52.3834375,17.618 52.5074375,18.184 52.7554375,18.656 C53.0034375,19.128 53.3474375,19.49 53.7874375,19.742 C54.2274375,19.994 54.7374375,20.12 55.3174375,20.12 Z M56.8834375,16.406 L53.5114375,16.406 C53.5074375,16.098 53.5684375,15.799 53.6944375,15.509 C53.8204375,15.219 54.0104375,14.981 54.2644375,14.795 C54.5184375,14.609 54.8394375,14.516 55.2274375,14.516 C55.5994375,14.516 55.9084375,14.599 56.1544375,14.765 C56.4004375,14.931 56.5834375,15.157 56.7034375,15.443 C56.8234375,15.729 56.8834375,16.05 56.8834375,16.406 L56.8834375,16.406 Z M61.5435625,20.036 C61.7715625,20.036 61.9625625,20.025 62.1165625,20.003 C62.2705625,19.981 62.3855625,19.956 62.4615625,19.928 L62.4615625,19.928 L62.4615625,19.184 L61.7835625,19.184 C61.5915625,19.184 61.4405625,19.17 61.3305625,19.142 C61.2205625,19.114 61.1425625,19.049 61.0965625,18.947 C61.0505625,18.845 61.0275625,18.684 61.0275625,18.464 L61.0275625,18.464 L61.0275625,14.606 L62.4255625,14.606 L62.4255625,13.79 L61.0275625,13.79 L61.0275625,11.99 L60.2115625,11.99 L59.9415625,13.796 L58.9035625,13.796 L58.9035625,14.606 L59.9115625,14.606 L59.9115625,18.5 C59.9115625,18.832 59.9585625,19.112 60.0525625,19.34 C60.1465625,19.568 60.3115625,19.741 60.5475625,19.859 C60.7835625,19.977 61.1155625,20.036 61.5435625,20.036 Z M68.01025,12.482 L68.01025,11.33 L66.87625,11.33 L66.87625,12.482 L68.01025,12.482 Z M67.98625,20 L67.98625,13.796 L66.91225,13.796 L66.91225,20 L67.98625,20 Z M72.2884375,20.036 C72.5164375,20.036 72.7074375,20.025 72.8614375,20.003 C73.0154375,19.981 73.1304375,19.956 73.2064375,19.928 L73.2064375,19.928 L73.2064375,19.184 L72.5284375,19.184 C72.3364375,19.184 72.1854375,19.17 72.0754375,19.142 C71.9654375,19.114 71.8874375,19.049 71.8414375,18.947 C71.7954375,18.845 71.7724375,18.684 71.7724375,18.464 L71.7724375,18.464 L71.7724375,14.606 L73.1704375,14.606 L73.1704375,13.79 L71.7724375,13.79 L71.7724375,11.99 L70.9564375,11.99 L70.6864375,13.796 L69.6484375,13.796 L69.6484375,14.606 L70.6564375,14.606 L70.6564375,18.5 C70.6564375,18.832 70.7034375,19.112 70.7974375,19.34 C70.8914375,19.568 71.0564375,19.741 71.2924375,19.859 C71.5284375,19.977 71.8604375,20.036 72.2884375,20.036 Z M79.841125,20.12 C80.457125,20.12 80.974125,19.985 81.392125,19.715 C81.810125,19.445 82.126125,19.07 82.340125,18.59 C82.554125,18.11 82.661125,17.554 82.661125,16.922 C82.661125,16.226 82.545125,15.636 82.313125,15.152 C82.081125,14.668 81.754125,14.301 81.332125,14.051 C80.910125,13.801 80.413125,13.676 79.841125,13.676 C79.233125,13.676 78.716125,13.811 78.290125,14.081 C77.864125,14.351 77.541125,14.73 77.321125,15.218 C77.101125,15.706 76.991125,16.274 76.991125,16.922 C76.991125,17.61 77.109125,18.192 77.345125,18.668 C77.581125,19.144 77.913125,19.505 78.341125,19.751 C78.769125,19.997 79.269125,20.12 79.841125,20.12 Z M79.841125,19.244 C79.429125,19.244 79.095125,19.14 78.839125,18.932 C78.583125,18.724 78.395125,18.442 78.275125,18.086 C78.155125,17.73 78.095125,17.334 78.095125,16.898 C78.095125,16.406 78.162125,15.984 78.296125,15.632 C78.430125,15.28 78.627125,15.011 78.887125,14.825 C79.147125,14.639 79.465125,14.546 79.841125,14.546 C80.249125,14.546 80.580125,14.65 80.834125,14.858 C81.088125,15.066 81.273125,15.347 81.389125,15.701 C81.505125,16.055 81.563125,16.454 81.563125,16.898 C81.563125,17.382 81.497125,17.8 81.365125,18.152 C81.233125,18.504 81.039125,18.774 80.783125,18.962 C80.527125,19.15 80.213125,19.244 79.841125,19.244 Z M85.221625,20 L85.221625,15.854 C85.221625,15.578 85.297625,15.349 85.449625,15.167 C85.601625,14.985 85.799625,14.849 86.043625,14.759 C86.287625,14.669 86.549625,14.624 86.829625,14.624 C87.233625,14.624 87.562625,14.741 87.816625,14.975 C88.070625,15.209 88.197625,15.568 88.197625,16.052 L88.197625,16.052 L88.197625,20 L89.307625,20 L89.307625,15.944 C89.307625,15.424 89.208625,14.999 89.010625,14.669 C88.812625,14.339 88.548625,14.096 88.218625,13.94 C87.888625,13.784 87.527625,13.706 87.135625,13.706 C86.803625,13.706 86.510625,13.752 86.256625,13.844 C86.002625,13.936 85.786625,14.058 85.608625,14.21 C85.430625,14.362 85.291625,14.524 85.191625,14.696 L85.191625,14.696 L85.191625,13.796 L84.117625,13.796 L84.117625,20 L85.221625,20 Z" id="Getiton" fill="#FFFFFF" fill-rule="nonzero"></path>
        <path d="M49.498,38.18 C50.188,38.18 50.7835,38.078 51.2845,37.874 C51.7855,37.67 52.21,37.403 52.558,37.073 C52.906,36.743 53.194,36.392 53.422,36.02 L53.422,36.02 L53.422,38 L54.673,38 L54.673,31.286 L49.777,31.277 L49.777,32.501 L52.945,32.501 L52.891,33.653 C52.879,33.977 52.7995,34.3145 52.6525,34.6655 C52.5055,35.0165 52.297,35.3435 52.027,35.6465 C51.757,35.9495 51.4195,36.197 51.0145,36.389 C50.6095,36.581 50.134,36.677 49.588,36.677 C49.048,36.677 48.5455,36.5795 48.0805,36.3845 C47.6155,36.1895 47.2105,35.8865 46.8655,35.4755 C46.5205,35.0645 46.252,34.529 46.06,33.869 C45.868,33.209 45.772,32.417 45.772,31.493 C45.772,30.293 45.9295,29.309 46.2445,28.541 C46.5595,27.773 47.0005,27.2045 47.5675,26.8355 C48.1345,26.4665 48.793,26.282 49.543,26.282 C50.095,26.282 50.5915,26.408 51.0325,26.66 C51.4735,26.912 51.838,27.245 52.126,27.659 C52.414,28.073 52.6,28.52 52.684,29 L52.684,29 L54.466,29 C54.43,28.454 54.2785,27.929 54.0115,27.425 C53.7445,26.921 53.389,26.4725 52.945,26.0795 C52.501,25.6865 51.991,25.376 51.415,25.148 C50.839,24.92 50.224,24.806 49.57,24.806 C48.424,24.806 47.431,25.0715 46.591,25.6025 C45.751,26.1335 45.1045,26.9 44.6515,27.902 C44.1985,28.904 43.972,30.113 43.972,31.529 C43.972,32.933 44.194,34.13 44.638,35.12 C45.082,36.11 45.718,36.8675 46.546,37.3925 C47.374,37.9175 48.358,38.18 49.498,38.18 Z M61.2691562,38.18 C62.1931563,38.18 62.9686562,37.9775 63.5956562,37.5725 C64.2226562,37.1675 64.6966562,36.605 65.0176562,35.885 C65.3386562,35.165 65.4991562,34.331 65.4991562,33.383 C65.4991562,32.339 65.3251562,31.454 64.9771563,30.728 C64.6291562,30.002 64.1386562,29.4515 63.5056562,29.0765 C62.8726562,28.7015 62.1271562,28.514 61.2691562,28.514 C60.3571562,28.514 59.5816562,28.7165 58.9426562,29.1215 C58.3036562,29.5265 57.8191562,30.095 57.4891562,30.827 C57.1591562,31.559 56.9941562,32.411 56.9941562,33.383 C56.9941562,34.415 57.1711562,35.288 57.5251562,36.002 C57.8791562,36.716 58.3771562,37.2575 59.0191562,37.6265 C59.6611562,37.9955 60.4111562,38.18 61.2691562,38.18 Z M61.2691562,36.866 C60.6511562,36.866 60.1501562,36.71 59.7661562,36.398 C59.3821562,36.086 59.1001562,35.663 58.9201562,35.129 C58.7401562,34.595 58.6501562,34.001 58.6501562,33.347 C58.6501562,32.609 58.7506562,31.976 58.9516562,31.448 C59.1526562,30.92 59.4481562,30.5165 59.8381562,30.2375 C60.2281562,29.9585 60.7051563,29.819 61.2691562,29.819 C61.8811562,29.819 62.3776562,29.975 62.7586562,30.287 C63.1396562,30.599 63.4171562,31.0205 63.5911562,31.5515 C63.7651562,32.0825 63.8521562,32.681 63.8521562,33.347 C63.8521562,34.073 63.7531562,34.7 63.5551562,35.228 C63.3571562,35.756 63.0661562,36.161 62.6821562,36.443 C62.2981562,36.725 61.8271562,36.866 61.2691562,36.866 Z M71.3829062,38.18 C72.3069062,38.18 73.0824062,37.9775 73.7094063,37.5725 C74.3364062,37.1675 74.8104062,36.605 75.1314062,35.885 C75.4524062,35.165 75.6129063,34.331 75.6129063,33.383 C75.6129063,32.339 75.4389063,31.454 75.0909062,30.728 C74.7429062,30.002 74.2524062,29.4515 73.6194062,29.0765 C72.9864062,28.7015 72.2409062,28.514 71.3829062,28.514 C70.4709062,28.514 69.6954062,28.7165 69.0564063,29.1215 C68.4174062,29.5265 67.9329063,30.095 67.6029062,30.827 C67.2729062,31.559 67.1079062,32.411 67.1079062,33.383 C67.1079062,34.415 67.2849062,35.288 67.6389062,36.002 C67.9929062,36.716 68.4909062,37.2575 69.1329062,37.6265 C69.7749063,37.9955 70.5249063,38.18 71.3829062,38.18 Z M71.3829062,36.866 C70.7649062,36.866 70.2639062,36.71 69.8799063,36.398 C69.4959063,36.086 69.2139063,35.663 69.0339063,35.129 C68.8539062,34.595 68.7639062,34.001 68.7639062,33.347 C68.7639062,32.609 68.8644063,31.976 69.0654062,31.448 C69.2664062,30.92 69.5619062,30.5165 69.9519063,30.2375 C70.3419062,29.9585 70.8189062,29.819 71.3829062,29.819 C71.9949062,29.819 72.4914062,29.975 72.8724063,30.287 C73.2534062,30.599 73.5309062,31.0205 73.7049062,31.5515 C73.8789062,32.0825 73.9659062,32.681 73.9659062,33.347 C73.9659062,34.073 73.8669062,34.7 73.6689062,35.228 C73.4709062,35.756 73.1799062,36.161 72.7959063,36.443 C72.4119063,36.725 71.9409062,36.866 71.3829062,36.866 Z M81.6586563,41.078 C83.2006562,41.078 84.3496562,40.811 85.1056563,40.277 C85.8616562,39.743 86.2396562,39.053 86.2396562,38.207 C86.2396562,37.463 85.9756562,36.872 85.4476562,36.434 C84.9196563,35.996 84.1666563,35.747 83.1886563,35.687 C82.7686563,35.657 82.3861562,35.633 82.0411563,35.615 C81.6961563,35.597 81.4066562,35.582 81.1726562,35.57 C80.5246562,35.522 80.0656563,35.465 79.7956563,35.399 C79.5256562,35.333 79.3906563,35.213 79.3906563,35.039 C79.3906563,34.889 79.5106562,34.7525 79.7506562,34.6295 C79.9906563,34.5065 80.4286563,34.436 81.0646563,34.418 C81.1426563,34.424 81.2371562,34.4285 81.3481562,34.4315 C81.4591562,34.4345 81.5506563,34.436 81.6226563,34.436 C82.4866562,34.436 83.2066562,34.304 83.7826563,34.04 C84.3586562,33.776 84.7891562,33.422 85.0741562,32.978 C85.3591562,32.534 85.5016562,32.039 85.5016562,31.493 C85.5016562,31.295 85.4731562,31.082 85.4161563,30.854 C85.3591562,30.626 85.2856563,30.416 85.1956563,30.224 L85.1956563,30.224 L86.8246563,29.918 L86.8336562,28.379 C86.7016562,28.427 86.5261562,28.4975 86.3071562,28.5905 C86.0881562,28.6835 85.8526562,28.781 85.6006562,28.883 C85.3486562,28.985 85.1191563,29.0795 84.9121563,29.1665 C84.7051563,29.2535 84.5536563,29.318 84.4576563,29.36 C84.1036563,29.102 83.7196562,28.9025 83.3056562,28.7615 C82.8916562,28.6205 82.3816562,28.55 81.7756562,28.55 C80.9416562,28.55 80.2216562,28.6685 79.6156563,28.9055 C79.0096563,29.1425 78.5431563,29.483 78.2161563,29.927 C77.8891563,30.371 77.7256563,30.893 77.7256563,31.493 C77.7256563,32.027 77.8786563,32.522 78.1846562,32.978 C78.4906563,33.434 78.9166563,33.8 79.4626563,34.076 C78.9226563,34.196 78.5146563,34.379 78.2386562,34.625 C77.9626562,34.871 77.8246563,35.141 77.8246563,35.435 C77.8246563,35.675 77.8816562,35.87 77.9956562,36.02 C78.1096563,36.17 78.2431562,36.29 78.3961562,36.38 C78.5491562,36.47 78.6766563,36.545 78.7786563,36.605 C78.7246563,36.647 78.6046563,36.7145 78.4186562,36.8075 C78.2326562,36.9005 78.0316562,37.025 77.8156562,37.181 C77.5996562,37.337 77.4136563,37.5335 77.2576562,37.7705 C77.1016562,38.0075 77.0236562,38.294 77.0236562,38.63 C77.0236562,39.416 77.4301562,40.0205 78.2431562,40.4435 C79.0561563,40.8665 80.1946563,41.078 81.6586563,41.078 Z M81.6676562,33.365 C80.9476562,33.365 80.3896563,33.203 79.9936563,32.879 C79.5976562,32.555 79.3996562,32.099 79.3996562,31.511 C79.3996562,30.887 79.6081563,30.4085 80.0251563,30.0755 C80.4421562,29.7425 80.9896562,29.576 81.6676562,29.576 C82.3396562,29.576 82.8811563,29.741 83.2921563,30.071 C83.7031563,30.401 83.9086563,30.881 83.9086563,31.511 C83.9086563,32.123 83.7031563,32.585 83.2921563,32.897 C82.8811563,33.209 82.3396562,33.365 81.6676562,33.365 Z M81.9556563,40.007 C80.8396562,40.007 80.0131562,39.869 79.4761563,39.593 C78.9391562,39.317 78.6706563,38.933 78.6706563,38.441 C78.6706563,38.153 78.7591563,37.895 78.9361563,37.667 C79.1131563,37.439 79.3276563,37.2605 79.5796562,37.1315 C79.8316563,37.0025 80.0746563,36.944 80.3086563,36.956 L80.3086563,36.956 L82.9186562,37.127 C83.4886562,37.163 83.9131563,37.2995 84.1921563,37.5365 C84.4711563,37.7735 84.6106563,38.078 84.6106563,38.45 C84.6106563,38.972 84.3826562,39.362 83.9266563,39.62 C83.4706563,39.878 82.8136563,40.007 81.9556563,40.007 Z M91.2594063,38.117 C91.3794063,38.117 91.5144063,38.1035 91.6644063,38.0765 C91.8144063,38.0495 91.9584062,38.015 92.0964063,37.973 L92.0964063,37.973 L92.0964063,36.893 L91.5924063,36.884 C91.2624062,36.86 91.0059062,36.731 90.8229062,36.497 C90.6399062,36.263 90.5484062,35.912 90.5484062,35.444 L90.5484062,35.444 L90.5484062,24.626 L88.9104062,24.626 L88.9104062,35.606 C88.9104062,35.93 88.9389063,36.2435 88.9959062,36.5465 C89.0529063,36.8495 89.1639062,37.118 89.3289062,37.352 C89.4939062,37.586 89.7309063,37.772 90.0399063,37.91 C90.3489062,38.048 90.7554063,38.117 91.2594063,38.117 Z M98.0212188,38.18 C98.6212187,38.18 99.1972188,38.0705 99.7492188,37.8515 C100.301219,37.6325 100.772219,37.307 101.162219,36.875 C101.552219,36.443 101.804219,35.912 101.918219,35.282 L101.918219,35.282 L100.343219,35.282 C100.223219,35.804 99.9487187,36.203 99.5197188,36.479 C99.0907188,36.755 98.5792187,36.893 97.9852188,36.893 C97.3852188,36.893 96.8857187,36.752 96.4867187,36.47 C96.0877187,36.188 95.7907187,35.8085 95.5957188,35.3315 C95.4007188,34.8545 95.3032188,34.322 95.3032188,33.734 L95.3032188,33.734 L101.972219,33.734 L101.972219,33.122 C101.972219,32.18 101.814719,31.3655 101.499719,30.6785 C101.184719,29.9915 100.724219,29.459 100.118219,29.081 C99.5122188,28.703 98.7712188,28.514 97.8952187,28.514 C96.9952187,28.514 96.2257187,28.721 95.5867188,29.135 C94.9477188,29.549 94.4602187,30.125 94.1242188,30.863 C93.7882187,31.601 93.6202187,32.459 93.6202187,33.437 C93.6202187,34.427 93.8062187,35.276 94.1782188,35.984 C94.5502187,36.692 95.0662188,37.235 95.7262188,37.613 C96.3862188,37.991 97.1512187,38.18 98.0212188,38.18 Z M100.370219,32.609 L95.3122187,32.609 C95.3062187,32.147 95.3977188,31.6985 95.5867188,31.2635 C95.7757188,30.8285 96.0607188,30.4715 96.4417188,30.1925 C96.8227188,29.9135 97.3042188,29.774 97.8862188,29.774 C98.4442188,29.774 98.9077188,29.8985 99.2767188,30.1475 C99.6457188,30.3965 99.9202188,30.7355 100.100219,31.1645 C100.280219,31.5935 100.370219,32.075 100.370219,32.609 L100.370219,32.609 Z M110.332375,38 L110.332375,33.185 L113.248375,33.185 C114.160375,33.185 114.961375,33.026 115.651375,32.708 C116.341375,32.39 116.879875,31.925 117.266875,31.313 C117.653875,30.701 117.847375,29.963 117.847375,29.099 C117.847375,28.205 117.638875,27.452 117.221875,26.84 C116.804875,26.228 116.233375,25.766 115.507375,25.454 C114.781375,25.142 113.953375,24.986 113.023375,24.986 L113.023375,24.986 L108.622375,24.986 L108.622375,38 L110.332375,38 Z M113.212375,31.781 L110.323375,31.781 L110.323375,26.372 L113.131375,26.372 C114.043375,26.372 114.787375,26.594 115.363375,27.038 C115.939375,27.482 116.227375,28.136 116.227375,29 C116.227375,29.858 115.948375,30.536 115.390375,31.034 C114.832375,31.532 114.106375,31.781 113.212375,31.781 L113.212375,31.781 Z M122.086094,38.117 C122.206094,38.117 122.341094,38.1035 122.491094,38.0765 C122.641094,38.0495 122.785094,38.015 122.923094,37.973 L122.923094,37.973 L122.923094,36.893 L122.419094,36.884 C122.089094,36.86 121.832594,36.731 121.649594,36.497 C121.466594,36.263 121.375094,35.912 121.375094,35.444 L121.375094,35.444 L121.375094,24.626 L119.737094,24.626 L119.737094,35.606 C119.737094,35.93 119.765594,36.2435 119.822594,36.5465 C119.879594,36.8495 119.990594,37.118 120.155594,37.352 C120.320594,37.586 120.557594,37.772 120.866594,37.91 C121.175594,38.048 121.582094,38.117 122.086094,38.117 Z M127.578906,38.18 C128.244906,38.18 128.855406,38.0405 129.410406,37.7615 C129.965406,37.4825 130.422906,36.98 130.782906,36.254 L130.782906,36.254 L130.899906,38 L132.321906,38 L132.321906,31.502 C132.321906,30.854 132.188406,30.308 131.921406,29.864 C131.654406,29.42 131.252406,29.084 130.715406,28.856 C130.178406,28.628 129.504906,28.514 128.694906,28.514 C127.944906,28.514 127.295406,28.622 126.746406,28.838 C126.197406,29.054 125.769906,29.3705 125.463906,29.7875 C125.157906,30.2045 124.986906,30.716 124.950906,31.322 L124.950906,31.322 L126.417906,31.322 C126.537906,30.764 126.800406,30.362 127.205406,30.116 C127.610406,29.87 128.079906,29.744 128.613906,29.738 C129.333906,29.738 129.864906,29.9045 130.206906,30.2375 C130.548906,30.5705 130.719906,31.022 130.719906,31.592 L130.719906,31.592 L130.719906,32.321 L129.054906,32.366 C127.464906,32.402 126.309906,32.672 125.589906,33.176 C124.869906,33.68 124.509906,34.448 124.509906,35.48 C124.509906,36.05 124.640406,36.536 124.901406,36.938 C125.162406,37.34 125.523906,37.6475 125.985906,37.8605 C126.447906,38.0735 126.978906,38.18 127.578906,38.18 Z M128.082906,36.983 C127.506906,36.983 127.037406,36.836 126.674406,36.542 C126.311406,36.248 126.129906,35.84 126.129906,35.318 C126.129906,34.862 126.248406,34.493 126.485406,34.211 C126.722406,33.929 127.079406,33.722 127.556406,33.59 C128.033406,33.458 128.625906,33.386 129.333906,33.374 L129.333906,33.374 L130.719906,33.347 L130.719906,34.94 C130.713906,35.198 130.634406,35.4485 130.481406,35.6915 C130.328406,35.9345 130.122906,36.1535 129.864906,36.3485 C129.606906,36.5435 129.323406,36.698 129.014406,36.812 C128.705406,36.926 128.394906,36.983 128.082906,36.983 Z M135.788875,40.97 C136.214875,40.97 136.609375,40.904 136.972375,40.772 C137.335375,40.64 137.665375,40.4105 137.962375,40.0835 C138.259375,39.7565 138.527875,39.296 138.767875,38.702 L138.767875,38.702 L142.691875,28.694 L141.062875,28.694 L138.335875,35.876 L135.590875,28.694 L133.907875,28.694 L137.543875,37.775 L137.219875,38.657 C137.171875,38.771 137.110375,38.891 137.035375,39.017 C136.960375,39.143 136.853875,39.257 136.715875,39.359 C136.577875,39.461 136.394875,39.5435 136.166875,39.6065 C135.938875,39.6695 135.650875,39.692 135.302875,39.674 L135.302875,39.674 L134.357875,39.656 L134.357875,40.736 C134.357875,40.736 134.459875,40.775 134.663875,40.853 C134.867875,40.931 135.242875,40.97 135.788875,40.97 Z" id="GooglePlay" fill="#FFFFFF" fill-rule="nonzero"></path>
        <path d="M11.6166206,9.37693196 C11.6129695,9.3801809 11.6093325,9.38344987 11.6057096,9.38673885 L11.6267716,9.36643102 C11.9023174,9.12766516 12.2552018,9 12.6604771,9 C13.0557174,9 13.5012397,9.12176785 13.9713184,9.37996078 L31.0531838,18.7380452 L36.7748135,21.8724397 C38.4083955,22.7676589 38.4083955,24.233383 36.7748135,25.1297296 L31.0531838,28.2641241 L30.9751768,28.3057318 L13.9713184,37.6210811 C13.2613469,38.0100845 12.6077192,38.0889745 12.0956758,37.906262 C11.9223614,37.8444241 11.7652326,37.7525865 11.6276394,37.6326467 L11.6051196,37.6126066 C11.5833697,37.5928497 11.5621283,37.5723707 11.5414091,37.5511773 C11.2011282,37.2050409 11,36.667233 11,35.9681953 L11,11.0328465 C11,10.3349364 11.2011282,9.79600092 11.5414091,9.44873706 C11.6239369,9.37045413 11.6202717,9.37368303 11.6166206,9.37693196 C11.5908405,9.3998724 11.5657627,9.42381188 11.5414091,9.44873706 L26.1150186,23.5005209 L11.5414091,37.5511773 L31.0531838,18.7380452 L26.1150186,23.5005209 L11.6166206,9.37693196 Z" id="Icon" stroke="#1A1A1A" stroke-width="0.8" fill="#FFFFFF"></path>
    </g>
</svg>