<svg xmlns="http://www.w3.org/2000/svg" width="153" height="48" fill-rule="evenodd" xmlns:v="https://vecta.io/nano">
    <path d="M4 0h145a4 4 0 0 1 4 4v40a4 4 0 0 1-4 4H4a4 4 0 0 1-4-4V4a4 4 0 0 1 4-4z" fill="#1a1a1a"/>
    <g fill="#fff">
        <path d="M47.332 18.62c.46 0 .857-.068 1.2-.204s.617-.314.85-.534.424-.454.576-.702h0v1.32h.834v-4.476l-3.264-.006v.816h2.112l-.036.768c-.008.216-.06.44-.16.675a2.34 2.34 0 0 1-.417.654 2.09 2.09 0 0 1-.675.495c-.27.128-.587.192-.95.192a2.56 2.56 0 0 1-1.005-.195 2.12 2.12 0 0 1-.81-.606c-.23-.274-.4-.63-.537-1.07s-.192-.968-.192-1.584c0-.8.105-1.456.315-1.968s.504-.9.882-1.137a2.36 2.36 0 0 1 1.317-.369c.368 0 .7.084.993.252s.537.4.73.666a2.22 2.22 0 0 1 .372.894h1.188c-.024-.364-.125-.714-.303-1.05a3.18 3.18 0 0 0-.711-.897c-.296-.262-.636-.47-1.02-.62a3.31 3.31 0 0 0-1.23-.228c-.764 0-1.426.177-1.986.53s-1 .865-1.293 1.533-.453 1.474-.453 2.418c0 .936.148 1.734.444 2.394s.72 1.165 1.272 1.515 1.208.525 1.968.525zm7.985 0c.4 0 .784-.073 1.152-.22s.682-.363.942-.65.428-.642.504-1.062h0-1.05a1.24 1.24 0 0 1-.549.798c-.286.184-.627.276-1.023.276s-.733-.094-1-.282a1.69 1.69 0 0 1-.594-.759 2.79 2.79 0 0 1-.195-1.065h4.446v-.408c0-.628-.105-1.17-.315-1.63a2.4 2.4 0 0 0-.921-1.065c-.404-.252-.898-.378-1.482-.378-.6 0-1.113.138-1.54.414s-.75.66-.975 1.152-.336 1.064-.336 1.716c0 .66.124 1.226.372 1.698s.592.834 1.032 1.086.95.378 1.53.378zm1.566-3.714H53.5c-.004-.308.057-.607.183-.897a1.72 1.72 0 0 1 .57-.714c.254-.186.575-.28.963-.28.372 0 .68.083.927.25s.43.392.55.678.18.607.18.963h0zm4.66 3.63c.228 0 .42-.01.573-.033a1.81 1.81 0 0 0 .345-.075h0v-.744h-.678a1.92 1.92 0 0 1-.453-.042c-.1-.028-.188-.093-.234-.195s-.07-.263-.07-.483h0v-3.858h1.398V12.3h-1.398v-1.8H60.2l-.27 1.806h-1.038v.8H59.9V17c0 .332.047.612.14.84s.26.4.495.52.568.177.996.177zM68 10.982V9.83h-1.134v1.152H68zm-.024 7.518v-6.204h-1.074V18.5h1.074zm4.302.036c.228 0 .42-.01.573-.033a1.81 1.81 0 0 0 .345-.075h0v-.744h-.678a1.92 1.92 0 0 1-.453-.042c-.1-.028-.188-.093-.234-.195s-.07-.263-.07-.483h0v-3.858h1.398V12.3H71.76v-1.8h-.816l-.27 1.806h-1.038v.8h1.008V17c0 .332.047.612.14.84s.26.4.495.52.568.177.996.177zm7.553.084c.616 0 1.133-.135 1.55-.405a2.53 2.53 0 0 0 .948-1.125c.214-.48.32-1.036.32-1.668 0-.696-.116-1.286-.348-1.77a2.49 2.49 0 0 0-.981-1.101c-.422-.25-.92-.375-1.5-.375-.608 0-1.125.135-1.55.405a2.55 2.55 0 0 0-.969 1.137c-.22.488-.33 1.056-.33 1.704 0 .688.118 1.27.354 1.746s.568.837.996 1.083.928.37 1.5.37zm0-.876c-.412 0-.746-.104-1.002-.312s-.444-.5-.564-.846a3.66 3.66 0 0 1-.18-1.188c0-.492.067-.914.2-1.266s.33-.62.6-.807.578-.28.954-.28c.408 0 .74.104.993.312s.44.5.555.843a3.86 3.86 0 0 1 .174 1.197c0 .484-.066.902-.198 1.254s-.326.622-.582.8-.57.282-.942.282zm5.38.756v-4.146c0-.276.076-.505.228-.687s.35-.318.594-.408.506-.135.786-.135c.404 0 .733.117.987.35s.38.593.38 1.077h0v3.95h1.1v-4.056c0-.52-.1-.945-.297-1.275a1.82 1.82 0 0 0-.792-.73 2.5 2.5 0 0 0-1.083-.234c-.332 0-.625.046-.88.138s-.47.214-.648.366-.317.314-.417.486h0v-.9h-1.074V18.5H85.2zM49.498 36.68c.7 0 1.285-.102 1.787-.306s.925-.47 1.273-.8a5.2 5.2 0 0 0 .864-1.053h0v1.98h1.25v-6.714l-4.896-.01V31h3.168l-.054 1.152a2.9 2.9 0 0 1-.238 1.013c-.147.35-.356.678-.626.98s-.608.55-1.013.742-.88.288-1.426.288a3.86 3.86 0 0 1-1.508-.292 3.18 3.18 0 0 1-1.215-.909c-.345-.4-.613-.946-.805-1.606s-.288-1.452-.288-2.376c0-1.2.157-2.184.473-2.952s.756-1.337 1.323-1.706 1.225-.553 1.975-.553c.552 0 1.05.126 1.5.378s.806.585 1.093 1a3.33 3.33 0 0 1 .558 1.341h1.782c-.036-.546-.187-1.07-.455-1.575a4.77 4.77 0 0 0-1.066-1.346 5.14 5.14 0 0 0-1.53-.931c-.576-.228-1.2-.342-1.845-.342-1.146 0-2.14.265-2.98.796s-1.486 1.297-1.94 2.3-.68 2.2-.68 3.627c0 1.404.222 2.6.666 3.6s1.08 1.748 1.908 2.273 1.812.788 2.952.788zm11.77 0c.924 0 1.7-.203 2.327-.608s1.1-.968 1.422-1.687.48-1.554.48-2.502c0-1.044-.174-1.93-.522-2.655s-.84-1.277-1.472-1.652-1.378-.562-2.236-.562c-.912 0-1.687.203-2.326.608s-1.123.973-1.454 1.706-.495 1.584-.495 2.556c0 1.032.177 1.905.53 2.62s.852 1.255 1.494 1.624 1.392.553 2.25.553zm0-1.314c-.618 0-1.12-.156-1.503-.468s-.666-.735-.846-1.27-.27-1.128-.27-1.782c0-.738.1-1.37.302-1.9s.496-.93.886-1.2.867-.42 1.43-.42c.612 0 1.108.156 1.5.468s.66.733.833 1.265.26 1.13.26 1.796c0 .726-.1 1.353-.297 1.88s-.5.933-.873 1.215-.855.423-1.413.423zm10.114 1.314c.924 0 1.7-.203 2.327-.608s1.1-.968 1.422-1.687.482-1.554.482-2.502c0-1.044-.174-1.93-.522-2.655s-.84-1.277-1.472-1.652-1.38-.562-2.237-.562c-.912 0-1.687.203-2.326.608s-1.124.973-1.454 1.706-.495 1.584-.495 2.556c0 1.032.177 1.905.53 2.62s.852 1.255 1.494 1.624 1.392.553 2.25.553zm0-1.314c-.618 0-1.12-.156-1.503-.468s-.666-.735-.846-1.27-.27-1.128-.27-1.782c0-.738.1-1.37.302-1.9s.496-.93.887-1.2.867-.42 1.43-.42c.612 0 1.1.156 1.5.468s.658.733.832 1.265.26 1.13.26 1.796c0 .726-.1 1.353-.297 1.88s-.5.933-.873 1.215-.855.423-1.413.423zm10.276 4.212c1.542 0 2.7-.267 3.447-.8s1.134-1.224 1.134-2.07c0-.744-.264-1.335-.792-1.773s-1.28-.687-2.26-.747l-1.148-.072-.87-.045-1.377-.17c-.27-.065-.405-.186-.405-.36 0-.15.12-.287.36-.4s.678-.194 1.314-.212l.283.014.275.005c.864 0 1.584-.132 2.16-.396s1.006-.618 1.3-1.062a2.69 2.69 0 0 0 .427-1.485 2.66 2.66 0 0 0-.085-.64c-.057-.23-.13-.438-.22-.63h0l1.63-.306.01-1.54-.526.2-.706.293-.688.284-.455.194c-.354-.258-.738-.457-1.152-.598s-.924-.212-1.53-.212c-.834 0-1.554.12-2.16.355s-1.072.578-1.4 1.02-.5.966-.5 1.566c0 .534.153 1.03.46 1.485s.732.822 1.278 1.098c-.54.12-.948.303-1.224.55s-.414.516-.414.8c0 .24.057.435.17.585a1.38 1.38 0 0 0 .4.36l.383.225a2.63 2.63 0 0 1-.36.203 4.43 4.43 0 0 0-.603.373 2.23 2.23 0 0 0-.558.59c-.156.237-.234.523-.234.86 0 .786.406 1.4 1.22 1.813s1.952.635 3.416.635zm.01-7.713c-.72 0-1.278-.162-1.674-.486s-.594-.78-.594-1.368c0-.624.2-1.102.626-1.435s.964-.5 1.642-.5c.672 0 1.214.165 1.625.495s.617.8.617 1.44c0 .612-.206 1.074-.617 1.386s-.953.468-1.625.468zm.288 6.642c-1.116 0-1.943-.138-2.48-.414s-.805-.66-.805-1.152a1.23 1.23 0 0 1 .265-.774 1.9 1.9 0 0 1 .643-.535 1.44 1.44 0 0 1 .73-.175h0l2.6.17c.57.036.995.172 1.274.4s.42.542.42.914a1.26 1.26 0 0 1-.684 1.17c-.456.258-1.113.387-1.97.387zm9.304-1.9a2.31 2.31 0 0 0 .405-.04c.15-.027.294-.062.432-.104h0v-1.08l-.504-.01c-.33-.024-.587-.153-.77-.387s-.275-.585-.275-1.053h0V23.126H88.9v10.98a5.25 5.25 0 0 0 .085.94 2.03 2.03 0 0 0 .333.805c.165.234.402.42.7.558s.716.207 1.22.207zm6.762.063c.6 0 1.176-.1 1.728-.328a3.73 3.73 0 0 0 1.413-.977c.4-.432.642-.963.756-1.593h0-1.575c-.12.522-.395.92-.824 1.197s-.94.414-1.535.414-1.1-.14-1.5-.423a2.51 2.51 0 0 1-.89-1.14c-.194-.48-.293-1-.293-1.597h6.67v-.612c0-.942-.157-1.756-.472-2.443s-.775-1.22-1.382-1.598-1.347-.567-2.223-.567c-.9 0-1.67.207-2.308.62s-1.127 1-1.463 1.728-.504 1.596-.504 2.574c0 1 .186 1.84.558 2.547a3.94 3.94 0 0 0 1.548 1.629c.66.378 1.425.567 2.295.567zm2.35-5.57h-5.058a3.24 3.24 0 0 1 .275-1.346 2.56 2.56 0 0 1 .855-1.07c.38-.278.862-.418 1.444-.418.558 0 1.022.124 1.4.373a2.25 2.25 0 0 1 .824 1.017 3.7 3.7 0 0 1 .27 1.445h0zm9.962 5.4v-4.815h2.916c.912 0 1.713-.16 2.403-.477a3.68 3.68 0 0 0 1.615-1.395c.387-.612.58-1.35.58-2.214 0-.894-.2-1.647-.626-2.26s-1-1.074-1.715-1.386-1.554-.468-2.484-.468h0-4.4V36.5h1.7zm2.88-6.22h-2.9v-5.4h2.808c.912 0 1.656.222 2.232.666s.864 1.098.864 1.962c0 .858-.28 1.536-.837 2.034s-1.284.747-2.178.747h0zm8.874 6.336a2.31 2.31 0 0 0 .405-.04c.15-.027.294-.062.432-.104h0v-1.08l-.504-.01c-.33-.024-.587-.153-.77-.387s-.274-.585-.274-1.053h0V23.126h-1.638v10.98c0 .324.028.637.085.94a2.03 2.03 0 0 0 .333.805c.165.234.402.42.7.558s.715.207 1.22.207zm5.493.063a4.02 4.02 0 0 0 1.831-.419c.555-.28 1.013-.782 1.373-1.508h0l.117 1.746h1.422V30c0-.648-.134-1.194-.4-1.638s-.67-.78-1.206-1.008-1.2-.342-2.02-.342c-.75 0-1.4.108-1.95.324s-.976.532-1.282.95-.477.928-.513 1.534h1.467c.12-.558.382-.96.787-1.206s.874-.372 1.408-.378c.72 0 1.25.166 1.593.5s.513.784.513 1.354h0v.73l-1.665.045c-1.6.036-2.745.306-3.465.8s-1.08 1.272-1.08 2.304c0 .57.13 1.056.4 1.458s.623.7 1.085.922.993.32 1.593.32zm.504-1.197c-.576 0-1.046-.147-1.4-.44s-.544-.702-.544-1.224c0-.456.118-.825.355-1.107s.594-.5 1.07-.62 1.07-.204 1.778-.216h0l1.386-.027v1.593a1.44 1.44 0 0 1-.24.752 2.49 2.49 0 0 1-.617.657 3.29 3.29 0 0 1-.85.463c-.3.114-.62.17-.93.17zm7.706 3.987c.426 0 .82-.066 1.184-.198s.693-.36 1-.688.565-.788.805-1.382h0l3.924-10.008h-1.63l-2.727 7.182-2.745-7.182h-1.683l3.636 9.08-.324.882a2.94 2.94 0 0 1-.185.36 1.18 1.18 0 0 1-.319.342c-.138.102-.32.184-.55.247s-.516.086-.864.068h0l-.945-.018v1.08l.306.117c.204.078.58.117 1.125.117z"
              fill-rule="nonzero"/>
        <path d="M11.617 9.377l.01-.01c.276-.24.628-.366 1.034-.366.395 0 .84.122 1.31.38l22.803 12.492c1.634.895 1.634 2.36 0 3.257l-5.722 3.134-.078.042L13.97 37.62c-.7.39-1.364.468-1.876.285a1.45 1.45 0 0 1-.468-.274l-.023-.02-.064-.06c-.34-.346-.54-.884-.54-1.583V11.033c0-.698.2-1.237.54-1.584l.075-.072-.075.072L26.115 23.5 11.54 37.55 26.115 23.5 11.617 9.377z"
              stroke="#1a1a1a" stroke-width=".8"/>
    </g>
</svg>