<?xml version="1.0" encoding="UTF-8"?>
<svg width="200px" height="45px" viewBox="0 0 200 45" version="1.1" xmlns="http://www.w3.org/2000/svg" xmlns:xlink="http://www.w3.org/1999/xlink">
    <title>atoms/branding/LogoColor</title>
    <g id="Page-1" stroke="none" stroke-width="1" fill="none" fill-rule="evenodd">
        <g id="JS---Exploration-X---Large-V2---Public-Sans" transform="translate(-150.000000, -60.000000)">
            <g id="Group-49" transform="translate(150.000000, 60.000000)">
                <polygon id="Fill-1" fill="#00925B" points="0 45 44.6215139 45 44.6215139 0 0 0"></polygon>
                <g id="Group-48" transform="translate(3.984064, 4.922679)">
                    <path d="M30.8867729,6.9384375 C28.1274104,8.57611607 27.2827888,8.71352679 24.2796016,10.5239732 C26.0286056,8.61227679 26.6357769,7.7990625 27.716255,6.19834821 C24.9505179,6.34620536 20.929004,6.68209821 18.0588845,7.32334821 C20.5576892,5.97736607 25.5122709,4.47950893 28.1274104,4.12433036 C27.520239,3.27897321 22.6118725,0.5990625 21.3911554,0.0823660714 C25.2772112,0.387723214 30.027012,1.85183036 32.3298008,3.27174107 C33.2357769,2.98647321 34.1768127,2.97200893 35.8636653,2.8209375 C35.4341833,3.56504464 35.4158566,3.99415179 33.7608765,5.10147321 C34.2198406,6.3365625 33.1250199,13.1339732 32.2206375,14.9347768 C32.1879681,12.0917411 31.9409562,8.49977679 30.8867729,6.9384375" id="Fill-2" fill="#FEFEFE"></path>
                    <path d="M10.6777689,31.3241786 C9.09211155,30.7319464 7.95027888,30.0400714 6.69211155,28.8556071 C7.06900398,27.8069464 7.49848606,26.9889107 8.19888446,25.9378393 C6.90964143,26.1323036 5.95984064,26.2801607 4.84828685,26.4915 C3.94390438,24.8956071 3.53354582,23.3551607 3.07378486,21.2112321 C2.82677291,23.4829286 2.73354582,25.1069464 3.0514741,26.9149821 C2.03155378,27.20025 1.30964143,27.4493571 0.47059761,27.8318571 C1.64669323,28.5566786 2.59569721,29.1151607 3.90804781,29.7339107 C4.6140239,31.2574821 5.34310757,32.2892679 6.5263745,33.4665 C6.24908367,32.4636429 6.17577689,31.6681071 6.28972112,30.614625 C7.75585657,31.0461429 9.01163347,31.2735536 10.6777689,31.3241786" id="Fill-4" fill="#FEFEFE"></path>
                    <path d="M14.807012,8.71778571 L14.807012,8.71778571 C14.312988,9.36466071 13.7400797,10.5708214 13.5847012,11.1301071 C17.6731474,11.6893929 20.9520319,13.8068036 20.9520319,13.8068036 C17.3783267,13.1671607 15.4946614,13.2467143 14.1607968,13.36725 C12.8356972,13.4934107 12.5631873,13.6509107 12.5631873,13.6509107 C11.5998406,15.7819821 11.0205578,19.4390357 11.0205578,19.4390357 C10.3711554,17.8576071 9.43091633,14.6923393 9.43091633,14.6923393 C7.62693227,15.6654643 3.4787251,19.5989464 3.4787251,19.5989464 C5.75920319,14.992875 8.07394422,12.8971607 8.07394422,12.8971607 C7.27792829,12.0831429 5.18948207,11.6773393 3.66199203,11.6098393 C4.4540239,11.2835893 6.48908367,10.9002857 8.05163347,10.8287679 C9.61657371,10.7837679 10.5631873,10.8737679 10.5631873,10.8737679 C11.9584064,9.76242857 14.0771315,8.82626786 14.807012,8.71778571" id="Fill-6" fill="#FEFEFE"></path>
                    <path d="M19.1431873,28.4688482 C18.4220717,29.4556339 17.8005578,30.2302768 17.0005578,31.1334911 C15.625259,31.5216161 14.5280478,31.6678661 13.1862151,31.6678661 C14.0101195,32.0945625 14.8069323,32.3517054 15.6658964,32.5341161 C14.8069323,33.3167946 14.0810359,33.8760804 13.2475697,34.4096518 C14.6451793,34.0761696 16.4826295,33.4775089 17.850757,32.6618839 C18.565498,32.6908125 19.2340239,32.6450089 19.7232669,32.5453661 C19.5965737,32.1275089 19.5176892,31.8173304 19.4133068,31.2733125 C20.701753,30.2672411 21.638008,29.3559911 22.7089243,28.2607232 C21.5678884,29.0650982 20.5846215,29.6637589 19.2627092,30.2921518 C19.2077291,29.6782232 19.1742629,29.1599196 19.1431873,28.4688482" id="Fill-8" fill="#FEFEFE"></path>
                    <path d="M56.1595219,23.4760179 C55.6989641,23.4760179 55.2368127,23.5105714 55.0073307,23.5467321 C54.954741,24.7986964 54.9356175,25.407 54.9356175,26.8365536 C54.9356175,28.5722679 54.9356175,29.2159286 55.0073307,30.59325 L56.3905976,30.59325 C58.0224701,30.59325 58.801753,30.1095 58.801753,29.1090536 C58.801753,27.9993214 57.7921912,27.4810179 56.4615139,27.4810179 L55.6631076,27.4810179 L56.2129084,26.0337857 L56.7977689,26.0337857 C57.4718725,26.0337857 58.3770518,25.6753929 58.3770518,24.7986964 C58.3770518,23.8689643 57.541992,23.4760179 56.1595219,23.4760179 L56.1595219,23.4760179 Z M57.614502,22.2586071 C59.3866135,22.2586071 61.3196813,22.9030714 61.3196813,24.5471786 C61.3196813,25.4415536 60.5587251,26.2467321 59.4232669,26.6412857 C60.929243,27.1941429 61.8001594,28.0708393 61.8001594,29.2159286 C61.8001594,31.2200357 59.3866135,31.8974464 57.1172908,31.8974464 L51.9212749,31.8974464 C52.0463745,30.6462857 52.0806375,28.8414643 52.0806375,26.8365536 C52.0806375,25.5146786 52.0631076,23.5105714 51.9396016,22.2586071 L57.614502,22.2586071 Z" id="Fill-10" fill="#1D1D1B"></path>
                    <path d="M72.332749,22.2584464 C72.2443028,23.3496964 72.1901195,25.8889821 72.1901195,26.8363929 C72.1901195,27.7146964 72.2100398,30.5754107 72.332749,31.8980893 L70.081753,31.8980893 L66.4634263,26.5149643 C66.1622311,26.0866607 65.9486853,25.6752321 65.860239,25.1914821 L65.860239,28.249875 C65.860239,29.4118393 65.8960956,31.0583571 66.0012749,31.8980893 L63.4315538,31.8980893 C63.5893227,30.432375 63.6076494,27.6785357 63.6076494,26.8363929 C63.6076494,25.9259464 63.5542629,23.3496964 63.4849402,22.2584464 L66.4100398,22.2584464 L69.460239,27.2671071 C69.6196016,27.5170179 69.6737849,27.6415714 69.7431076,27.8569286 L69.7431076,22.2584464 L72.332749,22.2584464 Z" id="Fill-12" fill="#1D1D1B"></path>
                    <path d="M77.5828685,23.5996071 C77.5828685,24.2263929 77.5486056,24.8708571 77.5486056,25.4960357 C77.5486056,25.9605 77.5645418,26.3180893 77.5828685,26.6588036 C77.6896414,26.6764821 78.1844622,26.6764821 78.5039841,26.6764821 C79.5159363,26.6764821 80.9175299,26.3920179 80.9175299,25.0838036 C80.9175299,23.8157679 79.4792829,23.581125 78.398008,23.581125 C78.2561753,23.581125 77.725498,23.581125 77.5828685,23.5996071 L77.5828685,23.5996071 Z M79.3023904,22.2584464 C81.3780876,22.2584464 83.8784861,22.8490714 83.8784861,25.0838036 C83.8784861,27.05175 82.1039841,28.036125 78.5039841,28.036125 C78.2920319,28.036125 77.7055777,28.036125 77.5486056,28.0176429 C77.6171315,29.3588036 77.5996016,30.9852321 77.6896414,31.8980893 L74.5486056,31.8980893 C74.6737052,30.5754107 74.7103586,28.3945179 74.7103586,26.8363929 C74.7103586,25.459875 74.6737052,23.1713036 74.5486056,22.2584464 L79.3023904,22.2584464 Z" id="Fill-14" fill="#1D1D1B"></path>
                    <path d="M92.0530677,23.5996071 C92.0530677,24.2263929 92.0188048,24.8708571 92.0188048,25.4960357 C92.0188048,25.9605 92.034741,26.3180893 92.0530677,26.6588036 C92.1598406,26.6764821 92.656255,26.6764821 92.9741833,26.6764821 C93.9861355,26.6764821 95.3877291,26.3920179 95.3877291,25.0838036 C95.3877291,23.8157679 93.9502789,23.581125 92.8698008,23.581125 C92.7287649,23.581125 92.1956972,23.581125 92.0530677,23.5996071 L92.0530677,23.5996071 Z M93.7725896,22.2584464 C95.8490837,22.2584464 98.3478884,22.8490714 98.3478884,25.0838036 C98.3478884,27.05175 96.5749801,28.036125 92.9741833,28.036125 C92.7630279,28.036125 92.1781673,28.036125 92.0188048,28.0176429 C92.0881275,29.3588036 92.0713944,30.9852321 92.1598406,31.8980893 L89.0203984,31.8980893 C89.1439044,30.5754107 89.1805578,28.3945179 89.1805578,26.8363929 C89.1805578,25.459875 89.1439044,23.1713036 89.0203984,22.2584464 L93.7725896,22.2584464 Z" id="Fill-16" fill="#1D1D1B"></path>
                    <path d="M103.661355,28.3225179 C103.29004,27.3911786 102.774502,26.2292143 102.52749,25.4256429 C102.261355,26.2468929 101.694024,27.5173393 101.411155,28.3225179 C101.765737,28.3385893 102.243825,28.3570714 102.561753,28.3570714 C103.005578,28.3570714 103.23745,28.3385893 103.661355,28.3225179 L103.661355,28.3225179 Z M103.926693,22.2587679 C104.281275,23.4030536 107.439044,30.3443036 108.166534,31.8976071 L105.027888,31.8976071 C104.902789,31.5223393 104.65498,31.0040357 104.192829,29.7882321 C103.715538,29.7705536 103.21753,29.7705536 102.561753,29.7705536 C101.923506,29.7705536 101.462948,29.7882321 100.94741,29.8067143 C100.664542,30.5934107 100.415139,31.2193929 100.185657,31.8976071 L97.4549801,31.8976071 C97.987251,30.7018929 101.1251,23.7968036 101.694024,22.2587679 L103.926693,22.2587679 Z" id="Fill-18" fill="#1D1D1B"></path>
                    <path d="M114.036653,22.2584464 C116.129084,22.2584464 118.628685,23.0105893 118.628685,25.2469286 C118.628685,26.4434464 117.744223,27.3016607 116.358566,27.8569286 C116.643028,28.35675 118.966534,31.3990714 119.427092,31.8980893 L116.006375,31.8980893 C115.400797,30.736125 114.249402,28.733625 113.115538,27.0340714 C114.478884,27.2124643 115.667729,26.551125 115.667729,25.2284464 C115.667729,23.958 114.215139,23.581125 113.504382,23.581125 C113.184064,23.581125 112.584064,23.581125 112.369721,23.5996071 C112.317131,24.7816607 112.297211,26.1935357 112.297211,26.8363929 C112.297211,27.6785357 112.297211,30.432375 112.458964,31.8980893 L109.265339,31.8980893 C109.426295,30.4677321 109.460558,28.7697857 109.460558,26.8363929 C109.460558,25.2099643 109.441434,23.2420179 109.301195,22.2584464 L114.036653,22.2584464 Z" id="Fill-20" fill="#1D1D1B"></path>
                    <path d="M123.825578,22.2584464 C123.754661,23.3496964 123.701275,25.9259464 123.701275,26.854875 C123.701275,27.7146964 123.701275,30.5754107 123.825578,31.8980893 L120.668606,31.8980893 C120.827968,30.432375 120.847092,27.6785357 120.847092,26.854875 C120.847092,25.9444286 120.792112,23.3496964 120.723586,22.2584464 L123.825578,22.2584464 Z" id="Fill-22" fill="#1D1D1B"></path>
                    <path d="M130.121514,23.4760179 C129.660159,23.4760179 129.198008,23.5105714 128.968526,23.5467321 C128.915139,24.7986964 128.896016,25.407 128.896016,26.8365536 C128.896016,28.5722679 128.896016,29.2159286 128.968526,30.59325 L130.350996,30.59325 C131.984462,30.59325 132.762948,30.1095 132.762948,29.1090536 C132.762948,27.9993214 131.75259,27.4810179 130.422709,27.4810179 L129.6251,27.4810179 L130.174104,26.0337857 L130.758964,26.0337857 C131.432271,26.0337857 132.336653,25.6753929 132.336653,24.7986964 C132.336653,23.8689643 131.503984,23.4760179 130.121514,23.4760179 L130.121514,23.4760179 Z M131.575697,22.2586071 C133.347809,22.2586071 135.28247,22.9030714 135.28247,24.5471786 C135.28247,25.4415536 134.520717,26.2467321 133.383665,26.6412857 C134.891235,27.1941429 135.759761,28.0708393 135.759761,29.2159286 C135.759761,31.2200357 133.347809,31.8974464 131.076892,31.8974464 L125.88247,31.8974464 C126.00757,30.6462857 126.041833,28.8414643 126.041833,26.8365536 C126.041833,25.5146786 126.0251,23.5105714 125.9,22.2586071 L131.575697,22.2586071 Z" id="Fill-24" fill="#1D1D1B"></path>
                    <path d="M142.321912,28.3225179 C141.949801,27.3911786 141.43506,26.2292143 141.186454,25.4256429 C140.920319,26.2468929 140.353785,27.5173393 140.070916,28.3225179 C140.423108,28.3385893 140.903586,28.3570714 141.221514,28.3570714 C141.664542,28.3570714 141.897211,28.3385893 142.321912,28.3225179 L142.321912,28.3225179 Z M142.588048,22.2587679 C142.942629,23.4030536 146.099602,30.3443036 146.825498,31.8976071 L143.688446,31.8976071 C143.563347,31.5223393 143.313944,31.0040357 142.853386,29.7882321 C142.374502,29.7705536 141.878088,29.7705536 141.221514,29.7705536 C140.583267,29.7705536 140.121912,29.7882321 139.608765,29.8067143 C139.325896,30.5934107 139.075697,31.2193929 138.846215,31.8976071 L136.114741,31.8976071 C136.647012,30.7018929 139.785657,23.7968036 140.353785,22.2587679 L142.588048,22.2587679 Z" id="Fill-26" fill="#1D1D1B"></path>
                    <path d="M151.756096,22.0081339 C152.979203,22.0081339 154.167251,22.1865268 154.913068,22.4203661 L154.913068,24.8704554 C153.866853,24.2621518 152.836574,23.7446518 151.473227,23.7446518 C150.389562,23.7446518 150.320239,24.1729554 150.320239,24.4943839 C150.320239,26.1232232 155.763267,26.1392946 155.763267,29.0546518 C155.763267,30.9502768 154.008685,32.1484018 151.082789,32.1484018 C149.770438,32.1484018 148.529004,31.8808125 147.676414,31.5778661 L147.676414,29.2338482 C149.681992,30.1812589 150.744143,30.4858125 151.668446,30.4858125 C152.413466,30.4858125 152.96247,30.1450982 152.96247,29.5014375 C152.96247,27.6596518 147.535378,27.8380446 147.535378,24.7097411 C147.535378,22.9917054 149.238964,22.0081339 151.756096,22.0081339" id="Fill-28" fill="#1D1D1B"></path>
                    <path d="M113.11761,12.7030982 C113.735139,12.6211339 114.424382,12.5624732 115.12,12.5624732 C115.155857,13.2479196 115.163825,13.9639018 115.163825,14.6115804 C115.163825,15.1435446 115.143108,16.9371161 115.043506,17.8973839 L117.001275,17.8973839 C116.887331,16.9371161 116.875378,15.1435446 116.875378,14.6115804 C116.875378,14.2146161 116.887331,13.2197946 116.934343,12.5624732 C117.551076,12.5624732 118.306454,12.6114911 118.90247,12.7127411 L118.90247,11.6431875 L113.11761,11.6431875 L113.11761,12.7030982 Z M125.791713,11.6431875 L123.880159,11.6431875 C123.927968,12.2378304 123.947092,13.4793482 123.958247,14.2146161 C123.620398,14.2266696 123.272191,14.2491696 122.831554,14.2491696 C122.494502,14.2491696 122.057052,14.2266696 121.727968,14.2057768 C121.727968,13.4608661 121.763825,12.2378304 121.797291,11.6431875 L119.883347,11.6431875 C119.93992,12.3495268 119.974183,14.0097054 119.974183,14.6236339 C119.974183,15.1547946 119.974183,16.9523839 119.863426,17.8973839 L121.818805,17.8973839 C121.751873,17.2047054 121.718406,16.2492589 121.718406,15.1339018 C122.143904,15.1242589 122.53992,15.1114018 122.831554,15.1114018 C123.22757,15.1114018 123.611633,15.1242589 123.969402,15.1339018 C123.969402,16.1030089 123.927968,17.2746161 123.880159,17.8973839 L125.817211,17.8973839 C125.724781,16.9371161 125.724781,15.1547946 125.724781,14.6236339 C125.724781,13.9960446 125.747888,12.3495268 125.791713,11.6431875 L125.791713,11.6431875 Z M130.546295,16.9877411 L129.264223,16.9877411 C129.231554,16.4541696 129.231554,15.7606875 129.231554,15.1837232 L131.325578,15.2142589 L131.325578,14.1784554 L129.240319,14.2355089 C129.240319,13.7710446 129.240319,13.0904196 129.264223,12.5889911 L130.55745,12.5889911 C131.145498,12.5889911 131.706454,12.5986339 132.379761,12.6805982 L132.379761,11.6431875 L127.406056,11.6431875 C127.452271,12.3495268 127.485737,14.0322054 127.485737,14.6236339 C127.485737,15.1837232 127.476972,17.0464018 127.393307,17.8973839 L132.549482,17.8973839 L132.549482,16.8832768 C132.088924,16.9523839 131.074582,16.9877411 130.546295,16.9877411 L130.546295,16.9877411 Z M128.440319,7.65425893 L128.440319,6.6763125 L126.437928,6.72050893 C126.425179,6.56220536 126.425179,6.37095536 126.425179,6.15238393 C126.425179,5.76827679 126.437928,5.32390179 126.459442,5.01613393 C126.641912,5.00649107 127.347092,5.00649107 127.496096,5.00649107 C128.022789,5.00649107 128.676175,5.00649107 129.384542,5.0844375 L129.384542,4.05908036 L124.623586,4.05908036 C124.670598,4.7638125 124.692908,6.45050893 124.692908,7.04113393 C124.692908,7.57309821 124.692908,9.35783036 124.601275,10.3156875 L126.550279,10.3156875 C126.449084,9.63586607 126.449084,8.53979464 126.437928,7.65425893 L128.440319,7.65425893 Z M120.106454,4.71800893 C121.018805,4.71800893 121.59251,5.58586607 121.59251,7.20024107 C121.59251,8.80175893 121.018805,9.63586607 120.106454,9.63586607 C119.173386,9.63586607 118.585339,8.80175893 118.585339,7.20024107 C118.585339,5.58586607 119.173386,4.71800893 120.106454,4.71800893 L120.106454,4.71800893 Z M120.106454,10.4506875 C121.989323,10.4506875 123.416414,9.1569375 123.416414,7.20024107 C123.416414,5.22345536 121.989323,3.92408036 120.106454,3.92408036 C118.206056,3.92408036 116.786932,5.22345536 116.786932,7.20024107 C116.786932,9.1569375 118.206056,10.4506875 120.106454,10.4506875 L120.106454,10.4506875 Z" id="Fill-30" fill="#1D1D1B"></path>
                    <path d="M187.513068,10.2284196 C187.513068,11.4835982 187.468446,15.7931518 187.268446,17.8028839 L191.273227,17.8028839 C191.045339,15.7931518 191.045339,11.4835982 191.045339,10.2284196 C191.045339,9.21591964 191.065259,7.10734821 191.130598,5.35475893 C193.317052,5.39815179 193.908287,5.43591964 195.811076,5.64484821 L195.811076,3.35466964 L182.751315,3.35466964 L182.751315,5.64484821 C184.653307,5.43591964 185.246135,5.39815179 187.409482,5.35475893 C187.45251,7.10734821 187.513068,9.21591964 187.513068,10.2284196" id="Fill-32" fill="#1D1D1B"></path>
                    <path d="M178.724781,14.2678929 C178.724781,15.3872679 177.638725,15.8203929 176.206853,15.8203929 C174.413227,15.8203929 172.041116,15.11325 170.650677,14.1899464 L170.650677,17.307 C171.774183,17.6967321 173.473785,18.0478929 175.413227,18.0478929 C179.622789,18.0478929 182.113625,16.41825 182.113625,13.5920893 C182.113625,9.00851786 173.818805,9.31467857 173.818805,6.69583929 C173.818805,5.78780357 174.779761,5.43985714 176.045896,5.43985714 C177.68255,5.43985714 179.785339,6.06101786 180.850677,6.84208929 L180.850677,3.66396429 C179.82757,3.37548214 178.21243,3.10708929 176.456255,3.10708929 C172.836335,3.10708929 170.428367,4.50932143 170.428367,7.047 C170.428367,11.856375 178.724781,11.44575 178.724781,14.2678929" id="Fill-34" fill="#1D1D1B"></path>
                    <path d="M168.565418,17.8027232 L168.565418,15.7158482 C165.888924,15.8781696 163.211633,15.8974554 160.513625,15.9416518 C160.452271,14.4582589 160.433147,12.6405804 160.413227,11.3805804 L165.665817,11.5043304 L165.665817,9.31620536 L160.433147,9.4415625 C160.433147,8.30852679 160.452271,6.67647321 160.494502,5.3128125 C161.250677,5.29352679 161.684143,5.27504464 162.21243,5.27504464 C164.214821,5.27504464 166.195697,5.23245536 168.178167,5.4590625 L168.178167,3.35450893 L156.697689,3.35450893 C156.801275,5.02433036 156.880159,8.8453125 156.880159,10.2435268 C156.880159,11.5043304 156.861036,15.7937946 156.674582,17.8027232 L168.565418,17.8027232 Z" id="Fill-36" fill="#1D1D1B"></path>
                    <path d="M154.874821,3.35450893 L151.729004,3.35450893 C151.587968,4.73745536 150.012669,9.7509375 148.662869,13.7744196 C147.603904,10.4524554 146.639761,6.84200893 145.701116,3.35450893 L143.227012,3.35450893 C142.695538,5.68245536 141.065259,10.7827232 140.021434,13.4457589 C139.305896,10.9691518 138.242151,7.40049107 137.387968,3.35450893 L133.70749,3.35450893 C135.219044,8.16147321 136.709084,13.0712946 138.181594,17.8027232 L141.003108,17.8027232 C141.943347,15.1605804 143.390359,11.0720089 144.026215,9.4415625 C144.557689,11.1933482 146.109084,15.9263839 146.639761,17.8027232 L149.746534,17.8027232 C151.465259,12.9933482 153.179203,8.16147321 154.874821,3.35450893" id="Fill-38" fill="#1D1D1B"></path>
                    <path d="M86.6948207,17.8027232 C86.5521912,16.6841518 86.5131474,14.1464732 86.5131474,12.3721875 C86.5131474,10.4122768 86.5322709,9.31620536 86.5322709,7.1071875 L86.5521912,7.1071875 C86.6533865,7.46075893 86.7976096,7.93727679 87.310757,8.69745536 L93.438247,17.8027232 L96.1179283,17.8027232 C95.8932271,15.7937946 95.8701195,11.5043304 95.8701195,10.2282589 C95.8701195,8.82040179 95.9537849,5.00263393 96.0964143,3.35450893 L92.7219124,3.35450893 C92.9482072,4.67638393 93.1330677,8.34790179 93.1330677,10.9289732 C93.1330677,11.4834375 93.1330677,12.0234375 93.110757,12.4332589 L93.0900398,12.4332589 C92.92749,11.8972768 92.7219124,11.5879018 91.7410359,10.1422768 L87.1649402,3.35450893 L83.4055777,3.35450893 C83.5059761,5.00263393 83.5904382,8.82040179 83.5904382,10.2282589 C83.5904382,11.5043304 83.5665339,15.7937946 83.3633466,17.8027232 L86.6948207,17.8027232 Z" id="Fill-40" fill="#1D1D1B"></path>
                    <path d="M73.6345817,12.5379643 C72.9612749,12.5379643 72.1198406,12.5170714 71.5086853,12.4961786 C72.2616733,10.6592143 72.9811952,9.00867857 73.6345817,7.60483929 L75.6784064,12.4961786 C74.981992,12.5170714 74.2871713,12.5379643 73.6345817,12.5379643 M75.0807968,3.34832143 L72.3206375,3.34832143 C71.5668526,5.47778571 66.7636653,16.0061786 65.9485259,17.8029643 L69.3803984,17.8029643 C69.7062948,16.725375 70.0744223,15.6068036 70.5254183,14.3958214 C71.4632669,14.3765357 72.2831873,14.3540357 73.3636653,14.3540357 C74.5294024,14.3540357 75.3668526,14.3765357 76.1867729,14.3958214 C76.7971315,15.9410893 77.2648606,17.1400179 77.4911554,17.8029643 L81.4345817,17.8029643 C80.3341833,15.4075179 75.6345817,4.83814286 75.0807968,3.34832143" id="Fill-42" fill="#1D1D1B"></path>
                    <path d="M57.4921116,16.0857321 C57.0674104,16.0857321 56.3088446,16.0857321 55.8379283,16.0632321 C55.7367331,13.9377857 55.7367331,12.8473393 55.7367331,10.2260893 C55.7367331,8.00019643 55.7781673,6.96680357 55.8610359,5.04707143 C56.1263745,5.002875 56.6570518,4.96108929 57.1263745,4.96108929 C59.9287649,4.96108929 60.9478884,5.54046429 60.9478884,7.06966071 C60.9478884,8.512875 59.2929084,9.04885714 58.1287649,9.04885714 L57.6371315,9.04885714 L56.8387251,11.09475 L57.6371315,11.09475 C59.3550598,11.09475 61.6227888,11.7745714 61.6227888,13.6701964 C61.6227888,15.2821607 60.2530677,16.0857321 57.4921116,16.0857321 M61.5622311,9.89341071 C63.379761,9.42091071 64.583745,8.14082143 64.583745,6.69519643 C64.583745,4.30376786 61.8905179,3.35475 59.3351394,3.35475 L52.0004781,3.35475 C52.1829482,5.25358929 52.2020717,8.24689286 52.2020717,10.2260893 C52.2020717,13.176 52.1638247,15.8976964 51.9789641,17.8029643 L58.6188048,17.8029643 C61.8905179,17.8029643 65.3215936,16.7655536 65.3215936,13.8365357 C65.3215936,12.0019821 64.034741,10.6592143 61.5622311,9.89341071" id="Fill-44" fill="#1D1D1B"></path>
                    <path d="M102.546295,17.8027232 C102.362231,16.0629911 102.33992,12.6630804 102.33992,10.9289732 C103.644303,12.6004018 106.384542,16.2317411 107.328765,17.8027232 L111.841116,17.8027232 C110.982151,16.9364732 106.240319,10.7602232 105.42757,9.64486607 C106.46741,8.59459821 110.387729,4.15647321 111.146295,3.35450893 L107.611633,3.35450893 C106.12,5.37388393 104.893705,7.2140625 102.33992,9.81602679 C102.33992,8.16147321 102.421992,4.88129464 102.524781,3.35450893 L98.6012749,3.35450893 C98.7223904,5.02433036 98.8028685,8.8453125 98.8028685,10.2435268 C98.8028685,11.5043304 98.7853386,15.7937946 98.5805578,17.8027232 L102.546295,17.8027232 Z" id="Fill-46" fill="#1D1D1B"></path>
                </g>
            </g>
        </g>
    </g>
</svg>