<svg width="448" height="425" xmlns="http://www.w3.org/2000/svg">
    <g fill="#FFF" fill-rule="evenodd" opacity=".1">
        <path d="M421.437011 62.1795163C427.226896 77.4804956 413.391586 161.70059 401.962855 184c-.412844-35.221122-3.524278-79.720392-16.84605-99.0631391-34.880287 20.2884811-45.553816 22.0007571-83.495189 44.4196291 22.10226-23.673213 29.765048-33.7577236 43.429178-53.5882706C310.089953 77.5999567 259.269859 81.761186 223 89.7053509c31.577534-16.6747823 94.198926-35.2211221 127.236518-39.6312287C342.563661 39.6013634 280.546431 6.40112536 265.120161 0c49.108302 3.78293567 109.121728 21.9211167 138.222197 39.5117676C414.791228 35.9777092 426.69322 35.8084727 448 33.9269599c-5.427389 9.2184169-5.658984 14.5344371-26.562989 28.2525564z"/>
        <path d="M246.059665 401.947726c-6.206945 1.231574-14.712385 1.807632-23.784853 1.450078C204.879163 413.478829 181.529707 420.878202 163.759414 425c10.601423-6.594877 19.825774-13.517512 30.751214-23.18139-10.92544-2.264506-21.050963-5.432829-31.510628-10.706744 17.041255 0 30.994226-1.807632 48.460753-6.604809 10.176151-11.173549 18.063933-20.74804 27.227532-32.934658.394895 8.541558.820167 14.947726 1.528953 22.535808C257.005356 366.321485 269.510377 358.932044 284 349c-13.608703 13.537376-25.506192 24.790382-41.879163 37.225301 1.326443 6.723993 2.32887 10.567694 3.938828 15.722425z"/>
        <path d="M134.382342 240.040617c-8.213927-19.475075-20.106485-58.46481-20.106485-58.46481C91.468351 193.559708 39 242 39 242c28.8344126-56.713241 58.122355-82.521675 58.122355-82.521675-10.0784385-10.024518-36.4940259-15.021933-55.8143926-15.863082 10.0280464-4.017724 35.7582999-8.728159 55.5321963-9.618788 19.7940533-.544273 31.7571593.554169 31.7571593.554169C146.254743 120.874529 173.043232 109.345839 182.275082 108c-6.248632 7.966177-13.484951 22.81988-15.450246 29.707407C218.527225 144.594934 260 170.670556 260 170.670556c-45.201797-7.867218-69.027225-6.887527-85.898532-5.403146-16.750364 1.553652-20.207269 3.493243-20.207269 3.493243-12.184832 26.233956-19.511857 71.279964-19.511857 71.279964z"/>
        <path d="M75.9406714 411c-14.8384075-14.600052-23.9812647-27.396276-32.824356-46.3016C26.6491803 357.034618 14.7484778 350.098348 0 341.119066c10.5217799-4.743771 19.5747073-7.833202 32.3647151-11.371099-3.9868853-22.423288-2.8177986-42.564385.2797814-70.747967 5.7654957 26.589038 10.9114754 45.69368 22.2526151 65.495935 13.9291179-2.630999 25.8597971-4.45476 42.0171741-6.866509-8.7831382 13.035405-14.1689305 23.170731-18.8952381 36.186205C93.7967213 368.505376 108.115535 377.086022 128 384.430894c-20.893677-.637818-36.6313817-3.448203-55.0270101-8.799895-1.4288837 13.065303-.5096019 22.93155 2.9676815 35.369001z"/>
    </g>
</svg>