<?xml version="1.0" encoding="utf-8"?>
<!-- Generator: Adobe Illustrator 25.2.1, SVG Export Plug-In . SVG Version: 6.00 Build 0)  -->
<svg version="1.1" id="Layer_1" xmlns="http://www.w3.org/2000/svg" xmlns:xlink="http://www.w3.org/1999/xlink" x="0px" y="0px"
	 viewBox="0 0 270 243" style="enable-background:new 0 0 270 243;" xml:space="preserve">
<style type="text/css">
	.st0{clip-path:url(#SVGID_2_);fill:#DFE4E5;}
	.st1{clip-path:url(#SVGID_2_);fill:#A6ACAD;}
	.st2{opacity:0.1;}
	.st3{fill:#008855;}
	.st4{opacity:0.25;fill:#008855;}
	.st5{fill:none;stroke:#FCFCFC;stroke-width:0.9;stroke-linecap:round;stroke-linejoin:round;stroke-miterlimit:10;}
	.st6{clip-path:url(#SVGID_4_);fill:#004B2E;}
	.st7{fill:none;stroke:#00B16E;stroke-width:0.9;stroke-linecap:round;stroke-linejoin:round;stroke-miterlimit:10;}
	.st8{opacity:0.25;clip-path:url(#SVGID_6_);fill:#004B2E;}
	.st9{fill:#FFFFFF;}
	.st10{fill:none;stroke:#004B2E;stroke-width:0.9;stroke-linecap:round;stroke-linejoin:round;stroke-miterlimit:10;}
	.st11{fill:#004B2E;}
</style>
<g>
	<g>
		<defs>
			<circle id="SVGID_1_" cx="115.1" cy="131.9" r="55.1"/>
		</defs>
		<use xlink:href="#SVGID_1_"  style="overflow:visible;opacity:0.1;fill:#DFE4E5;"/>
		<clipPath id="SVGID_2_">
			<use xlink:href="#SVGID_1_"  style="overflow:visible;opacity:0.1;"/>
		</clipPath>
		<circle class="st0" cx="115.1" cy="131.9" r="55.1"/>
		<path class="st1" d="M104.3,76.6c0.2,1,0.8,1.7,1.7,2.1c0.8,0.4,1.8,0.5,2.5,1.1c0.9,0.7,1.2,2.1,2.2,2.8c1.2,0.9,3,0.5,4,1.4
			c0.7,0.6,0.8,1.5,1.2,2.4c0.3,0.8,1,1.7,1.9,1.6c0.9-0.1,1.4-1,1.9-1.9c0.8-1.5,2-2.9,3.4-4c1-0.7,2.1-1.3,3-2.3
			c0.8-0.9,1.6-2.8,1-3.9C126.9,76,110.6,74.9,104.3,76.6z"/>
		<path class="st1" d="M164.1,103.6c1.3,5.3-6,4.4-7.3,3.7c-1.3-0.7-2.5-1.8-4-1.9c-2.1-0.1-3.8,1.9-5.8,2.5
			c-1.7,0.5-3.6-0.1-4.8-1.4c-0.1-0.2-0.3-0.3-0.3-0.6c-0.1-0.6,0.6-0.9,1.2-1.2c1-0.5,2-1.5,1.7-2.6c-0.1-0.4-0.3-0.7-0.3-1.1
			c-0.1-0.8,0.5-1.5,0.8-2.3c0.5-1.2,0.1-2.5-0.4-3.7s-1.2-2.3-1.4-3.5c-1.2-5.5,2.4-7,3.4-7.7C146.9,84,161.4,93.1,164.1,103.6z"/>
		<path class="st1" d="M166.2,153.6c7.8-23.2,2.2-38.5,2.2-38.5c-2.4,0-8.6-0.7-10.9-1.2c-2.7-0.6-5.6-0.5-8.2,0.3
			c-0.6,0.2-1.2,0.4-1.6,0.8c-1.3,1.3-0.2,3.6-0.7,5.4c-0.3,1.4-1.6,2.6-1.5,4c0.1,1,0.8,1.8,0.9,2.8c0.2,1.8-1.8,3.8-0.8,5.3
			c0.3,0.4,0.7,0.7,1,1.1c0.3,0.6,0.1,1.4,0.2,2.1c0.3,1.9,2.6,2.5,4.5,2.6c1.3,0,2.5,0,3.8-0.2c1.5,1,2,3.2,1.6,4.9
			c-0.1,0.6-0.3,1.1-0.3,1.7c0,0.4,0.2,0.8,0.4,1.2c0.5,1.6,0.4,3.3,0.5,4.9c0.3,2.9,1.8,5.7,4,7.5l1.7,1.5L166.2,153.6"/>
		<path class="st1" d="M104.1,191.7c-1.3-2.9,0.9-8.3-0.5-11.2c-0.4-0.8-0.9-1.4-1.2-2.2c-0.3-0.8-0.3-1.7-0.5-2.5
			c-1.2-4-7.2-4-9.8-7.2c-1.5-1.9-1.6-4.8-0.5-7c1-2.2,3-3.9,5-5.3c0.6-0.4,1.2-0.8,1.3-1.4c0.1-0.5-0.1-0.9-0.3-1.3
			c-1.4-2.3-4.7-2.3-7.1-3.6c-1.1-0.5-2-1.3-3.1-1.9c-2.6-1.2-5.5-1.4-8.1-0.1c-1.1,0.6-2.7,0.2-3.4-0.7c-0.7-0.8-1-1.9-1.5-2.8
			c-1.6-3.6-4.5-6.5-8-8.2c-0.3-0.2-0.7-0.3-1.1,0c-0.2,0.2-0.3,0.6-0.2,0.9c0.7,2.3,0.6,3.8,1.3,6.1c0.2,0.6-0.1,1.4-0.6,1.7
			c-0.7,0.4-0.5,0-0.7-0.7c-0.9-2.5-1.8-5.2-2.7-7.8c-0.3-0.9-0.3-1.9-0.1-2.8c0.2-0.7,0.1-1.5,0.1-2.3c-0.1-1.8-0.2-3.6-0.3-5.5
			c0-0.7-0.1-1.3-0.4-1.9c-0.3-0.7-3.7-2.2-3.6-2.9c0.6-3.5,3.7-11.3,3.7-11.3c8.9-17.1,19.4-24.7,19.4-24.7
			c0.9,3.6,1.8,9.4-0.8,12.1c0.7,1.6,2.4,5,3.8,5.9c1.5,0.9,3.5,0.8,4.7-0.4c0.8-0.8,1.2-1.8,1.6-2.9c2-4.7,11-4.5,13.2-4
			c2.2,0.5,4.1,1.8,6.1,2.8c2.9,1.4,6.1,2.2,9.4,2.4c1.2,1.7-0.2,4.2-2.1,5.1c-1.9,0.9-4.1,0.8-6.1,1.3c-2.3,0.6-4.7,2.6-3.8,5.1
			c0.2,0.4,0.3,0.9,0.2,1.3c-0.1,2.2-2.3,1.7-3.5,2.7c-0.8,0.6-1,1.7-1,2.8c0,2.6,1,5.1,1.5,7.7c0.4,2.6,0.2,5.6-1.8,7.3
			c-4.9-4.6-12.3-3.4-18.3-0.5c-2.7,1.3-2.5,5.2-1.1,7.8c0.8,1.5,2,2.8,3.6,3.3c2.6,0.7,5.1-1.1,7.1-2.8c2.2,0.2-1.2,3.9-0.1,5.4
			c1.1,1.4,3.1,1.6,4.7,2.3c1,0.5,2,1.2,3,1.7c4.7,2.3,10.6,0.1,15.4,2.3c3.9,1.8,7.8,8.5,11.3,6.1c2.4-1.7,6.1-1.2,8,1.1
			c1.4,1.6,1.8,3.9,1.5,6c-0.3,2.1-1.2,4-2.2,5.9c-0.8,1.5-1.9,3-3.5,3.7c-0.8,0.3-1.8,0.4-2.5,0.9c-0.8,0.6-1.2,1.6-1.8,2.5
			c-1,1.5-2.5,2.6-3.8,3.8c-2,1.9-3.8,4.9-4.7,7.5c0,0-10.7,1.2-14.5,0.7"/>
	</g>
	<g>
		<path class="st2" d="M175,138.6c-3.8-0.3-88.9-6.5-88.9-6.5s-7.8-0.7-10.2,4.3c0,0-14,2.4-14.2,7.3s13.7,8.6,13.7,8.6
			s3.8,1.7,27.7,3l0,0.4c-0.1,1.4,1,2.7,2.4,2.8l8.8,0.6c0.8,0.1,1.5-0.2,2.1-0.8c0.4-0.4,0.7-1,0.7-1.6l0-0.6
			c13.8,0.8,22.9,1.3,26.4,1.5c1.1,0.1,2.2,0.1,3.3,0c3-0.2,9.7-0.5,17.1-1.2"/>
	</g>
	<g>
		<g>
			<path class="st3" d="M187.5,132.6l22.8-20.1l-6.2-0.4l-23,20.3c0,0-3,2.9-6.8,2.6c-3.8-0.3-88.9-6.5-88.9-6.5s-7.8-0.7-10.2,4.3
				c0,0-14,2.4-14.2,7.3c-0.2,4.9,13.7,8.6,13.7,8.6s3.9,1.8,29.5,3.1c20.7,1.2,34.1,2,38.5,2.3c1.1,0.1,2.2,0.1,3.3,0
				c6.5-0.3,30-1.8,41.2-4.8c13.1-3.6,22.1-7.1,22.1-7.1l-3.1-5.5l0-0.1l-25.7-1.3C184.4,135.5,187.5,132.6,187.5,132.6z"/>
			<path class="st3" d="M211.5,112.6l-1.2-0.1l-22.8,20.1c0,0-3,2.9-6.8,2.6l25.7,1.3l7.2-20.9C214.1,114.3,213,112.7,211.5,112.6z"
				/>
			<path class="st4" d="M211.5,112.6l-1.2-0.1l-22.8,20.1c0,0-3,2.9-6.8,2.6l25.7,1.3l7.2-20.9C214.1,114.3,213,112.7,211.5,112.6z"
				/>
		</g>
		<line class="st5" x1="61.3" y1="140.5" x2="190.4" y2="149.3"/>
		<path class="st3" d="M210.2,142.5l-13.6-0.9l0.2-3l13.6,0.9c0.8,0.1,1.5,0.8,1.4,1.6l0,0C211.7,141.9,211,142.5,210.2,142.5z"/>
		<g>
			<defs>
				<path id="SVGID_3_" d="M75.2,132.9c0,0-14,2.4-14.2,7.3c-0.2,4.9,13.7,8.6,13.7,8.6s3.9,1.8,29.5,3.1c20.7,1.2,34.1,2,38.5,2.3
					c1.1,0.1,2.2,0.1,3.3,0c6.5-0.3,30-1.8,41.2-4.8c13.1-3.6,22.1-7.1,22.1-7.1l-3.1-5.5l7.3-21c0.5-1.5-0.5-3-2.1-3.1l-7.4-0.5
					l-23,20.3c0,0-3,2.9-6.8,2.6s-88.9-6.5-88.9-6.5S77.5,127.9,75.2,132.9z"/>
			</defs>
			<clipPath id="SVGID_4_">
				<use xlink:href="#SVGID_3_"  style="overflow:visible;"/>
			</clipPath>
			<polygon class="st6" points="80.6,133.2 74.4,132.8 76.6,130.6 82.8,131 			"/>
		</g>
		<line class="st5" x1="175.6" y1="134.8" x2="211.5" y2="137.3"/>
		<line class="st7" x1="194.6" y1="141.4" x2="212.7" y2="142.6"/>
		<line class="st7" x1="199.9" y1="143.4" x2="218" y2="144.6"/>
		<g>
			<defs>
				
					<rect id="SVGID_5_" x="101.8" y="146.7" transform="matrix(0.9977 6.845197e-02 -6.845197e-02 0.9977 10.4894 -7.1555)" width="15.8" height="5.6"/>
			</defs>
			<clipPath id="SVGID_6_">
				<use xlink:href="#SVGID_5_"  style="overflow:visible;"/>
			</clipPath>
			<path class="st8" d="M116.2,154.9L116.2,154.9c-0.5,0.6-1.3,0.8-2.1,0.8l-8.8-0.6c-1.4-0.1-2.5-1.3-2.4-2.8l0.1-1.8
				c0.1-1.4,1.4-2.5,2.8-2.4l8.6,0.7c0.8,0.1,1.6,0.5,2,1.2l0.1,0.2c0.3,0.5,0.4,1,0.4,1.5l-0.1,1.5
				C116.9,153.8,116.6,154.4,116.2,154.9z"/>
		</g>
		<path class="st3" d="M115.7,154.8L115.7,154.8c-0.5,0.6-1.3,0.8-2.1,0.8l-8.8-0.6c-1.4-0.1-2.5-1.3-2.4-2.8l0.1-1.8
			c0.1-1.4,1.4-2.5,2.8-2.4l8.6,0.7c0.8,0.1,1.6,0.5,2,1.2l0.1,0.2c0.3,0.5,0.4,1,0.4,1.5l-0.1,1.5
			C116.4,153.8,116.1,154.4,115.7,154.8z"/>
		
			<rect x="110.9" y="148.4" transform="matrix(0.9977 6.845197e-02 -6.845197e-02 0.9977 10.6661 -7.2938)" class="st9" width="1.7" height="7.2"/>
		
			<rect x="106.7" y="148.1" transform="matrix(0.9977 6.845197e-02 -6.845197e-02 0.9977 10.6362 -7.0043)" class="st9" width="1.7" height="7.2"/>
		<polyline class="st10" points="96.2,147.2 149.5,150.7 163.2,143.1 		"/>
		<path class="st11" d="M97.4,136.8l-0.2,0c-0.8-0.1-1.4-0.8-1.4-1.6l0.1-1.1c0.1-0.9,0.8-1.5,1.6-1.4h0c0.9,0.1,1.5,0.8,1.4,1.6
			l-0.1,1.1C98.9,136.2,98.2,136.8,97.4,136.8z"/>
		<path class="st11" d="M103.5,137.2l-0.2,0c-0.8-0.1-1.4-0.8-1.4-1.6l0.1-1.1c0.1-0.9,0.8-1.5,1.6-1.4l0,0c0.9,0.1,1.5,0.8,1.4,1.6
			l-0.1,1.1C105,136.6,104.3,137.2,103.5,137.2z"/>
		<path class="st11" d="M109.5,137.6l-0.2,0c-0.8-0.1-1.4-0.8-1.4-1.6l0.1-1.1c0.1-0.9,0.8-1.5,1.6-1.4l0,0c0.9,0.1,1.5,0.8,1.4,1.6
			l-0.1,1.1C111,137,110.3,137.6,109.5,137.6z"/>
		<path class="st11" d="M115.6,138l-0.2,0c-0.8-0.1-1.4-0.8-1.4-1.6l0.1-1.1c0.1-0.9,0.8-1.5,1.6-1.4l0,0c0.9,0.1,1.5,0.8,1.4,1.6
			l-0.1,1.1C117.1,137.5,116.4,138.1,115.6,138z"/>
		<path class="st11" d="M121.6,138.4l-0.2,0c-0.8-0.1-1.4-0.8-1.4-1.6l0.1-1.1c0.1-0.9,0.8-1.5,1.6-1.4l0,0c0.9,0.1,1.5,0.8,1.4,1.6
			l-0.1,1.1C123.1,137.9,122.4,138.5,121.6,138.4z"/>
		<path class="st11" d="M127.7,138.8l-0.2,0c-0.8-0.1-1.4-0.8-1.4-1.6l0.1-1.1c0.1-0.9,0.8-1.5,1.6-1.4h0c0.9,0.1,1.5,0.8,1.4,1.6
			l-0.1,1.1C129.2,138.3,128.5,138.9,127.7,138.8z"/>
		<path class="st11" d="M133.7,139.2l-0.2,0c-0.8-0.1-1.4-0.8-1.4-1.6l0.1-1.1c0.1-0.9,0.8-1.5,1.6-1.4l0,0c0.9,0.1,1.5,0.8,1.4,1.6
			l-0.1,1.1C135.2,138.7,134.5,139.3,133.7,139.2z"/>
		<path class="st11" d="M139.8,139.7l-0.2,0c-0.8-0.1-1.4-0.8-1.4-1.6l0.1-1.1c0.1-0.9,0.8-1.5,1.6-1.4l0,0c0.9,0.1,1.5,0.8,1.4,1.6
			l-0.1,1.1C141.3,139.1,140.6,139.7,139.8,139.7z"/>
		<path class="st11" d="M145.8,140.1l-0.2,0c-0.8-0.1-1.4-0.8-1.4-1.6l0.1-1.1c0.1-0.9,0.8-1.5,1.6-1.4h0c0.9,0.1,1.5,0.8,1.4,1.6
			l-0.1,1.1C147.3,139.5,146.6,140.1,145.8,140.1z"/>
		<path class="st11" d="M151.9,140.5l-0.2,0c-0.8-0.1-1.4-0.8-1.4-1.6l0.1-1.1c0.1-0.9,0.8-1.5,1.6-1.4l0,0c0.9,0.1,1.5,0.8,1.4,1.6
			l-0.1,1.1C153.4,139.9,152.7,140.6,151.9,140.5z"/>
		<path class="st11" d="M157.9,140.9l-0.2,0c-0.8-0.1-1.4-0.8-1.4-1.6l0.1-1.1c0.1-0.9,0.8-1.5,1.6-1.4l0,0c0.9,0.1,1.5,0.8,1.4,1.6
			l-0.1,1.1C159.4,140.4,158.7,141,157.9,140.9z"/>
		<path class="st11" d="M164,141.3l-0.2,0c-0.8-0.1-1.4-0.8-1.4-1.6l0.1-1.1c0.1-0.9,0.8-1.5,1.6-1.4l0,0c0.9,0.1,1.5,0.8,1.4,1.6
			l-0.1,1.1C165.5,140.8,164.8,141.4,164,141.3z"/>
		<path class="st11" d="M170,141.7l-0.2,0c-0.8-0.1-1.4-0.8-1.4-1.6l0.1-1.1c0.1-0.9,0.8-1.5,1.6-1.4l0,0c0.9,0.1,1.5,0.8,1.4,1.6
			l-0.1,1.1C171.5,141.2,170.8,141.8,170,141.7z"/>
		<path class="st11" d="M176.1,142.2l-0.2,0c-0.8-0.1-1.4-0.8-1.4-1.6l0.1-1.1c0.1-0.9,0.8-1.5,1.6-1.4l0,0c0.9,0.1,1.5,0.8,1.4,1.6
			l-0.1,1.1C177.6,141.6,176.9,142.2,176.1,142.2z"/>
		<path class="st11" d="M182.1,142.6l-0.2,0c-0.8-0.1-1.4-0.8-1.4-1.6l0.1-1.1c0.1-0.9,0.8-1.5,1.6-1.4l0,0c0.9,0.1,1.5,0.8,1.4,1.6
			l-0.1,1.1C183.6,142,182.9,142.6,182.1,142.6z"/>
		<path class="st11" d="M188.2,143l-0.2,0c-0.8-0.1-1.4-0.8-1.4-1.6l0.1-1.1c0.1-0.9,0.8-1.5,1.6-1.4h0c0.9,0.1,1.5,0.8,1.4,1.6
			l-0.1,1.1C189.7,142.4,189,143,188.2,143z"/>
	</g>
</g>
</svg>
