<?xml version="1.0" encoding="utf-8"?>
<!-- Generator: Adobe Illustrator 25.2.1, SVG Export Plug-In . SVG Version: 6.00 Build 0)  -->
<svg version="1.1" id="Layer_1" xmlns="http://www.w3.org/2000/svg" xmlns:xlink="http://www.w3.org/1999/xlink" x="0px" y="0px"
	 viewBox="0 0 270 243" style="enable-background:new 0 0 270 243;" xml:space="preserve">
<style type="text/css">
	.st0{fill:none;stroke:#A6ACAD;stroke-width:1.3794;stroke-miterlimit:10;}
	.st1{fill:#A6ACAD;}
	.st2{fill:none;stroke:#F5FCFC;stroke-width:1.0135;stroke-linecap:round;stroke-linejoin:round;stroke-miterlimit:10;}
	.st3{fill:#F5FCFC;}
	.st4{fill:#004B2E;}
	.st5{opacity:0.1;}
	.st6{fill:#008855;}
</style>
<g>
	<path class="st0" d="M76.7,180c0,0,23.3-7.5,18.7,0s-2.4,10.1,11.2,2.1c4.5-2.6,11.9-5.2,11.6-0.5c-0.1,2.5-1.5,4.6,0.3,4.5
		c3.8-0.2,12.1-3.3,14.6-4.9"/>
	<g>
		<g>
			<path class="st1" d="M141.6,153.6l3.8,1.7l3.8,1.7l-3.9,16.9c0,0-4.9-1.8-6.6,1.8l-3,6.6l-1.6-0.7l-1-0.4l-1.6-0.7l3-6.6
				c1.6-3.7-3-6.1-3-6.1L141.6,153.6z"/>
			<line class="st2" x1="133.7" y1="180.9" x2="141" y2="164.8"/>
			<circle class="st3" cx="141.1" cy="164.4" r="1.9"/>
			
				<rect x="140.8" y="151.9" transform="matrix(-0.9119 -0.4104 0.4104 -0.9119 216.4305 354.0782)" class="st4" width="10.9" height="3.8"/>
			
				<rect x="141.5" y="150.3" transform="matrix(-0.9119 -0.4104 0.4104 -0.9119 218.3914 351.4133)" class="st5" width="10.9" height="3.8"/>
			<path class="st6" d="M140.4,149.5l12.9,5.8l39.6-94.2c1-2.4-0.1-5.2-2.5-6.3l0,0c-2.4-1.1-5.3,0-6.4,2.4L140.4,149.5z"/>
			<path class="st5" d="M190.3,54.9L190.3,54.9c-2.4-1.1-5.3,0-6.4,2.4l-43.7,92.4l6.7,3"/>
		</g>
		<path class="st5" d="M141.5,153.8l-10,13.9c0,0,4.6,2.5,3,6.1l-3,6.5l2,1l11.6-25.8L141.5,153.8z"/>
	</g>
</g>
</svg>
