<?xml version="1.0" encoding="utf-8"?>
<!-- Generator: Adobe Illustrator 25.2.1, SVG Export Plug-In . SVG Version: 6.00 Build 0)  -->
<svg version="1.1" id="Layer_1" xmlns="http://www.w3.org/2000/svg" xmlns:xlink="http://www.w3.org/1999/xlink" x="0px" y="0px"
	 viewBox="0 0 270 243" style="enable-background:new 0 0 270 243;" xml:space="preserve">
<style type="text/css">
	.st0{fill:#A6ACAD;}
	.st1{fill:#DFE4E5;}
	.st2{opacity:0.1;enable-background:new    ;}
	.st3{fill:#008855;}
	.st4{fill:#007E4E;}
	.st5{fill:#00B16E;}
	.st6{fill:none;stroke:#FFFFFF;stroke-width:1.176;stroke-linecap:round;stroke-linejoin:round;stroke-miterlimit:10;}
	.st7{opacity:0.1;clip-path:url(#SVGID_2_);}
	.st8{fill:none;stroke:#FFFFFF;stroke-width:1.3389;stroke-linecap:round;stroke-linejoin:round;stroke-miterlimit:10;}
	.st9{fill:#FFFFFF;}
	.st10{opacity:7.000000e-02;enable-background:new    ;}
	.st11{opacity:0.1;clip-path:url(#SVGID_4_);}
	.st12{fill:#1D4A30;}
	.st13{fill:none;stroke:#008855;stroke-width:1.17;stroke-linecap:round;stroke-linejoin:round;stroke-miterlimit:10;}
	.st14{fill:none;stroke:#FFFFFF;stroke-width:1.17;stroke-linecap:round;stroke-linejoin:round;stroke-miterlimit:10;}
</style>
<g>
	<rect x="61.5" y="125.6" class="st0" width="138.9" height="59.7"/>
	<rect x="148.2" y="79.9" class="st1" width="13.9" height="16.3"/>
	<rect x="148.1" y="78.9" class="st2" width="13.9" height="2.3"/>
	<polygon class="st3" points="196.3,94.9 67.3,94.9 58.9,126.8 205.5,126.8 	"/>
	<rect x="77.2" y="110" class="st4" width="7.4" height="2.3"/>
	<rect x="177.5" y="110" class="st4" width="8.2" height="2.3"/>
	<polygon class="st5" points="131.4,73.5 185.7,110 131.5,110 77.2,110 	"/>
	<polygon class="st1" points="177.1,110 131,79.2 84.8,110 84.8,110 84.8,130.2 177.1,130.2 	"/>
	<polygon class="st2" points="84.8,110 84.8,112.3 130.9,82.1 177.1,112.4 177.1,110 131,79.2 	"/>
	<g>
		<circle class="st3" cx="130.7" cy="111.1" r="7.7"/>
		<line class="st6" x1="123.1" y1="111.1" x2="138.5" y2="111.1"/>
	</g>
	<g>
		<g>
			<defs>
				<rect id="SVGID_1_" x="168" y="110.9" width="9.3" height="76.2"/>
			</defs>
			<clipPath id="SVGID_2_">
				<use xlink:href="#SVGID_1_"  style="overflow:visible;"/>
			</clipPath>
			<g class="st7">
				<path d="M185,156.7c0.8-1.2,1.3-2.6,1.3-4.2c0-4.1-3.3-7.4-7.4-7.4c-4.1,0-7.4,3.3-7.4,7.4c0,1.1,0.2,2.1,0.7,3.1
					c-2.1,1.7-3.4,4.3-3.4,7.2c0,5.1,4.1,9.3,9.3,9.3s9.3-4.1,9.3-9.3C187.3,160.4,186.4,158.3,185,156.7z"/>
			</g>
		</g>
	</g>
	<rect x="71.6" y="130.2" class="st1" width="118.8" height="55.2"/>
	<rect x="61.5" y="126.8" class="st2" width="23.3" height="3.4"/>
	<rect x="177.1" y="126.8" class="st2" width="23.3" height="3.4"/>
	<rect x="146.7" y="77.2" class="st3" width="16.9" height="2.8"/>
	<line class="st8" x1="192.7" y1="130.2" x2="67.3" y2="130.2"/>
	<g>
		<g>
			<rect x="81" y="143.7" class="st9" width="29.4" height="18"/>
		</g>
		<g>
			<rect x="151" y="143.7" class="st9" width="29.4" height="18.3"/>
		</g>
	</g>
	<rect x="120.2" y="150.2" class="st3" width="21.5" height="36.3"/>
	<polygon class="st10" points="71.6,186 121.5,186 100.9,162 71.6,130.2 	"/>
	<g>
		<path class="st0" d="M208.3,186.8H54.2c-0.5,0-0.9-0.3-0.9-0.8s0.4-0.8,0.9-0.8h154.1c0.5,0,0.9,0.3,0.9,0.8
			S208.7,186.8,208.3,186.8z"/>
	</g>
	<g>
		<g>
			<defs>
				<rect id="SVGID_3_" x="181.6" y="112.8" width="9" height="73.8"/>
			</defs>
			<clipPath id="SVGID_4_">
				<use xlink:href="#SVGID_3_"  style="overflow:visible;"/>
			</clipPath>
			<g class="st11">
				<path d="M198.1,157.2c0.8-1.2,1.2-2.5,1.2-4c0-4-3.2-7.2-7.2-7.2s-7.2,3.2-7.2,7.2c0,1.1,0.2,2.1,0.7,3c-2,1.6-3.3,4.1-3.3,6.9
					c0,5,4,9,9,9s9-4,9-9C200.3,160.8,199.5,158.7,198.1,157.2z"/>
			</g>
		</g>
	</g>
	<g>
		<g>
			<g>
				<circle class="st3" cx="194.5" cy="163" r="9"/>
			</g>
			<g>
				<circle class="st3" cx="207.7" cy="163" r="9"/>
			</g>
			<g>
				<circle class="st3" cx="195.3" cy="153" r="7.2"/>
			</g>
			<g>
				<circle class="st3" cx="205.9" cy="153" r="7.2"/>
			</g>
			<g>
				<circle class="st3" cx="200.8" cy="143.6" r="7.2"/>
			</g>
		</g>
		<g>
			<path class="st12" d="M200.9,187c-0.4,0-0.8-0.3-0.8-0.8V151c0-0.4,0.3-0.8,0.8-0.8s0.8,0.3,0.8,0.8v35.3
				C201.7,186.7,201.4,187,200.9,187z"/>
		</g>
		<g>
			<path class="st12" d="M201,165.5h-0.1c-0.4-0.1-0.7-0.5-0.6-0.9c0.4-2.4,2.5-6.8,7.3-6.2c0.4,0.1,0.7,0.4,0.7,0.8
				c-0.1,0.4-0.4,0.7-0.8,0.7c-4.5-0.6-5.6,4.8-5.6,5C201.7,165.3,201.4,165.5,201,165.5z"/>
		</g>
		<g>
			<path class="st12" d="M201.1,160.4c-0.2,0-0.3,0-0.5-0.2c-0.3-0.3-0.4-0.7-0.1-1.1l5.1-6.8c0.3-0.3,0.7-0.4,1.1-0.1
				c0.3,0.3,0.4,0.7,0.1,1.1l-5.1,6.8C201.6,160.3,201.3,160.4,201.1,160.4z"/>
		</g>
		<g>
			<path class="st12" d="M201.1,165.5c-0.4,0-0.7-0.3-0.7-0.6c0-0.2-1.1-5.6-5.6-5c-0.4,0.1-0.8-0.2-0.8-0.7
				c-0.1-0.4,0.2-0.8,0.7-0.8c4.8-0.6,6.9,3.8,7.3,6.2c0.1,0.4-0.2,0.8-0.6,0.9C201.2,165.5,201.1,165.5,201.1,165.5z"/>
		</g>
		<g>
			<path class="st12" d="M201,160.4c-0.2,0-0.5-0.1-0.6-0.3l-5.1-6.8c-0.3-0.3-0.2-0.8,0.1-1.1s0.8-0.2,1.1,0.1l5.1,6.8
				c0.3,0.3,0.2,0.8-0.1,1.1C201.3,160.3,201.1,160.4,201,160.4z"/>
		</g>
	</g>
</g>
<line class="st13" x1="79.9" y1="163" x2="111.5" y2="163"/>
<line class="st13" x1="149.9" y1="162.3" x2="181.6" y2="162.3"/>
<line class="st14" x1="138.4" y1="166.9" x2="143.3" y2="166.9"/>
</svg>
