<?xml version="1.0" encoding="utf-8"?>
<!-- Generator: Adobe Illustrator 25.2.1, SVG Export Plug-In . SVG Version: 6.00 Build 0)  -->
<svg version="1.1" id="Layer_1" xmlns="http://www.w3.org/2000/svg" xmlns:xlink="http://www.w3.org/1999/xlink" x="0px" y="0px"
	 viewBox="0 0 270 243" style="enable-background:new 0 0 270 243;" xml:space="preserve">
<style type="text/css">
	.st0{fill:#A6ACAD;}
	.st1{fill:#008855;}
	.st2{fill:none;stroke:#004B2E;stroke-width:1.832;stroke-linecap:round;stroke-linejoin:round;stroke-miterlimit:10;}
	.st3{fill:#FFFFFF;}
	.st4{font-family:'BNPPSansCondensed-Bold';}
	.st5{font-size:16.2432px;}
	.st6{fill:#DFE4E5;}
	.st7{fill:#FFFFFF;stroke:#DFE4E5;stroke-width:1.1678;stroke-miterlimit:10;}
	.st8{fill:none;stroke:#004B2E;stroke-width:1.1903;stroke-linecap:round;stroke-linejoin:round;stroke-miterlimit:10;}
	.st9{fill:none;stroke:#FFFFFF;stroke-width:1.1903;stroke-linecap:round;stroke-linejoin:round;stroke-miterlimit:10;}
	.st10{fill:none;stroke:#FFFFFF;stroke-width:0.9767;stroke-linecap:round;stroke-linejoin:round;stroke-miterlimit:10;}
	.st11{opacity:7.000000e-02;}
	.st12{fill:#00B16E;}
	.st13{opacity:0.1;}
</style>
<g>
	<g>
		<path class="st0" d="M184.9,187H57.4c-0.4,0-0.7-0.3-0.7-0.7c0-0.4,0.3-0.7,0.7-0.7h127.5c0.4,0,0.7,0.3,0.7,0.7
			C185.6,186.7,185.3,187,184.9,187z"/>
	</g>
	<g>
		<path class="st1" d="M217.1,128h-23c-4.5,0-8.2-3.7-8.2-8.2v-0.1c0-4.5,3.7-8.2,8.2-8.2h23c4.5,0,8.2,3.7,8.2,8.2v0.1
			C225.3,124.4,221.6,128,217.1,128z"/>
		<line class="st2" x1="169.9" y1="119.9" x2="190.5" y2="119.9"/>
		<text transform="matrix(1 0 0 1 193.3961 125.6631)" class="st3 st4 st5">SHOP</text>
		<rect x="65.4" y="119.9" class="st6" width="112.8" height="49.6"/>
		<rect x="65.6" y="89.7" class="st7" width="111.9" height="33.4"/>
		<rect x="65.6" y="169.3" class="st0" width="112.6" height="16.5"/>
		<line class="st8" x1="78" y1="114.5" x2="78" y2="92"/>
		<line class="st8" x1="90.8" y1="114.5" x2="90.8" y2="92"/>
		<line class="st8" x1="103.5" y1="114.5" x2="103.5" y2="92"/>
		<line class="st8" x1="116.3" y1="114.5" x2="116.3" y2="92"/>
		<line class="st8" x1="129.1" y1="114.5" x2="129.1" y2="92"/>
		<line class="st8" x1="141.8" y1="114.5" x2="141.8" y2="92"/>
		<line class="st8" x1="154.6" y1="114.5" x2="154.6" y2="92"/>
		<line class="st8" x1="167.4" y1="114.5" x2="167.4" y2="92"/>
		<rect x="112.2" y="151.3" class="st1" width="18.5" height="34.3"/>
		<line class="st9" x1="121.8" y1="185.4" x2="121.8" y2="151.9"/>
		<line class="st10" x1="118.6" y1="169.5" x2="125" y2="169.5"/>
		<polygon class="st11" points="65.8,186.2 128.7,186.2 102.7,155.8 65.8,115.7 		"/>
		<path class="st12" d="M69.4,139L69.4,139c-2.2,0-4-1.8-4-4v-11.9h8.1V135C73.5,137.2,71.7,139,69.4,139z"/>
		<path class="st12" d="M85.6,139L85.6,139c-2.2,0-4-1.8-4-4v-11.9h8.1V135C89.6,137.2,87.8,139,85.6,139z"/>
		<path class="st1" d="M77.5,139L77.5,139c-2.2,0-4-1.8-4-4v-11.9h8.1V135C81.5,137.2,79.7,139,77.5,139z"/>
		<path class="st12" d="M101.7,139L101.7,139c-2.2,0-4-1.8-4-4v-11.9h8.1V135C105.7,137.2,103.9,139,101.7,139z"/>
		<path class="st1" d="M93.6,139L93.6,139c-2.2,0-4-1.8-4-4v-11.9h8.1V135C97.6,137.2,95.8,139,93.6,139z"/>
		<path class="st12" d="M117.8,139L117.8,139c-2.2,0-4-1.8-4-4v-11.9h8.1V135C121.8,137.2,120,139,117.8,139z"/>
		<path class="st1" d="M109.7,139L109.7,139c-2.2,0-4-1.8-4-4v-11.9h8.1V135C113.8,137.2,112,139,109.7,139z"/>
		<path class="st12" d="M133.9,139L133.9,139c-2.2,0-4-1.8-4-4v-11.9h8.1V135C137.9,137.2,136.1,139,133.9,139z"/>
		<path class="st1" d="M125.8,139L125.8,139c-2.2,0-4-1.8-4-4v-11.9h8.1V135C129.8,137.2,128,139,125.8,139z"/>
		<path class="st12" d="M150,139L150,139c-2.2,0-4-1.8-4-4v-11.9h8.1V135C154,137.2,152.2,139,150,139z"/>
		<path class="st1" d="M141.9,139L141.9,139c-2.2,0-4-1.8-4-4v-11.9h8.1V135C146,137.2,144.2,139,141.9,139z"/>
		<path class="st12" d="M166.1,139L166.1,139c-2.2,0-4-1.8-4-4v-11.9h8.1V135C170.1,137.2,168.3,139,166.1,139z"/>
		<path class="st1" d="M158,139L158,139c-2.2,0-4-1.8-4-4v-11.9h8.1V135C162.1,137.2,160.3,139,158,139z"/>
		<path class="st1" d="M174.2,139L174.2,139c-2.2,0-4-1.8-4-4v-11.9h8.1V135C178.2,137.2,176.4,139,174.2,139z"/>
		<rect x="65.4" y="123.8" class="st13" width="112.8" height="2.9"/>
		<rect x="80.6" y="146.6" class="st3" width="16.6" height="27.2"/>
		<rect x="145" y="146.6" class="st3" width="16.6" height="27.2"/>
		<rect x="64.9" y="83.7" class="st1" width="113.3" height="8.5"/>
		<rect x="64.9" y="114.5" class="st0" width="113.3" height="10.8"/>
		<rect x="60" y="75.3" class="st0" width="122" height="8.5"/>
		<rect x="64.9" y="83.8" class="st13" width="113.3" height="2.9"/>
	</g>
</g>
</svg>
