<svg xmlns="http://www.w3.org/2000/svg" xmlns:xlink="http://www.w3.org/1999/xlink" width="24" height="24"
     xmlns:v="https://vecta.io/nano">
    <defs>
        <path d="M7.324 8.627L12 12.945l4.676-4.318a1 1 0 0 1 1.358.001l.173.16a1 1 0 0 1 .055 1.413l-.055.055-5.528 5.115a1 1 0 0 1-1.358 0l-5.528-5.115a1 1 0 0 1-.055-1.413l.055-.055.173-.16a1 1 0 0 1 1.358-.001z"
              id="A"/>
    </defs>
    <use fill="#000" transform="matrix(1 0 0 -1 0 24)" xlink:href="#A" fill-rule="evenodd"/>
</svg>