<svg xmlns="http://www.w3.org/2000/svg" width="32" height="32" fill-rule="evenodd" xmlns:v="https://vecta.io/nano">
    <path d="M27.883 11.04c-.056-1.272-.262-2.147-.557-2.905a5.84 5.84 0 0 0-1.385-2.124 5.91 5.91 0 0 0-2.12-1.38c-.762-.295-1.633-.5-2.905-.557L15.977 4l-4.936.07c-1.272.056-2.147.262-2.905.557a5.84 5.84 0 0 0-2.124 1.385 5.91 5.91 0 0 0-1.38 2.12c-.295.763-.5 1.633-.557 2.905L4 15.977l.07 4.936c.056 1.272.262 2.147.557 2.905.304.805.776 1.525 1.385 2.124a5.91 5.91 0 0 0 2.12 1.38c.763.295 1.633.5 2.905.557l4.936.07 4.936-.07c1.272-.056 2.147-.262 2.905-.557 1.6-.622 2.882-1.895 3.504-3.504.295-.763.5-1.633.557-2.905l.07-4.936-.06-4.936zm-2.157 9.778c-.052 1.17-.248 1.8-.412 2.222-.402 1.043-1.23 1.87-2.274 2.274-.42.164-1.057.36-2.222.412l-4.837.07c-3.195 0-3.58-.014-4.838-.07-1.17-.05-1.8-.248-2.222-.412a3.67 3.67 0 0 1-1.375-.894 3.72 3.72 0 0 1-.894-1.375c-.164-.42-.36-1.057-.412-2.222l-.07-4.838.07-4.837c.05-1.17.248-1.8.412-2.222A3.64 3.64 0 0 1 7.55 7.55c.388-.398.856-.702 1.375-.893.42-.164 1.057-.36 2.222-.412l4.837-.07 4.838.07c1.17.052 1.8.248 2.222.412a3.68 3.68 0 0 1 1.375.893c.398.388.702.856.894 1.376.164.42.36 1.057.412 2.222l.07 4.837-.07 4.833zm-9.75-10.993c-3.396 0-6.152 2.755-6.152 6.152s2.756 6.152 6.152 6.152 6.152-2.755 6.152-6.152-2.755-6.152-6.152-6.152zm0 10.143a3.991 3.991 0 1 1 0-7.981 3.991 3.991 0 1 1 0 7.981h0zm7.83-10.388c0 .793-.643 1.436-1.436 1.436s-1.436-.643-1.436-1.436.643-1.436 1.436-1.436 1.436.643 1.436 1.436h0z"/>
</svg>