<?xml version="1.0" encoding="UTF-8"?>
<svg width="155px" height="48px" viewBox="0 0 155 48" version="1.1" xmlns="http://www.w3.org/2000/svg" xmlns:xlink="http://www.w3.org/1999/xlink">
    <title>atoms/iconography/generic/appstore</title>
    <g id="Iconography-&amp;-Interface-Details" stroke="none" stroke-width="1" fill="none" fill-rule="evenodd">
        <g id="Atoms---Interface-Elements---Mobile" transform="translate(-42.000000, -1209.000000)">
            <g id="Group" transform="translate(42.000000, 1209.000000)">
                <path d="M4,0 L151,0 C153.209139,-4.05812251e-16 155,1.790861 155,4 L155,44 C155,46.209139 153.209139,48 151,48 L4,48 C1.790861,48 2.705415e-16,46.209139 0,44 L0,4 C-2.705415e-16,1.790861 1.790861,4.05812251e-16 4,0 Z" id="Rectangle" fill="#1A1A1A"></path>
                <g id="Icon" transform="translate(16.000000, 9.000000)" fill="#FFFFFF" fill-rule="nonzero">
                    <path d="M19.6417964,15.371411 C19.6089394,11.719752 22.6317834,9.943208 22.7700094,9.860499 C21.0580464,7.3645 18.4045604,7.023467 17.4721014,6.996275 C15.2434904,6.761744 13.0817264,8.329816 11.9464604,8.329816 C10.7885344,8.329816 9.04031537,7.018935 7.15613637,7.057457 C4.73151637,7.094846 2.46325037,8.498633 1.21921637,10.678525 C-1.34816163,15.123284 0.566608366,21.655029 3.02635137,25.247772 C4.25678937,27.007321 5.69456637,28.971943 7.57647937,28.90283 C9.41760437,28.826919 10.1053354,27.729042 12.3271484,27.729042 C14.5285674,27.729042 15.1743774,28.90283 17.0936794,28.858643 C19.0696314,28.826919 20.3136654,27.091163 21.5010494,25.315752 C22.9229644,23.299012 23.4939964,21.312863 23.5166564,21.210893 C23.4702034,21.195031 19.6791854,19.74819 19.6417964,15.371411 Z" id="Shape"></path>
                    <path d="M16.0161964,4.632837 C17.0064384,3.394468 17.6839724,1.709697 17.4958944,-1.00630615e-14 C16.0626494,0.063448 14.2702434,0.991375 13.2380804,2.202552 C12.3248824,3.269838 11.5091224,5.01919 11.7198604,6.664306 C13.3298534,6.784404 14.9829004,5.851945 16.0161964,4.632837 Z" id="Shape"></path>
                </g>
                <text id="Download-on-the" font-family="PublicSans-Thin_Regular, Public Sans" font-size="12" font-weight="normal" line-spacing="16" fill="#FFFFFF">
                    <tspan x="46" y="17">Download on the</tspan>
                </text>
                <text id="AppStore" font-family="PublicSans-Thin_SemiBold, Public Sans" font-size="18" font-weight="500" line-spacing="28" fill="#FFFFFF">
                    <tspan x="46" y="34">AppStore</tspan>
                </text>
            </g>
        </g>
    </g>
</svg>