<?xml version="1.0" encoding="UTF-8"?>
<svg width="12px" height="7px" viewBox="0 0 12 7" version="1.1" xmlns="http://www.w3.org/2000/svg" xmlns:xlink="http://www.w3.org/1999/xlink">
    <title>Combined Shape</title>
    <g id="Forms" stroke="none" stroke-width="1" fill="none" fill-rule="evenodd">
        <g transform="translate(-474.000000, -1206.000000)" fill="currentColor" id="Combined-Shape">
            <path d="M478.283809,1204.17138 L478.365737,1204.24678 L482.765677,1208.88069 C482.937073,1209.0612 483.014443,1209.30324 482.997787,1209.53929 C482.996762,1209.71376 482.942568,1209.88733 482.837275,1210.03303 L482.765677,1210.11931 L478.365737,1214.75322 C478.053305,1215.08226 477.546754,1215.08226 477.234323,1214.75322 C476.947928,1214.45159 476.924062,1213.97818 477.162725,1213.64792 L477.234323,1213.56164 L481.09,1209.5 L477.234323,1205.43836 C476.921892,1205.10931 476.921892,1204.57583 477.234323,1204.24678 C477.520719,1203.94516 477.970228,1203.92002 478.283809,1204.17138 Z" transform="translate(480.000000, 1209.500000) rotate(-270.000000) translate(-480.000000, -1209.500000) "></path>
        </g>
    </g>
</svg>