<?xml version="1.0" encoding="UTF-8"?>
<svg width="164px" height="48px" viewBox="0 0 164 48" version="1.1" xmlns="http://www.w3.org/2000/svg" xmlns:xlink="http://www.w3.org/1999/xlink">
    <title>atoms/iconography/generic/googleplay</title>
    <g id="Iconography-&amp;-Interface-Details" stroke="none" stroke-width="1" fill="none" fill-rule="evenodd">
        <g id="Atoms---Interface-Elements---Mobile" transform="translate(-225.000000, -1209.000000)">
            <g id="atoms/iconography/generic/googleplay" transform="translate(225.000000, 1209.000000)">
                <path d="M4,0 L160,0 C162.209139,-1.61026889e-14 164,1.790861 164,4 L164,44 C164,46.209139 162.209139,48 160,48 L4,48 C1.790861,48 2.705415e-16,46.209139 0,44 L0,4 C-2.705415e-16,1.790861 1.790861,4.05812251e-16 4,0 Z" id="Rectangle" fill="#1A1A1A"></path>
                <g id="Icon" transform="translate(15.000000, 9.000000)" fill="#FFFFFF" stroke="#1A1A1A" stroke-width="0.8">
                    <path d="M0.61662063,0.376931963 C0.612969526,0.380180899 0.609332509,0.383449872 0.60570964,0.386738846 L0.626771619,0.366431016 C0.902317383,0.127665162 1.25520176,0 1.66047705,0 C2.05571736,0 2.50123973,0.121767845 2.97131844,0.379960777 L20.0531838,9.7380452 L25.7748135,12.8724397 C27.4083955,13.7676589 27.4083955,15.233383 25.7748135,16.1297296 L20.0531838,19.2641241 L19.9751768,19.3057318 L2.97131844,28.6210811 C2.26134685,29.0100845 1.60771917,29.0889745 1.09567576,28.906262 C0.922361394,28.8444241 0.765232621,28.7525865 0.627639444,28.6326467 L0.605119609,28.6126066 C0.583369677,28.5928497 0.562128263,28.5723707 0.541409067,28.5511773 C0.201128206,28.2050409 0,27.667233 0,26.9681953 L0,2.03284653 C0,1.33493638 0.201128206,0.796000916 0.541409067,0.44873706 C0.623936929,0.370454127 0.620271736,0.373683026 0.61662063,0.376931963 C0.590840514,0.399872401 0.56576272,0.423811875 0.541409067,0.44873706 L15.1150186,14.5005209 L0.541409067,28.5511773 L20.0531838,9.7380452 L15.1150186,14.5005209 L0.61662063,0.376931963 Z"></path>
                </g>
                <text id="Get-it-on" font-family="PublicSans-Thin_Regular, Public Sans" font-size="12" font-weight="normal" line-spacing="16" fill="#FFFFFF">
                    <tspan x="46" y="17">Get it on</tspan>
                </text>
                <text id="Google-Play" font-family="PublicSans-Thin_SemiBold, Public Sans" font-size="18" font-weight="500" line-spacing="28" fill="#FFFFFF">
                    <tspan x="46" y="34">Google Play</tspan>
                </text>
            </g>
        </g>
    </g>
</svg>