<?xml version="1.0" encoding="UTF-8"?>
<svg width="33px" height="12px" viewBox="0 0 33 12" version="1.1" xmlns="http://www.w3.org/2000/svg" xmlns:xlink="http://www.w3.org/1999/xlink">
    <title>Combined Shape</title>
    <g id="Symbols" stroke="none" stroke-width="1" fill="none" fill-rule="evenodd">
        <g id="molecules/buttons/link-style/link-button-green" transform="translate(-115.000000, -6.000000)" fill="currentColor">
            <path d="M142.544231,6.28305826 L142.636396,6.3636039 L147.586144,11.3133514 C147.768501,11.4957092 147.856245,11.7368531 147.849373,11.9757819 C147.854938,12.1751914 147.794034,12.3769118 147.666689,12.5442314 L147.586144,12.6363961 L142.636396,17.5861436 C142.284924,17.9376154 141.715076,17.9376154 141.363604,17.5861436 C141.041421,17.263961 141.014573,16.7582815 141.283058,16.4055161 L141.363604,16.3133514 L144.777,12.9 L116,12.9 C115.502944,12.9 115.1,12.4970563 115.1,12 C115.1,11.5411788 115.443337,11.1625482 115.887106,11.1070123 L116,11.1 L144.827,11.1 L141.363604,7.6363961 C141.012132,7.28492424 141.012132,6.71507576 141.363604,6.3636039 C141.685786,6.04142136 142.191466,6.01457281 142.544231,6.28305826 Z" id="Combined-Shape"></path>
        </g>
    </g>
</svg>