<svg width="448" height="425" xmlns="http://www.w3.org/2000/svg">
    <g fill="#FFF" opacity=".1">
        <path d="M421.4 62.2c5.8 15.3-8 99.5-19.4 121.8-.4-35.2-3.6-79.7-16.9-99-34.9 20.2-45.5 22-83.5 44.4a381.1 381.1 0 0043.5-53.6c-35 1.8-85.8 6-122.1 14C254.6 73 317.2 54.4 350.2 50c-7.6-10.5-69.7-43.7-85-50.1 49 3.8 109 22 138.1 39.5 11.5-3.5 23.4-3.7 44.7-5.6-5.4 9.2-5.7 14.6-26.6 28.3z"/>
        <path d="M246 402a107 107 0 01-23.7 1.4 227.7 227.7 0 01-58.5 21.6 219.2 219.2 0 0030.7-23.2c-11-2.2-21-5.4-31.5-10.7 17 0 31-1.8 48.5-6.6 10.1-11.2 18-20.7 27.2-33 .4 8.6.8 15 1.5 22.6A283.1 283.1 0 00284 349a393.7 393.7 0 01-41.9 37.2 133 133 0 004 15.7z"/>
        <path d="M134.4 240a830.8 830.8 0 01-20.1-58.4C91.5 193.6 39 242 39 242c28.8-56.7 58.1-82.5 58.1-82.5-10-10-36.5-15-55.8-15.9 10-4 35.8-8.7 55.5-9.6 19.8-.5 31.8.6 31.8.6 17.7-13.7 44.4-25.3 53.7-26.6-6.3 8-13.5 22.8-15.5 29.7 51.7 6.9 93.2 33 93.2 33-45.2-7.9-69-7-85.9-5.4-16.7 1.5-20.2 3.5-20.2 3.5-12.2 26.2-19.5 71.2-19.5 71.2z"/>
        <path d="M76 411A146.9 146.9 0 0143 364.7 407.1 407.1 0 010 341.1c10.5-4.7 19.6-7.8 32.4-11.4-4-22.4-2.9-42.5.2-70.7 5.8 26.6 11 45.7 22.3 65.5 14-2.6 25.9-4.5 42-6.9-8.8 13-14.2 23.2-18.9 36.2a137.8 137.8 0 0050 30.6c-20.9-.6-36.6-3.4-55-8.8-1.5 13.1-.5 23 3 35.4z"/>
    </g>
</svg>